%
M48
M72
T01C0.0197
T02C0.0236
T03C0.0276
T04C0.0315
T05C0.0320
T06C0.0354
T07C0.0394
T08C0.0400
T09C0.0433
T10C0.0440
T11C0.0520
T12C0.0670
T13C0.1102
%
T01
X3183Y2181
X6433Y2431
X7683Y4181
X7933Y4744
X7183Y4931
X5933Y5931
X5058Y6556
X5308Y7056
X8308Y7806
X10182Y7805
X9308Y5556
X10308Y5306
X10558Y4244
X9933Y2681
X2433Y5181
X5933Y9431
X3683Y10056
X6683Y12119
X5933Y12681
X7621Y11994
X8621Y11556
X8183Y10869
X9433Y12681
X9871Y13556
X8871Y14931
X8308Y15306
X6808Y14806
X5933Y14306
X5433Y15494
X5433Y16400
X2683Y14431
X2183Y13338
X9683Y16931
X11433Y11181
T02
X13308Y10306
X16558Y7806
X17683Y6931
X18183Y11681
X7621Y5744
X6683Y5431
X6433Y4459
X8433Y2181
X12183Y1181
T03
X2121Y8744
X2121Y9431
X2121Y10119
T04
X1521Y7369
X3096Y7369
T05
X11433Y6694
X11433Y5294
T06
X10683Y18181
X9683Y18181
X8683Y18181
X5683Y18181
X4683Y18181
X13683Y18181
X14683Y18181
T07
X16683Y17931
X16683Y10931
X10933Y1431
X9933Y1431
X8933Y1431
X7933Y1431
X6933Y1431
X5933Y1431
T08
X3433Y10931
X3433Y11931
X3433Y12931
X3433Y13931
X3433Y14931
X3433Y15931
T09
X17683Y5431
X25683Y5431
T10
X25933Y7181
X22933Y7181
X18933Y7181
X18933Y10181
T11
X20033Y2931
X22033Y2931
X15833Y2931
X13833Y2931
T12
X23933Y2931
X24933Y11931
X24933Y14431
X22433Y14431
X19933Y14431
X19933Y16931
X22433Y16931
X24933Y16931
T13
X25933Y2931
X1933Y17431
M30
