G75*
G70*
%OFA0B0*%
%FSLAX24Y24*%
%IPPOS*%
%LPD*%
%AMOC8*
5,1,8,0,0,1.08239X$1,22.5*
%
%ADD10C,0.0110*%
%ADD11C,0.0080*%
%ADD12R,0.1716X0.0003*%
%ADD13R,0.1740X0.0003*%
%ADD14R,0.1752X0.0003*%
%ADD15R,0.1758X0.0003*%
%ADD16R,0.1770X0.0003*%
%ADD17R,0.1776X0.0003*%
%ADD18R,0.1782X0.0003*%
%ADD19R,0.1788X0.0003*%
%ADD20R,0.1794X0.0003*%
%ADD21R,0.1800X0.0003*%
%ADD22R,0.1779X0.0003*%
%ADD23R,0.1764X0.0003*%
%ADD24R,0.0111X0.0003*%
%ADD25R,0.0114X0.0003*%
%ADD26R,0.0111X0.0003*%
%ADD27R,0.0114X0.0003*%
%ADD28R,0.0006X0.0003*%
%ADD29R,0.0009X0.0003*%
%ADD30R,0.0012X0.0003*%
%ADD31R,0.0015X0.0003*%
%ADD32R,0.0018X0.0003*%
%ADD33R,0.0024X0.0003*%
%ADD34R,0.0027X0.0003*%
%ADD35R,0.0030X0.0003*%
%ADD36R,0.0033X0.0003*%
%ADD37R,0.0039X0.0003*%
%ADD38R,0.0042X0.0003*%
%ADD39R,0.0045X0.0003*%
%ADD40R,0.0048X0.0003*%
%ADD41R,0.0051X0.0003*%
%ADD42R,0.0057X0.0003*%
%ADD43R,0.0060X0.0003*%
%ADD44R,0.0063X0.0003*%
%ADD45R,0.0066X0.0003*%
%ADD46R,0.0072X0.0003*%
%ADD47R,0.0075X0.0003*%
%ADD48R,0.0078X0.0003*%
%ADD49R,0.0081X0.0003*%
%ADD50R,0.0087X0.0003*%
%ADD51R,0.0090X0.0003*%
%ADD52R,0.0093X0.0003*%
%ADD53R,0.0096X0.0003*%
%ADD54R,0.0099X0.0003*%
%ADD55R,0.0102X0.0003*%
%ADD56R,0.0105X0.0003*%
%ADD57R,0.0108X0.0003*%
%ADD58R,0.0120X0.0003*%
%ADD59R,0.0123X0.0003*%
%ADD60R,0.0126X0.0003*%
%ADD61R,0.0129X0.0003*%
%ADD62R,0.0036X0.0003*%
%ADD63R,0.0024X0.0003*%
%ADD64R,0.0021X0.0003*%
%ADD65R,0.0021X0.0003*%
%ADD66R,0.0069X0.0003*%
%ADD67R,0.0078X0.0003*%
%ADD68R,0.0084X0.0003*%
%ADD69R,0.0081X0.0003*%
%ADD70R,0.0084X0.0003*%
%ADD71R,0.0108X0.0003*%
%ADD72R,0.0087X0.0003*%
%ADD73R,0.0054X0.0003*%
%ADD74R,0.0117X0.0003*%
%ADD75R,0.0132X0.0003*%
%ADD76R,0.0138X0.0003*%
%ADD77R,0.0144X0.0003*%
%ADD78R,0.0150X0.0003*%
%ADD79R,0.0153X0.0003*%
%ADD80R,0.0159X0.0003*%
%ADD81R,0.0165X0.0003*%
%ADD82R,0.0168X0.0003*%
%ADD83R,0.0174X0.0003*%
%ADD84R,0.0180X0.0003*%
%ADD85R,0.0183X0.0003*%
%ADD86R,0.0294X0.0003*%
%ADD87R,0.0291X0.0003*%
%ADD88R,0.0294X0.0003*%
%ADD89R,0.0198X0.0003*%
%ADD90R,0.0192X0.0003*%
%ADD91R,0.0189X0.0003*%
%ADD92R,0.0186X0.0003*%
%ADD93R,0.0174X0.0003*%
%ADD94R,0.0171X0.0003*%
%ADD95R,0.0162X0.0003*%
%ADD96R,0.0156X0.0003*%
%ADD97R,0.0147X0.0003*%
%ADD98R,0.0141X0.0003*%
%ADD99R,0.0135X0.0003*%
%ADD100R,0.0054X0.0003*%
%ADD101R,0.0003X0.0003*%
%ADD102R,0.0141X0.0003*%
%ADD103R,0.0138X0.0003*%
%ADD104R,0.0144X0.0003*%
%ADD105R,0.0003X0.0114*%
%ADD106R,0.0222X0.0003*%
%ADD107R,0.0216X0.0003*%
%ADD108R,0.0210X0.0003*%
%ADD109R,0.0204X0.0003*%
%ADD110C,0.0060*%
%ADD111C,0.0070*%
%ADD112C,0.0059*%
D10*
X011574Y015836D02*
X011574Y016287D01*
X011349Y016287D01*
X011273Y016212D01*
X011273Y016061D01*
X011349Y015986D01*
X011574Y015986D01*
X011789Y015986D02*
X011789Y016287D01*
X012089Y016287D02*
X012089Y016061D01*
X012014Y015986D01*
X011789Y015986D01*
X012305Y016061D02*
X012305Y016212D01*
X012380Y016287D01*
X012530Y016287D01*
X012605Y016212D01*
X012605Y016061D01*
X012530Y015986D01*
X012380Y015986D01*
X012305Y016061D01*
X012809Y016287D02*
X012884Y016287D01*
X013035Y016137D01*
X013035Y016287D02*
X013035Y015986D01*
X013250Y015986D02*
X013475Y015986D01*
X013550Y016061D01*
X013550Y016212D01*
X013475Y016287D01*
X013250Y016287D01*
X013250Y015911D01*
X013325Y015836D01*
X013400Y015836D01*
X013766Y015911D02*
X013841Y015836D01*
X013916Y015836D01*
X013991Y015986D02*
X013766Y015986D01*
X013766Y015911D02*
X013766Y016287D01*
X014066Y016287D02*
X014066Y016061D01*
X013991Y015986D01*
X014281Y015986D02*
X014506Y015986D01*
X014581Y016061D01*
X014581Y016212D01*
X014506Y016287D01*
X014281Y016287D01*
X014281Y015911D01*
X014356Y015836D01*
X014431Y015836D01*
X015011Y015986D02*
X015011Y016287D01*
X014861Y016287D02*
X014786Y016287D01*
X014861Y016287D02*
X015011Y016137D01*
X015227Y016137D02*
X015527Y016137D01*
X015527Y016212D02*
X015452Y016287D01*
X015302Y016287D01*
X015227Y016212D01*
X015227Y016137D01*
X015302Y015986D02*
X015452Y015986D01*
X015527Y016061D01*
X015527Y016212D01*
X015742Y016212D02*
X015742Y015986D01*
X015742Y016212D02*
X015817Y016287D01*
X016042Y016287D01*
X016042Y015986D01*
X016258Y016137D02*
X016558Y016137D01*
X016558Y016212D02*
X016483Y016287D01*
X016333Y016287D01*
X016258Y016212D01*
X016258Y016137D01*
X016333Y015986D02*
X016483Y015986D01*
X016558Y016061D01*
X016558Y016212D01*
X016752Y016287D02*
X016902Y016287D01*
X016827Y016362D02*
X016827Y016061D01*
X016752Y015986D01*
X017106Y016287D02*
X017181Y016287D01*
X017331Y016137D01*
X017331Y016287D02*
X017331Y015986D01*
X017547Y015986D02*
X017547Y016212D01*
X017622Y016287D01*
X017772Y016287D01*
X017772Y016137D02*
X017547Y016137D01*
X017547Y015986D02*
X017772Y015986D01*
X017847Y016061D01*
X017772Y016137D01*
X018063Y016212D02*
X018063Y015986D01*
X018213Y015986D02*
X018213Y016212D01*
X018138Y016287D01*
X018063Y016212D01*
X018213Y016212D02*
X018288Y016287D01*
X018363Y016287D01*
X018363Y015986D01*
X018578Y016061D02*
X018653Y016137D01*
X018803Y016137D01*
X018878Y016212D01*
X018803Y016287D01*
X018578Y016287D01*
X018578Y016061D02*
X018653Y015986D01*
X018878Y015986D01*
X016378Y016811D02*
X016303Y016736D01*
X016153Y016736D01*
X016078Y016811D01*
X016078Y016887D01*
X016153Y016962D01*
X016303Y016962D01*
X016378Y017037D01*
X016378Y017112D01*
X016303Y017187D01*
X016153Y017187D01*
X016078Y017112D01*
X015863Y017187D02*
X015863Y016736D01*
X015563Y016736D01*
X015347Y016811D02*
X015272Y016736D01*
X015122Y016736D01*
X015047Y016811D01*
X015047Y016962D01*
X015197Y016962D01*
X015347Y017112D02*
X015272Y017187D01*
X015122Y017187D01*
X015047Y017112D01*
X014831Y017187D02*
X014606Y017187D01*
X014531Y017112D01*
X014531Y016962D01*
X014606Y016887D01*
X014831Y016887D01*
X014831Y016736D02*
X014831Y017187D01*
X014316Y017187D02*
X014241Y017187D01*
X014241Y016736D01*
X014316Y016736D02*
X014166Y016736D01*
X013972Y016811D02*
X013897Y016736D01*
X013672Y016736D01*
X013672Y017037D01*
X013456Y016962D02*
X013456Y016811D01*
X013381Y016736D01*
X013156Y016736D01*
X013156Y016661D02*
X013156Y017037D01*
X013381Y017037D01*
X013456Y016962D01*
X013306Y016586D02*
X013231Y016586D01*
X013156Y016661D01*
X012425Y017037D02*
X012275Y016736D01*
X012125Y017037D01*
X011910Y017037D02*
X011759Y017187D01*
X011759Y016736D01*
X011609Y016736D02*
X011910Y016736D01*
X011394Y016736D02*
X011319Y016736D01*
X011319Y016811D01*
X011394Y016811D01*
X011394Y016736D01*
X011136Y016811D02*
X010836Y017112D01*
X010836Y016811D01*
X010911Y016736D01*
X011061Y016736D01*
X011136Y016811D01*
X011136Y017112D01*
X011061Y017187D01*
X010911Y017187D01*
X010836Y017112D01*
X010758Y016287D02*
X010983Y016287D01*
X011058Y016212D01*
X010983Y016137D01*
X010833Y016137D01*
X010758Y016061D01*
X010833Y015986D01*
X011058Y015986D01*
X010542Y015986D02*
X010467Y015986D01*
X010467Y016061D01*
X010542Y016061D01*
X010542Y015986D01*
X010285Y016061D02*
X010285Y016212D01*
X010210Y016287D01*
X009984Y016287D01*
X009769Y016212D02*
X009769Y016061D01*
X009694Y015986D01*
X009544Y015986D01*
X009469Y016061D01*
X009469Y016212D01*
X009544Y016287D01*
X009694Y016287D01*
X009769Y016212D01*
X009984Y015986D02*
X010210Y015986D01*
X010285Y016061D01*
X009253Y015986D02*
X009253Y016287D01*
X009178Y016287D01*
X009103Y016212D01*
X009028Y016287D01*
X008953Y016212D01*
X008953Y015986D01*
X009103Y015986D02*
X009103Y016212D01*
X013972Y016811D02*
X013972Y017037D01*
X015347Y017112D02*
X015347Y016811D01*
X015713Y016962D02*
X015863Y016962D01*
X015863Y017187D02*
X015563Y017187D01*
D11*
X001562Y002778D02*
X001618Y002721D01*
X001788Y002721D01*
X001788Y003062D01*
X001618Y003062D01*
X001562Y003005D01*
X001562Y002778D01*
X001948Y002721D02*
X002175Y002721D01*
X002175Y003062D01*
X001948Y003062D01*
X002062Y002892D02*
X002175Y002892D01*
X002335Y003062D02*
X002562Y003062D01*
X002448Y003062D02*
X002448Y002721D01*
X002722Y002778D02*
X002778Y002721D01*
X002892Y002721D01*
X002949Y002778D01*
X002949Y003005D01*
X002892Y003062D01*
X002778Y003062D01*
X002722Y003005D01*
X003108Y003062D02*
X003335Y003062D01*
X003335Y002721D01*
X003108Y002721D01*
X003222Y002892D02*
X003335Y002892D01*
X003495Y003062D02*
X003495Y002721D01*
X003722Y003062D01*
X003722Y002721D01*
X003882Y002721D02*
X003882Y003062D01*
X004109Y003062D02*
X003882Y002721D01*
X004109Y002721D02*
X004109Y003062D01*
X004268Y003005D02*
X004325Y003062D01*
X004439Y003062D01*
X004495Y003005D01*
X004495Y002778D01*
X004439Y002721D01*
X004325Y002721D01*
X004268Y002778D01*
X004268Y003005D01*
X004655Y003005D02*
X004712Y003062D01*
X004825Y003062D01*
X004882Y003005D01*
X004882Y002778D01*
X004825Y002721D01*
X004712Y002721D01*
X004655Y002778D01*
X005429Y002778D02*
X005485Y002721D01*
X005599Y002721D01*
X005655Y002778D01*
X005655Y003005D01*
X005599Y003062D01*
X005485Y003062D01*
X005429Y003005D01*
X005815Y002948D02*
X005815Y002721D01*
X005815Y002892D02*
X006042Y002892D01*
X006042Y002948D02*
X005929Y003062D01*
X005815Y002948D01*
X006042Y002948D02*
X006042Y002721D01*
X006202Y002835D02*
X006202Y003062D01*
X006429Y003062D02*
X006429Y002835D01*
X006315Y002721D01*
X006202Y002835D01*
X006589Y002778D02*
X006645Y002721D01*
X006759Y002721D01*
X006815Y002778D01*
X006589Y003005D01*
X006589Y002778D01*
X006815Y002778D02*
X006815Y003005D01*
X006759Y003062D01*
X006645Y003062D01*
X006589Y003005D01*
X006975Y002892D02*
X007202Y002892D01*
X007032Y003062D01*
X007032Y002721D01*
X007362Y002721D02*
X007589Y002721D01*
X007362Y002948D01*
X007362Y003005D01*
X007419Y003062D01*
X007532Y003062D01*
X007589Y003005D01*
X007506Y003409D02*
X007733Y003409D01*
X007733Y003749D01*
X007506Y003749D01*
X007347Y003749D02*
X007176Y003749D01*
X007120Y003692D01*
X007120Y003579D01*
X007176Y003522D01*
X007347Y003522D01*
X007347Y003409D02*
X007347Y003749D01*
X007620Y003579D02*
X007733Y003579D01*
X007893Y003522D02*
X007893Y003749D01*
X008120Y003749D02*
X008120Y003522D01*
X008007Y003409D01*
X007893Y003522D01*
X008280Y003409D02*
X008507Y003409D01*
X008507Y003749D01*
X008280Y003749D01*
X008393Y003579D02*
X008507Y003579D01*
X008667Y003409D02*
X008667Y003749D01*
X008893Y003749D02*
X008667Y003409D01*
X008893Y003409D02*
X008893Y003749D01*
X008893Y003062D02*
X009007Y003062D01*
X008950Y003062D02*
X008950Y002721D01*
X009007Y002721D02*
X008893Y002721D01*
X008635Y002721D02*
X008635Y003062D01*
X008522Y003062D02*
X008749Y003062D01*
X009167Y003062D02*
X009167Y002721D01*
X009280Y002835D01*
X009393Y002721D01*
X009393Y003062D01*
X008362Y003062D02*
X008362Y002721D01*
X008362Y002892D02*
X008135Y002892D01*
X008135Y003062D02*
X008135Y002721D01*
X007233Y003522D02*
X007120Y003409D01*
X006573Y003409D02*
X006573Y003749D01*
X006403Y003749D01*
X006346Y003692D01*
X006346Y003579D01*
X006403Y003522D01*
X006573Y003522D01*
X006187Y003409D02*
X006187Y003749D01*
X005800Y003749D02*
X005800Y003466D01*
X005743Y003409D01*
X005630Y003409D01*
X005573Y003466D01*
X005573Y003749D01*
X005413Y003692D02*
X005413Y003466D01*
X005356Y003409D01*
X005243Y003409D01*
X005186Y003466D01*
X005186Y003579D01*
X005300Y003579D01*
X005413Y003692D02*
X005356Y003749D01*
X005243Y003749D01*
X005186Y003692D01*
X004640Y003749D02*
X004526Y003749D01*
X004583Y003749D02*
X004583Y003409D01*
X004640Y003409D02*
X004526Y003409D01*
X004382Y003409D02*
X004382Y003749D01*
X004155Y003409D01*
X004155Y003749D01*
X003609Y003692D02*
X003609Y003466D01*
X003552Y003409D01*
X003438Y003409D01*
X003382Y003466D01*
X003222Y003466D02*
X003222Y003692D01*
X003165Y003749D01*
X003052Y003749D01*
X002995Y003692D01*
X002995Y003466D01*
X003052Y003409D01*
X003165Y003409D01*
X003222Y003466D01*
X003382Y003692D02*
X003438Y003749D01*
X003552Y003749D01*
X003609Y003692D01*
X002835Y003749D02*
X002835Y003409D01*
X002608Y003409D02*
X002608Y003749D01*
X002722Y003636D01*
X002835Y003749D01*
X002449Y003749D02*
X002449Y003409D01*
X002222Y003409D02*
X002222Y003749D01*
X002335Y003636D01*
X002449Y003749D01*
X002062Y003692D02*
X002062Y003636D01*
X002005Y003579D01*
X001892Y003579D01*
X001835Y003522D01*
X001835Y003466D01*
X001892Y003409D01*
X002005Y003409D01*
X002062Y003466D01*
X002062Y003692D02*
X002005Y003749D01*
X001892Y003749D01*
X001835Y003692D01*
X005960Y003409D02*
X006187Y003409D01*
X010819Y004687D02*
X011046Y004687D01*
X010933Y004687D02*
X010933Y004346D01*
X011206Y004346D02*
X011206Y004687D01*
X011433Y004687D02*
X011206Y004346D01*
X011433Y004346D02*
X011433Y004687D01*
X011593Y004687D02*
X011820Y004687D01*
X011820Y004346D01*
X011593Y004346D01*
X011706Y004517D02*
X011820Y004517D01*
X011979Y004517D02*
X012036Y004460D01*
X012206Y004460D01*
X012093Y004460D02*
X011979Y004346D01*
X011979Y004517D02*
X011979Y004630D01*
X012036Y004687D01*
X012206Y004687D01*
X012206Y004346D01*
X012366Y004346D02*
X012480Y004460D01*
X012423Y004460D02*
X012593Y004460D01*
X012593Y004346D02*
X012593Y004687D01*
X012423Y004687D01*
X012366Y004630D01*
X012366Y004517D01*
X012423Y004460D01*
X012753Y004403D02*
X012753Y004687D01*
X012980Y004687D02*
X012980Y004403D01*
X012923Y004346D01*
X012810Y004346D01*
X012753Y004403D01*
X013140Y004403D02*
X013196Y004346D01*
X013310Y004346D01*
X013366Y004403D01*
X013366Y004630D01*
X013310Y004687D01*
X013196Y004687D01*
X013140Y004630D01*
X013913Y004630D02*
X013913Y004403D01*
X013970Y004346D01*
X014140Y004346D01*
X014140Y004687D01*
X013970Y004687D01*
X013913Y004630D01*
X014300Y004573D02*
X014300Y004346D01*
X014300Y004517D02*
X014526Y004517D01*
X014526Y004573D02*
X014413Y004687D01*
X014300Y004573D01*
X014526Y004573D02*
X014526Y004346D01*
X014686Y004403D02*
X014686Y004630D01*
X014743Y004687D01*
X014856Y004687D01*
X014913Y004630D01*
X014913Y004403D01*
X014856Y004346D01*
X014743Y004346D01*
X014686Y004403D01*
X015073Y004346D02*
X015300Y004346D01*
X015300Y004687D01*
X015846Y004687D02*
X016073Y004346D01*
X016233Y004346D02*
X016233Y004573D01*
X016346Y004687D01*
X016460Y004573D01*
X016460Y004346D01*
X016620Y004346D02*
X016620Y004687D01*
X016733Y004573D01*
X016847Y004687D01*
X016847Y004346D01*
X016460Y004517D02*
X016233Y004517D01*
X016073Y004687D02*
X015846Y004346D01*
X015825Y005221D02*
X015938Y005221D01*
X015995Y005278D01*
X015768Y005505D01*
X015768Y005278D01*
X015825Y005221D01*
X015995Y005278D02*
X015995Y005505D01*
X015938Y005562D01*
X015825Y005562D01*
X015768Y005505D01*
X015608Y005562D02*
X015608Y005335D01*
X015495Y005221D01*
X015381Y005335D01*
X015381Y005562D01*
X014835Y005562D02*
X014835Y005278D01*
X014778Y005221D01*
X014665Y005221D01*
X014608Y005278D01*
X014608Y005562D01*
X014448Y005505D02*
X014448Y005448D01*
X014392Y005392D01*
X014278Y005392D01*
X014221Y005335D01*
X014221Y005278D01*
X014278Y005221D01*
X014392Y005221D01*
X014448Y005278D01*
X014062Y005221D02*
X013835Y005221D01*
X013948Y005392D02*
X014062Y005392D01*
X014062Y005562D02*
X013835Y005562D01*
X014062Y005562D02*
X014062Y005221D01*
X014221Y005505D02*
X014278Y005562D01*
X014392Y005562D01*
X014448Y005505D01*
X013288Y005505D02*
X013288Y005278D01*
X013231Y005221D01*
X013118Y005221D01*
X013061Y005278D01*
X013061Y005505D01*
X013118Y005562D01*
X013231Y005562D01*
X013288Y005505D01*
X012901Y005562D02*
X012675Y005221D01*
X012675Y005562D01*
X012515Y005562D02*
X012515Y005221D01*
X012288Y005221D01*
X012015Y005221D02*
X012015Y005392D01*
X011901Y005505D01*
X011901Y005562D01*
X012015Y005392D02*
X012128Y005505D01*
X012128Y005562D01*
X012901Y005562D02*
X012901Y005221D01*
X016155Y005392D02*
X016382Y005392D01*
X016212Y005562D01*
X016212Y005221D01*
X016542Y005221D02*
X016768Y005221D01*
X016542Y005448D01*
X016542Y005505D01*
X016598Y005562D01*
X016712Y005562D01*
X016768Y005505D01*
X017507Y004687D02*
X017393Y004573D01*
X017393Y004346D01*
X017393Y004517D02*
X017620Y004517D01*
X017620Y004573D02*
X017507Y004687D01*
X017620Y004573D02*
X017620Y004346D01*
X017780Y004403D02*
X017780Y004630D01*
X018007Y004403D01*
X017950Y004346D01*
X017837Y004346D01*
X017780Y004403D01*
X018007Y004403D02*
X018007Y004630D01*
X017950Y004687D01*
X017837Y004687D01*
X017780Y004630D01*
X018167Y004346D02*
X018393Y004346D01*
X018280Y004346D02*
X018280Y004687D01*
X018393Y004573D01*
X018483Y008128D02*
X018710Y008128D01*
X018710Y008468D01*
X018483Y008468D01*
X018596Y008298D02*
X018710Y008298D01*
X018870Y008241D02*
X018983Y008128D01*
X019097Y008241D01*
X019097Y008468D01*
X019256Y008411D02*
X019313Y008468D01*
X019427Y008468D01*
X019483Y008411D01*
X019483Y008184D01*
X019427Y008128D01*
X019313Y008128D01*
X019256Y008184D01*
X019256Y008411D01*
X018870Y008468D02*
X018870Y008241D01*
X018874Y008784D02*
X018874Y009011D01*
X018987Y009124D01*
X019101Y009011D01*
X019101Y008784D01*
X019101Y008954D02*
X018874Y008954D01*
X018714Y008784D02*
X018487Y008784D01*
X018327Y008784D02*
X018100Y008784D01*
X018327Y008784D02*
X018327Y009124D01*
X018714Y009124D02*
X018714Y008784D01*
X017937Y008468D02*
X017710Y008128D01*
X017550Y008128D02*
X017380Y008128D01*
X017323Y008184D01*
X017323Y008241D01*
X017380Y008298D01*
X017550Y008298D01*
X017550Y008468D02*
X017380Y008468D01*
X017323Y008411D01*
X017323Y008354D01*
X017380Y008298D01*
X017163Y008298D02*
X017050Y008298D01*
X017163Y008468D02*
X017163Y008128D01*
X016936Y008128D01*
X016776Y008128D02*
X016550Y008128D01*
X016663Y008298D02*
X016776Y008298D01*
X016776Y008468D02*
X016550Y008468D01*
X016776Y008468D02*
X016776Y008128D01*
X016936Y008468D02*
X017163Y008468D01*
X017110Y008784D02*
X016997Y008784D01*
X016940Y008841D01*
X016940Y009067D01*
X016997Y009124D01*
X017110Y009124D01*
X017167Y009067D01*
X017167Y008841D01*
X017110Y008784D01*
X017327Y008841D02*
X017384Y008784D01*
X017497Y008784D01*
X017554Y008841D01*
X017554Y009067D01*
X017497Y009124D01*
X017384Y009124D01*
X017327Y009067D01*
X017257Y009471D02*
X017030Y009471D01*
X016870Y009471D02*
X016870Y009698D01*
X016757Y009812D01*
X016643Y009698D01*
X016643Y009471D01*
X016483Y009471D02*
X016313Y009471D01*
X016256Y009528D01*
X016256Y009755D01*
X016313Y009812D01*
X016483Y009812D01*
X016483Y009471D01*
X016643Y009642D02*
X016870Y009642D01*
X017030Y009812D02*
X017257Y009812D01*
X017257Y009471D01*
X017417Y009471D02*
X017530Y009585D01*
X017473Y009585D02*
X017643Y009585D01*
X017643Y009471D02*
X017643Y009812D01*
X017473Y009812D01*
X017417Y009755D01*
X017417Y009642D01*
X017473Y009585D01*
X017257Y009642D02*
X017143Y009642D01*
X016780Y009124D02*
X016667Y009011D01*
X016554Y009124D01*
X016554Y008784D01*
X016394Y008784D02*
X016394Y009124D01*
X016224Y009124D01*
X016167Y009067D01*
X016167Y008954D01*
X016224Y008897D01*
X016394Y008897D01*
X016780Y008784D02*
X016780Y009124D01*
X016007Y009067D02*
X016007Y008841D01*
X015950Y008784D01*
X015837Y008784D01*
X015780Y008841D01*
X015780Y009067D01*
X015837Y009124D01*
X015950Y009124D01*
X016007Y009067D01*
X015620Y009124D02*
X015394Y008784D01*
X015394Y009124D01*
X015234Y009124D02*
X015234Y008784D01*
X015007Y008784D01*
X014847Y008784D02*
X014847Y009124D01*
X014620Y008784D01*
X014620Y009124D01*
X014460Y009124D02*
X014233Y009124D01*
X014347Y009124D02*
X014347Y008784D01*
X014074Y008841D02*
X014017Y008784D01*
X013904Y008784D01*
X013847Y008841D01*
X013847Y008897D01*
X013904Y008954D01*
X014017Y008954D01*
X014074Y009011D01*
X014074Y009067D01*
X014017Y009124D01*
X013904Y009124D01*
X013847Y009067D01*
X013776Y009471D02*
X013550Y009471D01*
X013390Y009471D02*
X013390Y009812D01*
X013163Y009471D01*
X013163Y009812D01*
X013003Y009812D02*
X012776Y009812D01*
X012890Y009812D02*
X012890Y009471D01*
X012616Y009471D02*
X012616Y009698D01*
X012503Y009812D01*
X012390Y009698D01*
X012390Y009471D01*
X012390Y009642D02*
X012616Y009642D01*
X012230Y009812D02*
X012003Y009812D01*
X012116Y009812D02*
X012116Y009471D01*
X011843Y009471D02*
X011730Y009471D01*
X011786Y009471D02*
X011786Y009812D01*
X011730Y009812D02*
X011843Y009812D01*
X011585Y009755D02*
X011585Y009528D01*
X011529Y009471D01*
X011415Y009471D01*
X011358Y009528D01*
X011358Y009755D01*
X011415Y009812D01*
X011529Y009812D01*
X011585Y009755D01*
X011199Y009812D02*
X011199Y009471D01*
X010972Y009471D02*
X010972Y009812D01*
X011199Y009812D02*
X010972Y009471D01*
X011140Y009124D02*
X011367Y009124D01*
X011253Y009124D02*
X011253Y008784D01*
X011527Y008784D02*
X011527Y009011D01*
X011640Y009124D01*
X011753Y009011D01*
X011753Y008784D01*
X011753Y008954D02*
X011527Y008954D01*
X011579Y008468D02*
X011523Y008411D01*
X011523Y008298D01*
X011579Y008241D01*
X011749Y008241D01*
X011636Y008241D02*
X011523Y008128D01*
X011363Y008128D02*
X011136Y008128D01*
X011249Y008298D02*
X011363Y008298D01*
X011363Y008468D02*
X011136Y008468D01*
X011363Y008468D02*
X011363Y008128D01*
X011749Y008128D02*
X011749Y008468D01*
X011579Y008468D01*
X011909Y008411D02*
X011966Y008468D01*
X012079Y008468D01*
X012136Y008411D01*
X012136Y008184D01*
X012079Y008128D01*
X011966Y008128D01*
X011909Y008184D01*
X011909Y008411D01*
X012296Y008468D02*
X012523Y008468D01*
X012523Y008128D01*
X012683Y008128D02*
X012910Y008128D01*
X012910Y008468D01*
X012683Y008468D01*
X012796Y008298D02*
X012910Y008298D01*
X013069Y008354D02*
X013126Y008298D01*
X013296Y008298D01*
X013126Y008298D02*
X013069Y008241D01*
X013069Y008184D01*
X013126Y008128D01*
X013296Y008128D01*
X013296Y008468D01*
X013126Y008468D01*
X013069Y008411D01*
X013069Y008354D01*
X013073Y008784D02*
X013073Y009011D01*
X013187Y009124D01*
X013300Y009011D01*
X013300Y008784D01*
X013300Y008954D02*
X013073Y008954D01*
X012914Y008897D02*
X012743Y008897D01*
X012687Y008954D01*
X012687Y009067D01*
X012743Y009124D01*
X012914Y009124D01*
X012914Y008784D01*
X012800Y008897D02*
X012687Y008784D01*
X012527Y008784D02*
X012300Y008784D01*
X012413Y008954D02*
X012527Y008954D01*
X012527Y009124D02*
X012527Y008784D01*
X012527Y009124D02*
X012300Y009124D01*
X012409Y008298D02*
X012523Y008298D01*
X013843Y008468D02*
X014070Y008468D01*
X014070Y008128D01*
X013843Y008128D01*
X013956Y008298D02*
X014070Y008298D01*
X014229Y008128D02*
X014456Y008128D01*
X014456Y008468D01*
X014616Y008468D02*
X014616Y008184D01*
X014673Y008128D01*
X014786Y008128D01*
X014843Y008184D01*
X014843Y008468D01*
X015003Y008411D02*
X015060Y008468D01*
X015230Y008468D01*
X015230Y008128D01*
X015060Y008128D01*
X015003Y008184D01*
X015003Y008411D01*
X015390Y008411D02*
X015390Y008184D01*
X015446Y008128D01*
X015560Y008128D01*
X015616Y008184D01*
X015616Y008411D01*
X015560Y008468D01*
X015446Y008468D01*
X015390Y008411D01*
X015776Y008468D02*
X015776Y008128D01*
X016003Y008128D02*
X016003Y008468D01*
X015890Y008354D01*
X015776Y008468D01*
X015620Y008784D02*
X015620Y009124D01*
X015540Y009471D02*
X015483Y009528D01*
X015483Y009755D01*
X015540Y009812D01*
X015710Y009812D01*
X015710Y009471D01*
X015540Y009471D01*
X015323Y009528D02*
X015267Y009471D01*
X015153Y009471D01*
X015096Y009528D01*
X015096Y009755D01*
X015153Y009812D01*
X015267Y009812D01*
X015323Y009755D01*
X015323Y009528D01*
X014937Y009528D02*
X014880Y009471D01*
X014766Y009471D01*
X014710Y009528D01*
X014550Y009528D02*
X014493Y009471D01*
X014380Y009471D01*
X014323Y009528D01*
X014323Y009812D01*
X014163Y009812D02*
X014050Y009698D01*
X013936Y009812D01*
X013936Y009471D01*
X013776Y009471D02*
X013776Y009812D01*
X013550Y009812D01*
X013663Y009642D02*
X013776Y009642D01*
X014163Y009812D02*
X014163Y009471D01*
X014550Y009528D02*
X014550Y009812D01*
X014710Y009755D02*
X014766Y009812D01*
X014880Y009812D01*
X014937Y009755D01*
X014937Y009528D01*
X015007Y009124D02*
X015234Y009124D01*
X015234Y008954D02*
X015120Y008954D01*
X017550Y008468D02*
X017550Y008128D01*
X017710Y008468D02*
X017937Y008128D01*
X019643Y008128D02*
X019643Y008468D01*
X019757Y008354D01*
X019870Y008468D01*
X019870Y008128D01*
X020030Y008128D02*
X020257Y008128D01*
X020257Y008468D01*
X020030Y008468D01*
X020143Y008298D02*
X020257Y008298D01*
X020417Y008298D02*
X020473Y008241D01*
X020643Y008241D01*
X020530Y008241D02*
X020417Y008128D01*
X020417Y008298D02*
X020417Y008411D01*
X020473Y008468D01*
X020643Y008468D01*
X020643Y008128D01*
X020647Y008784D02*
X020647Y009124D01*
X020477Y009124D01*
X020421Y009067D01*
X020421Y008954D01*
X020477Y008897D01*
X020647Y008897D01*
X020534Y008897D02*
X020421Y008784D01*
X020807Y008784D02*
X021034Y008784D01*
X021034Y009124D01*
X020807Y009124D01*
X020921Y008954D02*
X021034Y008954D01*
X021194Y008954D02*
X021307Y008954D01*
X021194Y008954D02*
X021194Y008841D01*
X021251Y008784D01*
X021364Y008784D01*
X021421Y008841D01*
X021421Y009067D01*
X021364Y009124D01*
X021251Y009124D01*
X021194Y009067D01*
X021581Y009124D02*
X021581Y008784D01*
X021807Y009124D01*
X021807Y008784D01*
X021967Y008784D02*
X021967Y009011D01*
X022081Y009124D01*
X022194Y009011D01*
X022194Y008784D01*
X022354Y008841D02*
X022354Y009067D01*
X022411Y009124D01*
X022581Y009124D01*
X022581Y008784D01*
X022411Y008784D01*
X022354Y008841D01*
X022194Y008954D02*
X021967Y008954D01*
X019874Y008954D02*
X019647Y008954D01*
X010593Y008784D02*
X010593Y009124D01*
X010480Y009011D01*
X010367Y009124D01*
X010367Y008784D01*
X010207Y008784D02*
X010207Y009011D01*
X010093Y009124D01*
X009980Y009011D01*
X009980Y008784D01*
X009820Y008784D02*
X009707Y008784D01*
X009763Y008784D02*
X009763Y009124D01*
X009707Y009124D02*
X009820Y009124D01*
X009980Y008954D02*
X010207Y008954D01*
X010203Y008468D02*
X010033Y008468D01*
X009976Y008411D01*
X009976Y008298D01*
X010033Y008241D01*
X010203Y008241D01*
X010203Y008128D02*
X010203Y008468D01*
X010363Y008411D02*
X010363Y008298D01*
X010419Y008241D01*
X010589Y008241D01*
X010589Y008128D02*
X010589Y008468D01*
X010419Y008468D01*
X010363Y008411D01*
X010089Y008241D02*
X009976Y008128D01*
X009816Y008184D02*
X009816Y008411D01*
X009759Y008468D01*
X009646Y008468D01*
X009589Y008411D01*
X009589Y008184D01*
X009646Y008128D01*
X009759Y008128D01*
X009816Y008184D01*
X009429Y008184D02*
X009429Y008411D01*
X009373Y008468D01*
X009259Y008468D01*
X009202Y008411D01*
X009202Y008298D02*
X009316Y008298D01*
X009202Y008298D02*
X009202Y008184D01*
X009259Y008128D01*
X009373Y008128D01*
X009429Y008184D01*
X009043Y008128D02*
X009043Y008468D01*
X008872Y008468D01*
X008816Y008411D01*
X008816Y008298D01*
X008872Y008241D01*
X009043Y008241D01*
X008929Y008241D02*
X008816Y008128D01*
X008656Y008128D02*
X008656Y008354D01*
X008542Y008468D01*
X008429Y008354D01*
X008429Y008128D01*
X008269Y008128D02*
X008269Y008468D01*
X008156Y008354D01*
X008042Y008468D01*
X008042Y008128D01*
X007883Y008128D02*
X007883Y008468D01*
X007769Y008354D01*
X007656Y008468D01*
X007656Y008128D01*
X007496Y008128D02*
X007382Y008128D01*
X007439Y008128D02*
X007439Y008468D01*
X007496Y008468D02*
X007382Y008468D01*
X007238Y008468D02*
X007011Y008128D01*
X007011Y008468D01*
X006851Y008411D02*
X006851Y008184D01*
X006795Y008128D01*
X006681Y008128D01*
X006624Y008184D01*
X006624Y008298D01*
X006738Y008298D01*
X006851Y008411D02*
X006795Y008468D01*
X006681Y008468D01*
X006624Y008411D01*
X006629Y008784D02*
X006629Y009124D01*
X006469Y009124D02*
X006242Y009124D01*
X006355Y009124D02*
X006355Y008784D01*
X006082Y008784D02*
X005969Y008784D01*
X006025Y008784D02*
X006025Y009124D01*
X005969Y009124D02*
X006082Y009124D01*
X005824Y009011D02*
X005711Y009124D01*
X005597Y009011D01*
X005597Y008784D01*
X005437Y008784D02*
X005211Y008784D01*
X005437Y008784D02*
X005437Y009124D01*
X005597Y008954D02*
X005824Y008954D01*
X005824Y009011D02*
X005824Y008784D01*
X006629Y008784D02*
X006855Y009124D01*
X006855Y008784D01*
X007015Y008784D02*
X007242Y008784D01*
X007242Y009124D01*
X007015Y009124D01*
X007129Y008954D02*
X007242Y008954D01*
X007402Y009124D02*
X007629Y009124D01*
X007515Y009124D02*
X007515Y008784D01*
X007789Y008841D02*
X007789Y009067D01*
X007845Y009124D01*
X007959Y009124D01*
X008015Y009067D01*
X008015Y008841D01*
X007959Y008784D01*
X007845Y008784D01*
X007789Y008841D01*
X008175Y008954D02*
X008175Y009067D01*
X008232Y009124D01*
X008402Y009124D01*
X008402Y008784D01*
X008402Y008897D02*
X008232Y008897D01*
X008175Y008954D01*
X008429Y008298D02*
X008656Y008298D01*
X009005Y008784D02*
X009119Y008784D01*
X009176Y008841D01*
X009119Y008954D02*
X009005Y008954D01*
X008949Y008897D01*
X008949Y008841D01*
X009005Y008784D01*
X009119Y008954D02*
X009176Y009011D01*
X009176Y009067D01*
X009119Y009124D01*
X009005Y009124D01*
X008949Y009067D01*
X009335Y009124D02*
X009335Y008784D01*
X009562Y009124D01*
X009562Y008784D01*
X009554Y009471D02*
X009667Y009585D01*
X009611Y009585D02*
X009781Y009585D01*
X009781Y009471D02*
X009781Y009812D01*
X009611Y009812D01*
X009554Y009755D01*
X009554Y009642D01*
X009611Y009585D01*
X009394Y009528D02*
X009337Y009471D01*
X009224Y009471D01*
X009167Y009528D01*
X009167Y009585D01*
X009224Y009642D01*
X009337Y009642D01*
X009394Y009698D01*
X009394Y009755D01*
X009337Y009812D01*
X009224Y009812D01*
X009167Y009755D01*
X009007Y009812D02*
X008780Y009812D01*
X008894Y009812D02*
X008894Y009471D01*
X009925Y009471D02*
X010038Y009471D01*
X009982Y009471D02*
X009982Y009812D01*
X010038Y009812D02*
X009925Y009812D01*
X010198Y009812D02*
X010425Y009812D01*
X010425Y009471D01*
X010425Y009642D02*
X010312Y009642D01*
X007238Y008468D02*
X007238Y008128D01*
D12*
X014236Y006239D03*
D13*
X014236Y006242D03*
D14*
X014236Y006245D03*
D15*
X014236Y006248D03*
X014236Y006335D03*
D16*
X014236Y006326D03*
X014236Y006323D03*
X014236Y006251D03*
D17*
X014236Y006254D03*
X014236Y006257D03*
X014236Y006320D03*
D18*
X014236Y006314D03*
X014236Y006260D03*
D19*
X014236Y006263D03*
X014236Y006266D03*
X014236Y006308D03*
X014236Y006311D03*
D20*
X014236Y006305D03*
X014236Y006302D03*
X014236Y006299D03*
X014236Y006275D03*
X014236Y006272D03*
X014236Y006269D03*
D21*
X014236Y006278D03*
X014236Y006281D03*
X014236Y006284D03*
X014236Y006287D03*
X014236Y006290D03*
X014236Y006293D03*
X014236Y006296D03*
D22*
X014234Y006317D03*
D23*
X014236Y006329D03*
X014236Y006332D03*
D24*
X014249Y006539D03*
X014159Y006980D03*
X014321Y007046D03*
X014312Y007070D03*
X014552Y007211D03*
X014552Y007214D03*
X014549Y007217D03*
X014549Y007220D03*
X014546Y007223D03*
X014537Y007238D03*
X014534Y007244D03*
X014531Y007250D03*
X014522Y007265D03*
X014519Y007268D03*
X014519Y007271D03*
X014516Y007274D03*
X014516Y007277D03*
X014507Y007289D03*
X014507Y007292D03*
X014504Y007295D03*
X014504Y007298D03*
X014501Y007301D03*
X014492Y007316D03*
X014489Y007322D03*
X014486Y007325D03*
X014486Y007328D03*
X014477Y007343D03*
X014474Y007346D03*
X014474Y007349D03*
X014471Y007352D03*
X014471Y007355D03*
X014462Y007367D03*
X014462Y007370D03*
X014459Y007373D03*
X014456Y007379D03*
X014447Y007394D03*
X014444Y007400D03*
X014441Y007403D03*
X014441Y007406D03*
X014432Y007421D03*
X014429Y007424D03*
X014429Y007427D03*
X014426Y007430D03*
X014426Y007433D03*
X014417Y007445D03*
X014417Y007448D03*
X014414Y007451D03*
X014411Y007457D03*
X014402Y007472D03*
X014399Y007478D03*
X014396Y007481D03*
X014396Y007484D03*
X014387Y007499D03*
X014384Y007502D03*
X014384Y007505D03*
X014381Y007508D03*
X014381Y007511D03*
X014372Y007523D03*
X014372Y007526D03*
X014369Y007529D03*
X014366Y007535D03*
X014357Y007550D03*
X014354Y007556D03*
X014351Y007559D03*
X014351Y007562D03*
X014342Y007577D03*
X014339Y007580D03*
X014339Y007583D03*
X014336Y007586D03*
X014327Y007601D03*
X014327Y007604D03*
X014324Y007607D03*
X014321Y007613D03*
X014312Y007628D03*
X014309Y007634D03*
X014306Y007637D03*
X014306Y007640D03*
X014297Y007655D03*
X014294Y007658D03*
X014294Y007661D03*
X014177Y007661D03*
X014174Y007655D03*
X014171Y007649D03*
X014162Y007634D03*
X014159Y007631D03*
X014159Y007628D03*
X014156Y007625D03*
X014156Y007622D03*
X014147Y007610D03*
X014147Y007607D03*
X014144Y007604D03*
X014144Y007601D03*
X014141Y007598D03*
X014132Y007583D03*
X014129Y007577D03*
X014126Y007571D03*
X014117Y007556D03*
X014114Y007553D03*
X014114Y007550D03*
X014111Y007547D03*
X014111Y007544D03*
X014102Y007532D03*
X014102Y007529D03*
X014099Y007526D03*
X014099Y007523D03*
X014096Y007520D03*
X014087Y007505D03*
X014084Y007499D03*
X014081Y007493D03*
X014072Y007478D03*
X014069Y007475D03*
X014069Y007472D03*
X014066Y007469D03*
X014066Y007466D03*
X014057Y007454D03*
X014057Y007451D03*
X014054Y007448D03*
X014054Y007445D03*
X014051Y007442D03*
X014042Y007427D03*
X014039Y007421D03*
X014036Y007418D03*
X014036Y007415D03*
X014027Y007400D03*
X014024Y007397D03*
X014024Y007394D03*
X014021Y007391D03*
X014021Y007388D03*
X014012Y007376D03*
X014012Y007373D03*
X014009Y007370D03*
X014006Y007364D03*
X013997Y007349D03*
X013994Y007343D03*
X013991Y007340D03*
X013991Y007337D03*
X013982Y007322D03*
X013979Y007319D03*
X013979Y007316D03*
X013976Y007313D03*
X013976Y007310D03*
X013967Y007298D03*
X013967Y007295D03*
X013964Y007292D03*
X013961Y007286D03*
X013952Y007271D03*
X013949Y007265D03*
X013946Y007262D03*
X013946Y007259D03*
X013937Y007244D03*
X013934Y007241D03*
X013934Y007238D03*
X013931Y007235D03*
X013931Y007232D03*
X013922Y007220D03*
X013922Y007217D03*
X013919Y007214D03*
X013916Y007208D03*
X013907Y007193D03*
X013904Y007187D03*
X013901Y007184D03*
X013901Y007181D03*
X013892Y007166D03*
X013889Y007163D03*
X013889Y007160D03*
X013886Y007157D03*
X013886Y007154D03*
X013877Y007142D03*
X013877Y007139D03*
X013874Y007136D03*
X013871Y007130D03*
X013862Y007115D03*
X013859Y007109D03*
X013856Y007106D03*
X013856Y007103D03*
X013847Y007088D03*
X013844Y007085D03*
X013844Y007082D03*
X013841Y007079D03*
X013832Y007064D03*
X013832Y007061D03*
X013829Y007058D03*
X013826Y007052D03*
X013817Y007037D03*
X013814Y007031D03*
X013811Y007028D03*
X013811Y007025D03*
X013802Y007010D03*
X013799Y007007D03*
X013799Y007004D03*
X013796Y007001D03*
X013787Y006986D03*
X013787Y006983D03*
X013784Y006980D03*
X013781Y006974D03*
X013772Y006959D03*
X013769Y006953D03*
X013766Y006950D03*
X013766Y006947D03*
X013757Y006932D03*
X013754Y006929D03*
X013754Y006926D03*
X013751Y006923D03*
X013742Y006908D03*
X013742Y006905D03*
X013739Y006902D03*
X013736Y006896D03*
X013727Y006881D03*
X013724Y006875D03*
X013721Y006872D03*
X013721Y006869D03*
X013712Y006854D03*
X013709Y006851D03*
X013709Y006848D03*
X013706Y006845D03*
X013697Y006830D03*
X013697Y006827D03*
X013694Y006824D03*
X013691Y006818D03*
X013682Y006803D03*
X013679Y006797D03*
X013676Y006794D03*
X013676Y006791D03*
X013667Y006779D03*
X013667Y006776D03*
X013664Y006773D03*
X013664Y006770D03*
X013661Y006767D03*
X013661Y006764D03*
X013652Y006752D03*
X013652Y006749D03*
X013649Y006746D03*
X013646Y006740D03*
X013637Y006725D03*
X013634Y006719D03*
X013631Y006716D03*
X013631Y006713D03*
X013622Y006701D03*
X013622Y006698D03*
X013619Y006695D03*
X013619Y006692D03*
X013616Y006689D03*
X013607Y006674D03*
X013607Y006671D03*
X013604Y006668D03*
X013601Y006662D03*
X013592Y006647D03*
X013589Y006641D03*
X013586Y006638D03*
X013586Y006635D03*
X013577Y006623D03*
X013577Y006620D03*
X013574Y006617D03*
X013574Y006614D03*
X013571Y006611D03*
X013562Y006596D03*
X013562Y006593D03*
X013559Y006590D03*
X013556Y006584D03*
X013547Y006569D03*
X013544Y006566D03*
X013544Y006563D03*
X013541Y006560D03*
X013541Y006557D03*
X013532Y006545D03*
X013532Y006542D03*
X013529Y006539D03*
X013529Y006536D03*
X013526Y006533D03*
X013517Y006518D03*
X013517Y006515D03*
X013514Y006512D03*
X013511Y006506D03*
X013502Y006491D03*
X013499Y006488D03*
X013499Y006485D03*
X013496Y006482D03*
X013496Y006479D03*
X013487Y006467D03*
X013487Y006464D03*
X013484Y006461D03*
X013484Y006458D03*
X013481Y006455D03*
X013472Y006440D03*
X013472Y006437D03*
X013469Y006434D03*
X013466Y006428D03*
X013457Y006413D03*
X013454Y006410D03*
X013454Y006407D03*
X013451Y006404D03*
X013451Y006401D03*
X013442Y006389D03*
X013442Y006386D03*
X013439Y006383D03*
X013439Y006380D03*
X013436Y006377D03*
X013427Y006362D03*
X013427Y006359D03*
X013424Y006356D03*
X013421Y006353D03*
X013421Y006350D03*
X014642Y007055D03*
X014642Y007058D03*
X014639Y007061D03*
X014639Y007064D03*
X014636Y007067D03*
X014627Y007082D03*
X014627Y007085D03*
X014624Y007088D03*
X014621Y007094D03*
X014612Y007109D03*
X014609Y007112D03*
X014609Y007115D03*
X014606Y007118D03*
X014606Y007121D03*
X014597Y007133D03*
X014597Y007136D03*
X014594Y007139D03*
X014594Y007142D03*
X014591Y007145D03*
X014582Y007160D03*
X014579Y007166D03*
X014576Y007172D03*
X014567Y007187D03*
X014564Y007190D03*
X014564Y007193D03*
X014561Y007196D03*
X014561Y007199D03*
X014651Y007043D03*
X014651Y007040D03*
X014654Y007037D03*
X014654Y007034D03*
X014657Y007031D03*
X014666Y007016D03*
X014669Y007010D03*
X014672Y007007D03*
X014672Y007004D03*
X014681Y006989D03*
X014684Y006986D03*
X014684Y006983D03*
X014687Y006980D03*
X014687Y006977D03*
X014696Y006965D03*
X014696Y006962D03*
X014699Y006959D03*
X014702Y006953D03*
X014711Y006938D03*
X014714Y006932D03*
X014717Y006929D03*
X014717Y006926D03*
X014726Y006911D03*
X014729Y006908D03*
X014729Y006905D03*
X014732Y006902D03*
X014732Y006899D03*
X014741Y006887D03*
X014741Y006884D03*
X014744Y006881D03*
X014747Y006875D03*
X014756Y006860D03*
X014759Y006854D03*
X014762Y006851D03*
X014762Y006848D03*
X014771Y006833D03*
X014774Y006830D03*
X014774Y006827D03*
X014777Y006824D03*
X014777Y006821D03*
X014786Y006809D03*
X014786Y006806D03*
X014789Y006803D03*
X014792Y006797D03*
X014801Y006782D03*
X014804Y006776D03*
X014807Y006773D03*
X014807Y006770D03*
X014816Y006755D03*
X014819Y006752D03*
X014819Y006749D03*
X014822Y006746D03*
X014822Y006743D03*
X014831Y006731D03*
X014831Y006728D03*
X014834Y006725D03*
X014837Y006719D03*
X014846Y006704D03*
X014849Y006698D03*
X014852Y006695D03*
X014852Y006692D03*
X014861Y006677D03*
X014864Y006674D03*
X014864Y006671D03*
X014867Y006668D03*
X014876Y006653D03*
X014876Y006650D03*
X014879Y006647D03*
X014882Y006641D03*
X014891Y006626D03*
X014894Y006620D03*
X014897Y006617D03*
X014897Y006614D03*
X014906Y006599D03*
X014909Y006596D03*
X014909Y006593D03*
X014912Y006590D03*
X014921Y006575D03*
X014921Y006572D03*
X014924Y006569D03*
X014927Y006563D03*
X014936Y006548D03*
X014939Y006542D03*
X014942Y006539D03*
X014942Y006536D03*
X014951Y006524D03*
X014951Y006521D03*
X014954Y006518D03*
X014954Y006515D03*
X014957Y006512D03*
X014966Y006497D03*
X014966Y006494D03*
X014969Y006491D03*
X014972Y006485D03*
X014981Y006470D03*
X014984Y006464D03*
X014987Y006461D03*
X014987Y006458D03*
X014996Y006446D03*
X014996Y006443D03*
X014999Y006440D03*
X014999Y006437D03*
X015002Y006434D03*
X015011Y006419D03*
X015011Y006416D03*
X015014Y006413D03*
X015017Y006407D03*
X015026Y006392D03*
X015029Y006386D03*
X015032Y006383D03*
X015032Y006380D03*
X015041Y006368D03*
X015041Y006365D03*
X015044Y006362D03*
X015044Y006359D03*
X015047Y006356D03*
X015056Y006341D03*
X015056Y006338D03*
D25*
X015049Y006353D03*
X015004Y006431D03*
X014959Y006509D03*
X014914Y006587D03*
X014905Y006602D03*
X014869Y006665D03*
X014860Y006680D03*
X014827Y006737D03*
X014815Y006758D03*
X014782Y006815D03*
X014770Y006836D03*
X014737Y006893D03*
X014725Y006914D03*
X014704Y006950D03*
X014692Y006971D03*
X014680Y006992D03*
X014659Y007028D03*
X014647Y007049D03*
X014635Y007070D03*
X014614Y007106D03*
X014602Y007127D03*
X014590Y007148D03*
X014569Y007184D03*
X014557Y007205D03*
X014524Y007262D03*
X014512Y007283D03*
X014500Y007304D03*
X014479Y007340D03*
X014467Y007361D03*
X014455Y007382D03*
X014434Y007418D03*
X014422Y007439D03*
X014410Y007460D03*
X014389Y007496D03*
X014377Y007517D03*
X014365Y007538D03*
X014344Y007574D03*
X014335Y007589D03*
X014332Y007595D03*
X014299Y007652D03*
X014164Y007637D03*
X014152Y007616D03*
X014140Y007595D03*
X014119Y007559D03*
X014107Y007538D03*
X014095Y007517D03*
X014074Y007481D03*
X014062Y007460D03*
X014050Y007439D03*
X014029Y007403D03*
X014017Y007382D03*
X014005Y007361D03*
X013984Y007325D03*
X013972Y007304D03*
X013960Y007283D03*
X013939Y007247D03*
X013927Y007226D03*
X013894Y007169D03*
X013882Y007148D03*
X013849Y007091D03*
X013840Y007076D03*
X013837Y007070D03*
X013804Y007013D03*
X013795Y006998D03*
X013759Y006935D03*
X013750Y006920D03*
X013714Y006857D03*
X013705Y006842D03*
X013672Y006785D03*
X013627Y006707D03*
X013615Y006686D03*
X013582Y006629D03*
X013570Y006608D03*
X013537Y006551D03*
X013525Y006530D03*
X013492Y006473D03*
X013480Y006452D03*
X013459Y006416D03*
X013447Y006395D03*
X013435Y006374D03*
X013414Y006338D03*
X014314Y007067D03*
X014305Y007091D03*
D26*
X014315Y007064D03*
X014315Y007061D03*
X014318Y007055D03*
X014318Y007052D03*
X014375Y006860D03*
X014663Y007019D03*
X014663Y007022D03*
X014660Y007025D03*
X014648Y007046D03*
X014645Y007052D03*
X014633Y007073D03*
X014630Y007076D03*
X014630Y007079D03*
X014618Y007097D03*
X014618Y007100D03*
X014615Y007103D03*
X014603Y007124D03*
X014600Y007130D03*
X014588Y007151D03*
X014585Y007154D03*
X014585Y007157D03*
X014573Y007175D03*
X014573Y007178D03*
X014570Y007181D03*
X014558Y007202D03*
X014555Y007208D03*
X014543Y007229D03*
X014540Y007232D03*
X014540Y007235D03*
X014528Y007253D03*
X014528Y007256D03*
X014525Y007259D03*
X014513Y007280D03*
X014510Y007286D03*
X014498Y007307D03*
X014495Y007310D03*
X014495Y007313D03*
X014483Y007331D03*
X014483Y007334D03*
X014480Y007337D03*
X014468Y007358D03*
X014465Y007364D03*
X014453Y007385D03*
X014450Y007388D03*
X014450Y007391D03*
X014438Y007409D03*
X014438Y007412D03*
X014435Y007415D03*
X014423Y007436D03*
X014420Y007442D03*
X014408Y007463D03*
X014405Y007466D03*
X014405Y007469D03*
X014393Y007487D03*
X014393Y007490D03*
X014390Y007493D03*
X014378Y007514D03*
X014375Y007520D03*
X014363Y007541D03*
X014360Y007544D03*
X014360Y007547D03*
X014348Y007565D03*
X014348Y007568D03*
X014345Y007571D03*
X014333Y007592D03*
X014330Y007598D03*
X014318Y007616D03*
X014318Y007619D03*
X014315Y007622D03*
X014315Y007625D03*
X014303Y007643D03*
X014303Y007646D03*
X014300Y007649D03*
X014168Y007646D03*
X014168Y007643D03*
X014165Y007640D03*
X014153Y007619D03*
X014150Y007613D03*
X014138Y007592D03*
X014135Y007589D03*
X014135Y007586D03*
X014123Y007568D03*
X014123Y007565D03*
X014120Y007562D03*
X014108Y007541D03*
X014105Y007535D03*
X014093Y007514D03*
X014090Y007511D03*
X014090Y007508D03*
X014078Y007490D03*
X014078Y007487D03*
X014075Y007484D03*
X014063Y007463D03*
X014060Y007457D03*
X014048Y007436D03*
X014045Y007433D03*
X014045Y007430D03*
X014033Y007412D03*
X014033Y007409D03*
X014030Y007406D03*
X014018Y007385D03*
X014015Y007379D03*
X014003Y007358D03*
X014000Y007355D03*
X014000Y007352D03*
X013988Y007334D03*
X013988Y007331D03*
X013985Y007328D03*
X013973Y007307D03*
X013970Y007301D03*
X013958Y007280D03*
X013955Y007277D03*
X013955Y007274D03*
X013943Y007256D03*
X013943Y007253D03*
X013940Y007250D03*
X013928Y007229D03*
X013925Y007223D03*
X013913Y007205D03*
X013913Y007202D03*
X013910Y007199D03*
X013910Y007196D03*
X013898Y007178D03*
X013898Y007175D03*
X013895Y007172D03*
X013883Y007151D03*
X013880Y007145D03*
X013868Y007127D03*
X013868Y007124D03*
X013865Y007121D03*
X013865Y007118D03*
X013853Y007100D03*
X013853Y007097D03*
X013850Y007094D03*
X013838Y007073D03*
X013835Y007067D03*
X013823Y007049D03*
X013823Y007046D03*
X013820Y007043D03*
X013820Y007040D03*
X013808Y007022D03*
X013808Y007019D03*
X013805Y007016D03*
X013793Y006995D03*
X013790Y006992D03*
X013790Y006989D03*
X013778Y006971D03*
X013778Y006968D03*
X013775Y006965D03*
X013775Y006962D03*
X013763Y006944D03*
X013763Y006941D03*
X013760Y006938D03*
X013748Y006917D03*
X013745Y006914D03*
X013745Y006911D03*
X013733Y006893D03*
X013733Y006890D03*
X013730Y006887D03*
X013730Y006884D03*
X013718Y006866D03*
X013718Y006863D03*
X013715Y006860D03*
X013703Y006839D03*
X013700Y006836D03*
X013700Y006833D03*
X013688Y006815D03*
X013688Y006812D03*
X013685Y006809D03*
X013685Y006806D03*
X013673Y006788D03*
X013670Y006782D03*
X013658Y006761D03*
X013655Y006755D03*
X013643Y006737D03*
X013643Y006734D03*
X013640Y006731D03*
X013640Y006728D03*
X013628Y006710D03*
X013625Y006704D03*
X013613Y006683D03*
X013610Y006680D03*
X013610Y006677D03*
X013598Y006659D03*
X013598Y006656D03*
X013595Y006653D03*
X013595Y006650D03*
X013583Y006632D03*
X013580Y006626D03*
X013568Y006605D03*
X013565Y006602D03*
X013565Y006599D03*
X013553Y006581D03*
X013553Y006578D03*
X013550Y006575D03*
X013550Y006572D03*
X013538Y006554D03*
X013535Y006548D03*
X013523Y006527D03*
X013520Y006524D03*
X013520Y006521D03*
X013508Y006503D03*
X013508Y006500D03*
X013505Y006497D03*
X013505Y006494D03*
X013493Y006476D03*
X013490Y006470D03*
X013478Y006449D03*
X013475Y006446D03*
X013475Y006443D03*
X013463Y006425D03*
X013463Y006422D03*
X013460Y006419D03*
X013448Y006398D03*
X013445Y006392D03*
X013433Y006371D03*
X013430Y006368D03*
X013430Y006365D03*
X013418Y006347D03*
X013418Y006344D03*
X013415Y006341D03*
X014675Y006998D03*
X014675Y007001D03*
X014678Y006995D03*
X014690Y006974D03*
X014693Y006968D03*
X014705Y006947D03*
X014708Y006944D03*
X014708Y006941D03*
X014720Y006923D03*
X014720Y006920D03*
X014723Y006917D03*
X014735Y006896D03*
X014738Y006890D03*
X014750Y006872D03*
X014750Y006869D03*
X014753Y006866D03*
X014753Y006863D03*
X014765Y006845D03*
X014765Y006842D03*
X014768Y006839D03*
X014780Y006818D03*
X014783Y006812D03*
X014795Y006794D03*
X014795Y006791D03*
X014798Y006788D03*
X014798Y006785D03*
X014810Y006767D03*
X014810Y006764D03*
X014813Y006761D03*
X014825Y006740D03*
X014828Y006734D03*
X014840Y006716D03*
X014840Y006713D03*
X014843Y006710D03*
X014843Y006707D03*
X014855Y006689D03*
X014855Y006686D03*
X014858Y006683D03*
X014870Y006662D03*
X014873Y006659D03*
X014873Y006656D03*
X014885Y006638D03*
X014885Y006635D03*
X014888Y006632D03*
X014888Y006629D03*
X014900Y006611D03*
X014900Y006608D03*
X014903Y006605D03*
X014915Y006584D03*
X014918Y006581D03*
X014918Y006578D03*
X014930Y006560D03*
X014930Y006557D03*
X014933Y006554D03*
X014933Y006551D03*
X014945Y006533D03*
X014945Y006530D03*
X014948Y006527D03*
X014960Y006506D03*
X014963Y006503D03*
X014963Y006500D03*
X014975Y006482D03*
X014975Y006479D03*
X014978Y006476D03*
X014978Y006473D03*
X014990Y006455D03*
X014990Y006452D03*
X014993Y006449D03*
X015005Y006428D03*
X015008Y006425D03*
X015008Y006422D03*
X015020Y006404D03*
X015020Y006401D03*
X015023Y006398D03*
X015023Y006395D03*
X015035Y006377D03*
X015035Y006374D03*
X015038Y006371D03*
X015050Y006350D03*
X015053Y006347D03*
X015053Y006344D03*
D27*
X015028Y006389D03*
X015016Y006410D03*
X014983Y006467D03*
X014971Y006488D03*
X014938Y006545D03*
X014926Y006566D03*
X014893Y006623D03*
X014881Y006644D03*
X014848Y006701D03*
X014836Y006722D03*
X014803Y006779D03*
X014791Y006800D03*
X014758Y006857D03*
X014746Y006878D03*
X014713Y006935D03*
X014701Y006956D03*
X014668Y007013D03*
X014623Y007091D03*
X014581Y007163D03*
X014578Y007169D03*
X014536Y007241D03*
X014533Y007247D03*
X014491Y007319D03*
X014458Y007376D03*
X014446Y007397D03*
X014413Y007454D03*
X014401Y007475D03*
X014368Y007532D03*
X014356Y007553D03*
X014323Y007610D03*
X014311Y007631D03*
X014176Y007658D03*
X014173Y007652D03*
X014131Y007580D03*
X014128Y007574D03*
X014086Y007502D03*
X014083Y007496D03*
X014041Y007424D03*
X013996Y007346D03*
X013963Y007289D03*
X013951Y007268D03*
X013918Y007211D03*
X013906Y007190D03*
X013873Y007133D03*
X013861Y007112D03*
X013828Y007055D03*
X013816Y007034D03*
X013783Y006977D03*
X013771Y006956D03*
X013738Y006899D03*
X013726Y006878D03*
X013693Y006821D03*
X013681Y006800D03*
X013648Y006743D03*
X013636Y006722D03*
X013603Y006665D03*
X013591Y006644D03*
X013558Y006587D03*
X013513Y006509D03*
X013468Y006431D03*
X014248Y006542D03*
X014248Y006545D03*
X014311Y007073D03*
X014311Y007076D03*
X014308Y007079D03*
X014308Y007082D03*
X014308Y007085D03*
X014236Y007757D03*
X014236Y007760D03*
D28*
X014446Y006797D03*
X014317Y006629D03*
X014317Y006626D03*
X014158Y006596D03*
X014284Y006413D03*
D29*
X014282Y006416D03*
X014282Y006419D03*
X014312Y006617D03*
X014315Y006623D03*
X014159Y006593D03*
X014090Y007046D03*
D30*
X014443Y006800D03*
X014314Y006620D03*
X014311Y006614D03*
X014167Y006587D03*
X014164Y006590D03*
X014281Y006422D03*
D31*
X014279Y006425D03*
X014279Y006428D03*
X014309Y006608D03*
X014309Y006611D03*
X014171Y006584D03*
X014438Y006803D03*
X014093Y007043D03*
D32*
X014095Y007040D03*
X014308Y006605D03*
X014305Y006599D03*
X014278Y006431D03*
D33*
X014278Y006434D03*
X014236Y007808D03*
D34*
X014102Y007034D03*
X014432Y006809D03*
X014300Y006587D03*
X014297Y006581D03*
X014183Y006572D03*
X014276Y006440D03*
X014276Y006437D03*
D35*
X014275Y006443D03*
X014296Y006578D03*
X014299Y006584D03*
X014188Y006569D03*
D36*
X014192Y006566D03*
X014294Y006575D03*
X014273Y006449D03*
X014273Y006446D03*
X014429Y006812D03*
X014105Y007031D03*
D37*
X014111Y007025D03*
X014423Y006818D03*
X014273Y006452D03*
D38*
X014272Y006455D03*
X014272Y006458D03*
X014236Y007805D03*
D39*
X014114Y007022D03*
X014420Y006821D03*
X014270Y006461D03*
D40*
X014269Y006464D03*
X014269Y006467D03*
X014416Y006824D03*
D41*
X014117Y007019D03*
X014267Y006470D03*
X014234Y007802D03*
D42*
X014243Y006575D03*
X014267Y006473D03*
D43*
X014266Y006476D03*
X014266Y006479D03*
X014242Y006578D03*
X014242Y006581D03*
X014242Y006584D03*
X014242Y006587D03*
X014239Y006596D03*
X014410Y006830D03*
X014125Y007013D03*
X014236Y007799D03*
D44*
X014405Y006833D03*
X014234Y006620D03*
X014237Y006608D03*
X014237Y006605D03*
X014237Y006602D03*
X014237Y006599D03*
X014240Y006593D03*
X014240Y006590D03*
X014264Y006482D03*
D45*
X014263Y006485D03*
X014263Y006488D03*
X014236Y006611D03*
X014236Y006614D03*
X014236Y006617D03*
X014233Y006623D03*
X014233Y006626D03*
X014233Y006629D03*
X014230Y006641D03*
X014128Y007010D03*
X014236Y007796D03*
D46*
X014236Y007793D03*
X014134Y007004D03*
X014221Y006686D03*
X014224Y006674D03*
X014224Y006671D03*
X014224Y006668D03*
X014224Y006665D03*
X014227Y006659D03*
X014227Y006656D03*
X014263Y006491D03*
D47*
X014261Y006494D03*
X014261Y006497D03*
X014222Y006677D03*
X014222Y006680D03*
X014222Y006683D03*
X014219Y006689D03*
X014219Y006692D03*
X014219Y006695D03*
X014216Y006707D03*
X014399Y006839D03*
D48*
X014215Y006719D03*
X014215Y006716D03*
X014215Y006713D03*
X014215Y006710D03*
X014218Y006704D03*
X014218Y006701D03*
X014218Y006698D03*
X014260Y006500D03*
X014236Y007790D03*
D49*
X014210Y006740D03*
X014210Y006737D03*
X014210Y006734D03*
X014210Y006731D03*
X014213Y006725D03*
X014213Y006722D03*
X014258Y006506D03*
X014258Y006503D03*
D50*
X014258Y006509D03*
X014201Y006776D03*
X014201Y006779D03*
X014201Y006782D03*
X014201Y006785D03*
X014198Y006794D03*
X014198Y006797D03*
D51*
X014197Y006800D03*
X014197Y006803D03*
X014197Y006806D03*
X014194Y006818D03*
X014200Y006791D03*
X014200Y006788D03*
X014389Y006848D03*
X014365Y006926D03*
X014365Y006929D03*
X014146Y006992D03*
X014263Y006563D03*
X014257Y006512D03*
X014236Y007778D03*
X014236Y007781D03*
D52*
X014354Y006956D03*
X014357Y006947D03*
X014360Y006941D03*
X014360Y006938D03*
X014363Y006935D03*
X014363Y006932D03*
X014366Y006923D03*
X014189Y006839D03*
X014192Y006830D03*
X014192Y006827D03*
X014192Y006824D03*
X014192Y006821D03*
X014195Y006815D03*
X014195Y006812D03*
X014195Y006809D03*
X014255Y006518D03*
X014255Y006515D03*
D53*
X014254Y006521D03*
X014263Y006566D03*
X014263Y006569D03*
X014263Y006572D03*
X014191Y006833D03*
X014191Y006836D03*
X014188Y006842D03*
X014188Y006845D03*
X014188Y006848D03*
X014188Y006851D03*
X014185Y006860D03*
X014185Y006863D03*
X014149Y006989D03*
X014350Y006968D03*
X014353Y006962D03*
X014353Y006959D03*
X014356Y006953D03*
X014356Y006950D03*
X014359Y006944D03*
X014386Y006851D03*
X014236Y007775D03*
D54*
X014234Y007772D03*
X014342Y006989D03*
X014345Y006983D03*
X014345Y006980D03*
X014345Y006977D03*
X014348Y006974D03*
X014348Y006971D03*
X014351Y006965D03*
X014381Y006854D03*
X014186Y006857D03*
X014186Y006854D03*
X014183Y006866D03*
X014183Y006869D03*
X014183Y006872D03*
X014180Y006884D03*
X014252Y006524D03*
D55*
X014254Y006527D03*
X014182Y006875D03*
X014182Y006878D03*
X014182Y006881D03*
X014179Y006887D03*
X014179Y006890D03*
X014179Y006893D03*
X014179Y006896D03*
X014176Y006905D03*
X014152Y006986D03*
X014335Y007007D03*
X014335Y007010D03*
X014338Y007004D03*
X014338Y007001D03*
X014338Y006998D03*
X014341Y006995D03*
X014341Y006992D03*
X014344Y006986D03*
X014236Y007769D03*
D56*
X014327Y007031D03*
X014327Y007028D03*
X014330Y007022D03*
X014330Y007019D03*
X014333Y007016D03*
X014333Y007013D03*
X014378Y006857D03*
X014177Y006899D03*
X014177Y006902D03*
X014156Y006983D03*
X014252Y006530D03*
D57*
X014251Y006533D03*
X014251Y006536D03*
X014329Y007025D03*
X014326Y007034D03*
X014326Y007037D03*
X014323Y007040D03*
X014323Y007043D03*
X014320Y007049D03*
X014236Y007763D03*
X014236Y007766D03*
D58*
X014236Y007754D03*
X014290Y007133D03*
X014290Y007130D03*
X014293Y007124D03*
X014293Y007121D03*
X014296Y007118D03*
X014296Y007115D03*
X014164Y006974D03*
X014368Y006866D03*
X014248Y006548D03*
D59*
X014246Y006551D03*
X014366Y006869D03*
X014168Y006971D03*
X014291Y007127D03*
X014288Y007136D03*
X014288Y007139D03*
X014285Y007142D03*
X014285Y007145D03*
X014282Y007151D03*
X014279Y007160D03*
D60*
X014281Y007157D03*
X014281Y007154D03*
X014284Y007148D03*
X014278Y007163D03*
X014278Y007166D03*
X014275Y007172D03*
X014236Y007748D03*
X014236Y007751D03*
X014245Y006557D03*
X014245Y006554D03*
D61*
X014243Y006560D03*
X014363Y006872D03*
X014171Y006968D03*
X014276Y007169D03*
X014273Y007175D03*
X014273Y007178D03*
X014270Y007181D03*
X014270Y007184D03*
X014270Y007187D03*
X014267Y007193D03*
D62*
X014110Y007028D03*
X014425Y006815D03*
X014194Y006563D03*
D63*
X014182Y006575D03*
X014302Y006590D03*
X014302Y006593D03*
D64*
X014306Y006602D03*
X014177Y006578D03*
X014174Y006581D03*
X014099Y007037D03*
D65*
X014435Y006806D03*
X014303Y006596D03*
D66*
X014231Y006632D03*
X014231Y006635D03*
X014231Y006638D03*
X014228Y006644D03*
X014228Y006647D03*
X014228Y006650D03*
X014228Y006653D03*
X014225Y006662D03*
X014402Y006836D03*
X014129Y007007D03*
D67*
X014137Y007001D03*
X014212Y006728D03*
D68*
X014209Y006743D03*
X014209Y006746D03*
X014209Y006749D03*
X014392Y006845D03*
X014140Y006998D03*
D69*
X014207Y006752D03*
X014396Y006842D03*
D70*
X014203Y006773D03*
X014206Y006761D03*
X014206Y006758D03*
X014206Y006755D03*
X014236Y007784D03*
X014236Y007787D03*
D71*
X014317Y007058D03*
X013657Y006758D03*
D72*
X014144Y006995D03*
X014204Y006770D03*
X014204Y006767D03*
X014204Y006764D03*
D73*
X014413Y006827D03*
D74*
X014372Y006863D03*
X014162Y006977D03*
X014306Y007088D03*
X014303Y007094D03*
X014303Y007097D03*
X014300Y007100D03*
X014300Y007103D03*
X014300Y007106D03*
X014297Y007109D03*
X014297Y007112D03*
D75*
X014269Y007190D03*
X014266Y007196D03*
X014266Y007199D03*
X014263Y007202D03*
X014263Y007205D03*
X014263Y007208D03*
X014260Y007211D03*
X014260Y007214D03*
X014359Y006875D03*
X014236Y007742D03*
X014236Y007745D03*
D76*
X014236Y007739D03*
X014236Y007736D03*
X014245Y007253D03*
X014248Y007247D03*
X014248Y007244D03*
X014251Y007241D03*
X014251Y007238D03*
X014254Y007229D03*
X014179Y006962D03*
X014356Y006878D03*
D77*
X014353Y006881D03*
X014236Y007277D03*
X014236Y007280D03*
X014233Y007283D03*
X014233Y007286D03*
X014233Y007289D03*
X014236Y007733D03*
D78*
X014236Y007730D03*
X014236Y007727D03*
X014224Y007310D03*
X014350Y006884D03*
D79*
X014345Y006887D03*
X014186Y006953D03*
D80*
X014342Y006890D03*
D81*
X014339Y006893D03*
X014195Y006944D03*
X014234Y007715D03*
D82*
X014236Y007712D03*
X014335Y006896D03*
D83*
X014332Y006899D03*
D84*
X014329Y006902D03*
X014206Y006935D03*
X014236Y007700D03*
X014236Y007703D03*
D85*
X014324Y006905D03*
D86*
X014269Y006908D03*
X014269Y006911D03*
X014269Y006914D03*
D87*
X014267Y006917D03*
D88*
X014266Y006920D03*
D89*
X014218Y006923D03*
X014236Y007685D03*
X014236Y007688D03*
D90*
X014236Y007691D03*
X014215Y006926D03*
D91*
X014213Y006929D03*
X014234Y007694D03*
D92*
X014236Y007697D03*
X014209Y006932D03*
D93*
X014203Y006938D03*
X014236Y007706D03*
X014236Y007709D03*
D94*
X014198Y006941D03*
D95*
X014194Y006947D03*
X014236Y007718D03*
D96*
X014236Y007721D03*
X014236Y007724D03*
X014191Y006950D03*
D97*
X014183Y006956D03*
X014231Y007292D03*
X014228Y007298D03*
X014228Y007301D03*
X014225Y007304D03*
X014225Y007307D03*
X014222Y007313D03*
D98*
X014240Y007268D03*
X014240Y007265D03*
X014243Y007259D03*
X014243Y007256D03*
X014180Y006959D03*
D99*
X014174Y006965D03*
X014258Y007217D03*
X014258Y007220D03*
X014255Y007223D03*
X014255Y007226D03*
X014252Y007232D03*
X014252Y007235D03*
D100*
X014122Y007016D03*
D101*
X014087Y007049D03*
D102*
X014246Y007250D03*
X014237Y007274D03*
D103*
X014242Y007262D03*
D104*
X014239Y007271D03*
X014230Y007295D03*
D105*
X014008Y007367D03*
D106*
X014236Y007664D03*
X014236Y007667D03*
D107*
X014236Y007670D03*
X014236Y007673D03*
D108*
X014236Y007676D03*
D109*
X014236Y007679D03*
X014236Y007682D03*
D110*
X014129Y015211D02*
X014032Y015308D01*
X013936Y015211D01*
X013936Y015502D01*
X014129Y015502D02*
X014129Y015211D01*
X013807Y015260D02*
X013807Y015357D01*
X013759Y015405D01*
X013662Y015405D01*
X013613Y015357D01*
X013613Y015308D01*
X013807Y015308D01*
X013807Y015260D02*
X013759Y015211D01*
X013662Y015211D01*
X013485Y015211D02*
X013340Y015211D01*
X013291Y015260D01*
X013340Y015308D01*
X013436Y015308D01*
X013485Y015357D01*
X013436Y015405D01*
X013291Y015405D01*
X013162Y015405D02*
X013066Y015405D01*
X013114Y015453D02*
X013114Y015260D01*
X013066Y015211D01*
X012948Y015260D02*
X012899Y015211D01*
X012802Y015211D01*
X012754Y015260D01*
X012754Y015357D01*
X012802Y015405D01*
X012899Y015405D01*
X012948Y015357D01*
X012948Y015260D01*
X012625Y015211D02*
X012625Y015405D01*
X012480Y015405D01*
X012432Y015357D01*
X012432Y015211D01*
X012303Y015115D02*
X012206Y015211D01*
X012255Y015211D01*
X012255Y015260D01*
X012206Y015260D01*
X012206Y015211D01*
X011766Y015211D02*
X011573Y015405D01*
X011573Y015453D01*
X011621Y015502D01*
X011718Y015502D01*
X011766Y015453D01*
X011766Y015211D02*
X011573Y015211D01*
X011444Y015260D02*
X011250Y015453D01*
X011250Y015260D01*
X011299Y015211D01*
X011395Y015211D01*
X011444Y015260D01*
X011444Y015453D01*
X011395Y015502D01*
X011299Y015502D01*
X011250Y015453D01*
X011121Y015405D02*
X011025Y015502D01*
X011025Y015211D01*
X011121Y015211D02*
X010928Y015211D01*
X010799Y015211D02*
X010606Y015405D01*
X010606Y015453D01*
X010654Y015502D01*
X010751Y015502D01*
X010799Y015453D01*
X010799Y015211D02*
X010606Y015211D01*
X014580Y015308D02*
X014774Y015308D01*
X014774Y015260D02*
X014774Y015357D01*
X014725Y015405D01*
X014629Y015405D01*
X014580Y015357D01*
X014580Y015308D01*
X014629Y015211D02*
X014725Y015211D01*
X014774Y015260D01*
X014897Y015211D02*
X015042Y015308D01*
X014897Y015405D01*
X015042Y015502D02*
X015042Y015211D01*
X015171Y015211D02*
X015171Y015405D01*
X015364Y015405D02*
X015364Y015260D01*
X015316Y015211D01*
X015171Y015211D01*
X015493Y015211D02*
X015687Y015211D01*
X015687Y015502D01*
X016138Y015405D02*
X016138Y015163D01*
X016186Y015115D01*
X016234Y015115D01*
X016283Y015211D02*
X016138Y015211D01*
X016283Y015211D02*
X016331Y015260D01*
X016331Y015405D01*
X016460Y015357D02*
X016460Y015260D01*
X016508Y015211D01*
X016653Y015211D01*
X016653Y015502D01*
X016653Y015405D02*
X016508Y015405D01*
X016460Y015357D01*
D111*
X016648Y013047D02*
X016648Y012716D01*
X016703Y012716D02*
X016593Y012716D01*
X016458Y012771D02*
X016403Y012716D01*
X016292Y012716D01*
X016237Y012826D02*
X016458Y012826D01*
X016458Y012771D02*
X016458Y012882D01*
X016403Y012937D01*
X016292Y012937D01*
X016237Y012882D01*
X016237Y012826D01*
X016089Y012771D02*
X016034Y012716D01*
X015869Y012716D01*
X015869Y012882D01*
X015924Y012937D01*
X016034Y012937D01*
X016034Y012826D02*
X015869Y012826D01*
X015721Y012882D02*
X015666Y012937D01*
X015501Y012937D01*
X015556Y012826D02*
X015666Y012826D01*
X015721Y012882D01*
X015721Y012716D02*
X015556Y012716D01*
X015501Y012771D01*
X015556Y012826D01*
X015353Y012826D02*
X015133Y012826D01*
X015133Y012882D01*
X015188Y012937D01*
X015298Y012937D01*
X015353Y012882D01*
X015353Y012771D01*
X015298Y012716D01*
X015188Y012716D01*
X014984Y012771D02*
X014984Y012882D01*
X014929Y012937D01*
X014764Y012937D01*
X014764Y013047D02*
X014764Y012716D01*
X014929Y012716D01*
X014984Y012771D01*
X014773Y012547D02*
X014773Y012216D01*
X014553Y012216D01*
X014405Y012216D02*
X014295Y012216D01*
X014350Y012216D02*
X014350Y012437D01*
X014405Y012437D01*
X014350Y012547D02*
X014350Y012602D01*
X014193Y012716D02*
X014248Y012771D01*
X014248Y012937D01*
X014028Y012937D02*
X014028Y012716D01*
X014193Y012716D01*
X014105Y012437D02*
X014160Y012382D01*
X014160Y012271D01*
X014105Y012216D01*
X013939Y012216D01*
X013791Y012271D02*
X013791Y012382D01*
X013736Y012437D01*
X013626Y012437D01*
X013571Y012382D01*
X013571Y012326D01*
X013791Y012326D01*
X013791Y012271D02*
X013736Y012216D01*
X013626Y012216D01*
X013423Y012216D02*
X013423Y012437D01*
X013258Y012437D01*
X013203Y012382D01*
X013203Y012216D01*
X013055Y012216D02*
X012890Y012216D01*
X012834Y012271D01*
X012890Y012326D01*
X013000Y012326D01*
X013055Y012382D01*
X013000Y012437D01*
X012834Y012437D01*
X012686Y012382D02*
X012686Y012271D01*
X012631Y012216D01*
X012521Y012216D01*
X012466Y012326D02*
X012686Y012326D01*
X012686Y012382D02*
X012631Y012437D01*
X012521Y012437D01*
X012466Y012382D01*
X012466Y012326D01*
X012775Y012716D02*
X012775Y012937D01*
X012775Y012826D02*
X012664Y012937D01*
X012609Y012937D01*
X012923Y012882D02*
X012923Y012826D01*
X013143Y012826D01*
X013143Y012771D02*
X013143Y012882D01*
X013088Y012937D01*
X012978Y012937D01*
X012923Y012882D01*
X012978Y012716D02*
X013088Y012716D01*
X013143Y012771D01*
X013291Y012716D02*
X013456Y012716D01*
X013511Y012771D01*
X013511Y012882D01*
X013456Y012937D01*
X013291Y012937D01*
X013291Y013047D02*
X013291Y012716D01*
X013659Y012716D02*
X013659Y012882D01*
X013714Y012937D01*
X013879Y012937D01*
X013879Y012716D01*
X013939Y012437D02*
X014105Y012437D01*
X015290Y012382D02*
X015290Y012326D01*
X015510Y012326D01*
X015510Y012271D02*
X015510Y012382D01*
X015455Y012437D01*
X015345Y012437D01*
X015290Y012382D01*
X015345Y012216D02*
X015455Y012216D01*
X015510Y012271D01*
X015652Y012437D02*
X015707Y012437D01*
X015817Y012326D01*
X015817Y012216D02*
X015817Y012437D01*
X015965Y012382D02*
X015965Y012216D01*
X016130Y012216D01*
X016185Y012271D01*
X016130Y012326D01*
X015965Y012326D01*
X015965Y012382D02*
X016020Y012437D01*
X016130Y012437D01*
X016333Y012437D02*
X016333Y012271D01*
X016388Y012216D01*
X016443Y012271D01*
X016498Y012216D01*
X016554Y012271D01*
X016554Y012437D01*
X016702Y012437D02*
X016867Y012437D01*
X016922Y012382D01*
X016922Y012271D01*
X016867Y012216D01*
X016702Y012216D01*
X016702Y012547D01*
X016906Y012716D02*
X017016Y012716D01*
X017071Y012771D01*
X017071Y012882D01*
X017016Y012937D01*
X016906Y012937D01*
X016851Y012882D01*
X016851Y012826D01*
X017071Y012826D01*
X017213Y012937D02*
X017268Y012937D01*
X017378Y012826D01*
X017378Y012716D02*
X017378Y012937D01*
X017432Y012437D02*
X017377Y012382D01*
X017377Y012216D01*
X017542Y012216D01*
X017597Y012271D01*
X017542Y012326D01*
X017377Y012326D01*
X017432Y012437D02*
X017542Y012437D01*
X017745Y012382D02*
X017965Y012382D01*
X017965Y012547D02*
X017965Y012216D01*
X017745Y012216D02*
X017745Y012547D01*
X017229Y012437D02*
X017229Y012216D01*
X017229Y012326D02*
X017119Y012437D01*
X017064Y012437D01*
X016703Y013047D02*
X016648Y013047D01*
X016089Y012771D02*
X016034Y012826D01*
X017895Y012882D02*
X018115Y012882D01*
X018631Y012882D02*
X018631Y012826D01*
X018852Y012826D01*
X018852Y012771D02*
X018852Y012882D01*
X018796Y012937D01*
X018686Y012937D01*
X018631Y012882D01*
X018686Y012716D02*
X018796Y012716D01*
X018852Y012771D01*
X018993Y012937D02*
X019048Y012937D01*
X019158Y012826D01*
X019158Y012716D02*
X019158Y012937D01*
X019307Y012882D02*
X019307Y012716D01*
X019472Y012716D01*
X019527Y012771D01*
X019472Y012826D01*
X019307Y012826D01*
X019307Y012882D02*
X019362Y012937D01*
X019472Y012937D01*
X019675Y012937D02*
X019675Y012771D01*
X019730Y012716D01*
X019785Y012771D01*
X019840Y012716D01*
X019895Y012771D01*
X019895Y012937D01*
X020043Y012937D02*
X020208Y012937D01*
X020263Y012882D01*
X020263Y012771D01*
X020208Y012716D01*
X020043Y012716D01*
X020043Y013047D01*
X020405Y012937D02*
X020460Y012937D01*
X020570Y012826D01*
X020570Y012716D02*
X020570Y012937D01*
X020718Y012882D02*
X020718Y012716D01*
X020884Y012716D01*
X020939Y012771D01*
X020884Y012826D01*
X020718Y012826D01*
X020718Y012882D02*
X020773Y012937D01*
X020884Y012937D01*
X021087Y012882D02*
X021307Y012882D01*
X021307Y013047D02*
X021307Y012716D01*
X021280Y012547D02*
X021280Y012216D01*
X021060Y012216D01*
X020912Y012216D02*
X020912Y012547D01*
X020747Y012547D01*
X020692Y012492D01*
X020692Y012382D01*
X020747Y012326D01*
X020912Y012326D01*
X020802Y012326D02*
X020692Y012216D01*
X020543Y012216D02*
X020543Y012547D01*
X020323Y012216D01*
X020323Y012547D01*
X019807Y012492D02*
X019807Y012271D01*
X019752Y012216D01*
X019642Y012216D01*
X019587Y012271D01*
X019587Y012492D01*
X019642Y012547D01*
X019752Y012547D01*
X019807Y012492D01*
X019439Y012437D02*
X019273Y012437D01*
X019218Y012382D01*
X019218Y012271D01*
X019273Y012216D01*
X019439Y012216D01*
X019439Y012106D02*
X019439Y012437D01*
X019070Y012382D02*
X019070Y012271D01*
X019015Y012216D01*
X018905Y012216D01*
X018850Y012326D02*
X019070Y012326D01*
X019070Y012382D02*
X019015Y012437D01*
X018905Y012437D01*
X018850Y012382D01*
X018850Y012326D01*
X018702Y012216D02*
X018702Y012437D01*
X018537Y012437D01*
X018482Y012382D01*
X018482Y012216D01*
X021060Y012547D02*
X021280Y012547D01*
X021428Y012492D02*
X021483Y012547D01*
X021593Y012547D01*
X021648Y012492D01*
X021648Y012271D01*
X021593Y012216D01*
X021483Y012216D01*
X021428Y012271D01*
X021280Y012382D02*
X021170Y012382D01*
X021087Y012716D02*
X021087Y013047D01*
X021823Y012882D02*
X021823Y012716D01*
X021823Y012882D02*
X021878Y012937D01*
X022043Y012937D01*
X022043Y012716D01*
X022192Y012826D02*
X022412Y012826D01*
X022412Y012771D02*
X022412Y012882D01*
X022357Y012937D01*
X022247Y012937D01*
X022192Y012882D01*
X022192Y012826D01*
X022247Y012716D02*
X022357Y012716D01*
X022412Y012771D01*
X022560Y012771D02*
X022615Y012716D01*
X022780Y012716D01*
X022780Y012606D02*
X022780Y012937D01*
X022615Y012937D01*
X022560Y012882D01*
X022560Y012771D01*
X022928Y012771D02*
X022928Y012992D01*
X022983Y013047D01*
X023093Y013047D01*
X023148Y012992D01*
X023148Y012771D01*
X023093Y012716D01*
X022983Y012716D01*
X022928Y012771D01*
X012099Y012937D02*
X011989Y012937D01*
X012044Y012992D02*
X012044Y012771D01*
X011989Y012716D01*
X011854Y012716D02*
X011854Y013047D01*
X011799Y012937D02*
X011689Y012937D01*
X011634Y012882D01*
X011634Y012716D01*
X011486Y012771D02*
X011486Y012882D01*
X011430Y012937D01*
X011320Y012937D01*
X011265Y012882D01*
X011265Y012826D01*
X011486Y012826D01*
X011486Y012771D02*
X011430Y012716D01*
X011320Y012716D01*
X011799Y012937D02*
X011854Y012882D01*
D112*
X017347Y013859D02*
X017347Y014003D01*
X017538Y014023D01*
X017558Y014087D01*
X017589Y014147D01*
X017468Y014295D01*
X017570Y014397D01*
X017718Y014276D01*
X017778Y014307D01*
X017842Y014327D01*
X017861Y014518D01*
X018005Y014518D01*
X018025Y014327D01*
X018089Y014307D01*
X018149Y014276D01*
X018297Y014397D01*
X018399Y014295D01*
X018278Y014147D01*
X018309Y014087D01*
X018329Y014023D01*
X018520Y014003D01*
X018520Y013859D01*
X018329Y013840D01*
X018309Y013776D01*
X018278Y013716D01*
X018399Y013568D01*
X018297Y013466D01*
X018149Y013587D01*
X018089Y013556D01*
X018004Y013761D01*
X018042Y013782D01*
X018074Y013812D01*
X018098Y013848D01*
X018113Y013888D01*
X018118Y013931D01*
X018113Y013975D01*
X018097Y014017D01*
X018072Y014053D01*
X018039Y014083D01*
X018000Y014103D01*
X017958Y014114D01*
X017913Y014115D01*
X017870Y014105D01*
X017831Y014085D01*
X017797Y014056D01*
X017772Y014020D01*
X017755Y013979D01*
X017749Y013935D01*
X017753Y013891D01*
X017768Y013850D01*
X017792Y013813D01*
X017824Y013783D01*
X017863Y013761D01*
X017778Y013556D01*
X017718Y013587D01*
X017570Y013466D01*
X017468Y013568D01*
X017589Y013716D01*
X017558Y013776D01*
X017538Y013840D01*
X017347Y013859D01*
X017347Y013890D02*
X017754Y013890D01*
X017751Y013947D02*
X017347Y013947D01*
X017364Y014005D02*
X017766Y014005D01*
X017805Y014063D02*
X017551Y014063D01*
X017575Y014120D02*
X018291Y014120D01*
X018303Y014178D02*
X017564Y014178D01*
X017517Y014235D02*
X018350Y014235D01*
X018397Y014293D02*
X018170Y014293D01*
X018115Y014293D02*
X017752Y014293D01*
X017697Y014293D02*
X017470Y014293D01*
X017524Y014351D02*
X017626Y014351D01*
X017844Y014351D02*
X018022Y014351D01*
X018016Y014408D02*
X017850Y014408D01*
X017856Y014466D02*
X018011Y014466D01*
X018240Y014351D02*
X018343Y014351D01*
X018316Y014063D02*
X018061Y014063D01*
X018101Y014005D02*
X018503Y014005D01*
X018520Y013947D02*
X018116Y013947D01*
X018113Y013890D02*
X018520Y013890D01*
X018327Y013832D02*
X018088Y013832D01*
X018029Y013775D02*
X018308Y013775D01*
X018278Y013717D02*
X018022Y013717D01*
X018046Y013659D02*
X018324Y013659D01*
X018371Y013602D02*
X018070Y013602D01*
X018201Y013544D02*
X018375Y013544D01*
X018318Y013487D02*
X018272Y013487D01*
X017821Y013659D02*
X017543Y013659D01*
X017589Y013717D02*
X017845Y013717D01*
X017838Y013775D02*
X017559Y013775D01*
X017540Y013832D02*
X017779Y013832D01*
X017797Y013602D02*
X017496Y013602D01*
X017492Y013544D02*
X017666Y013544D01*
X017595Y013487D02*
X017549Y013487D01*
M02*
