G75*
G70*
%OFA0B0*%
%FSLAX24Y24*%
%IPPOS*%
%LPD*%
%AMOC8*
5,1,8,0,0,1.08239X$1,22.5*
%
%ADD10R,0.0630X0.0512*%
%ADD11R,0.0433X0.0748*%
%ADD12R,0.0512X0.0630*%
%ADD13R,0.0500X0.0220*%
%ADD14R,0.0220X0.0500*%
%ADD15R,0.0669X0.0335*%
%ADD16R,0.0472X0.0472*%
%ADD17R,0.0354X0.0315*%
%ADD18R,0.0590X0.0790*%
%ADD19R,0.1500X0.0790*%
%ADD20R,0.0236X0.0472*%
%ADD21R,0.0630X0.0787*%
%ADD22R,0.0327X0.0248*%
%ADD23R,0.0248X0.0327*%
%ADD24R,0.0787X0.0591*%
%ADD25R,0.0669X0.0709*%
%ADD26R,0.0827X0.0591*%
%ADD27R,0.0709X0.0551*%
D10*
X006118Y001806D03*
X006118Y002554D03*
X007055Y002824D03*
X007055Y002036D03*
X003492Y005056D03*
X003492Y005804D03*
X006055Y006931D03*
X006055Y007679D03*
X009055Y008661D03*
X009055Y009449D03*
X011305Y007679D03*
X011305Y006931D03*
X012680Y003324D03*
X013617Y003324D03*
X014555Y003304D03*
X014555Y002556D03*
X013617Y002536D03*
X012680Y002536D03*
X010930Y013493D03*
X010930Y014241D03*
X011805Y014869D03*
X011805Y015617D03*
X010805Y016056D03*
X010805Y016804D03*
X008118Y016991D03*
X008118Y016243D03*
X005270Y016894D03*
X005270Y017681D03*
X014055Y016304D03*
X014055Y015556D03*
X014055Y014699D03*
X014055Y013911D03*
X020430Y015306D03*
X020430Y016054D03*
D11*
X006133Y005033D03*
X005227Y005033D03*
X005227Y003577D03*
X006133Y003577D03*
D12*
X006074Y005992D03*
X005286Y005992D03*
X008661Y011180D03*
X009449Y011180D03*
X009243Y013430D03*
X009991Y013430D03*
X009804Y016180D03*
X009056Y016180D03*
X009036Y017180D03*
X009824Y017180D03*
X009554Y018180D03*
X008806Y018180D03*
X006866Y017055D03*
X006118Y017055D03*
X012306Y016555D03*
X013054Y016555D03*
X015556Y006930D03*
X016304Y006930D03*
X016324Y005805D03*
X015536Y005805D03*
D13*
X010620Y005717D03*
X010620Y006032D03*
X010620Y005402D03*
X010620Y005087D03*
X010620Y004773D03*
X010620Y004458D03*
X010620Y004143D03*
X010620Y003828D03*
X007240Y003828D03*
X007240Y004143D03*
X007240Y004458D03*
X007240Y004773D03*
X007240Y005087D03*
X007240Y005402D03*
X007240Y005717D03*
X007240Y006032D03*
D14*
X007828Y006620D03*
X008143Y006620D03*
X008458Y006620D03*
X008773Y006620D03*
X009087Y006620D03*
X009402Y006620D03*
X009717Y006620D03*
X010032Y006620D03*
X010032Y003240D03*
X009717Y003240D03*
X009402Y003240D03*
X009087Y003240D03*
X008773Y003240D03*
X008458Y003240D03*
X008143Y003240D03*
X007828Y003240D03*
D15*
X007940Y008717D03*
X006759Y009505D03*
X007940Y010292D03*
X006759Y011080D03*
X007940Y011867D03*
X006759Y012654D03*
X007940Y013442D03*
X006759Y014229D03*
X007940Y015017D03*
X006759Y015804D03*
X015420Y015804D03*
X016601Y015017D03*
X015420Y014229D03*
X016601Y013442D03*
X015420Y012654D03*
X016601Y011867D03*
X015420Y011080D03*
X016601Y010292D03*
X015420Y009505D03*
X016601Y008717D03*
D16*
X004368Y003267D03*
X004368Y004093D03*
X003593Y004180D03*
X002767Y004180D03*
X015767Y017180D03*
X016593Y017180D03*
D17*
X013363Y014430D03*
X012536Y014056D03*
X012536Y014804D03*
X012536Y013054D03*
X013363Y012680D03*
X012536Y012306D03*
D18*
X012253Y008752D03*
X013153Y008752D03*
X011353Y008752D03*
D19*
X012243Y011232D03*
D20*
X009804Y014291D03*
X009430Y014291D03*
X009056Y014291D03*
X009056Y015319D03*
X009804Y015319D03*
D21*
X021129Y012430D03*
X022231Y012430D03*
X023316Y012430D03*
X024419Y012430D03*
X018919Y006930D03*
X017816Y006930D03*
D22*
X011867Y004820D03*
X011867Y003915D03*
D23*
X010133Y012618D03*
X009227Y012618D03*
D24*
X010180Y009771D03*
X010180Y008589D03*
D25*
X017805Y008373D03*
X017805Y009987D03*
D26*
X019242Y009889D03*
X019242Y008471D03*
D27*
X014305Y008761D03*
X014305Y010099D03*
M02*
