G75*
G70*
%OFA0B0*%
%FSLAX24Y24*%
%IPPOS*%
%LPD*%
%AMOC8*
5,1,8,0,0,1.08239X$1,22.5*
%
%ADD10C,0.0100*%
%ADD11C,0.0160*%
%ADD12C,0.0080*%
%ADD13C,0.0150*%
%ADD14C,0.0170*%
%ADD15C,0.0060*%
%ADD16C,0.0050*%
%ADD17R,0.0079X0.0079*%
%ADD18C,0.0040*%
%ADD19R,0.0827X0.0118*%
%ADD20R,0.0620X0.0240*%
D10*
X017230Y001297D02*
X017297Y001230D01*
X017497Y001230D01*
X017497Y001163D02*
X017497Y001497D01*
X017297Y001497D01*
X017230Y001430D01*
X017230Y001297D01*
X017363Y001097D02*
X017430Y001097D01*
X017497Y001163D01*
X017690Y001230D02*
X017690Y001497D01*
X017690Y001363D02*
X017824Y001497D01*
X017891Y001497D01*
X018074Y001497D02*
X018141Y001497D01*
X018141Y001230D01*
X018074Y001230D02*
X018208Y001230D01*
X018381Y001297D02*
X018381Y001430D01*
X018448Y001497D01*
X018648Y001497D01*
X018648Y001630D02*
X018648Y001230D01*
X018448Y001230D01*
X018381Y001297D01*
X018141Y001630D02*
X018141Y001697D01*
X021980Y001630D02*
X022047Y001630D01*
X022047Y001230D01*
X022113Y001230D02*
X021980Y001230D01*
X022287Y001297D02*
X022287Y001430D01*
X022354Y001497D01*
X022487Y001497D01*
X022554Y001430D01*
X022554Y001297D01*
X022487Y001230D01*
X022354Y001230D01*
X022287Y001297D01*
X022747Y001297D02*
X022814Y001363D01*
X023014Y001363D01*
X023014Y001430D02*
X023014Y001230D01*
X022814Y001230D01*
X022747Y001297D01*
X022814Y001497D02*
X022947Y001497D01*
X023014Y001430D01*
X023208Y001430D02*
X023208Y001297D01*
X023274Y001230D01*
X023475Y001230D01*
X023475Y001630D01*
X023475Y001497D02*
X023274Y001497D01*
X023208Y001430D01*
X020180Y004847D02*
X020247Y004913D01*
X020247Y005247D01*
X020047Y005247D01*
X019980Y005180D01*
X019980Y005047D01*
X020047Y004980D01*
X020247Y004980D01*
X020180Y004847D02*
X020113Y004847D01*
X020440Y004980D02*
X020440Y005247D01*
X020440Y005113D02*
X020574Y005247D01*
X020641Y005247D01*
X020824Y005247D02*
X020891Y005247D01*
X020891Y004980D01*
X020824Y004980D02*
X020958Y004980D01*
X021131Y005047D02*
X021131Y005180D01*
X021198Y005247D01*
X021398Y005247D01*
X021398Y005380D02*
X021398Y004980D01*
X021198Y004980D01*
X021131Y005047D01*
X020891Y005380D02*
X020891Y005447D01*
X025480Y005380D02*
X025547Y005380D01*
X025547Y004980D01*
X025613Y004980D02*
X025480Y004980D01*
X025787Y005047D02*
X025787Y005180D01*
X025854Y005247D01*
X025987Y005247D01*
X026054Y005180D01*
X026054Y005047D01*
X025987Y004980D01*
X025854Y004980D01*
X025787Y005047D01*
X026247Y005047D02*
X026314Y005113D01*
X026514Y005113D01*
X026514Y005180D02*
X026514Y004980D01*
X026314Y004980D01*
X026247Y005047D01*
X026314Y005247D02*
X026447Y005247D01*
X026514Y005180D01*
X026708Y005180D02*
X026708Y005047D01*
X026774Y004980D01*
X026975Y004980D01*
X026975Y005380D01*
X026975Y005247D02*
X026774Y005247D01*
X026708Y005180D01*
X026930Y005680D02*
X026930Y006680D01*
X027430Y007180D01*
X028430Y007180D01*
X028930Y006680D01*
X028930Y005680D01*
X028430Y005180D01*
X027430Y005180D01*
X026930Y005680D01*
X018100Y009082D02*
X017529Y009082D01*
X017805Y009495D01*
X018100Y009082D01*
X028180Y013805D02*
X028180Y014055D01*
D11*
X028180Y015055D01*
X027680Y015555D01*
X026680Y015555D01*
X026180Y015055D01*
X026180Y012305D01*
X026680Y011805D01*
X027680Y011805D01*
X028180Y012305D01*
X028180Y014055D01*
X022930Y007180D02*
X021930Y007180D01*
X021430Y006680D01*
X021430Y005680D01*
X021930Y005180D01*
X022930Y005180D01*
X023430Y005680D01*
X023430Y006680D01*
X022930Y007180D01*
X023930Y003430D02*
X024930Y003430D01*
X025430Y002930D01*
X025430Y001930D01*
X024930Y001430D01*
X023930Y001430D01*
X023430Y001930D01*
X023430Y002930D01*
X023930Y003430D01*
X017430Y002930D02*
X017430Y001930D01*
X016930Y001430D01*
X015930Y001430D01*
X015430Y001930D01*
X015430Y002930D01*
X015930Y003430D01*
X016930Y003430D01*
X017430Y002930D01*
X014055Y004805D02*
X013680Y004805D01*
X013868Y006993D02*
X013868Y007180D01*
X014055Y007180D01*
X013868Y007180D02*
X013868Y007368D01*
X013868Y007180D02*
X013680Y007180D01*
X014930Y018055D02*
X014930Y018180D01*
X014805Y018180D01*
X014930Y018180D02*
X015055Y018180D01*
X014930Y018180D02*
X014930Y018305D01*
X017305Y018180D02*
X017555Y018180D01*
D12*
X018813Y016917D02*
X019234Y016917D01*
X019094Y016777D01*
X019234Y016636D01*
X018813Y016636D01*
X018813Y016456D02*
X018813Y016176D01*
X019024Y016176D01*
X018954Y016316D01*
X018954Y016386D01*
X019024Y016456D01*
X019164Y016456D01*
X019234Y016386D01*
X019234Y016246D01*
X019164Y016176D01*
X018484Y016216D02*
X018484Y016426D01*
X018414Y016496D01*
X018274Y016496D01*
X018204Y016426D01*
X018204Y016216D01*
X018063Y016216D02*
X018484Y016216D01*
X018484Y015965D02*
X018063Y015965D01*
X018274Y015755D01*
X018274Y016036D01*
X018484Y015575D02*
X018484Y015295D01*
X018484Y015435D02*
X018063Y015435D01*
X018204Y015295D01*
X018274Y015115D02*
X018344Y015045D01*
X018344Y014834D01*
X018484Y014834D02*
X018063Y014834D01*
X018063Y015045D01*
X018133Y015115D01*
X018274Y015115D01*
X018344Y014975D02*
X018484Y015115D01*
X018813Y015005D02*
X018883Y015075D01*
X019164Y014795D01*
X019234Y014865D01*
X019234Y015005D01*
X019164Y015075D01*
X018883Y015075D01*
X018813Y015005D02*
X018813Y014865D01*
X018883Y014795D01*
X019164Y014795D01*
X019234Y014615D02*
X019234Y014334D01*
X018954Y014615D01*
X018883Y014615D01*
X018813Y014545D01*
X018813Y014405D01*
X018883Y014334D01*
X018883Y014154D02*
X018813Y014084D01*
X018813Y013944D01*
X018883Y013874D01*
X018954Y014154D02*
X019234Y013874D01*
X019234Y014154D01*
X018954Y014154D02*
X018883Y014154D01*
X018484Y014194D02*
X018484Y013984D01*
X018414Y013914D01*
X018344Y013984D01*
X018344Y014194D01*
X018274Y014194D02*
X018484Y014194D01*
X018484Y014374D02*
X018063Y014654D01*
X018274Y014194D02*
X018204Y014124D01*
X018204Y013984D01*
X018274Y013734D02*
X018274Y013453D01*
X018063Y013663D01*
X018484Y013663D01*
X018484Y013273D02*
X018484Y012993D01*
X018484Y013133D02*
X018063Y013133D01*
X018204Y012993D01*
X018133Y012813D02*
X018274Y012813D01*
X018344Y012743D01*
X018344Y012533D01*
X018344Y012673D02*
X018484Y012813D01*
X018954Y012953D02*
X019234Y013234D01*
X018954Y013234D02*
X019234Y012953D01*
X018484Y012533D02*
X018063Y012533D01*
X018063Y012743D01*
X018133Y012813D01*
X018813Y012243D02*
X018813Y012103D01*
X018883Y012033D01*
X018813Y012243D02*
X018883Y012313D01*
X018954Y012313D01*
X019234Y012033D01*
X019234Y012313D01*
X021720Y011165D02*
X021720Y010745D01*
X021720Y010885D02*
X021930Y010885D01*
X022000Y010955D01*
X022000Y011095D01*
X021930Y011165D01*
X021720Y011165D01*
X021860Y010885D02*
X022000Y010745D01*
X022321Y010745D02*
X022321Y010955D01*
X022461Y011095D01*
X022461Y011165D01*
X022641Y011025D02*
X022781Y011165D01*
X022781Y010745D01*
X022641Y010745D02*
X022921Y010745D01*
X022851Y010390D02*
X022711Y010390D01*
X022641Y010320D01*
X022641Y010040D01*
X022711Y009970D01*
X022851Y009970D01*
X022921Y010040D01*
X022921Y010320D01*
X022851Y010390D01*
X022781Y010110D02*
X022921Y009970D01*
X023101Y010180D02*
X023381Y010180D01*
X023562Y010250D02*
X023702Y010390D01*
X023702Y009970D01*
X023562Y009970D02*
X023842Y009970D01*
X024022Y009970D02*
X024022Y010250D01*
X024162Y010390D01*
X024302Y010250D01*
X024302Y009970D01*
X024302Y010180D02*
X024022Y010180D01*
X024482Y010180D02*
X024763Y010180D01*
X024693Y009970D02*
X024693Y010390D01*
X024482Y010180D01*
X025403Y009970D02*
X025613Y009970D01*
X025683Y010040D01*
X025683Y010320D01*
X025613Y010390D01*
X025403Y010390D01*
X025403Y009970D01*
X025864Y010040D02*
X025864Y010320D01*
X025934Y010390D01*
X026074Y010390D01*
X026144Y010320D01*
X026324Y010250D02*
X026464Y010390D01*
X026464Y009970D01*
X026324Y009970D02*
X026604Y009970D01*
X026784Y009970D02*
X027065Y010250D01*
X027065Y010320D01*
X026994Y010390D01*
X026854Y010390D01*
X026784Y010320D01*
X026784Y009970D02*
X027065Y009970D01*
X026144Y010040D02*
X026074Y009970D01*
X025934Y009970D01*
X025864Y010040D01*
X022461Y010040D02*
X022391Y009970D01*
X022250Y009970D01*
X022180Y010040D01*
X022180Y010180D02*
X022321Y010250D01*
X022391Y010250D01*
X022461Y010180D01*
X022461Y010040D01*
X022180Y010180D02*
X022180Y010390D01*
X022461Y010390D01*
X022000Y010320D02*
X021930Y010390D01*
X021790Y010390D01*
X021720Y010320D01*
X021720Y010040D01*
X021790Y009970D01*
X021930Y009970D01*
X022000Y010040D01*
X022000Y010180D01*
X021860Y010180D01*
X022321Y010955D02*
X022180Y011095D01*
X022180Y011165D01*
X022908Y015126D02*
X023121Y015126D01*
X023014Y015126D02*
X023014Y015447D01*
X022908Y015340D01*
X023276Y015393D02*
X023329Y015447D01*
X023436Y015447D01*
X023489Y015393D01*
X023489Y015340D01*
X023436Y015286D01*
X023489Y015233D01*
X023489Y015180D01*
X023436Y015126D01*
X023329Y015126D01*
X023276Y015180D01*
X023383Y015286D02*
X023436Y015286D01*
X023371Y015876D02*
X023158Y015876D01*
X023264Y015876D02*
X023264Y016197D01*
X023158Y016090D01*
X023158Y016376D02*
X023371Y016590D01*
X023371Y016643D01*
X023318Y016697D01*
X023211Y016697D01*
X023158Y016643D01*
X023158Y016376D02*
X023371Y016376D01*
X023526Y016536D02*
X023739Y016536D01*
X023686Y016376D02*
X023686Y016697D01*
X023526Y016536D01*
X023894Y016430D02*
X024108Y016643D01*
X024108Y016430D01*
X024054Y016376D01*
X023948Y016376D01*
X023894Y016430D01*
X023894Y016643D01*
X023948Y016697D01*
X024054Y016697D01*
X024108Y016643D01*
X024262Y016697D02*
X024262Y016483D01*
X024369Y016376D01*
X024476Y016483D01*
X024476Y016697D01*
X024631Y016590D02*
X024631Y016536D01*
X024684Y016536D01*
X024684Y016590D01*
X024631Y016590D01*
X024631Y016430D02*
X024631Y016376D01*
X024684Y016376D01*
X024684Y016430D01*
X024631Y016430D01*
X024476Y016197D02*
X024476Y015983D01*
X024369Y015876D01*
X024262Y015983D01*
X024262Y016197D01*
X024108Y016143D02*
X023894Y015930D01*
X023948Y015876D01*
X024054Y015876D01*
X024108Y015930D01*
X024108Y016143D01*
X024054Y016197D01*
X023948Y016197D01*
X023894Y016143D01*
X023894Y015930D01*
X023739Y015876D02*
X023526Y015876D01*
X023739Y016090D01*
X023739Y016143D01*
X023686Y016197D01*
X023579Y016197D01*
X023526Y016143D01*
X024631Y016090D02*
X024631Y016036D01*
X024684Y016036D01*
X024684Y016090D01*
X024631Y016090D01*
X024631Y015930D02*
X024631Y015876D01*
X024684Y015876D01*
X024684Y015930D01*
X024631Y015930D01*
X025183Y015930D02*
X025237Y015876D01*
X025343Y015876D01*
X025397Y015930D01*
X025397Y015983D01*
X025343Y016036D01*
X025183Y016036D01*
X025183Y015930D01*
X025183Y016036D02*
X025290Y016143D01*
X025397Y016197D01*
X025343Y016376D02*
X025237Y016376D01*
X025183Y016430D01*
X025290Y016536D02*
X025343Y016536D01*
X025397Y016483D01*
X025397Y016430D01*
X025343Y016376D01*
X025343Y016536D02*
X025397Y016590D01*
X025397Y016643D01*
X025343Y016697D01*
X025237Y016697D01*
X025183Y016643D01*
X025552Y016430D02*
X025605Y016430D01*
X025605Y016376D01*
X025552Y016376D01*
X025552Y016430D01*
X025736Y016430D02*
X025789Y016376D01*
X025896Y016376D01*
X025949Y016430D01*
X025949Y016483D01*
X025896Y016536D01*
X025842Y016536D01*
X025896Y016536D02*
X025949Y016590D01*
X025949Y016643D01*
X025896Y016697D01*
X025789Y016697D01*
X025736Y016643D01*
X025789Y016197D02*
X025736Y016143D01*
X025789Y016197D02*
X025896Y016197D01*
X025949Y016143D01*
X025949Y016090D01*
X025896Y016036D01*
X025949Y015983D01*
X025949Y015930D01*
X025896Y015876D01*
X025789Y015876D01*
X025736Y015930D01*
X025605Y015930D02*
X025605Y015876D01*
X025552Y015876D01*
X025552Y015930D01*
X025605Y015930D01*
X025842Y016036D02*
X025896Y016036D01*
X026472Y016090D02*
X026472Y015930D01*
X026526Y015876D01*
X026686Y015876D01*
X026686Y016090D01*
X026841Y016036D02*
X026947Y016036D01*
X026841Y015876D02*
X026841Y016197D01*
X027054Y016197D01*
X026841Y016376D02*
X026841Y016697D01*
X027054Y016697D01*
X026947Y016536D02*
X026841Y016536D01*
X026686Y016590D02*
X026686Y016376D01*
X026526Y016376D01*
X026472Y016430D01*
X026472Y016590D01*
X019234Y015536D02*
X019094Y015395D01*
X019094Y015465D02*
X019094Y015255D01*
X019234Y015255D02*
X018813Y015255D01*
X018813Y015465D01*
X018883Y015536D01*
X019024Y015536D01*
X019094Y015465D01*
X013206Y014981D02*
X013206Y014745D01*
X013206Y014981D02*
X012891Y014981D01*
X013206Y014115D02*
X013206Y013879D01*
X012891Y013879D01*
X012891Y013231D02*
X013206Y013231D01*
X013206Y012995D01*
X013206Y012365D02*
X013206Y012129D01*
X012891Y012129D01*
X010034Y012362D02*
X009483Y012362D01*
X009483Y012873D01*
X010034Y012873D01*
X009483Y012873D02*
X009326Y012873D01*
X009326Y012362D02*
X009483Y012362D01*
X005930Y012180D02*
X005930Y011680D01*
X005680Y011430D01*
X005930Y011180D01*
X005930Y010680D01*
X005680Y010430D01*
X005180Y010430D01*
X004930Y010680D01*
X004930Y011180D01*
X005180Y011430D01*
X004930Y011680D01*
X004930Y012180D01*
X005180Y012430D01*
X004930Y012680D01*
X004930Y013180D01*
X005180Y013430D01*
X004930Y013680D01*
X004930Y014180D01*
X005180Y014430D01*
X004930Y014680D01*
X004930Y015180D01*
X005180Y015430D01*
X004930Y015680D01*
X004930Y016180D01*
X005180Y016430D01*
X005680Y016430D01*
X005930Y016180D01*
X005930Y015680D01*
X005680Y015430D01*
X005930Y015180D01*
X005930Y014680D01*
X005680Y014430D01*
X005930Y014180D01*
X005930Y013680D01*
X005680Y013430D01*
X005930Y013180D01*
X005930Y012680D01*
X005680Y012430D01*
X005930Y012180D01*
X006857Y016056D02*
X006857Y016296D01*
X014108Y009627D02*
X014502Y009627D01*
X014305Y009233D01*
X014108Y009627D01*
X012123Y004722D02*
X012123Y004564D01*
X011612Y004564D01*
X011612Y004013D01*
X012123Y004013D02*
X012123Y004564D01*
X011612Y004564D02*
X011612Y004722D01*
X006310Y004541D02*
X006310Y004069D01*
X005798Y003321D02*
X005562Y003321D01*
X005050Y004069D02*
X005050Y004541D01*
X005562Y005289D02*
X005798Y005289D01*
X004699Y006580D02*
X003911Y006580D01*
X003867Y006585D01*
X003823Y006594D01*
X003779Y006605D01*
X003737Y006621D01*
X003696Y006639D01*
X003657Y006661D01*
X003620Y006685D01*
X003584Y006713D01*
X003551Y006743D01*
X003521Y006776D01*
X003493Y006811D01*
X003468Y006848D01*
X003446Y006887D01*
X003427Y006928D01*
X003412Y006970D01*
X003400Y007013D01*
X003400Y007722D02*
X003412Y007765D01*
X003427Y007807D01*
X003446Y007848D01*
X003468Y007887D01*
X003493Y007924D01*
X003521Y007959D01*
X003551Y007992D01*
X003584Y008022D01*
X003620Y008050D01*
X003657Y008074D01*
X003696Y008096D01*
X003737Y008114D01*
X003779Y008130D01*
X003823Y008141D01*
X003867Y008150D01*
X003911Y008155D01*
X004699Y008155D01*
X004743Y008150D01*
X004787Y008141D01*
X004831Y008130D01*
X004873Y008114D01*
X004914Y008096D01*
X004953Y008074D01*
X004990Y008050D01*
X005026Y008022D01*
X005059Y007992D01*
X005089Y007959D01*
X005117Y007924D01*
X005142Y007887D01*
X005164Y007848D01*
X005183Y007807D01*
X005198Y007765D01*
X005210Y007722D01*
X005210Y007013D02*
X005198Y006970D01*
X005183Y006928D01*
X005164Y006887D01*
X005142Y006848D01*
X005117Y006811D01*
X005089Y006776D01*
X005059Y006743D01*
X005026Y006713D01*
X004990Y006685D01*
X004953Y006661D01*
X004914Y006639D01*
X004873Y006621D01*
X004831Y006605D01*
X004787Y006594D01*
X004743Y006585D01*
X004699Y006580D01*
X017845Y004270D02*
X017845Y004120D01*
X017945Y004170D01*
X017995Y004170D01*
X018045Y004120D01*
X018045Y004020D01*
X017995Y003970D01*
X017895Y003970D01*
X017845Y004020D01*
X017845Y004270D02*
X018045Y004270D01*
X018545Y004170D02*
X018545Y003970D01*
X018645Y003970D02*
X018645Y004120D01*
X018695Y004170D01*
X018745Y004120D01*
X018745Y003970D01*
X018895Y003970D02*
X018995Y003970D01*
X018945Y003970D02*
X018945Y004170D01*
X018895Y004170D01*
X018945Y004270D02*
X018945Y004320D01*
X019128Y004270D02*
X019178Y004270D01*
X019178Y003970D01*
X019128Y003970D02*
X019228Y003970D01*
X019361Y003970D02*
X019461Y003970D01*
X019411Y003970D02*
X019411Y004270D01*
X019361Y004270D01*
X019594Y004170D02*
X019645Y004170D01*
X019645Y003970D01*
X019695Y003970D02*
X019594Y003970D01*
X019828Y004020D02*
X019828Y004120D01*
X019878Y004170D01*
X019978Y004170D01*
X020028Y004120D01*
X020028Y004020D01*
X019978Y003970D01*
X019878Y003970D01*
X019828Y004020D01*
X019645Y004270D02*
X019645Y004320D01*
X020178Y004270D02*
X020178Y003970D01*
X020178Y004120D02*
X020228Y004170D01*
X020328Y004170D01*
X020378Y004120D01*
X020378Y003970D01*
X020528Y003970D02*
X020528Y004170D01*
X020578Y004170D01*
X020628Y004120D01*
X020678Y004170D01*
X020728Y004120D01*
X020728Y003970D01*
X020628Y003970D02*
X020628Y004120D01*
X020877Y004120D02*
X020927Y004070D01*
X021028Y004070D01*
X021078Y004020D01*
X021028Y003970D01*
X020877Y003970D01*
X020877Y004120D02*
X020927Y004170D01*
X021078Y004170D01*
X021277Y004020D02*
X021277Y003970D01*
X021327Y003970D01*
X021327Y004020D01*
X021277Y004020D01*
X021327Y003970D02*
X021227Y003870D01*
X021811Y004020D02*
X021861Y003970D01*
X021961Y003970D01*
X022011Y004020D01*
X022011Y004120D01*
X021961Y004170D01*
X021911Y004170D01*
X021811Y004120D01*
X021811Y004270D01*
X022011Y004270D01*
X022510Y004270D02*
X022510Y003970D01*
X022610Y004070D01*
X022710Y003970D01*
X022710Y004270D01*
X018645Y004120D02*
X018595Y004170D01*
X018545Y004170D01*
D13*
X025348Y012068D02*
X025949Y012068D01*
X025949Y012468D01*
X025648Y012268D02*
X025648Y012068D01*
X025348Y012068D02*
X025348Y012468D01*
X025548Y012758D02*
X025348Y012958D01*
X025548Y013158D01*
X025949Y013158D01*
X025949Y013449D02*
X025348Y013449D01*
X025348Y013749D01*
X025448Y013849D01*
X025648Y013849D01*
X025749Y013749D01*
X025749Y013449D01*
X025749Y013649D02*
X025949Y013849D01*
X025348Y014139D02*
X025348Y014540D01*
X025348Y014339D02*
X025949Y014339D01*
X025949Y014830D02*
X025348Y014830D01*
X025648Y014830D02*
X025648Y015230D01*
X025348Y015230D02*
X025949Y015230D01*
X025648Y013158D02*
X025648Y012758D01*
X025548Y012758D02*
X025949Y012758D01*
D14*
X022788Y015443D02*
X022673Y015327D01*
X022443Y015327D01*
X022327Y015443D01*
X022327Y015903D01*
X022443Y016018D01*
X022673Y016018D01*
X022788Y015903D01*
X020745Y006456D02*
X020975Y006225D01*
X020975Y005765D01*
X020515Y005765D02*
X020515Y006225D01*
X020745Y006456D01*
X020515Y006110D02*
X020975Y006110D01*
X026015Y005975D02*
X026015Y005515D01*
X026015Y005860D02*
X026475Y005860D01*
X026475Y005975D02*
X026475Y005515D01*
X026475Y005975D02*
X026245Y006206D01*
X026015Y005975D01*
X023163Y002456D02*
X023163Y001765D01*
X022703Y002456D01*
X022703Y001765D01*
X018163Y002015D02*
X018163Y002706D01*
X017703Y002706D02*
X018163Y002015D01*
X017703Y002015D02*
X017703Y002706D01*
D15*
X004391Y000871D02*
X004335Y000927D01*
X004335Y001041D01*
X004391Y001098D01*
X004505Y001041D02*
X004505Y000927D01*
X004448Y000871D01*
X004391Y000871D01*
X004505Y001041D02*
X004562Y001098D01*
X004618Y001098D01*
X004675Y001041D01*
X004675Y000927D01*
X004618Y000871D01*
X004448Y001239D02*
X004448Y001352D01*
X004391Y001296D02*
X004618Y001296D01*
X004675Y001352D01*
X004618Y001485D02*
X004562Y001541D01*
X004562Y001711D01*
X004505Y001711D02*
X004675Y001711D01*
X004675Y001541D01*
X004618Y001485D01*
X004448Y001541D02*
X004448Y001655D01*
X004505Y001711D01*
X004448Y001853D02*
X004448Y001966D01*
X004391Y001910D02*
X004618Y001910D01*
X004675Y001966D01*
X004618Y002098D02*
X004675Y002155D01*
X004675Y002325D01*
X004448Y002325D01*
X004505Y002467D02*
X004448Y002523D01*
X004448Y002694D01*
X004562Y002637D02*
X004562Y002523D01*
X004505Y002467D01*
X004675Y002467D02*
X004675Y002637D01*
X004618Y002694D01*
X004562Y002637D01*
X004618Y002098D02*
X004448Y002098D01*
X005685Y001287D02*
X005798Y001400D01*
X005798Y001060D01*
X005685Y001060D02*
X005912Y001060D01*
X006422Y001060D02*
X006422Y001400D01*
X006592Y001287D02*
X006422Y001173D01*
X006592Y001060D01*
X007430Y001180D02*
X007430Y001680D01*
X007680Y001930D01*
X008180Y001930D01*
X008430Y001680D01*
X008680Y001930D01*
X009180Y001930D01*
X009430Y001680D01*
X009680Y001930D01*
X010180Y001930D01*
X010430Y001680D01*
X010680Y001930D01*
X011180Y001930D01*
X011430Y001680D01*
X011680Y001930D01*
X012180Y001930D01*
X012430Y001680D01*
X012680Y001930D01*
X013180Y001930D01*
X013430Y001680D01*
X013430Y001180D01*
X013180Y000930D01*
X012680Y000930D01*
X012430Y001180D01*
X012180Y000930D01*
X011680Y000930D01*
X011430Y001180D01*
X011180Y000930D01*
X010680Y000930D01*
X010430Y001180D01*
X010180Y000930D01*
X009680Y000930D01*
X009430Y001180D01*
X009180Y000930D01*
X008680Y000930D01*
X008430Y001180D01*
X008180Y000930D01*
X007680Y000930D01*
X007430Y001180D01*
X007540Y000844D02*
X007491Y000796D01*
X007491Y000602D01*
X007540Y000554D01*
X007636Y000554D01*
X007685Y000602D01*
X007685Y000699D01*
X007588Y000699D01*
X007685Y000796D02*
X007636Y000844D01*
X007540Y000844D01*
X007813Y000844D02*
X008007Y000554D01*
X008007Y000844D01*
X008136Y000844D02*
X008281Y000844D01*
X008329Y000796D01*
X008329Y000602D01*
X008281Y000554D01*
X008136Y000554D01*
X008136Y000844D01*
X007813Y000844D02*
X007813Y000554D01*
X010554Y000602D02*
X010602Y000554D01*
X010699Y000554D01*
X010747Y000602D01*
X010747Y000651D01*
X010699Y000699D01*
X010602Y000699D01*
X010554Y000747D01*
X010554Y000796D01*
X010602Y000844D01*
X010699Y000844D01*
X010747Y000796D01*
X010876Y000796D02*
X010876Y000602D01*
X010924Y000554D01*
X011021Y000554D01*
X011070Y000602D01*
X011198Y000554D02*
X011198Y000844D01*
X011070Y000796D02*
X011021Y000844D01*
X010924Y000844D01*
X010876Y000796D01*
X011198Y000651D02*
X011392Y000844D01*
X011491Y000699D02*
X011685Y000699D01*
X011588Y000796D02*
X011588Y000602D01*
X011392Y000554D02*
X011247Y000699D01*
X011813Y000796D02*
X011862Y000844D01*
X011959Y000844D01*
X012007Y000796D01*
X012007Y000747D01*
X011959Y000699D01*
X012007Y000651D01*
X012007Y000602D01*
X011959Y000554D01*
X011862Y000554D01*
X011813Y000602D01*
X011910Y000699D02*
X011959Y000699D01*
X012136Y000651D02*
X012233Y000554D01*
X012329Y000651D01*
X012329Y000844D01*
X012136Y000844D02*
X012136Y000651D01*
X013379Y001837D02*
X013606Y001837D01*
X013492Y001837D02*
X013492Y002177D01*
X013379Y002064D01*
X013747Y002121D02*
X013747Y001894D01*
X013974Y002121D01*
X013974Y001894D01*
X013917Y001837D01*
X013804Y001837D01*
X013747Y001894D01*
X013747Y002121D02*
X013804Y002177D01*
X013917Y002177D01*
X013974Y002121D01*
X014115Y002121D02*
X014115Y001894D01*
X014342Y002121D01*
X014342Y001894D01*
X014286Y001837D01*
X014172Y001837D01*
X014115Y001894D01*
X014115Y002121D02*
X014172Y002177D01*
X014286Y002177D01*
X014342Y002121D01*
X014484Y002064D02*
X014484Y001837D01*
X014711Y001837D02*
X014711Y002007D01*
X014654Y002064D01*
X014484Y002064D01*
X012373Y002117D02*
X012180Y002117D01*
X012276Y002117D02*
X012276Y002407D01*
X012180Y002310D01*
X012051Y002117D02*
X011857Y002117D01*
X011954Y002117D02*
X011954Y002407D01*
X011857Y002310D01*
X011728Y002359D02*
X011680Y002407D01*
X011583Y002407D01*
X011535Y002359D01*
X011535Y002165D01*
X011583Y002117D01*
X011680Y002117D01*
X011728Y002165D01*
X011669Y002910D02*
X011783Y002910D01*
X011839Y002967D01*
X011839Y003023D01*
X011783Y003080D01*
X011612Y003080D01*
X011612Y002967D01*
X011669Y002910D01*
X011612Y003080D02*
X011726Y003194D01*
X011839Y003250D01*
X011742Y003329D02*
X011799Y003385D01*
X011799Y003612D01*
X011742Y003669D01*
X011572Y003669D01*
X011572Y003329D01*
X011742Y003329D01*
X011940Y003385D02*
X011997Y003329D01*
X012111Y003329D01*
X012167Y003385D01*
X012167Y003442D01*
X012111Y003499D01*
X012054Y003499D01*
X012111Y003499D02*
X012167Y003556D01*
X012167Y003612D01*
X012111Y003669D01*
X011997Y003669D01*
X011940Y003612D01*
X011431Y003612D02*
X011204Y003385D01*
X011204Y003329D01*
X011431Y003329D01*
X011287Y003194D02*
X011287Y003137D01*
X011230Y003080D01*
X011287Y003023D01*
X011287Y002967D01*
X011230Y002910D01*
X011117Y002910D01*
X011060Y002967D01*
X011173Y003080D02*
X011230Y003080D01*
X011287Y003194D02*
X011230Y003250D01*
X011117Y003250D01*
X011060Y003194D01*
X011428Y002967D02*
X011428Y002910D01*
X011485Y002910D01*
X011485Y002967D01*
X011428Y002967D01*
X011981Y003023D02*
X011981Y003250D01*
X011981Y003023D02*
X012094Y002910D01*
X012208Y003023D01*
X012208Y003250D01*
X011431Y003612D02*
X011431Y003669D01*
X011204Y003669D01*
X010310Y003550D02*
X007550Y003550D01*
X007550Y006170D01*
X007690Y006310D01*
X010310Y006310D01*
X010310Y003550D01*
X013160Y003799D02*
X013217Y003742D01*
X013330Y003742D01*
X013387Y003799D01*
X013528Y003742D02*
X013755Y003969D01*
X013755Y004026D01*
X013699Y004082D01*
X013585Y004082D01*
X013528Y004026D01*
X013387Y004026D02*
X013330Y004082D01*
X013217Y004082D01*
X013160Y004026D01*
X013160Y003799D01*
X013528Y003742D02*
X013755Y003742D01*
X013997Y003747D02*
X014224Y003747D01*
X014111Y003747D02*
X014111Y004088D01*
X013997Y003974D01*
X014310Y004235D02*
X014310Y004575D01*
X014480Y004575D01*
X014537Y004519D01*
X014537Y004405D01*
X014480Y004348D01*
X014310Y004348D01*
X014423Y004348D02*
X014537Y004235D01*
X014678Y004235D02*
X014905Y004462D01*
X014905Y004519D01*
X014848Y004575D01*
X014735Y004575D01*
X014678Y004519D01*
X015047Y004519D02*
X015103Y004575D01*
X015217Y004575D01*
X015273Y004519D01*
X015273Y004462D01*
X015217Y004405D01*
X015273Y004348D01*
X015273Y004292D01*
X015217Y004235D01*
X015103Y004235D01*
X015047Y004292D01*
X014905Y004235D02*
X014678Y004235D01*
X014791Y004088D02*
X014904Y004088D01*
X014961Y004031D01*
X014734Y003804D01*
X014791Y003747D01*
X014904Y003747D01*
X014961Y003804D01*
X014961Y004031D01*
X015102Y004088D02*
X015102Y003747D01*
X015102Y003861D02*
X015273Y003974D01*
X015102Y003861D02*
X015273Y003747D01*
X014734Y003804D02*
X014734Y004031D01*
X014791Y004088D01*
X014593Y004031D02*
X014366Y003804D01*
X014423Y003747D01*
X014536Y003747D01*
X014593Y003804D01*
X014593Y004031D01*
X014536Y004088D01*
X014423Y004088D01*
X014366Y004031D01*
X014366Y003804D01*
X015160Y004405D02*
X015217Y004405D01*
X015191Y004962D02*
X015418Y004962D01*
X015305Y004962D02*
X015305Y005302D01*
X015191Y005189D01*
X015560Y005246D02*
X015560Y005019D01*
X015786Y005246D01*
X015786Y005019D01*
X015730Y004962D01*
X015616Y004962D01*
X015560Y005019D01*
X015560Y005246D02*
X015616Y005302D01*
X015730Y005302D01*
X015786Y005246D01*
X015928Y005246D02*
X015928Y005019D01*
X016155Y005246D01*
X016155Y005019D01*
X016098Y004962D01*
X015985Y004962D01*
X015928Y005019D01*
X015928Y005246D02*
X015985Y005302D01*
X016098Y005302D01*
X016155Y005246D01*
X016665Y005189D02*
X016665Y004962D01*
X016891Y004962D02*
X016891Y005132D01*
X016835Y005189D01*
X016665Y005189D01*
X016873Y005429D02*
X016986Y005429D01*
X017043Y005486D01*
X017185Y005429D02*
X017411Y005429D01*
X017298Y005429D02*
X017298Y005770D01*
X017185Y005656D01*
X017043Y005713D02*
X016986Y005770D01*
X016873Y005770D01*
X016816Y005713D01*
X016816Y005486D01*
X016873Y005429D01*
X017033Y005302D02*
X017260Y005302D01*
X017146Y005132D02*
X017033Y005132D01*
X017033Y004962D02*
X017033Y005302D01*
X017553Y005486D02*
X017780Y005713D01*
X017780Y005486D01*
X017723Y005429D01*
X017610Y005429D01*
X017553Y005486D01*
X017553Y005713D01*
X017610Y005770D01*
X017723Y005770D01*
X017780Y005713D01*
X017797Y005929D02*
X018024Y005929D01*
X017911Y005929D02*
X017911Y006269D01*
X017797Y006156D01*
X017656Y006212D02*
X017656Y006099D01*
X017599Y006042D01*
X017429Y006042D01*
X017429Y005929D02*
X017429Y006269D01*
X017599Y006269D01*
X017656Y006212D01*
X017542Y006042D02*
X017656Y005929D01*
X018165Y005985D02*
X018165Y006042D01*
X018222Y006099D01*
X018336Y006099D01*
X018392Y006042D01*
X018392Y005985D01*
X018336Y005929D01*
X018222Y005929D01*
X018165Y005985D01*
X018222Y006099D02*
X018165Y006156D01*
X018165Y006212D01*
X018222Y006269D01*
X018336Y006269D01*
X018392Y006212D01*
X018392Y006156D01*
X018336Y006099D01*
X018616Y006099D02*
X018616Y005985D01*
X018673Y005929D01*
X018786Y005929D01*
X018843Y005985D01*
X018843Y006042D01*
X018786Y006099D01*
X018616Y006099D01*
X018730Y006212D01*
X018843Y006269D01*
X018985Y006212D02*
X018985Y006156D01*
X019041Y006099D01*
X019155Y006099D01*
X019211Y006042D01*
X019211Y005985D01*
X019155Y005929D01*
X019041Y005929D01*
X018985Y005985D01*
X018985Y006042D01*
X019041Y006099D01*
X019155Y006099D02*
X019211Y006156D01*
X019211Y006212D01*
X019155Y006269D01*
X019041Y006269D01*
X018985Y006212D01*
X019353Y006212D02*
X019353Y005985D01*
X019580Y006212D01*
X019580Y005985D01*
X019523Y005929D01*
X019410Y005929D01*
X019353Y005985D01*
X019353Y006212D02*
X019410Y006269D01*
X019523Y006269D01*
X019580Y006212D01*
X019721Y006269D02*
X019721Y005929D01*
X019721Y006042D02*
X019891Y006156D01*
X019721Y006042D02*
X019891Y005929D01*
X019879Y007260D02*
X020106Y007260D01*
X020162Y007317D01*
X020162Y007430D01*
X020106Y007487D01*
X020106Y007628D02*
X020162Y007685D01*
X020162Y007798D01*
X020106Y007855D01*
X019992Y007855D01*
X019992Y007742D01*
X019879Y007855D02*
X019822Y007798D01*
X019822Y007685D01*
X019879Y007628D01*
X020106Y007628D01*
X019879Y007487D02*
X019822Y007430D01*
X019822Y007317D01*
X019879Y007260D01*
X019605Y007723D02*
X019378Y007723D01*
X019492Y007723D02*
X019492Y008063D01*
X019378Y007949D01*
X019237Y008006D02*
X019237Y007779D01*
X019180Y007723D01*
X019010Y007723D01*
X019010Y008063D01*
X019180Y008063D01*
X019237Y008006D01*
X019822Y007997D02*
X019822Y008167D01*
X019879Y008223D01*
X019992Y008223D01*
X020049Y008167D01*
X020049Y007997D01*
X020049Y008110D02*
X020162Y008223D01*
X020162Y008365D02*
X019822Y008365D01*
X019936Y008478D01*
X019822Y008592D01*
X020162Y008592D01*
X019992Y008733D02*
X019992Y008960D01*
X020162Y008903D02*
X019822Y008903D01*
X019992Y008733D01*
X019879Y009102D02*
X019822Y009158D01*
X019822Y009272D01*
X019879Y009328D01*
X020106Y009102D01*
X020162Y009158D01*
X020162Y009272D01*
X020106Y009328D01*
X019879Y009328D01*
X019879Y009470D02*
X019822Y009527D01*
X019822Y009640D01*
X019879Y009697D01*
X020106Y009470D01*
X020162Y009527D01*
X020162Y009640D01*
X020106Y009697D01*
X019879Y009697D01*
X019992Y009838D02*
X019992Y010065D01*
X019992Y010207D02*
X019992Y010433D01*
X019879Y010575D02*
X020106Y010575D01*
X020162Y010632D01*
X020162Y010745D01*
X020106Y010802D01*
X019992Y010802D01*
X019992Y010688D01*
X019879Y010575D02*
X019822Y010632D01*
X019822Y010745D01*
X019879Y010802D01*
X019730Y011180D02*
X019080Y011180D01*
X019730Y011180D02*
X019753Y011182D01*
X019776Y011187D01*
X019798Y011196D01*
X019818Y011209D01*
X019836Y011224D01*
X019851Y011242D01*
X019864Y011262D01*
X019873Y011284D01*
X019878Y011307D01*
X019880Y011330D01*
X019880Y011680D01*
X019780Y011780D01*
X019780Y017080D01*
X019880Y017180D01*
X019880Y017530D01*
X019878Y017553D01*
X019873Y017576D01*
X019864Y017598D01*
X019851Y017618D01*
X019836Y017636D01*
X019818Y017651D01*
X019798Y017664D01*
X019776Y017673D01*
X019753Y017678D01*
X019730Y017680D01*
X019080Y017680D01*
X018280Y017680D02*
X017630Y017680D01*
X017607Y017678D01*
X017584Y017673D01*
X017562Y017664D01*
X017542Y017651D01*
X017524Y017636D01*
X017509Y017618D01*
X017496Y017598D01*
X017487Y017576D01*
X017482Y017553D01*
X017480Y017530D01*
X017480Y017180D01*
X017580Y017080D01*
X017580Y011780D01*
X017480Y011680D01*
X017480Y011330D01*
X017482Y011307D01*
X017487Y011284D01*
X017496Y011262D01*
X017509Y011242D01*
X017524Y011224D01*
X017542Y011209D01*
X017562Y011196D01*
X017584Y011187D01*
X017607Y011182D01*
X017630Y011180D01*
X018280Y011180D01*
X018077Y010807D02*
X017964Y010807D01*
X017907Y010750D01*
X017766Y010750D02*
X017766Y010523D01*
X017709Y010466D01*
X017539Y010466D01*
X017539Y010807D01*
X017709Y010807D01*
X017766Y010750D01*
X018077Y010807D02*
X018134Y010750D01*
X018134Y010693D01*
X017907Y010466D01*
X018134Y010466D01*
X017397Y010466D02*
X017171Y010466D01*
X017171Y010523D01*
X017397Y010750D01*
X017397Y010807D01*
X017171Y010807D01*
X016508Y010539D02*
X016508Y011618D01*
X016508Y012118D02*
X016508Y013196D01*
X016508Y013680D02*
X016508Y014774D01*
X016508Y015258D02*
X016508Y016305D01*
X016149Y016555D01*
X016132Y016554D02*
X015938Y016554D01*
X015938Y016844D01*
X016132Y016844D01*
X016261Y016844D02*
X016406Y016844D01*
X016454Y016796D01*
X016454Y016602D01*
X016406Y016554D01*
X016261Y016554D01*
X016261Y016844D01*
X016035Y016699D02*
X015938Y016699D01*
X015810Y016554D02*
X015616Y016554D01*
X015616Y016844D01*
X015636Y016438D02*
X015491Y016438D01*
X015491Y016147D01*
X015491Y016244D02*
X015636Y016244D01*
X015685Y016293D01*
X015685Y016389D01*
X015636Y016438D01*
X015588Y016244D02*
X015685Y016147D01*
X015813Y016196D02*
X015813Y016293D01*
X015862Y016341D01*
X015959Y016341D01*
X016007Y016293D01*
X016007Y016244D01*
X015813Y016244D01*
X015813Y016196D02*
X015862Y016147D01*
X015959Y016147D01*
X016136Y016147D02*
X016233Y016147D01*
X016184Y016147D02*
X016184Y016438D01*
X016136Y016438D01*
X016399Y016341D02*
X016496Y016341D01*
X016544Y016293D01*
X016544Y016147D01*
X016399Y016147D01*
X016351Y016196D01*
X016399Y016244D01*
X016544Y016244D01*
X016673Y016196D02*
X016721Y016147D01*
X016866Y016147D01*
X016866Y016099D02*
X016818Y016051D01*
X016770Y016051D01*
X016866Y016099D02*
X016866Y016341D01*
X016673Y016341D02*
X016673Y016196D01*
X016631Y016554D02*
X016583Y016602D01*
X016631Y016554D02*
X016728Y016554D01*
X016777Y016602D01*
X016777Y016650D01*
X016728Y016699D01*
X016680Y016699D01*
X016728Y016699D02*
X016777Y016747D01*
X016777Y016796D01*
X016728Y016844D01*
X016631Y016844D01*
X016583Y016796D01*
X015448Y017416D02*
X015448Y017616D01*
X015398Y017667D01*
X015248Y017667D01*
X015248Y017366D01*
X015398Y017366D01*
X015448Y017416D01*
X015117Y017366D02*
X014916Y017366D01*
X014916Y017667D01*
X015117Y017667D01*
X015017Y017516D02*
X014916Y017516D01*
X014785Y017366D02*
X014585Y017366D01*
X014585Y017667D01*
X014261Y017738D02*
X014261Y017511D01*
X014147Y017398D01*
X014034Y017511D01*
X014034Y017738D01*
X013892Y017681D02*
X013836Y017738D01*
X013722Y017738D01*
X013665Y017681D01*
X013892Y017681D02*
X013892Y017624D01*
X013665Y017398D01*
X013892Y017398D01*
X013524Y017398D02*
X013297Y017398D01*
X013410Y017398D02*
X013410Y017738D01*
X013297Y017624D01*
X013156Y017568D02*
X012929Y017568D01*
X012930Y017680D02*
X013180Y017930D01*
X013180Y018430D01*
X012930Y018680D01*
X012430Y018680D01*
X012180Y018430D01*
X011930Y018680D01*
X011430Y018680D01*
X011180Y018430D01*
X010930Y018680D01*
X010430Y018680D01*
X010180Y018430D01*
X010180Y017930D01*
X010430Y017680D01*
X010930Y017680D01*
X011180Y017930D01*
X011430Y017680D01*
X011930Y017680D01*
X012180Y017930D01*
X012430Y017680D01*
X012930Y017680D01*
X013042Y017681D02*
X013042Y017454D01*
X012741Y017338D02*
X012741Y016998D01*
X012741Y017111D02*
X012911Y017224D01*
X012741Y017111D02*
X012911Y016998D01*
X012599Y016998D02*
X012372Y016998D01*
X012486Y016998D02*
X012486Y017338D01*
X012372Y017224D01*
X011769Y017185D02*
X011599Y017298D01*
X011769Y017412D01*
X011599Y017525D02*
X011599Y017185D01*
X011089Y017185D02*
X010862Y017185D01*
X011089Y017412D01*
X011089Y017469D01*
X011033Y017525D01*
X010919Y017525D01*
X010862Y017469D01*
X010735Y017242D02*
X010735Y017185D01*
X010678Y017185D01*
X010678Y017242D01*
X010735Y017242D01*
X010537Y017185D02*
X010310Y017185D01*
X010537Y017412D01*
X010537Y017469D01*
X010480Y017525D01*
X010367Y017525D01*
X010310Y017469D01*
X011216Y016669D02*
X011386Y016669D01*
X011443Y016612D01*
X011443Y016499D01*
X011386Y016442D01*
X011216Y016442D01*
X011216Y016329D02*
X011216Y016669D01*
X011585Y016499D02*
X011755Y016499D01*
X011811Y016442D01*
X011811Y016385D01*
X011755Y016329D01*
X011641Y016329D01*
X011585Y016385D01*
X011585Y016499D01*
X011698Y016612D01*
X011811Y016669D01*
X011443Y016329D02*
X011330Y016442D01*
X012279Y016138D02*
X012279Y015798D01*
X012279Y015911D02*
X012449Y015911D01*
X012506Y015968D01*
X012506Y016081D01*
X012449Y016138D01*
X012279Y016138D01*
X012392Y015911D02*
X012506Y015798D01*
X012647Y015798D02*
X012874Y016024D01*
X012874Y016081D01*
X012817Y016138D01*
X012704Y016138D01*
X012647Y016081D01*
X013015Y016081D02*
X013072Y016138D01*
X013186Y016138D01*
X013242Y016081D01*
X013242Y016024D01*
X013015Y015798D01*
X013242Y015798D01*
X012984Y015525D02*
X012984Y015185D01*
X012984Y015298D02*
X013154Y015185D01*
X013297Y015179D02*
X013411Y015066D01*
X013354Y014924D02*
X013581Y014924D01*
X013638Y014868D01*
X013638Y014754D01*
X013581Y014698D01*
X013354Y014698D01*
X013297Y014754D01*
X013297Y014868D01*
X013354Y014924D01*
X013524Y014811D02*
X013638Y014924D01*
X013638Y015066D02*
X013638Y015293D01*
X013638Y015179D02*
X013297Y015179D01*
X013154Y015412D02*
X012984Y015298D01*
X012843Y015242D02*
X012786Y015185D01*
X012673Y015185D01*
X012616Y015242D01*
X012843Y015469D01*
X012843Y015242D01*
X012843Y015469D02*
X012786Y015525D01*
X012673Y015525D01*
X012616Y015469D01*
X012616Y015242D01*
X012474Y015185D02*
X012248Y015185D01*
X012361Y015185D02*
X012361Y015525D01*
X012248Y015412D01*
X012647Y015798D02*
X012874Y015798D01*
X013685Y016685D02*
X013912Y016685D01*
X013798Y016685D02*
X013798Y017025D01*
X013685Y016912D01*
X014053Y016969D02*
X014053Y016742D01*
X014280Y016969D01*
X014280Y016742D01*
X014223Y016685D01*
X014110Y016685D01*
X014053Y016742D01*
X014053Y016969D02*
X014110Y017025D01*
X014223Y017025D01*
X014280Y016969D01*
X014422Y017025D02*
X014422Y016685D01*
X014422Y016798D02*
X014592Y016912D01*
X014422Y016798D02*
X014592Y016685D01*
X015430Y017680D02*
X015930Y017680D01*
X016180Y017930D01*
X016430Y017680D01*
X016930Y017680D01*
X017180Y017930D01*
X017180Y018430D01*
X016930Y018680D01*
X016430Y018680D01*
X016180Y018430D01*
X015930Y018680D01*
X015430Y018680D01*
X015180Y018430D01*
X015180Y017930D01*
X015430Y017680D01*
X014113Y017960D02*
X014000Y018073D01*
X014056Y018073D02*
X013886Y018073D01*
X013886Y017960D02*
X013886Y018300D01*
X014056Y018300D01*
X014113Y018244D01*
X014113Y018130D01*
X014056Y018073D01*
X013754Y017960D02*
X013641Y017960D01*
X013698Y017960D02*
X013698Y018300D01*
X013754Y018300D02*
X013641Y018300D01*
X013499Y018244D02*
X013499Y018130D01*
X013443Y018073D01*
X013272Y018073D01*
X013272Y017960D02*
X013272Y018300D01*
X013443Y018300D01*
X013499Y018244D01*
X013649Y018805D02*
X014008Y018555D01*
X013649Y018805D02*
X009711Y018805D01*
X009367Y018555D01*
X009348Y018610D02*
X009235Y018610D01*
X009178Y018667D01*
X009037Y018610D02*
X008923Y018723D01*
X008980Y018723D02*
X008810Y018723D01*
X008810Y018610D02*
X008810Y018950D01*
X008980Y018950D01*
X009037Y018894D01*
X009037Y018780D01*
X008980Y018723D01*
X009178Y018894D02*
X009235Y018950D01*
X009348Y018950D01*
X009405Y018894D01*
X009405Y018837D01*
X009348Y018780D01*
X009405Y018723D01*
X009405Y018667D01*
X009348Y018610D01*
X009348Y018780D02*
X009292Y018780D01*
X008180Y018430D02*
X008180Y017930D01*
X007930Y017680D01*
X007430Y017680D01*
X007180Y017930D01*
X006930Y017680D01*
X006430Y017680D01*
X006180Y017930D01*
X006180Y018430D01*
X006430Y018680D01*
X006930Y018680D01*
X007180Y018430D01*
X007430Y018680D01*
X007930Y018680D01*
X008180Y018430D01*
X006189Y018491D02*
X006189Y018661D01*
X006132Y018718D01*
X005962Y018718D01*
X005962Y018491D01*
X005821Y018548D02*
X005821Y018661D01*
X005764Y018718D01*
X005651Y018718D01*
X005594Y018661D01*
X005594Y018548D01*
X005651Y018491D01*
X005764Y018491D01*
X005821Y018548D01*
X005718Y018313D02*
X005767Y018264D01*
X005573Y018071D01*
X005622Y018022D01*
X005718Y018022D01*
X005767Y018071D01*
X005767Y018264D01*
X005718Y018313D02*
X005622Y018313D01*
X005573Y018264D01*
X005573Y018071D01*
X005445Y018071D02*
X005396Y018022D01*
X005299Y018022D01*
X005251Y018071D01*
X005445Y018264D01*
X005445Y018071D01*
X005445Y018264D02*
X005396Y018313D01*
X005299Y018313D01*
X005251Y018264D01*
X005251Y018071D01*
X005122Y018022D02*
X004929Y018022D01*
X005025Y018022D02*
X005025Y018313D01*
X004929Y018216D01*
X004961Y018491D02*
X004961Y018718D01*
X005103Y018718D02*
X005216Y018718D01*
X005160Y018775D02*
X005160Y018548D01*
X005216Y018491D01*
X005405Y018548D02*
X005405Y018775D01*
X005348Y018718D02*
X005462Y018718D01*
X005405Y018548D02*
X005462Y018491D01*
X004961Y018491D02*
X004791Y018491D01*
X004735Y018548D01*
X004735Y018718D01*
X004593Y018718D02*
X004536Y018661D01*
X004366Y018661D01*
X004366Y018491D02*
X004536Y018491D01*
X004593Y018548D01*
X004593Y018605D01*
X004536Y018661D01*
X004593Y018718D02*
X004593Y018775D01*
X004536Y018832D01*
X004366Y018832D01*
X004366Y018491D01*
X005896Y018216D02*
X005896Y018022D01*
X006089Y018022D02*
X006089Y018168D01*
X006041Y018216D01*
X005896Y018216D01*
X006017Y016650D02*
X006017Y016310D01*
X005904Y016310D02*
X006131Y016310D01*
X006272Y016367D02*
X006272Y016593D01*
X006329Y016650D01*
X006442Y016650D01*
X006499Y016593D01*
X006272Y016367D01*
X006329Y016310D01*
X006442Y016310D01*
X006499Y016367D01*
X006499Y016593D01*
X006640Y016650D02*
X006640Y016310D01*
X006640Y016423D02*
X006811Y016537D01*
X006640Y016423D02*
X006811Y016310D01*
X006852Y016289D02*
X006867Y016305D01*
X007211Y016555D01*
X007716Y015888D02*
X007886Y015888D01*
X007943Y015831D01*
X007943Y015718D01*
X007886Y015661D01*
X007716Y015661D01*
X007716Y015547D02*
X007716Y015888D01*
X008085Y015774D02*
X008198Y015888D01*
X008198Y015547D01*
X008085Y015547D02*
X008311Y015547D01*
X008453Y015547D02*
X008680Y015547D01*
X008566Y015547D02*
X008566Y015888D01*
X008453Y015774D01*
X007943Y015547D02*
X007830Y015661D01*
X006852Y015555D02*
X006852Y014477D01*
X006852Y013977D02*
X006852Y012899D01*
X006852Y012414D02*
X006852Y011321D01*
X006852Y010836D02*
X006852Y009758D01*
X006255Y008857D02*
X006141Y008857D01*
X006085Y008800D01*
X005943Y008800D02*
X005943Y008686D01*
X005886Y008630D01*
X005716Y008630D01*
X005830Y008630D02*
X005943Y008516D01*
X006085Y008516D02*
X006311Y008743D01*
X006311Y008800D01*
X006255Y008857D01*
X005943Y008800D02*
X005886Y008857D01*
X005716Y008857D01*
X005716Y008516D01*
X005736Y008369D02*
X005736Y008029D01*
X005849Y008029D02*
X005622Y008029D01*
X005991Y008085D02*
X006218Y008312D01*
X006218Y008085D01*
X006161Y008029D01*
X006048Y008029D01*
X005991Y008085D01*
X005991Y008312D01*
X006048Y008369D01*
X006161Y008369D01*
X006218Y008312D01*
X006359Y008369D02*
X006359Y008029D01*
X006359Y008142D02*
X006529Y008256D01*
X006359Y008142D02*
X006529Y008029D01*
X006883Y007675D02*
X006997Y007562D01*
X006997Y007335D01*
X006997Y007505D02*
X006770Y007505D01*
X006770Y007562D02*
X006883Y007675D01*
X006770Y007562D02*
X006770Y007335D01*
X007252Y007335D02*
X007252Y007675D01*
X007365Y007675D02*
X007138Y007675D01*
X007507Y007562D02*
X007563Y007562D01*
X007620Y007505D01*
X007677Y007562D01*
X007733Y007505D01*
X007733Y007335D01*
X007620Y007335D02*
X007620Y007505D01*
X007507Y007562D02*
X007507Y007335D01*
X007875Y007392D02*
X007875Y007505D01*
X007932Y007562D01*
X008045Y007562D01*
X008102Y007505D01*
X008102Y007448D01*
X007875Y007448D01*
X007875Y007392D02*
X007932Y007335D01*
X008045Y007335D01*
X008243Y007392D02*
X008243Y007505D01*
X008300Y007562D01*
X008470Y007562D01*
X008470Y007278D01*
X008413Y007222D01*
X008357Y007222D01*
X008300Y007335D02*
X008470Y007335D01*
X008612Y007392D02*
X008668Y007448D01*
X008838Y007448D01*
X008838Y007505D02*
X008838Y007335D01*
X008668Y007335D01*
X008612Y007392D01*
X008668Y007562D02*
X008782Y007562D01*
X008838Y007505D01*
X008980Y007392D02*
X009037Y007335D01*
X009150Y007335D01*
X009207Y007392D01*
X009207Y007448D01*
X009150Y007505D01*
X009093Y007505D01*
X009150Y007505D02*
X009207Y007562D01*
X009207Y007619D01*
X009150Y007675D01*
X009037Y007675D01*
X008980Y007619D01*
X009348Y007619D02*
X009405Y007675D01*
X009518Y007675D01*
X009575Y007619D01*
X009575Y007562D01*
X009348Y007335D01*
X009575Y007335D01*
X009717Y007392D02*
X009717Y007448D01*
X009773Y007505D01*
X009887Y007505D01*
X009943Y007448D01*
X009943Y007392D01*
X009887Y007335D01*
X009773Y007335D01*
X009717Y007392D01*
X009773Y007505D02*
X009717Y007562D01*
X009717Y007619D01*
X009773Y007675D01*
X009887Y007675D01*
X009943Y007619D01*
X009943Y007562D01*
X009887Y007505D01*
X009873Y007946D02*
X010044Y007946D01*
X010044Y008173D01*
X009817Y008173D02*
X009817Y008002D01*
X009873Y007946D01*
X009675Y007946D02*
X009448Y007946D01*
X009675Y008173D01*
X009675Y008229D01*
X009619Y008286D01*
X009505Y008286D01*
X009448Y008229D01*
X009307Y008229D02*
X009250Y008286D01*
X009137Y008286D01*
X009080Y008229D01*
X009307Y008229D02*
X009307Y008173D01*
X009080Y007946D01*
X009307Y007946D01*
X008300Y007335D02*
X008243Y007392D01*
X007709Y006010D02*
X007711Y006033D01*
X007717Y006056D01*
X007726Y006077D01*
X007739Y006097D01*
X007755Y006114D01*
X007773Y006128D01*
X007793Y006139D01*
X007815Y006147D01*
X007838Y006151D01*
X007862Y006151D01*
X007885Y006147D01*
X007907Y006139D01*
X007927Y006128D01*
X007945Y006114D01*
X007961Y006097D01*
X007974Y006077D01*
X007983Y006056D01*
X007989Y006033D01*
X007991Y006010D01*
X007989Y005987D01*
X007983Y005964D01*
X007974Y005943D01*
X007961Y005923D01*
X007945Y005906D01*
X007927Y005892D01*
X007907Y005881D01*
X007885Y005873D01*
X007862Y005869D01*
X007838Y005869D01*
X007815Y005873D01*
X007793Y005881D01*
X007773Y005892D01*
X007755Y005906D01*
X007739Y005923D01*
X007726Y005943D01*
X007717Y005964D01*
X007711Y005987D01*
X007709Y006010D01*
X005736Y004425D02*
X005736Y004085D01*
X005877Y004085D02*
X006104Y004312D01*
X005877Y004312D01*
X005736Y004255D02*
X005509Y004255D01*
X005509Y004085D02*
X005509Y004425D01*
X005368Y004425D02*
X005368Y004085D01*
X005141Y004085D02*
X005141Y004425D01*
X005254Y004312D01*
X005368Y004425D01*
X004999Y004369D02*
X004999Y004312D01*
X004943Y004255D01*
X004829Y004255D01*
X004772Y004312D01*
X004772Y004369D01*
X004829Y004425D01*
X004943Y004425D01*
X004999Y004369D01*
X004943Y004255D02*
X004999Y004198D01*
X004999Y004142D01*
X004943Y004085D01*
X004829Y004085D01*
X004772Y004142D01*
X004772Y004198D01*
X004829Y004255D01*
X005877Y004085D02*
X006104Y004085D01*
X006579Y003613D02*
X006522Y003556D01*
X006579Y003613D02*
X006693Y003613D01*
X006749Y003556D01*
X006749Y003499D01*
X006522Y003273D01*
X006749Y003273D01*
X006891Y003273D02*
X006891Y003329D01*
X007118Y003556D01*
X007118Y003613D01*
X006891Y003613D01*
X007259Y003499D02*
X007429Y003499D01*
X007486Y003443D01*
X007486Y003329D01*
X007429Y003273D01*
X007259Y003273D01*
X007259Y003159D02*
X007259Y003499D01*
X004867Y005835D02*
X004697Y005835D01*
X004697Y005722D02*
X004697Y006062D01*
X004867Y006062D01*
X004923Y006005D01*
X004923Y005892D01*
X004867Y005835D01*
X004555Y006119D02*
X004328Y005892D01*
X004328Y005835D01*
X004187Y005835D02*
X003960Y005835D01*
X004187Y006062D01*
X004187Y006119D01*
X004130Y006175D01*
X004017Y006175D01*
X003960Y006119D01*
X003723Y006247D02*
X003553Y006361D01*
X003723Y006474D01*
X003553Y006588D02*
X003553Y006247D01*
X003412Y006247D02*
X003185Y006247D01*
X003298Y006247D02*
X003298Y006588D01*
X003185Y006474D01*
X002687Y006028D02*
X002573Y006142D01*
X002573Y006198D01*
X002573Y006028D02*
X002800Y006028D01*
X002687Y005887D02*
X002687Y005660D01*
X002743Y005660D02*
X002630Y005660D01*
X002573Y005716D01*
X002573Y005830D01*
X002630Y005887D01*
X002687Y005887D01*
X002800Y005830D02*
X002800Y005716D01*
X002743Y005660D01*
X002743Y005518D02*
X002573Y005518D01*
X002743Y005518D02*
X002800Y005462D01*
X002743Y005405D01*
X002800Y005348D01*
X002743Y005291D01*
X002573Y005291D01*
X002630Y005150D02*
X002573Y005093D01*
X002573Y004980D01*
X002630Y004923D01*
X002743Y004923D01*
X002800Y004980D01*
X002800Y005093D01*
X002743Y005150D01*
X002630Y005150D01*
X002630Y004782D02*
X002687Y004725D01*
X002687Y004555D01*
X002800Y004555D02*
X002460Y004555D01*
X002460Y004725D01*
X002516Y004782D01*
X002630Y004782D01*
X004328Y006175D02*
X004555Y006175D01*
X004555Y006119D01*
X004597Y006841D02*
X004597Y007182D01*
X004767Y007182D01*
X004824Y007125D01*
X004824Y007012D01*
X004767Y006955D01*
X004597Y006955D01*
X004710Y006955D02*
X004824Y006841D01*
X004455Y006898D02*
X004455Y007125D01*
X004399Y007182D01*
X004228Y007182D01*
X004228Y006841D01*
X004399Y006841D01*
X004455Y006898D01*
X004087Y006841D02*
X003860Y006841D01*
X003860Y007182D01*
X004048Y007467D02*
X004048Y007808D01*
X004218Y007808D01*
X004274Y007751D01*
X004274Y007638D01*
X004218Y007581D01*
X004048Y007581D01*
X004161Y007581D02*
X004274Y007467D01*
X004416Y007467D02*
X004643Y007467D01*
X004529Y007467D02*
X004529Y007808D01*
X004416Y007694D01*
X005622Y008256D02*
X005736Y008369D01*
X006085Y008516D02*
X006311Y008516D01*
X004919Y009054D02*
X004919Y009167D01*
X004919Y009110D02*
X004578Y009110D01*
X004578Y009054D02*
X004578Y009167D01*
X004635Y009299D02*
X004862Y009299D01*
X004919Y009356D01*
X004919Y009469D01*
X004862Y009526D01*
X004862Y009668D02*
X004919Y009724D01*
X004919Y009838D01*
X004862Y009894D01*
X004805Y009894D01*
X004749Y009838D01*
X004749Y009781D01*
X004749Y009838D02*
X004692Y009894D01*
X004635Y009894D01*
X004578Y009838D01*
X004578Y009724D01*
X004635Y009668D01*
X004635Y009526D02*
X004578Y009469D01*
X004578Y009356D01*
X004635Y009299D01*
X003198Y009644D02*
X003148Y009594D01*
X003198Y009644D02*
X003198Y009744D01*
X003148Y009794D01*
X003098Y009794D01*
X003048Y009744D01*
X003048Y009644D01*
X002998Y009594D01*
X002948Y009594D01*
X002898Y009644D01*
X002898Y009744D01*
X002948Y009794D01*
X002898Y009925D02*
X003198Y009925D01*
X003098Y010025D01*
X003198Y010125D01*
X002898Y010125D01*
X002898Y010257D02*
X003198Y010257D01*
X003098Y010357D01*
X003198Y010457D01*
X002898Y010457D01*
X002948Y010588D02*
X002898Y010638D01*
X002898Y010738D01*
X002948Y010788D01*
X003148Y010788D01*
X003198Y010738D01*
X003198Y010638D01*
X003148Y010588D01*
X002948Y010588D01*
X002666Y010569D02*
X002366Y010369D01*
X002666Y010369D01*
X002666Y010238D02*
X002366Y010238D01*
X002366Y010038D01*
X002416Y009907D02*
X002366Y009856D01*
X002366Y009756D01*
X002416Y009706D01*
X002616Y009706D02*
X002666Y009756D01*
X002666Y009856D01*
X002616Y009907D01*
X002416Y009907D01*
X002516Y010138D02*
X002516Y010238D01*
X002666Y010238D02*
X002666Y010038D01*
X002666Y010569D02*
X002366Y010569D01*
X002366Y010701D02*
X002666Y010701D01*
X002666Y010901D02*
X002366Y010901D01*
X002416Y011032D02*
X002616Y011032D01*
X002666Y011082D01*
X002666Y011182D01*
X002616Y011232D01*
X002416Y011232D01*
X002366Y011182D01*
X002366Y011082D01*
X002416Y011032D01*
X002666Y010901D02*
X002366Y010701D01*
X002898Y010970D02*
X002948Y010920D01*
X002898Y010970D02*
X002898Y011070D01*
X002948Y011120D01*
X003148Y011120D01*
X003198Y011070D01*
X003198Y010970D01*
X003148Y010920D01*
X002666Y011414D02*
X002616Y011364D01*
X002666Y011414D02*
X002666Y011514D01*
X002616Y011564D01*
X002416Y011564D01*
X002366Y011514D01*
X002366Y011414D01*
X002416Y011364D01*
X002898Y011583D02*
X003198Y011583D01*
X003198Y011783D02*
X002898Y011783D01*
X002898Y011904D02*
X002898Y012004D01*
X002898Y011954D02*
X003198Y011954D01*
X003198Y012004D02*
X003198Y011904D01*
X003198Y011783D02*
X002898Y011583D01*
X002616Y012027D02*
X002666Y012077D01*
X002666Y012177D01*
X002616Y012227D01*
X002416Y012227D01*
X002366Y012177D01*
X002366Y012077D01*
X002416Y012027D01*
X002366Y012358D02*
X002566Y012358D01*
X002666Y012458D01*
X002566Y012558D01*
X002366Y012558D01*
X002516Y012558D02*
X002516Y012358D01*
X002466Y012690D02*
X002666Y012690D01*
X002466Y012690D02*
X002366Y012790D01*
X002466Y012890D01*
X002666Y012890D01*
X002616Y013021D02*
X002416Y013221D01*
X002366Y013171D01*
X002366Y013071D01*
X002416Y013021D01*
X002616Y013021D01*
X002666Y013071D01*
X002666Y013171D01*
X002616Y013221D01*
X002416Y013221D01*
X002516Y013353D02*
X002516Y013553D01*
X002666Y013403D01*
X002366Y013403D01*
X002366Y013684D02*
X002366Y013884D01*
X002566Y013684D01*
X002616Y013684D01*
X002666Y013734D01*
X002666Y013834D01*
X002616Y013884D01*
X002898Y013661D02*
X003198Y013661D01*
X003198Y013511D01*
X003148Y013461D01*
X003048Y013461D01*
X002998Y013511D01*
X002998Y013661D01*
X002898Y013330D02*
X002898Y013129D01*
X002948Y012998D02*
X002898Y012948D01*
X002898Y012848D01*
X002948Y012798D01*
X003198Y012798D01*
X003148Y012667D02*
X002948Y012667D01*
X002898Y012617D01*
X002898Y012517D01*
X002948Y012466D01*
X003048Y012466D01*
X003048Y012567D01*
X003148Y012667D02*
X003198Y012617D01*
X003198Y012517D01*
X003148Y012466D01*
X003198Y012998D02*
X002948Y012998D01*
X002898Y013330D02*
X003198Y013330D01*
X003148Y014124D02*
X003048Y014124D01*
X002998Y014174D01*
X002998Y014324D01*
X002998Y014224D02*
X002898Y014124D01*
X002898Y014324D02*
X003198Y014324D01*
X003198Y014174D01*
X003148Y014124D01*
X003198Y014455D02*
X003198Y014656D01*
X002898Y014656D01*
X002898Y014455D01*
X003048Y014555D02*
X003048Y014656D01*
X002998Y014787D02*
X002898Y014887D01*
X002998Y014987D01*
X003198Y014987D01*
X003198Y015118D02*
X003198Y015319D01*
X002898Y015319D01*
X002898Y015118D01*
X003048Y015218D02*
X003048Y015319D01*
X002898Y015450D02*
X003198Y015450D01*
X003198Y015650D02*
X002898Y015650D01*
X002898Y015450D02*
X003198Y015650D01*
X002666Y015431D02*
X002366Y015431D01*
X002466Y015331D01*
X002366Y015231D01*
X002666Y015231D01*
X002666Y015100D02*
X002666Y015000D01*
X002666Y015050D02*
X002366Y015050D01*
X002366Y015100D02*
X002366Y015000D01*
X002366Y014779D02*
X002666Y014779D01*
X002666Y014879D02*
X002666Y014679D01*
X002666Y014547D02*
X002366Y014547D01*
X002516Y014547D02*
X002516Y014347D01*
X002666Y014347D02*
X002366Y014347D01*
X002998Y014787D02*
X003198Y014787D01*
X004522Y014774D02*
X004573Y014724D01*
X004773Y014724D01*
X004823Y014774D01*
X004823Y014925D01*
X004522Y014925D01*
X004522Y014774D01*
X004522Y015056D02*
X004823Y015056D01*
X004823Y015256D02*
X004522Y015256D01*
X004573Y015387D02*
X004673Y015387D01*
X004673Y015487D01*
X004773Y015387D02*
X004823Y015437D01*
X004823Y015537D01*
X004773Y015587D01*
X004573Y015587D01*
X004522Y015537D01*
X004522Y015437D01*
X004573Y015387D01*
X004823Y015256D02*
X004522Y015056D01*
X004573Y015724D02*
X004773Y015724D01*
X004823Y015774D01*
X004823Y015925D01*
X004522Y015925D01*
X004522Y015774D01*
X004573Y015724D01*
X004522Y016056D02*
X004823Y016056D01*
X004823Y016256D02*
X004522Y016256D01*
X004573Y016387D02*
X004673Y016387D01*
X004673Y016487D01*
X004773Y016387D02*
X004823Y016437D01*
X004823Y016537D01*
X004773Y016588D01*
X004573Y016588D01*
X004522Y016537D01*
X004522Y016437D01*
X004573Y016387D01*
X004823Y016256D02*
X004522Y016056D01*
X005904Y016537D02*
X006017Y016650D01*
X008822Y015086D02*
X008822Y014525D01*
X008850Y014525D01*
X009104Y014629D02*
X009217Y014629D01*
X009160Y014629D02*
X009160Y014969D01*
X009104Y014969D02*
X009217Y014969D01*
X009260Y015086D02*
X009600Y015086D01*
X009519Y014969D02*
X009406Y014969D01*
X009349Y014912D01*
X009349Y014685D01*
X009406Y014629D01*
X009519Y014629D01*
X009576Y014685D01*
X009718Y014629D02*
X009944Y014856D01*
X009944Y014912D01*
X009888Y014969D01*
X009774Y014969D01*
X009718Y014912D01*
X009576Y014912D02*
X009519Y014969D01*
X009718Y014629D02*
X009944Y014629D01*
X010010Y014525D02*
X010038Y014525D01*
X010038Y015086D01*
X010038Y015086D01*
X010010Y015086D01*
X008850Y015086D02*
X008822Y015086D01*
X008818Y013992D02*
X008591Y013992D01*
X008818Y013765D01*
X008875Y013822D01*
X008875Y013936D01*
X008818Y013992D01*
X008591Y013992D02*
X008535Y013936D01*
X008535Y013822D01*
X008591Y013765D01*
X008818Y013765D01*
X008875Y013624D02*
X008875Y013397D01*
X008875Y013510D02*
X008535Y013510D01*
X008648Y013397D01*
X008591Y013256D02*
X008705Y013256D01*
X008762Y013199D01*
X008762Y013029D01*
X008875Y013029D02*
X008535Y013029D01*
X008535Y013199D01*
X008591Y013256D01*
X008762Y013142D02*
X008875Y013256D01*
X009935Y012194D02*
X009992Y012250D01*
X010105Y012250D01*
X010162Y012194D01*
X010162Y012137D01*
X010105Y012080D01*
X010162Y012023D01*
X010162Y011967D01*
X010105Y011910D01*
X009992Y011910D01*
X009935Y011967D01*
X010048Y012080D02*
X010105Y012080D01*
X010303Y011967D02*
X010303Y011910D01*
X010360Y011910D01*
X010360Y011967D01*
X010303Y011967D01*
X010487Y011967D02*
X010544Y011910D01*
X010658Y011910D01*
X010714Y011967D01*
X010714Y012023D01*
X010658Y012080D01*
X010487Y012080D01*
X010487Y011967D01*
X010487Y012080D02*
X010601Y012194D01*
X010714Y012250D01*
X010856Y012250D02*
X010856Y012023D01*
X010969Y011910D01*
X011083Y012023D01*
X011083Y012250D01*
X011101Y012391D02*
X011101Y012682D01*
X011005Y012585D01*
X010876Y012633D02*
X010827Y012682D01*
X010682Y012682D01*
X010682Y012391D01*
X010827Y012391D01*
X010876Y012440D01*
X010876Y012633D01*
X011005Y012391D02*
X011198Y012391D01*
X011729Y012560D02*
X011729Y012787D01*
X011785Y012844D01*
X011899Y012844D01*
X011956Y012787D01*
X011956Y012560D01*
X011899Y012504D01*
X011785Y012504D01*
X011729Y012560D01*
X011842Y012617D02*
X011956Y012504D01*
X012097Y012560D02*
X012154Y012504D01*
X012267Y012504D01*
X012324Y012560D01*
X012324Y012617D01*
X012267Y012674D01*
X012211Y012674D01*
X012267Y012674D02*
X012324Y012731D01*
X012324Y012787D01*
X012267Y012844D01*
X012154Y012844D01*
X012097Y012787D01*
X011911Y013860D02*
X011797Y013860D01*
X011741Y013917D01*
X011741Y014030D02*
X011854Y014087D01*
X011911Y014087D01*
X011968Y014030D01*
X011968Y013917D01*
X011911Y013860D01*
X011741Y014030D02*
X011741Y014200D01*
X011968Y014200D01*
X011599Y014144D02*
X011599Y014030D01*
X011543Y013973D01*
X011372Y013973D01*
X011372Y013860D02*
X011372Y014200D01*
X011543Y014200D01*
X011599Y014144D01*
X011486Y013973D02*
X011599Y013860D01*
X010553Y012682D02*
X010360Y012682D01*
X010553Y012682D02*
X010553Y012633D01*
X010360Y012440D01*
X010360Y012391D01*
X010553Y012391D01*
X008261Y011207D02*
X008261Y010867D01*
X008318Y011037D02*
X008091Y011037D01*
X008261Y011207D01*
X007949Y011151D02*
X007893Y011207D01*
X007779Y011207D01*
X007723Y011151D01*
X007723Y010924D01*
X007779Y010867D01*
X007893Y010867D01*
X007949Y010924D01*
X008379Y010655D02*
X008476Y010752D01*
X008476Y010462D01*
X008572Y010462D02*
X008379Y010462D01*
X008701Y010510D02*
X008701Y010704D01*
X008749Y010752D01*
X008846Y010752D01*
X008895Y010704D01*
X008701Y010510D01*
X008749Y010462D01*
X008846Y010462D01*
X008895Y010510D01*
X008895Y010704D01*
X009023Y010704D02*
X009072Y010752D01*
X009168Y010752D01*
X009217Y010704D01*
X009023Y010510D01*
X009072Y010462D01*
X009168Y010462D01*
X009217Y010510D01*
X009217Y010704D01*
X009346Y010655D02*
X009491Y010655D01*
X009539Y010607D01*
X009539Y010462D01*
X009346Y010462D02*
X009346Y010655D01*
X009023Y010704D02*
X009023Y010510D01*
X009128Y010144D02*
X009072Y010087D01*
X009072Y009860D01*
X009298Y010087D01*
X009298Y009860D01*
X009242Y009804D01*
X009128Y009804D01*
X009072Y009860D01*
X008930Y009860D02*
X008873Y009804D01*
X008760Y009804D01*
X008703Y009860D01*
X008930Y010087D01*
X008930Y009860D01*
X008703Y009860D02*
X008703Y010087D01*
X008760Y010144D01*
X008873Y010144D01*
X008930Y010087D01*
X009128Y010144D02*
X009242Y010144D01*
X009298Y010087D01*
X009440Y010031D02*
X009610Y010031D01*
X009667Y009974D01*
X009667Y009804D01*
X009440Y009804D02*
X009440Y010031D01*
X009893Y010262D02*
X009949Y010206D01*
X010063Y010206D01*
X010119Y010262D01*
X010261Y010262D02*
X010488Y010489D01*
X010488Y010546D01*
X010261Y010546D01*
X010119Y010489D02*
X010063Y010546D01*
X009949Y010546D01*
X009893Y010489D01*
X009893Y010262D01*
X010261Y010262D02*
X010261Y010206D01*
X011013Y010674D02*
X013472Y010674D01*
X013472Y009312D01*
X011013Y009312D01*
X011013Y010674D01*
X011898Y010500D02*
X012011Y010500D01*
X011954Y010500D02*
X011954Y010160D01*
X011898Y010160D02*
X012011Y010160D01*
X012143Y010217D02*
X012200Y010160D01*
X012313Y010160D01*
X012370Y010217D01*
X012511Y010330D02*
X012738Y010330D01*
X012682Y010160D02*
X012682Y010500D01*
X012511Y010330D01*
X012370Y010444D02*
X012313Y010500D01*
X012200Y010500D01*
X012143Y010444D01*
X012143Y010217D01*
X014060Y010535D02*
X014230Y010535D01*
X014287Y010592D01*
X014287Y010819D01*
X014230Y010875D01*
X014060Y010875D01*
X014060Y010535D01*
X014428Y010535D02*
X014655Y010762D01*
X014655Y010819D01*
X014598Y010875D01*
X014485Y010875D01*
X014428Y010819D01*
X014428Y010535D02*
X014655Y010535D01*
X016508Y010039D02*
X016508Y008961D01*
X016132Y008225D02*
X016132Y007885D01*
X016358Y007885D01*
X016404Y007700D02*
X016291Y007700D01*
X016234Y007644D01*
X016234Y007587D01*
X016291Y007530D01*
X016461Y007530D01*
X016461Y007417D02*
X016461Y007644D01*
X016404Y007700D01*
X016461Y007417D02*
X016404Y007360D01*
X016291Y007360D01*
X016234Y007417D01*
X016093Y007360D02*
X015866Y007360D01*
X015979Y007360D02*
X015979Y007700D01*
X015866Y007587D01*
X015724Y007644D02*
X015668Y007700D01*
X015498Y007700D01*
X015498Y007360D01*
X015498Y007473D02*
X015668Y007473D01*
X015724Y007530D01*
X015724Y007644D01*
X015611Y007473D02*
X015724Y007360D01*
X015820Y007885D02*
X015763Y007942D01*
X015763Y007998D01*
X015820Y008055D01*
X015933Y008055D01*
X015990Y007998D01*
X015990Y007942D01*
X015933Y007885D01*
X015820Y007885D01*
X015820Y008055D02*
X015763Y008112D01*
X015763Y008169D01*
X015820Y008225D01*
X015933Y008225D01*
X015990Y008169D01*
X015990Y008112D01*
X015933Y008055D01*
X015622Y008055D02*
X015395Y008055D01*
X015565Y008225D01*
X015565Y007885D01*
X015253Y007885D02*
X015027Y007885D01*
X015140Y007885D02*
X015140Y008225D01*
X015027Y008112D01*
X014885Y008055D02*
X014658Y008055D01*
X014828Y008225D01*
X014828Y007885D01*
X014517Y007885D02*
X014290Y007885D01*
X014290Y008225D01*
X014148Y007885D02*
X013922Y007885D01*
X013922Y008225D01*
X013780Y008225D02*
X013780Y007885D01*
X013553Y007885D02*
X013553Y008225D01*
X013667Y008112D01*
X013780Y008225D01*
X013412Y008169D02*
X013412Y008055D01*
X013355Y007998D01*
X013185Y007998D01*
X013185Y007885D02*
X013185Y008225D01*
X013355Y008225D01*
X013412Y008169D01*
X013880Y007343D02*
X013880Y007043D01*
X013730Y007193D02*
X014030Y007193D01*
X014260Y007066D02*
X014260Y006839D01*
X014600Y006839D01*
X014600Y006698D02*
X014373Y006698D01*
X014430Y006839D02*
X014430Y006952D01*
X014600Y006698D02*
X014600Y006527D01*
X014543Y006471D01*
X014373Y006471D01*
X014316Y005961D02*
X014543Y005734D01*
X014600Y005791D01*
X014600Y005904D01*
X014543Y005961D01*
X014316Y005961D01*
X014260Y005904D01*
X014260Y005791D01*
X014316Y005734D01*
X014543Y005734D01*
X014316Y005593D02*
X014543Y005366D01*
X014600Y005366D01*
X014600Y005168D02*
X014260Y005168D01*
X014430Y004997D01*
X014430Y005224D01*
X014260Y005366D02*
X014260Y005593D01*
X014316Y005593D01*
X011830Y005993D02*
X011832Y006073D01*
X011838Y006152D01*
X011848Y006231D01*
X011862Y006310D01*
X011879Y006388D01*
X011901Y006465D01*
X011926Y006540D01*
X011956Y006614D01*
X011988Y006687D01*
X012025Y006758D01*
X012065Y006827D01*
X012108Y006894D01*
X012155Y006959D01*
X012204Y007021D01*
X012257Y007081D01*
X012313Y007138D01*
X012371Y007193D01*
X012432Y007244D01*
X012496Y007292D01*
X012562Y007337D01*
X012630Y007379D01*
X012700Y007417D01*
X012772Y007451D01*
X012845Y007482D01*
X012920Y007510D01*
X012997Y007533D01*
X013074Y007553D01*
X013152Y007569D01*
X013231Y007581D01*
X013310Y007589D01*
X013390Y007593D01*
X013470Y007593D01*
X013550Y007589D01*
X013629Y007581D01*
X013708Y007569D01*
X013786Y007553D01*
X013863Y007533D01*
X013940Y007510D01*
X014015Y007482D01*
X014088Y007451D01*
X014160Y007417D01*
X014230Y007379D01*
X014298Y007337D01*
X014364Y007292D01*
X014428Y007244D01*
X014489Y007193D01*
X014547Y007138D01*
X014603Y007081D01*
X014656Y007021D01*
X014705Y006959D01*
X014752Y006894D01*
X014795Y006827D01*
X014835Y006758D01*
X014872Y006687D01*
X014904Y006614D01*
X014934Y006540D01*
X014959Y006465D01*
X014981Y006388D01*
X014998Y006310D01*
X015012Y006231D01*
X015022Y006152D01*
X015028Y006073D01*
X015030Y005993D01*
X015028Y005913D01*
X015022Y005834D01*
X015012Y005755D01*
X014998Y005676D01*
X014981Y005598D01*
X014959Y005521D01*
X014934Y005446D01*
X014904Y005372D01*
X014872Y005299D01*
X014835Y005228D01*
X014795Y005159D01*
X014752Y005092D01*
X014705Y005027D01*
X014656Y004965D01*
X014603Y004905D01*
X014547Y004848D01*
X014489Y004793D01*
X014428Y004742D01*
X014364Y004694D01*
X014298Y004649D01*
X014230Y004607D01*
X014160Y004569D01*
X014088Y004535D01*
X014015Y004504D01*
X013940Y004476D01*
X013863Y004453D01*
X013786Y004433D01*
X013708Y004417D01*
X013629Y004405D01*
X013550Y004397D01*
X013470Y004393D01*
X013390Y004393D01*
X013310Y004397D01*
X013231Y004405D01*
X013152Y004417D01*
X013074Y004433D01*
X012997Y004453D01*
X012920Y004476D01*
X012845Y004504D01*
X012772Y004535D01*
X012700Y004569D01*
X012630Y004607D01*
X012562Y004649D01*
X012496Y004694D01*
X012432Y004742D01*
X012371Y004793D01*
X012313Y004848D01*
X012257Y004905D01*
X012204Y004965D01*
X012155Y005027D01*
X012108Y005092D01*
X012065Y005159D01*
X012025Y005228D01*
X011988Y005299D01*
X011956Y005372D01*
X011926Y005446D01*
X011901Y005521D01*
X011879Y005598D01*
X011862Y005676D01*
X011848Y005755D01*
X011838Y005834D01*
X011832Y005913D01*
X011830Y005993D01*
X011947Y006094D02*
X011947Y005867D01*
X012004Y005810D01*
X012118Y005810D01*
X012174Y005867D01*
X012316Y005867D02*
X012316Y005980D01*
X012486Y005980D01*
X012543Y005923D01*
X012543Y005867D01*
X012486Y005810D01*
X012373Y005810D01*
X012316Y005867D01*
X012316Y005980D02*
X012429Y006094D01*
X012543Y006150D01*
X012174Y006094D02*
X012118Y006150D01*
X012004Y006150D01*
X011947Y006094D01*
X010862Y006529D02*
X010862Y006756D01*
X010862Y006642D02*
X010522Y006642D01*
X010636Y006529D01*
X010579Y006897D02*
X010522Y006954D01*
X010522Y007067D01*
X010579Y007124D01*
X010806Y006897D01*
X010862Y006954D01*
X010862Y007067D01*
X010806Y007124D01*
X010579Y007124D01*
X010579Y007265D02*
X010522Y007322D01*
X010522Y007436D01*
X010579Y007492D01*
X010806Y007265D01*
X010862Y007322D01*
X010862Y007436D01*
X010806Y007492D01*
X010579Y007492D01*
X010522Y007634D02*
X010862Y007634D01*
X010749Y007634D02*
X010636Y007804D01*
X010749Y007634D02*
X010862Y007804D01*
X010806Y007265D02*
X010579Y007265D01*
X010579Y006897D02*
X010806Y006897D01*
X008562Y009804D02*
X008335Y009804D01*
X008448Y009804D02*
X008448Y010144D01*
X008335Y010031D01*
X004823Y010524D02*
X004773Y010474D01*
X004673Y010474D01*
X004623Y010524D01*
X004623Y010675D01*
X004523Y010675D02*
X004823Y010675D01*
X004823Y010524D01*
X004623Y010574D02*
X004523Y010474D01*
X004523Y010906D02*
X004823Y010906D01*
X004823Y011006D02*
X004823Y010806D01*
X004773Y011137D02*
X004573Y011137D01*
X004523Y011187D01*
X004523Y011338D01*
X004823Y011338D01*
X004823Y011187D01*
X004773Y011137D01*
X004773Y011506D02*
X004573Y011506D01*
X004522Y011556D01*
X004522Y011706D01*
X004823Y011706D01*
X004823Y011556D01*
X004773Y011506D01*
X004823Y011837D02*
X004522Y012037D01*
X004522Y011837D02*
X004823Y012037D01*
X004823Y012169D02*
X004823Y012369D01*
X004823Y012269D02*
X004522Y012269D01*
X004573Y012537D02*
X004773Y012537D01*
X004823Y012587D01*
X004823Y012737D01*
X004523Y012737D01*
X004523Y012587D01*
X004573Y012537D01*
X004523Y012868D02*
X004823Y013069D01*
X004773Y013200D02*
X004673Y013200D01*
X004623Y013250D01*
X004623Y013400D01*
X004623Y013300D02*
X004523Y013200D01*
X004523Y013069D02*
X004823Y012868D01*
X004773Y013200D02*
X004823Y013250D01*
X004823Y013400D01*
X004523Y013400D01*
X004623Y013618D02*
X004823Y013618D01*
X004623Y013618D02*
X004523Y013718D01*
X004623Y013819D01*
X004823Y013819D01*
X004823Y013950D02*
X004823Y014150D01*
X004673Y014150D01*
X004723Y014050D01*
X004723Y014000D01*
X004673Y013950D01*
X004573Y013950D01*
X004523Y014000D01*
X004523Y014100D01*
X004573Y014150D01*
X002666Y009575D02*
X002666Y009375D01*
X002666Y009475D02*
X002366Y009475D01*
X002366Y009244D02*
X002366Y009043D01*
X002366Y008912D02*
X002366Y008762D01*
X002416Y008712D01*
X002616Y008712D01*
X002666Y008762D01*
X002666Y008912D01*
X002366Y008912D01*
X002516Y009143D02*
X002516Y009244D01*
X002666Y009244D02*
X002366Y009244D01*
X002666Y009244D02*
X002666Y009043D01*
X013995Y012242D02*
X014336Y012242D01*
X014336Y012129D02*
X014336Y012356D01*
X014279Y012497D02*
X014052Y012724D01*
X014279Y012724D01*
X014336Y012667D01*
X014336Y012554D01*
X014279Y012497D01*
X014052Y012497D01*
X013995Y012554D01*
X013995Y012667D01*
X014052Y012724D01*
X014052Y012865D02*
X013995Y012922D01*
X013995Y013036D01*
X014052Y013092D01*
X014279Y012865D01*
X014336Y012922D01*
X014336Y013036D01*
X014279Y013092D01*
X014052Y013092D01*
X014109Y013234D02*
X014109Y013404D01*
X014165Y013461D01*
X014336Y013461D01*
X014336Y013234D02*
X014109Y013234D01*
X014052Y012865D02*
X014279Y012865D01*
X013995Y012242D02*
X014109Y012129D01*
X019822Y010008D02*
X019992Y009838D01*
X020162Y010008D02*
X019822Y010008D01*
X019879Y009470D02*
X020106Y009470D01*
X020106Y009102D02*
X019879Y009102D01*
X019822Y007997D02*
X020162Y007997D01*
X018134Y007919D02*
X018134Y007692D01*
X018021Y007579D01*
X017907Y007692D01*
X017907Y007919D01*
X017766Y007862D02*
X017766Y007806D01*
X017709Y007749D01*
X017766Y007692D01*
X017766Y007635D01*
X017709Y007579D01*
X017596Y007579D01*
X017539Y007635D01*
X017397Y007579D02*
X017171Y007579D01*
X017284Y007579D02*
X017284Y007919D01*
X017171Y007806D01*
X017539Y007862D02*
X017596Y007919D01*
X017709Y007919D01*
X017766Y007862D01*
X017709Y007749D02*
X017652Y007749D01*
X016988Y007342D02*
X016874Y007172D01*
X016761Y007342D01*
X016647Y007172D02*
X016988Y007172D01*
X016931Y007030D02*
X016988Y006973D01*
X016988Y006860D01*
X016931Y006803D01*
X016988Y006662D02*
X016988Y006435D01*
X016988Y006548D02*
X016647Y006548D01*
X016761Y006435D01*
X016704Y006803D02*
X016647Y006860D01*
X016647Y006973D01*
X016704Y007030D01*
X016761Y007030D01*
X016817Y006973D01*
X016874Y007030D01*
X016931Y007030D01*
X016817Y006973D02*
X016817Y006917D01*
X025430Y007930D02*
X025930Y007930D01*
X026880Y008380D01*
X026930Y007930D02*
X027430Y007930D01*
X024516Y013085D02*
X024346Y013198D01*
X024516Y013312D01*
X024346Y013425D02*
X024346Y013085D01*
X024205Y013142D02*
X024148Y013085D01*
X024035Y013085D01*
X023978Y013142D01*
X024205Y013369D01*
X024205Y013142D01*
X024205Y013369D02*
X024148Y013425D01*
X024035Y013425D01*
X023978Y013369D01*
X023978Y013142D01*
X023836Y013142D02*
X023780Y013085D01*
X023666Y013085D01*
X023610Y013142D01*
X023610Y013198D01*
X023666Y013255D01*
X023780Y013255D01*
X023836Y013198D01*
X023836Y013142D01*
X023780Y013255D02*
X023836Y013312D01*
X023836Y013369D01*
X023780Y013425D01*
X023666Y013425D01*
X023610Y013369D01*
X023610Y013312D01*
X023666Y013255D01*
X023468Y013198D02*
X023411Y013255D01*
X023241Y013255D01*
X023241Y013142D01*
X023298Y013085D01*
X023411Y013085D01*
X023468Y013142D01*
X023468Y013198D01*
X023355Y013369D02*
X023241Y013255D01*
X023355Y013369D02*
X023468Y013425D01*
X023429Y013554D02*
X023429Y013894D01*
X023599Y013894D01*
X023656Y013837D01*
X023656Y013724D01*
X023599Y013667D01*
X023429Y013667D01*
X023542Y013667D02*
X023656Y013554D01*
X023797Y013554D02*
X024024Y013554D01*
X023910Y013554D02*
X023910Y013894D01*
X023797Y013781D01*
X024165Y013724D02*
X024336Y013724D01*
X024392Y013667D01*
X024392Y013610D01*
X024336Y013554D01*
X024222Y013554D01*
X024165Y013610D01*
X024165Y013724D01*
X024279Y013837D01*
X024392Y013894D01*
X022735Y013312D02*
X022565Y013198D01*
X022735Y013085D01*
X022565Y013085D02*
X022565Y013425D01*
X022423Y013369D02*
X022423Y013142D01*
X022367Y013085D01*
X022253Y013085D01*
X022197Y013142D01*
X022423Y013369D01*
X022367Y013425D01*
X022253Y013425D01*
X022197Y013369D01*
X022197Y013142D01*
X022055Y013142D02*
X021998Y013085D01*
X021885Y013085D01*
X021828Y013142D01*
X021828Y013198D01*
X021885Y013255D01*
X021998Y013255D01*
X022055Y013198D01*
X022055Y013142D01*
X021998Y013255D02*
X022055Y013312D01*
X022055Y013369D01*
X021998Y013425D01*
X021885Y013425D01*
X021828Y013369D01*
X021828Y013312D01*
X021885Y013255D01*
X021687Y013198D02*
X021630Y013255D01*
X021460Y013255D01*
X021460Y013142D01*
X021517Y013085D01*
X021630Y013085D01*
X021687Y013142D01*
X021687Y013198D01*
X021573Y013369D02*
X021460Y013255D01*
X021573Y013369D02*
X021687Y013425D01*
X021298Y013425D02*
X021298Y013369D01*
X021072Y013142D01*
X021072Y013085D01*
X020930Y013085D02*
X020703Y013085D01*
X020817Y013085D02*
X020817Y013425D01*
X020703Y013312D01*
X020562Y013369D02*
X020562Y013255D01*
X020505Y013198D01*
X020335Y013198D01*
X020335Y013085D02*
X020335Y013425D01*
X020505Y013425D01*
X020562Y013369D01*
X020448Y013198D02*
X020562Y013085D01*
X021072Y013425D02*
X021298Y013425D01*
X020743Y014023D02*
X020743Y014363D01*
X020629Y014249D01*
X020516Y014363D01*
X020516Y014023D01*
X020374Y014023D02*
X020147Y014023D01*
X020261Y014023D02*
X020261Y014363D01*
X020147Y014249D01*
X020187Y014522D02*
X020073Y014636D01*
X020130Y014636D02*
X019960Y014636D01*
X019960Y014522D02*
X019960Y014863D01*
X020130Y014863D01*
X020187Y014806D01*
X020187Y014693D01*
X020130Y014636D01*
X020328Y014749D02*
X020442Y014863D01*
X020442Y014522D01*
X020555Y014522D02*
X020328Y014522D01*
X020697Y014579D02*
X020753Y014522D01*
X020867Y014522D01*
X020923Y014579D01*
X020923Y014693D01*
X020867Y014749D01*
X020810Y014749D01*
X020697Y014693D01*
X020697Y014863D01*
X020923Y014863D01*
D16*
X020430Y011430D02*
X020430Y007430D01*
X021430Y007430D02*
X024430Y007430D01*
X025430Y007430D02*
X027430Y007430D01*
X028430Y007430D02*
X028430Y011430D01*
X021430Y011430D01*
X021180Y009930D02*
X021178Y009900D01*
X021173Y009870D01*
X021164Y009841D01*
X021151Y009814D01*
X021136Y009788D01*
X021117Y009764D01*
X021096Y009743D01*
X021072Y009724D01*
X021046Y009709D01*
X021019Y009696D01*
X020990Y009687D01*
X020960Y009682D01*
X020930Y009680D01*
X021180Y009430D02*
X021178Y009400D01*
X021173Y009370D01*
X021164Y009341D01*
X021151Y009314D01*
X021136Y009288D01*
X021117Y009264D01*
X021096Y009243D01*
X021072Y009224D01*
X021046Y009209D01*
X021019Y009196D01*
X020990Y009187D01*
X020960Y009182D01*
X020930Y009180D01*
X021180Y008930D02*
X021178Y008900D01*
X021173Y008870D01*
X021164Y008841D01*
X021151Y008814D01*
X021136Y008788D01*
X021117Y008764D01*
X021096Y008743D01*
X021072Y008724D01*
X021046Y008709D01*
X021019Y008696D01*
X020990Y008687D01*
X020960Y008682D01*
X020930Y008680D01*
X021180Y008930D02*
X021178Y008960D01*
X021173Y008990D01*
X021164Y009019D01*
X021151Y009046D01*
X021136Y009072D01*
X021117Y009096D01*
X021096Y009117D01*
X021072Y009136D01*
X021046Y009151D01*
X021019Y009164D01*
X020990Y009173D01*
X020960Y009178D01*
X020930Y009180D01*
X021180Y009430D02*
X021178Y009460D01*
X021173Y009490D01*
X021164Y009519D01*
X021151Y009546D01*
X021136Y009572D01*
X021117Y009596D01*
X021096Y009617D01*
X021072Y009636D01*
X021046Y009651D01*
X021019Y009664D01*
X020990Y009673D01*
X020960Y009678D01*
X020930Y009680D01*
X021180Y009930D02*
X021178Y009960D01*
X021173Y009990D01*
X021164Y010019D01*
X021151Y010046D01*
X021136Y010072D01*
X021117Y010096D01*
X021096Y010117D01*
X021072Y010136D01*
X021046Y010151D01*
X021019Y010164D01*
X020990Y010173D01*
X020960Y010178D01*
X020930Y010180D01*
X019430Y009305D02*
X019242Y009305D01*
X019242Y009401D01*
X019242Y009305D02*
X019055Y009305D01*
X019242Y009055D01*
X019242Y008959D01*
X019242Y009055D02*
X019055Y009055D01*
X019242Y009055D02*
X019430Y009055D01*
X019242Y009055D02*
X019430Y009305D01*
X013833Y011755D02*
X013653Y011755D01*
X013833Y011935D01*
X013833Y011980D01*
X013788Y012025D01*
X013698Y012025D01*
X013653Y011980D01*
X013539Y011980D02*
X013359Y011800D01*
X013404Y011755D01*
X013494Y011755D01*
X013539Y011800D01*
X013539Y011980D01*
X013494Y012025D01*
X013404Y012025D01*
X013359Y011980D01*
X013359Y011800D01*
X013244Y011800D02*
X013199Y011755D01*
X013109Y011755D01*
X013064Y011800D01*
X013244Y011980D01*
X013244Y011800D01*
X013064Y011800D02*
X013064Y011980D01*
X013109Y012025D01*
X013199Y012025D01*
X013244Y011980D01*
X012949Y011980D02*
X012769Y011800D01*
X012769Y011755D01*
X012655Y011755D02*
X012655Y012025D01*
X012769Y012025D02*
X012949Y012025D01*
X012949Y011980D01*
X012655Y011755D02*
X012475Y012025D01*
X012475Y011755D01*
X012360Y011755D02*
X012180Y011755D01*
X012360Y011935D01*
X012360Y011980D01*
X012315Y012025D01*
X012225Y012025D01*
X012180Y011980D01*
X012180Y013318D02*
X012347Y013484D01*
X012347Y013526D01*
X012305Y013568D01*
X012222Y013568D01*
X012180Y013526D01*
X012180Y013318D02*
X012347Y013318D01*
X012456Y013318D02*
X012456Y013568D01*
X012623Y013318D01*
X012623Y013568D01*
X012732Y013568D02*
X012899Y013568D01*
X012899Y013526D01*
X012732Y013359D01*
X012732Y013318D01*
X013009Y013359D02*
X013176Y013526D01*
X013134Y013568D01*
X013050Y013568D01*
X013009Y013526D01*
X013009Y013359D01*
X013050Y013318D01*
X013134Y013318D01*
X013176Y013359D01*
X013176Y013526D01*
X013285Y013526D02*
X013327Y013568D01*
X013410Y013568D01*
X013452Y013526D01*
X013285Y013359D01*
X013327Y013318D01*
X013410Y013318D01*
X013452Y013359D01*
X013452Y013526D01*
X013561Y013526D02*
X013603Y013568D01*
X013686Y013568D01*
X013728Y013526D01*
X013728Y013484D01*
X013561Y013318D01*
X013728Y013318D01*
X013285Y013359D02*
X013285Y013526D01*
X010411Y015805D02*
X010161Y015805D01*
X010161Y015930D01*
X010203Y015972D01*
X010286Y015972D01*
X010328Y015930D01*
X010328Y015805D01*
X010328Y015888D02*
X010411Y015972D01*
X010411Y016081D02*
X010411Y016248D01*
X010411Y016165D02*
X010161Y016165D01*
X010244Y016081D01*
X010203Y016357D02*
X010161Y016399D01*
X010161Y016483D01*
X010203Y016524D01*
X010244Y016524D01*
X010411Y016357D01*
X010411Y016524D01*
X008692Y017407D02*
X008647Y017362D01*
X008557Y017362D01*
X008512Y017407D01*
X008512Y017497D02*
X008602Y017542D01*
X008647Y017542D01*
X008692Y017497D01*
X008692Y017407D01*
X008512Y017497D02*
X008512Y017632D01*
X008692Y017632D01*
X008398Y017587D02*
X008353Y017632D01*
X008263Y017632D01*
X008218Y017587D01*
X008218Y017407D01*
X008263Y017362D01*
X008353Y017362D01*
X008398Y017407D01*
X004029Y012655D02*
X003749Y012655D01*
X003749Y012468D02*
X004029Y012468D01*
X003936Y012562D01*
X004029Y012655D01*
X003982Y012351D02*
X003795Y012351D01*
X003749Y012304D01*
X003749Y012211D01*
X003795Y012164D01*
X003749Y012047D02*
X004029Y012047D01*
X004029Y011907D01*
X003982Y011860D01*
X003889Y011860D01*
X003842Y011907D01*
X003842Y012047D01*
X003982Y012164D02*
X004029Y012211D01*
X004029Y012304D01*
X003982Y012351D01*
X003982Y011743D02*
X003936Y011743D01*
X003889Y011697D01*
X003889Y011557D01*
X003982Y011557D02*
X004029Y011603D01*
X004029Y011697D01*
X003982Y011743D01*
X003982Y011557D02*
X003795Y011557D01*
X003749Y011603D01*
X003749Y011697D01*
X003795Y011743D01*
X003795Y011440D02*
X003749Y011440D01*
X003795Y011440D02*
X003982Y011253D01*
X004029Y011253D01*
X004029Y011440D01*
X003982Y011136D02*
X003795Y011136D01*
X003982Y010949D01*
X003795Y010949D01*
X003749Y010996D01*
X003749Y011089D01*
X003795Y011136D01*
X003982Y011136D02*
X004029Y011089D01*
X004029Y010996D01*
X003982Y010949D01*
X003936Y010832D02*
X004029Y010738D01*
X003749Y010738D01*
X003749Y010645D02*
X003749Y010832D01*
X003468Y010255D02*
X003468Y008605D01*
X004565Y008480D02*
X004622Y008509D01*
X004678Y008542D01*
X004731Y008577D01*
X004782Y008617D01*
X004830Y008659D01*
X004876Y008704D01*
X004919Y008751D01*
X004959Y008801D01*
X004996Y008854D01*
X005029Y008909D01*
X005060Y008965D01*
X005086Y009024D01*
X005109Y009084D01*
X005129Y009145D01*
X005144Y009207D01*
X005156Y009270D01*
X005164Y009334D01*
X005168Y009398D01*
X005168Y009462D01*
X005164Y009526D01*
X005156Y009590D01*
X005144Y009653D01*
X005129Y009715D01*
X005109Y009776D01*
X005086Y009836D01*
X005060Y009895D01*
X005029Y009951D01*
X004996Y010006D01*
X004959Y010059D01*
X004919Y010109D01*
X004876Y010156D01*
X004830Y010201D01*
X004782Y010243D01*
X004731Y010283D01*
X004678Y010318D01*
X004622Y010351D01*
X004565Y010380D01*
X003468Y008605D02*
X003518Y008568D01*
X003570Y008534D01*
X003624Y008503D01*
X003680Y008476D01*
X003468Y010255D02*
X003516Y010290D01*
X003566Y010323D01*
X003617Y010353D01*
X003671Y010380D01*
X011704Y007484D02*
X011974Y007484D01*
X011974Y007394D02*
X011974Y007574D01*
X011794Y007394D02*
X011704Y007484D01*
X011749Y007280D02*
X011704Y007235D01*
X011704Y007145D01*
X011749Y007100D01*
X011749Y006985D02*
X011704Y006940D01*
X011704Y006805D01*
X011974Y006805D01*
X011884Y006805D02*
X011884Y006940D01*
X011839Y006985D01*
X011749Y006985D01*
X011884Y006895D02*
X011974Y006985D01*
X011974Y007100D02*
X011794Y007280D01*
X011749Y007280D01*
X011974Y007280D02*
X011974Y007100D01*
X015930Y004680D02*
X024930Y004680D01*
X024974Y004678D01*
X025017Y004672D01*
X025059Y004663D01*
X025101Y004650D01*
X025141Y004633D01*
X025180Y004613D01*
X025217Y004590D01*
X025251Y004563D01*
X025284Y004534D01*
X025313Y004501D01*
X025340Y004467D01*
X025363Y004430D01*
X025383Y004391D01*
X025400Y004351D01*
X025413Y004309D01*
X025422Y004267D01*
X025428Y004224D01*
X025430Y004180D01*
X025428Y004136D01*
X025422Y004093D01*
X025413Y004051D01*
X025400Y004009D01*
X025383Y003969D01*
X025363Y003930D01*
X025340Y003893D01*
X025313Y003859D01*
X025284Y003826D01*
X025251Y003797D01*
X025217Y003770D01*
X025180Y003747D01*
X025141Y003727D01*
X025101Y003710D01*
X025059Y003697D01*
X025017Y003688D01*
X024974Y003682D01*
X024930Y003680D01*
X022930Y003680D01*
X022680Y003680D01*
X015930Y003680D01*
X015886Y003682D01*
X015843Y003688D01*
X015801Y003697D01*
X015759Y003710D01*
X015719Y003727D01*
X015680Y003747D01*
X015643Y003770D01*
X015609Y003797D01*
X015576Y003826D01*
X015547Y003859D01*
X015520Y003893D01*
X015497Y003930D01*
X015477Y003969D01*
X015460Y004009D01*
X015447Y004051D01*
X015438Y004093D01*
X015432Y004136D01*
X015430Y004180D01*
X015432Y004224D01*
X015438Y004267D01*
X015447Y004309D01*
X015460Y004351D01*
X015477Y004391D01*
X015497Y004430D01*
X015520Y004467D01*
X015547Y004501D01*
X015576Y004534D01*
X015609Y004563D01*
X015643Y004590D01*
X015680Y004613D01*
X015719Y004633D01*
X015759Y004650D01*
X015801Y004663D01*
X015843Y004672D01*
X015886Y004678D01*
X015930Y004680D01*
X013438Y000819D02*
X013483Y000774D01*
X013483Y000594D01*
X013438Y000549D01*
X013348Y000549D01*
X013303Y000594D01*
X013303Y000774D01*
X013348Y000819D01*
X013438Y000819D01*
X013189Y000774D02*
X013144Y000819D01*
X013054Y000819D01*
X013009Y000774D01*
X013009Y000729D01*
X013054Y000684D01*
X013144Y000684D01*
X013189Y000639D01*
X013189Y000594D01*
X013144Y000549D01*
X013054Y000549D01*
X013009Y000594D01*
X012902Y000549D02*
X012812Y000549D01*
X012857Y000549D02*
X012857Y000819D01*
X012812Y000819D02*
X012902Y000819D01*
X012698Y000819D02*
X012608Y000729D01*
X012517Y000819D01*
X012517Y000549D01*
X012698Y000549D02*
X012698Y000819D01*
X010398Y000799D02*
X010315Y000799D01*
X010357Y000799D02*
X010357Y000549D01*
X010398Y000549D02*
X010315Y000549D01*
X010206Y000590D02*
X010164Y000549D01*
X010080Y000549D01*
X010039Y000590D01*
X010080Y000674D02*
X010164Y000674D01*
X010206Y000632D01*
X010206Y000590D01*
X010080Y000674D02*
X010039Y000716D01*
X010039Y000757D01*
X010080Y000799D01*
X010164Y000799D01*
X010206Y000757D01*
X009929Y000757D02*
X009888Y000799D01*
X009804Y000799D01*
X009762Y000757D01*
X009762Y000590D01*
X009804Y000549D01*
X009888Y000549D01*
X009929Y000590D01*
X009929Y000757D01*
X009653Y000799D02*
X009653Y000549D01*
X009486Y000549D02*
X009486Y000799D01*
X009570Y000716D01*
X009653Y000799D01*
X009408Y000856D02*
X008524Y000856D01*
X008549Y000756D02*
X008684Y000756D01*
X008729Y000711D01*
X008729Y000621D01*
X008684Y000576D01*
X008549Y000576D01*
X008549Y000486D02*
X008549Y000756D01*
X008639Y000576D02*
X008729Y000486D01*
X008843Y000531D02*
X008888Y000486D01*
X008979Y000486D01*
X009024Y000531D01*
X009024Y000576D01*
X008979Y000621D01*
X008888Y000621D01*
X008843Y000666D01*
X008843Y000711D01*
X008888Y000756D01*
X008979Y000756D01*
X009024Y000711D01*
X009138Y000756D02*
X009318Y000756D01*
X009228Y000756D02*
X009228Y000486D01*
D17*
X004368Y003641D03*
X003219Y004180D03*
X016219Y017180D03*
D18*
X013345Y010015D02*
X013385Y009975D01*
X013385Y009935D01*
X013345Y009895D01*
X013385Y009855D01*
X013385Y009815D01*
X013345Y009775D01*
X013265Y009775D01*
X013225Y009815D01*
X013127Y009815D02*
X013087Y009775D01*
X013007Y009775D01*
X012967Y009815D01*
X012870Y009815D02*
X012830Y009775D01*
X012749Y009775D01*
X012709Y009815D01*
X012749Y009895D02*
X012830Y009895D01*
X012870Y009855D01*
X012870Y009815D01*
X012749Y009895D02*
X012709Y009935D01*
X012709Y009975D01*
X012749Y010015D01*
X012830Y010015D01*
X012870Y009975D01*
X012967Y009975D02*
X013007Y010015D01*
X013087Y010015D01*
X013127Y009975D01*
X013127Y009935D01*
X013087Y009895D01*
X013127Y009855D01*
X013127Y009815D01*
X013087Y009895D02*
X013047Y009895D01*
X013225Y009975D02*
X013265Y010015D01*
X013345Y010015D01*
X013345Y009895D02*
X013305Y009895D01*
X012612Y009975D02*
X012452Y009815D01*
X012452Y009775D01*
X012354Y009775D02*
X012194Y009775D01*
X012274Y009775D02*
X012274Y010015D01*
X012194Y009935D01*
X012096Y009775D02*
X011936Y009775D01*
X012016Y009775D02*
X012016Y010015D01*
X011936Y009935D01*
X011838Y009775D02*
X011678Y009775D01*
X011758Y009775D02*
X011758Y010015D01*
X011678Y009935D01*
X011580Y009975D02*
X011540Y010015D01*
X011420Y010015D01*
X011420Y009775D01*
X011540Y009775D01*
X011580Y009815D01*
X011580Y009975D01*
X011323Y009775D02*
X011163Y009775D01*
X011163Y010015D01*
X012452Y010015D02*
X012612Y010015D01*
X012612Y009975D01*
D19*
X017805Y009515D03*
D20*
X014305Y009210D03*
M02*
