G75*
G70*
%OFA0B0*%
%FSLAX24Y24*%
%IPPOS*%
%LPD*%
%AMOC8*
5,1,8,0,0,1.08239X$1,22.5*
%
%ADD10C,0.0110*%
%ADD11C,0.0080*%
%ADD12C,0.0060*%
%ADD13C,0.0070*%
%ADD14R,0.1716X0.0003*%
%ADD15R,0.1740X0.0003*%
%ADD16R,0.1752X0.0003*%
%ADD17R,0.1758X0.0003*%
%ADD18R,0.1770X0.0003*%
%ADD19R,0.1776X0.0003*%
%ADD20R,0.1782X0.0003*%
%ADD21R,0.1788X0.0003*%
%ADD22R,0.1794X0.0003*%
%ADD23R,0.1800X0.0003*%
%ADD24R,0.1779X0.0003*%
%ADD25R,0.1764X0.0003*%
%ADD26R,0.0111X0.0003*%
%ADD27R,0.0114X0.0003*%
%ADD28R,0.0111X0.0003*%
%ADD29R,0.0114X0.0003*%
%ADD30R,0.0006X0.0003*%
%ADD31R,0.0009X0.0003*%
%ADD32R,0.0012X0.0003*%
%ADD33R,0.0015X0.0003*%
%ADD34R,0.0018X0.0003*%
%ADD35R,0.0024X0.0003*%
%ADD36R,0.0027X0.0003*%
%ADD37R,0.0030X0.0003*%
%ADD38R,0.0033X0.0003*%
%ADD39R,0.0039X0.0003*%
%ADD40R,0.0042X0.0003*%
%ADD41R,0.0045X0.0003*%
%ADD42R,0.0048X0.0003*%
%ADD43R,0.0051X0.0003*%
%ADD44R,0.0057X0.0003*%
%ADD45R,0.0060X0.0003*%
%ADD46R,0.0063X0.0003*%
%ADD47R,0.0066X0.0003*%
%ADD48R,0.0072X0.0003*%
%ADD49R,0.0075X0.0003*%
%ADD50R,0.0078X0.0003*%
%ADD51R,0.0081X0.0003*%
%ADD52R,0.0087X0.0003*%
%ADD53R,0.0090X0.0003*%
%ADD54R,0.0093X0.0003*%
%ADD55R,0.0096X0.0003*%
%ADD56R,0.0099X0.0003*%
%ADD57R,0.0102X0.0003*%
%ADD58R,0.0105X0.0003*%
%ADD59R,0.0108X0.0003*%
%ADD60R,0.0120X0.0003*%
%ADD61R,0.0123X0.0003*%
%ADD62R,0.0126X0.0003*%
%ADD63R,0.0129X0.0003*%
%ADD64R,0.0036X0.0003*%
%ADD65R,0.0024X0.0003*%
%ADD66R,0.0021X0.0003*%
%ADD67R,0.0021X0.0003*%
%ADD68R,0.0069X0.0003*%
%ADD69R,0.0078X0.0003*%
%ADD70R,0.0084X0.0003*%
%ADD71R,0.0081X0.0003*%
%ADD72R,0.0084X0.0003*%
%ADD73R,0.0108X0.0003*%
%ADD74R,0.0087X0.0003*%
%ADD75R,0.0054X0.0003*%
%ADD76R,0.0117X0.0003*%
%ADD77R,0.0132X0.0003*%
%ADD78R,0.0138X0.0003*%
%ADD79R,0.0144X0.0003*%
%ADD80R,0.0150X0.0003*%
%ADD81R,0.0153X0.0003*%
%ADD82R,0.0159X0.0003*%
%ADD83R,0.0165X0.0003*%
%ADD84R,0.0168X0.0003*%
%ADD85R,0.0174X0.0003*%
%ADD86R,0.0180X0.0003*%
%ADD87R,0.0183X0.0003*%
%ADD88R,0.0294X0.0003*%
%ADD89R,0.0291X0.0003*%
%ADD90R,0.0294X0.0003*%
%ADD91R,0.0198X0.0003*%
%ADD92R,0.0192X0.0003*%
%ADD93R,0.0189X0.0003*%
%ADD94R,0.0186X0.0003*%
%ADD95R,0.0174X0.0003*%
%ADD96R,0.0171X0.0003*%
%ADD97R,0.0162X0.0003*%
%ADD98R,0.0156X0.0003*%
%ADD99R,0.0147X0.0003*%
%ADD100R,0.0141X0.0003*%
%ADD101R,0.0135X0.0003*%
%ADD102R,0.0054X0.0003*%
%ADD103R,0.0003X0.0003*%
%ADD104R,0.0141X0.0003*%
%ADD105R,0.0138X0.0003*%
%ADD106R,0.0144X0.0003*%
%ADD107R,0.0003X0.0114*%
%ADD108R,0.0222X0.0003*%
%ADD109R,0.0216X0.0003*%
%ADD110R,0.0210X0.0003*%
%ADD111R,0.0204X0.0003*%
%ADD112C,0.0059*%
D10*
X013570Y015835D02*
X013570Y016285D01*
X013345Y016285D01*
X013270Y016210D01*
X013270Y016060D01*
X013345Y015985D01*
X013570Y015985D01*
X013785Y015985D02*
X013785Y016285D01*
X014086Y016285D02*
X014086Y016060D01*
X014011Y015985D01*
X013785Y015985D01*
X014301Y016060D02*
X014301Y016210D01*
X014376Y016285D01*
X014526Y016285D01*
X014601Y016210D01*
X014601Y016060D01*
X014526Y015985D01*
X014376Y015985D01*
X014301Y016060D01*
X014806Y016285D02*
X014881Y016285D01*
X015031Y016135D01*
X015031Y015985D02*
X015031Y016285D01*
X015246Y016285D02*
X015472Y016285D01*
X015547Y016210D01*
X015547Y016060D01*
X015472Y015985D01*
X015246Y015985D01*
X015246Y015910D02*
X015246Y016285D01*
X015228Y016585D02*
X015153Y016660D01*
X015153Y017035D01*
X015378Y017035D01*
X015453Y016960D01*
X015453Y016810D01*
X015378Y016735D01*
X015153Y016735D01*
X015228Y016585D02*
X015303Y016585D01*
X015668Y016735D02*
X015668Y017035D01*
X015668Y016735D02*
X015894Y016735D01*
X015969Y016810D01*
X015969Y017035D01*
X016237Y017185D02*
X016237Y016735D01*
X016312Y016735D02*
X016162Y016735D01*
X016528Y016960D02*
X016603Y016885D01*
X016828Y016885D01*
X016828Y016735D02*
X016828Y017185D01*
X016603Y017185D01*
X016528Y017110D01*
X016528Y016960D01*
X016312Y017185D02*
X016237Y017185D01*
X017043Y017110D02*
X017119Y017185D01*
X017269Y017185D01*
X017344Y017110D01*
X017344Y016810D01*
X017269Y016735D01*
X017119Y016735D01*
X017043Y016810D01*
X017043Y016960D01*
X017194Y016960D01*
X017559Y016735D02*
X017859Y016735D01*
X017859Y017185D01*
X017559Y017185D01*
X017709Y016960D02*
X017859Y016960D01*
X018075Y016885D02*
X018075Y016810D01*
X018150Y016735D01*
X018300Y016735D01*
X018375Y016810D01*
X018300Y016960D02*
X018150Y016960D01*
X018075Y016885D01*
X018075Y017110D02*
X018150Y017185D01*
X018300Y017185D01*
X018375Y017110D01*
X018375Y017035D01*
X018300Y016960D01*
X018329Y016285D02*
X018254Y016210D01*
X018254Y016135D01*
X018555Y016135D01*
X018555Y016060D02*
X018555Y016210D01*
X018480Y016285D01*
X018329Y016285D01*
X018039Y016285D02*
X017814Y016285D01*
X017739Y016210D01*
X017739Y015985D01*
X017523Y016060D02*
X017523Y016210D01*
X017448Y016285D01*
X017298Y016285D01*
X017223Y016210D01*
X017223Y016135D01*
X017523Y016135D01*
X017523Y016060D02*
X017448Y015985D01*
X017298Y015985D01*
X017008Y015985D02*
X017008Y016285D01*
X017008Y016135D02*
X016858Y016285D01*
X016783Y016285D01*
X016578Y016210D02*
X016578Y016060D01*
X016503Y015985D01*
X016278Y015985D01*
X016278Y015910D02*
X016278Y016285D01*
X016503Y016285D01*
X016578Y016210D01*
X016278Y015910D02*
X016353Y015835D01*
X016428Y015835D01*
X016062Y016060D02*
X015987Y015985D01*
X015762Y015985D01*
X015762Y015910D02*
X015837Y015835D01*
X015912Y015835D01*
X015762Y015910D02*
X015762Y016285D01*
X016062Y016285D02*
X016062Y016060D01*
X015397Y015835D02*
X015322Y015835D01*
X015246Y015910D01*
X014272Y016735D02*
X014122Y017035D01*
X013906Y017035D02*
X013756Y017185D01*
X013756Y016735D01*
X013906Y016735D02*
X013606Y016735D01*
X013390Y016735D02*
X013315Y016735D01*
X013315Y016810D01*
X013390Y016810D01*
X013390Y016735D01*
X013133Y016810D02*
X012832Y017110D01*
X012832Y016810D01*
X012907Y016735D01*
X013058Y016735D01*
X013133Y016810D01*
X013133Y017110D01*
X013058Y017185D01*
X012907Y017185D01*
X012832Y017110D01*
X012754Y016285D02*
X012979Y016285D01*
X013054Y016210D01*
X012979Y016135D01*
X012829Y016135D01*
X012754Y016060D01*
X012829Y015985D01*
X013054Y015985D01*
X012539Y015985D02*
X012464Y015985D01*
X012464Y016060D01*
X012539Y016060D01*
X012539Y015985D01*
X012281Y016060D02*
X012281Y016210D01*
X012206Y016285D01*
X011981Y016285D01*
X011765Y016210D02*
X011765Y016060D01*
X011690Y015985D01*
X011540Y015985D01*
X011465Y016060D01*
X011465Y016210D01*
X011540Y016285D01*
X011690Y016285D01*
X011765Y016210D01*
X011981Y015985D02*
X012206Y015985D01*
X012281Y016060D01*
X011250Y015985D02*
X011250Y016285D01*
X011175Y016285D01*
X011100Y016210D01*
X011025Y016285D01*
X010949Y016210D01*
X010949Y015985D01*
X011100Y015985D02*
X011100Y016210D01*
X014272Y016735D02*
X014422Y017035D01*
X018039Y016285D02*
X018039Y015985D01*
X018329Y015985D02*
X018480Y015985D01*
X018555Y016060D01*
X018748Y015985D02*
X018823Y016060D01*
X018823Y016360D01*
X018898Y016285D02*
X018748Y016285D01*
X019103Y016285D02*
X019178Y016285D01*
X019328Y016135D01*
X019328Y015985D02*
X019328Y016285D01*
X019543Y016210D02*
X019543Y015985D01*
X019769Y015985D01*
X019844Y016060D01*
X019769Y016135D01*
X019543Y016135D01*
X019543Y016210D02*
X019619Y016285D01*
X019769Y016285D01*
X020059Y016210D02*
X020059Y015985D01*
X020209Y015985D02*
X020209Y016210D01*
X020134Y016285D01*
X020059Y016210D01*
X020209Y016210D02*
X020284Y016285D01*
X020359Y016285D01*
X020359Y015985D01*
X020575Y016060D02*
X020650Y016135D01*
X020800Y016135D01*
X020875Y016210D01*
X020800Y016285D01*
X020575Y016285D01*
X020575Y016060D02*
X020650Y015985D01*
X020875Y015985D01*
D11*
X003864Y002720D02*
X003807Y002777D01*
X003807Y003004D01*
X003864Y003060D01*
X004034Y003060D01*
X004034Y002720D01*
X003864Y002720D01*
X004194Y002720D02*
X004421Y002720D01*
X004421Y003060D01*
X004194Y003060D01*
X004308Y002890D02*
X004421Y002890D01*
X004581Y003060D02*
X004808Y003060D01*
X004694Y003060D02*
X004694Y002720D01*
X004968Y002777D02*
X005024Y002720D01*
X005138Y002720D01*
X005195Y002777D01*
X005195Y003004D01*
X005138Y003060D01*
X005024Y003060D01*
X004968Y003004D01*
X005354Y003060D02*
X005581Y003060D01*
X005581Y002720D01*
X005354Y002720D01*
X005468Y002890D02*
X005581Y002890D01*
X005741Y002720D02*
X005741Y003060D01*
X005968Y003060D02*
X005741Y002720D01*
X005968Y002720D02*
X005968Y003060D01*
X006128Y003060D02*
X006128Y002720D01*
X006355Y003060D01*
X006355Y002720D01*
X006515Y002777D02*
X006515Y003004D01*
X006571Y003060D01*
X006685Y003060D01*
X006741Y003004D01*
X006741Y002777D01*
X006685Y002720D01*
X006571Y002720D01*
X006515Y002777D01*
X006901Y002777D02*
X006958Y002720D01*
X007071Y002720D01*
X007128Y002777D01*
X007128Y003004D01*
X007071Y003060D01*
X006958Y003060D01*
X006901Y003004D01*
X006636Y003408D02*
X006523Y003408D01*
X006579Y003408D02*
X006579Y003748D01*
X006523Y003748D02*
X006636Y003748D01*
X006378Y003748D02*
X006151Y003408D01*
X006151Y003748D01*
X006378Y003748D02*
X006378Y003408D01*
X005605Y003464D02*
X005548Y003408D01*
X005435Y003408D01*
X005378Y003464D01*
X005218Y003464D02*
X005218Y003691D01*
X005161Y003748D01*
X005048Y003748D01*
X004991Y003691D01*
X004991Y003464D01*
X005048Y003408D01*
X005161Y003408D01*
X005218Y003464D01*
X005378Y003691D02*
X005435Y003748D01*
X005548Y003748D01*
X005605Y003691D01*
X005605Y003464D01*
X004831Y003408D02*
X004831Y003748D01*
X004718Y003634D01*
X004604Y003748D01*
X004604Y003408D01*
X004445Y003408D02*
X004445Y003748D01*
X004331Y003634D01*
X004218Y003748D01*
X004218Y003408D01*
X004058Y003464D02*
X004001Y003408D01*
X003888Y003408D01*
X003831Y003464D01*
X003831Y003521D01*
X003888Y003578D01*
X004001Y003578D01*
X004058Y003634D01*
X004058Y003691D01*
X004001Y003748D01*
X003888Y003748D01*
X003831Y003691D01*
X007183Y003691D02*
X007239Y003748D01*
X007353Y003748D01*
X007409Y003691D01*
X007409Y003464D01*
X007353Y003408D01*
X007239Y003408D01*
X007183Y003464D01*
X007183Y003578D01*
X007296Y003578D01*
X007569Y003464D02*
X007569Y003748D01*
X007796Y003748D02*
X007796Y003464D01*
X007739Y003408D01*
X007626Y003408D01*
X007569Y003464D01*
X007956Y003408D02*
X008183Y003408D01*
X008183Y003748D01*
X008343Y003691D02*
X008343Y003578D01*
X008399Y003521D01*
X008570Y003521D01*
X008570Y003408D02*
X008570Y003748D01*
X008399Y003748D01*
X008343Y003691D01*
X008448Y003060D02*
X008448Y002833D01*
X008562Y002720D01*
X008675Y002833D01*
X008675Y003060D01*
X008835Y003004D02*
X009062Y002777D01*
X009005Y002720D01*
X008892Y002720D01*
X008835Y002777D01*
X008835Y003004D01*
X008892Y003060D01*
X009005Y003060D01*
X009062Y003004D01*
X009062Y002777D01*
X009222Y002890D02*
X009449Y002890D01*
X009278Y003060D01*
X009278Y002720D01*
X009608Y002720D02*
X009835Y002720D01*
X009608Y002947D01*
X009608Y003004D01*
X009665Y003060D01*
X009779Y003060D01*
X009835Y003004D01*
X009730Y003408D02*
X009503Y003408D01*
X009343Y003408D02*
X009343Y003748D01*
X009173Y003748D01*
X009116Y003691D01*
X009116Y003578D01*
X009173Y003521D01*
X009343Y003521D01*
X009230Y003521D02*
X009116Y003408D01*
X009616Y003578D02*
X009730Y003578D01*
X009890Y003521D02*
X009890Y003748D01*
X009730Y003748D02*
X009730Y003408D01*
X009890Y003521D02*
X010003Y003408D01*
X010117Y003521D01*
X010117Y003748D01*
X010276Y003748D02*
X010503Y003748D01*
X010503Y003408D01*
X010276Y003408D01*
X010390Y003578D02*
X010503Y003578D01*
X010663Y003408D02*
X010663Y003748D01*
X010890Y003748D02*
X010663Y003408D01*
X010890Y003408D02*
X010890Y003748D01*
X010882Y003060D02*
X010882Y002720D01*
X011140Y002720D02*
X011253Y002720D01*
X011197Y002720D02*
X011197Y003060D01*
X011253Y003060D02*
X011140Y003060D01*
X010995Y003060D02*
X010769Y003060D01*
X010609Y003060D02*
X010609Y002720D01*
X010609Y002890D02*
X010382Y002890D01*
X010382Y003060D02*
X010382Y002720D01*
X011413Y002720D02*
X011413Y003060D01*
X011640Y003060D02*
X011640Y002720D01*
X011527Y002833D01*
X011413Y002720D01*
X009730Y003748D02*
X009503Y003748D01*
X008288Y002947D02*
X008175Y003060D01*
X008061Y002947D01*
X008061Y002720D01*
X007902Y002777D02*
X007845Y002720D01*
X007731Y002720D01*
X007675Y002777D01*
X007675Y003004D02*
X007731Y003060D01*
X007845Y003060D01*
X007902Y003004D01*
X007902Y002777D01*
X008061Y002890D02*
X008288Y002890D01*
X008288Y002947D02*
X008288Y002720D01*
X012573Y005751D02*
X012573Y006092D01*
X012460Y006092D02*
X012687Y006092D01*
X012847Y006092D02*
X012847Y005751D01*
X013073Y006092D01*
X013073Y005751D01*
X013233Y005751D02*
X013460Y005751D01*
X013460Y006092D01*
X013233Y006092D01*
X013347Y005921D02*
X013460Y005921D01*
X013620Y005921D02*
X013677Y005865D01*
X013847Y005865D01*
X013733Y005865D02*
X013620Y005751D01*
X013620Y005921D02*
X013620Y006035D01*
X013677Y006092D01*
X013847Y006092D01*
X013847Y005751D01*
X014007Y005751D02*
X014120Y005865D01*
X014063Y005865D02*
X014234Y005865D01*
X014234Y005751D02*
X014234Y006092D01*
X014063Y006092D01*
X014007Y006035D01*
X014007Y005921D01*
X014063Y005865D01*
X014393Y005808D02*
X014393Y006092D01*
X014620Y006092D02*
X014620Y005808D01*
X014564Y005751D01*
X014450Y005751D01*
X014393Y005808D01*
X014780Y005808D02*
X014837Y005751D01*
X014950Y005751D01*
X015007Y005808D01*
X015007Y006035D01*
X014950Y006092D01*
X014837Y006092D01*
X014780Y006035D01*
X015554Y006035D02*
X015554Y006092D01*
X015554Y006035D02*
X015667Y005921D01*
X015667Y005751D01*
X015667Y005921D02*
X015781Y006035D01*
X015781Y006092D01*
X015940Y005978D02*
X015940Y005751D01*
X015940Y005921D02*
X016167Y005921D01*
X016167Y005978D02*
X016054Y006092D01*
X015940Y005978D01*
X016167Y005978D02*
X016167Y005751D01*
X016327Y005751D02*
X016554Y005751D01*
X016554Y006092D01*
X016714Y006092D02*
X016941Y006092D01*
X016941Y005751D01*
X016714Y005751D01*
X016827Y005921D02*
X016941Y005921D01*
X017101Y005921D02*
X017157Y005865D01*
X017327Y005865D01*
X017214Y005865D02*
X017101Y005751D01*
X017101Y005921D02*
X017101Y006035D01*
X017157Y006092D01*
X017327Y006092D01*
X017327Y005751D01*
X017874Y005751D02*
X018101Y006092D01*
X018261Y005978D02*
X018261Y005751D01*
X018101Y005751D02*
X017874Y006092D01*
X018261Y005978D02*
X018374Y006092D01*
X018488Y005978D01*
X018488Y005751D01*
X018647Y005751D02*
X018647Y006092D01*
X018761Y005978D01*
X018874Y006092D01*
X018874Y005751D01*
X018488Y005921D02*
X018261Y005921D01*
X019421Y005921D02*
X019648Y005921D01*
X019648Y005978D02*
X019534Y006092D01*
X019421Y005978D01*
X019421Y005751D01*
X019648Y005751D02*
X019648Y005978D01*
X019808Y006035D02*
X020035Y005808D01*
X019978Y005751D01*
X019864Y005751D01*
X019808Y005808D01*
X019808Y006035D01*
X019864Y006092D01*
X019978Y006092D01*
X020035Y006035D01*
X020035Y005808D01*
X020194Y005751D02*
X020421Y005751D01*
X020308Y005751D02*
X020308Y006092D01*
X020421Y005978D01*
X020390Y008126D02*
X020390Y008467D01*
X020220Y008467D01*
X020163Y008410D01*
X020163Y008296D01*
X020220Y008240D01*
X020390Y008240D01*
X020277Y008240D02*
X020163Y008126D01*
X020003Y008126D02*
X019776Y008126D01*
X019617Y008126D02*
X019617Y008467D01*
X019503Y008353D01*
X019390Y008467D01*
X019390Y008126D01*
X019230Y008183D02*
X019230Y008410D01*
X019173Y008467D01*
X019060Y008467D01*
X019003Y008410D01*
X019003Y008183D01*
X019060Y008126D01*
X019173Y008126D01*
X019230Y008183D01*
X018843Y008240D02*
X018730Y008126D01*
X018616Y008240D01*
X018616Y008467D01*
X018456Y008467D02*
X018456Y008126D01*
X018229Y008126D01*
X018343Y008296D02*
X018456Y008296D01*
X018456Y008467D02*
X018229Y008467D01*
X018210Y008783D02*
X017983Y008783D01*
X017823Y008783D02*
X017597Y008783D01*
X017823Y008783D02*
X017823Y009123D01*
X017776Y009470D02*
X018003Y009470D01*
X018003Y009810D01*
X017776Y009810D01*
X017617Y009697D02*
X017503Y009810D01*
X017390Y009697D01*
X017390Y009470D01*
X017230Y009470D02*
X017060Y009470D01*
X017003Y009527D01*
X017003Y009754D01*
X017060Y009810D01*
X017230Y009810D01*
X017230Y009470D01*
X017390Y009640D02*
X017617Y009640D01*
X017617Y009697D02*
X017617Y009470D01*
X017890Y009640D02*
X018003Y009640D01*
X018163Y009640D02*
X018220Y009583D01*
X018390Y009583D01*
X018390Y009470D02*
X018390Y009810D01*
X018220Y009810D01*
X018163Y009754D01*
X018163Y009640D01*
X018277Y009583D02*
X018163Y009470D01*
X018210Y009123D02*
X018210Y008783D01*
X018370Y008783D02*
X018370Y009009D01*
X018483Y009123D01*
X018597Y009009D01*
X018597Y008783D01*
X018597Y008953D02*
X018370Y008953D01*
X018843Y008467D02*
X018843Y008240D01*
X019144Y008953D02*
X019370Y008953D01*
X019917Y008953D02*
X019974Y008896D01*
X020144Y008896D01*
X020144Y008783D02*
X020144Y009123D01*
X019974Y009123D01*
X019917Y009066D01*
X019917Y008953D01*
X020030Y008896D02*
X019917Y008783D01*
X020003Y008467D02*
X019776Y008467D01*
X019890Y008296D02*
X020003Y008296D01*
X020003Y008126D02*
X020003Y008467D01*
X020304Y008783D02*
X020531Y008783D01*
X020531Y009123D01*
X020304Y009123D01*
X020417Y008953D02*
X020531Y008953D01*
X020690Y008953D02*
X020804Y008953D01*
X020690Y008953D02*
X020690Y008839D01*
X020747Y008783D01*
X020861Y008783D01*
X020917Y008839D01*
X020917Y009066D01*
X020861Y009123D01*
X020747Y009123D01*
X020690Y009066D01*
X021077Y009123D02*
X021077Y008783D01*
X021304Y009123D01*
X021304Y008783D01*
X021464Y008783D02*
X021464Y009009D01*
X021577Y009123D01*
X021691Y009009D01*
X021691Y008783D01*
X021851Y008839D02*
X021907Y008783D01*
X022077Y008783D01*
X022077Y009123D01*
X021907Y009123D01*
X021851Y009066D01*
X021851Y008839D01*
X021691Y008953D02*
X021464Y008953D01*
X017683Y008467D02*
X017456Y008126D01*
X017296Y008126D02*
X017126Y008126D01*
X017069Y008183D01*
X017069Y008240D01*
X017126Y008296D01*
X017296Y008296D01*
X017296Y008126D02*
X017296Y008467D01*
X017126Y008467D01*
X017069Y008410D01*
X017069Y008353D01*
X017126Y008296D01*
X016909Y008296D02*
X016796Y008296D01*
X016909Y008126D02*
X016683Y008126D01*
X016523Y008126D02*
X016296Y008126D01*
X016409Y008296D02*
X016523Y008296D01*
X016523Y008126D02*
X016523Y008467D01*
X016296Y008467D01*
X016277Y008783D02*
X016277Y009123D01*
X016163Y009009D01*
X016050Y009123D01*
X016050Y008783D01*
X015890Y008783D02*
X015890Y009123D01*
X015720Y009123D01*
X015663Y009066D01*
X015663Y008953D01*
X015720Y008896D01*
X015890Y008896D01*
X015503Y008839D02*
X015446Y008783D01*
X015333Y008783D01*
X015276Y008839D01*
X015276Y009066D01*
X015333Y009123D01*
X015446Y009123D01*
X015503Y009066D01*
X015503Y008839D01*
X015116Y008783D02*
X015116Y009123D01*
X014889Y008783D01*
X014889Y009123D01*
X014730Y009123D02*
X014730Y008783D01*
X014503Y008783D01*
X014343Y008783D02*
X014343Y009123D01*
X014116Y008783D01*
X014116Y009123D01*
X013956Y009123D02*
X013729Y009123D01*
X013843Y009123D02*
X013843Y008783D01*
X013569Y008839D02*
X013513Y008783D01*
X013399Y008783D01*
X013343Y008839D01*
X013343Y008896D01*
X013399Y008953D01*
X013513Y008953D01*
X013569Y009009D01*
X013569Y009066D01*
X013513Y009123D01*
X013399Y009123D01*
X013343Y009066D01*
X013363Y009470D02*
X013363Y009697D01*
X013249Y009810D01*
X013136Y009697D01*
X013136Y009470D01*
X013136Y009640D02*
X013363Y009640D01*
X013522Y009810D02*
X013749Y009810D01*
X013636Y009810D02*
X013636Y009470D01*
X013909Y009470D02*
X013909Y009810D01*
X014136Y009810D02*
X013909Y009470D01*
X014136Y009470D02*
X014136Y009810D01*
X014296Y009810D02*
X014523Y009810D01*
X014523Y009470D01*
X014296Y009470D01*
X014409Y009640D02*
X014523Y009640D01*
X014683Y009810D02*
X014683Y009470D01*
X014909Y009470D02*
X014909Y009810D01*
X014796Y009697D01*
X014683Y009810D01*
X015069Y009810D02*
X015069Y009527D01*
X015126Y009470D01*
X015239Y009470D01*
X015296Y009527D01*
X015296Y009810D01*
X015456Y009754D02*
X015513Y009810D01*
X015626Y009810D01*
X015683Y009754D01*
X015683Y009527D01*
X015626Y009470D01*
X015513Y009470D01*
X015456Y009527D01*
X015843Y009527D02*
X015843Y009754D01*
X015899Y009810D01*
X016013Y009810D01*
X016070Y009754D01*
X016070Y009527D01*
X016013Y009470D01*
X015899Y009470D01*
X015843Y009527D01*
X016229Y009527D02*
X016229Y009754D01*
X016286Y009810D01*
X016456Y009810D01*
X016456Y009470D01*
X016286Y009470D01*
X016229Y009527D01*
X016493Y009123D02*
X016436Y009066D01*
X016436Y008839D01*
X016493Y008783D01*
X016607Y008783D01*
X016663Y008839D01*
X016663Y009066D01*
X016607Y009123D01*
X016493Y009123D01*
X016823Y009066D02*
X016880Y009123D01*
X016993Y009123D01*
X017050Y009066D01*
X017050Y008839D01*
X016993Y008783D01*
X016880Y008783D01*
X016823Y008839D01*
X016909Y008467D02*
X016683Y008467D01*
X016909Y008467D02*
X016909Y008126D01*
X017456Y008467D02*
X017683Y008126D01*
X015749Y008126D02*
X015749Y008467D01*
X015636Y008353D01*
X015522Y008467D01*
X015522Y008126D01*
X015363Y008183D02*
X015363Y008410D01*
X015306Y008467D01*
X015192Y008467D01*
X015136Y008410D01*
X015136Y008183D01*
X015192Y008126D01*
X015306Y008126D01*
X015363Y008183D01*
X014976Y008126D02*
X014806Y008126D01*
X014749Y008183D01*
X014749Y008410D01*
X014806Y008467D01*
X014976Y008467D01*
X014976Y008126D01*
X014589Y008183D02*
X014589Y008467D01*
X014362Y008467D02*
X014362Y008183D01*
X014419Y008126D01*
X014532Y008126D01*
X014589Y008183D01*
X014202Y008126D02*
X013975Y008126D01*
X013816Y008126D02*
X013589Y008126D01*
X013702Y008296D02*
X013816Y008296D01*
X013816Y008126D02*
X013816Y008467D01*
X013589Y008467D01*
X013042Y008467D02*
X013042Y008126D01*
X012872Y008126D01*
X012815Y008183D01*
X012815Y008240D01*
X012872Y008296D01*
X013042Y008296D01*
X012872Y008296D02*
X012815Y008353D01*
X012815Y008410D01*
X012872Y008467D01*
X013042Y008467D01*
X012655Y008467D02*
X012655Y008126D01*
X012429Y008126D01*
X012269Y008126D02*
X012269Y008467D01*
X012042Y008467D01*
X011882Y008410D02*
X011882Y008183D01*
X011825Y008126D01*
X011712Y008126D01*
X011655Y008183D01*
X011655Y008410D01*
X011712Y008467D01*
X011825Y008467D01*
X011882Y008410D01*
X012155Y008296D02*
X012269Y008296D01*
X012429Y008467D02*
X012655Y008467D01*
X012655Y008296D02*
X012542Y008296D01*
X012569Y008783D02*
X012569Y009009D01*
X012683Y009123D01*
X012796Y009009D01*
X012796Y008783D01*
X012796Y008953D02*
X012569Y008953D01*
X012409Y008896D02*
X012239Y008896D01*
X012182Y008953D01*
X012182Y009066D01*
X012239Y009123D01*
X012409Y009123D01*
X012409Y008783D01*
X012296Y008896D02*
X012182Y008783D01*
X012023Y008783D02*
X011796Y008783D01*
X011909Y008953D02*
X012023Y008953D01*
X012023Y009123D02*
X011796Y009123D01*
X012023Y009123D02*
X012023Y008783D01*
X011495Y008467D02*
X011325Y008467D01*
X011268Y008410D01*
X011268Y008296D01*
X011325Y008240D01*
X011495Y008240D01*
X011382Y008240D02*
X011268Y008126D01*
X011108Y008126D02*
X010882Y008126D01*
X010995Y008296D02*
X011108Y008296D01*
X011108Y008126D02*
X011108Y008467D01*
X010882Y008467D01*
X010749Y008783D02*
X010749Y009123D01*
X010862Y009123D02*
X010635Y009123D01*
X011022Y009009D02*
X011022Y008783D01*
X011022Y008953D02*
X011249Y008953D01*
X011249Y009009D02*
X011136Y009123D01*
X011022Y009009D01*
X011249Y009009D02*
X011249Y008783D01*
X011495Y008467D02*
X011495Y008126D01*
X010335Y008126D02*
X010335Y008467D01*
X010165Y008467D01*
X010108Y008410D01*
X010108Y008296D01*
X010165Y008240D01*
X010335Y008240D01*
X009948Y008240D02*
X009778Y008240D01*
X009721Y008296D01*
X009721Y008410D01*
X009778Y008467D01*
X009948Y008467D01*
X009948Y008126D01*
X009835Y008240D02*
X009721Y008126D01*
X009562Y008183D02*
X009562Y008410D01*
X009505Y008467D01*
X009391Y008467D01*
X009335Y008410D01*
X009335Y008183D01*
X009391Y008126D01*
X009505Y008126D01*
X009562Y008183D01*
X009175Y008183D02*
X009175Y008410D01*
X009118Y008467D01*
X009005Y008467D01*
X008948Y008410D01*
X008948Y008296D02*
X009061Y008296D01*
X008948Y008296D02*
X008948Y008183D01*
X009005Y008126D01*
X009118Y008126D01*
X009175Y008183D01*
X008788Y008240D02*
X008618Y008240D01*
X008561Y008296D01*
X008561Y008410D01*
X008618Y008467D01*
X008788Y008467D01*
X008788Y008126D01*
X008675Y008240D02*
X008561Y008126D01*
X008401Y008126D02*
X008401Y008353D01*
X008288Y008467D01*
X008175Y008353D01*
X008175Y008126D01*
X008015Y008126D02*
X008015Y008467D01*
X007901Y008353D01*
X007788Y008467D01*
X007788Y008126D01*
X007628Y008126D02*
X007628Y008467D01*
X007514Y008353D01*
X007401Y008467D01*
X007401Y008126D01*
X007241Y008126D02*
X007128Y008126D01*
X007184Y008126D02*
X007184Y008467D01*
X007128Y008467D02*
X007241Y008467D01*
X006983Y008467D02*
X006757Y008126D01*
X006757Y008467D01*
X006597Y008410D02*
X006597Y008183D01*
X006540Y008126D01*
X006426Y008126D01*
X006370Y008183D01*
X006370Y008296D01*
X006483Y008296D01*
X006370Y008410D02*
X006426Y008467D01*
X006540Y008467D01*
X006597Y008410D01*
X006983Y008467D02*
X006983Y008126D01*
X007010Y008783D02*
X007010Y009123D01*
X006897Y009123D02*
X007124Y009123D01*
X007284Y009066D02*
X007341Y009123D01*
X007454Y009123D01*
X007511Y009066D01*
X007511Y008839D01*
X007454Y008783D01*
X007341Y008783D01*
X007284Y008839D01*
X007284Y009066D01*
X006737Y009123D02*
X006737Y008783D01*
X006510Y008783D01*
X006350Y008783D02*
X006350Y009123D01*
X006124Y008783D01*
X006124Y009123D01*
X005964Y009123D02*
X005737Y009123D01*
X005850Y009123D02*
X005850Y008783D01*
X005577Y008783D02*
X005464Y008783D01*
X005520Y008783D02*
X005520Y009123D01*
X005464Y009123D02*
X005577Y009123D01*
X005319Y009009D02*
X005206Y009123D01*
X005092Y009009D01*
X005092Y008783D01*
X004932Y008783D02*
X004706Y008783D01*
X004932Y008783D02*
X004932Y009123D01*
X005092Y008953D02*
X005319Y008953D01*
X005319Y009009D02*
X005319Y008783D01*
X006510Y009123D02*
X006737Y009123D01*
X006737Y008953D02*
X006624Y008953D01*
X007671Y008953D02*
X007727Y008896D01*
X007897Y008896D01*
X007897Y008783D02*
X007897Y009123D01*
X007727Y009123D01*
X007671Y009066D01*
X007671Y008953D01*
X008444Y008896D02*
X008444Y008839D01*
X008501Y008783D01*
X008614Y008783D01*
X008671Y008839D01*
X008614Y008953D02*
X008501Y008953D01*
X008444Y008896D01*
X008444Y009066D02*
X008501Y009123D01*
X008614Y009123D01*
X008671Y009066D01*
X008671Y009009D01*
X008614Y008953D01*
X008831Y008783D02*
X008831Y009123D01*
X009058Y009123D02*
X008831Y008783D01*
X009058Y008783D02*
X009058Y009123D01*
X009202Y009123D02*
X009315Y009123D01*
X009259Y009123D02*
X009259Y008783D01*
X009315Y008783D02*
X009202Y008783D01*
X009475Y008783D02*
X009475Y009009D01*
X009589Y009123D01*
X009702Y009009D01*
X009702Y008783D01*
X009862Y008783D02*
X009862Y009123D01*
X009975Y009009D01*
X010089Y009123D01*
X010089Y008783D01*
X009702Y008953D02*
X009475Y008953D01*
X009640Y009470D02*
X009640Y009810D01*
X009753Y009810D02*
X009526Y009810D01*
X009913Y009754D02*
X009970Y009810D01*
X010083Y009810D01*
X010140Y009754D01*
X010140Y009697D01*
X010083Y009640D01*
X009970Y009640D01*
X009913Y009583D01*
X009913Y009527D01*
X009970Y009470D01*
X010083Y009470D01*
X010140Y009527D01*
X010300Y009470D02*
X010413Y009583D01*
X010356Y009583D02*
X010526Y009583D01*
X010526Y009470D02*
X010526Y009810D01*
X010356Y009810D01*
X010300Y009754D01*
X010300Y009640D01*
X010356Y009583D01*
X010671Y009470D02*
X010784Y009470D01*
X010728Y009470D02*
X010728Y009810D01*
X010784Y009810D02*
X010671Y009810D01*
X010944Y009810D02*
X011171Y009810D01*
X011171Y009470D01*
X011171Y009640D02*
X011058Y009640D01*
X011718Y009470D02*
X011718Y009810D01*
X011945Y009810D02*
X011718Y009470D01*
X011945Y009470D02*
X011945Y009810D01*
X012104Y009754D02*
X012161Y009810D01*
X012275Y009810D01*
X012331Y009754D01*
X012331Y009527D01*
X012275Y009470D01*
X012161Y009470D01*
X012104Y009527D01*
X012104Y009754D01*
X012476Y009810D02*
X012589Y009810D01*
X012532Y009810D02*
X012532Y009470D01*
X012476Y009470D02*
X012589Y009470D01*
X012862Y009470D02*
X012862Y009810D01*
X012749Y009810D02*
X012976Y009810D01*
X014503Y009123D02*
X014730Y009123D01*
X014730Y008953D02*
X014616Y008953D01*
X014202Y008467D02*
X014202Y008126D01*
X008401Y008296D02*
X008175Y008296D01*
D12*
X012602Y015210D02*
X012795Y015210D01*
X012602Y015403D01*
X012602Y015452D01*
X012650Y015500D01*
X012747Y015500D01*
X012795Y015452D01*
X013021Y015500D02*
X013021Y015210D01*
X013118Y015210D02*
X012924Y015210D01*
X013118Y015403D02*
X013021Y015500D01*
X013246Y015452D02*
X013440Y015258D01*
X013392Y015210D01*
X013295Y015210D01*
X013246Y015258D01*
X013246Y015452D01*
X013295Y015500D01*
X013392Y015500D01*
X013440Y015452D01*
X013440Y015258D01*
X013569Y015210D02*
X013762Y015210D01*
X013569Y015403D01*
X013569Y015452D01*
X013617Y015500D01*
X013714Y015500D01*
X013762Y015452D01*
X014203Y015258D02*
X014251Y015258D01*
X014251Y015210D01*
X014203Y015210D01*
X014203Y015258D01*
X014203Y015210D02*
X014299Y015113D01*
X014428Y015210D02*
X014428Y015355D01*
X014476Y015403D01*
X014622Y015403D01*
X014622Y015210D01*
X014750Y015258D02*
X014750Y015355D01*
X014799Y015403D01*
X014895Y015403D01*
X014944Y015355D01*
X014944Y015258D01*
X014895Y015210D01*
X014799Y015210D01*
X014750Y015258D01*
X015062Y015210D02*
X015110Y015258D01*
X015110Y015452D01*
X015062Y015403D02*
X015159Y015403D01*
X015287Y015403D02*
X015433Y015403D01*
X015481Y015355D01*
X015433Y015307D01*
X015336Y015307D01*
X015287Y015258D01*
X015336Y015210D01*
X015481Y015210D01*
X015610Y015307D02*
X015803Y015307D01*
X015803Y015355D02*
X015755Y015403D01*
X015658Y015403D01*
X015610Y015355D01*
X015610Y015307D01*
X015658Y015210D02*
X015755Y015210D01*
X015803Y015258D01*
X015803Y015355D01*
X015932Y015210D02*
X015932Y015500D01*
X016126Y015500D02*
X016126Y015210D01*
X016029Y015307D01*
X015932Y015210D01*
X016577Y015307D02*
X016770Y015307D01*
X016770Y015355D02*
X016722Y015403D01*
X016625Y015403D01*
X016577Y015355D01*
X016577Y015307D01*
X016625Y015210D02*
X016722Y015210D01*
X016770Y015258D01*
X016770Y015355D01*
X016894Y015403D02*
X017039Y015307D01*
X016894Y015210D01*
X017039Y015210D02*
X017039Y015500D01*
X017167Y015403D02*
X017167Y015210D01*
X017313Y015210D01*
X017361Y015258D01*
X017361Y015403D01*
X017490Y015210D02*
X017683Y015210D01*
X017683Y015500D01*
X018134Y015403D02*
X018134Y015162D01*
X018183Y015113D01*
X018231Y015113D01*
X018279Y015210D02*
X018134Y015210D01*
X018279Y015210D02*
X018328Y015258D01*
X018328Y015403D01*
X018457Y015355D02*
X018457Y015258D01*
X018505Y015210D01*
X018650Y015210D01*
X018650Y015500D01*
X018650Y015403D02*
X018505Y015403D01*
X018457Y015355D01*
D13*
X018644Y013045D02*
X018644Y012715D01*
X018699Y012715D02*
X018589Y012715D01*
X018454Y012770D02*
X018454Y012880D01*
X018399Y012935D01*
X018289Y012935D01*
X018234Y012880D01*
X018234Y012825D01*
X018454Y012825D01*
X018454Y012770D02*
X018399Y012715D01*
X018289Y012715D01*
X018086Y012770D02*
X018031Y012825D01*
X017865Y012825D01*
X017865Y012880D02*
X017865Y012715D01*
X018031Y012715D01*
X018086Y012770D01*
X018031Y012935D02*
X017921Y012935D01*
X017865Y012880D01*
X017717Y012880D02*
X017662Y012935D01*
X017497Y012935D01*
X017552Y012825D02*
X017662Y012825D01*
X017717Y012880D01*
X017717Y012715D02*
X017552Y012715D01*
X017497Y012770D01*
X017552Y012825D01*
X017349Y012825D02*
X017129Y012825D01*
X017129Y012880D01*
X017184Y012935D01*
X017294Y012935D01*
X017349Y012880D01*
X017349Y012770D01*
X017294Y012715D01*
X017184Y012715D01*
X016981Y012770D02*
X016981Y012880D01*
X016926Y012935D01*
X016761Y012935D01*
X016761Y013045D02*
X016761Y012715D01*
X016926Y012715D01*
X016981Y012770D01*
X016770Y012545D02*
X016770Y012215D01*
X016550Y012215D01*
X016401Y012215D02*
X016291Y012215D01*
X016346Y012215D02*
X016346Y012435D01*
X016401Y012435D01*
X016346Y012545D02*
X016346Y012600D01*
X016189Y012715D02*
X016024Y012715D01*
X016024Y012935D01*
X015876Y012935D02*
X015711Y012935D01*
X015656Y012880D01*
X015656Y012715D01*
X015507Y012770D02*
X015507Y012880D01*
X015452Y012935D01*
X015287Y012935D01*
X015287Y013045D02*
X015287Y012715D01*
X015452Y012715D01*
X015507Y012770D01*
X015139Y012770D02*
X015084Y012715D01*
X014974Y012715D01*
X014919Y012825D02*
X015139Y012825D01*
X015139Y012770D02*
X015139Y012880D01*
X015084Y012935D01*
X014974Y012935D01*
X014919Y012880D01*
X014919Y012825D01*
X014771Y012825D02*
X014661Y012935D01*
X014606Y012935D01*
X014771Y012935D02*
X014771Y012715D01*
X014831Y012435D02*
X014996Y012435D01*
X015051Y012380D01*
X014996Y012325D01*
X014886Y012325D01*
X014831Y012270D01*
X014886Y012215D01*
X015051Y012215D01*
X015199Y012215D02*
X015199Y012380D01*
X015254Y012435D01*
X015419Y012435D01*
X015419Y012215D01*
X015567Y012325D02*
X015567Y012380D01*
X015622Y012435D01*
X015733Y012435D01*
X015788Y012380D01*
X015788Y012270D01*
X015733Y012215D01*
X015622Y012215D01*
X015567Y012325D02*
X015788Y012325D01*
X015936Y012215D02*
X016101Y012215D01*
X016156Y012270D01*
X016156Y012380D01*
X016101Y012435D01*
X015936Y012435D01*
X015876Y012715D02*
X015876Y012935D01*
X016244Y012935D02*
X016244Y012770D01*
X016189Y012715D01*
X017286Y012380D02*
X017286Y012325D01*
X017506Y012325D01*
X017506Y012270D02*
X017506Y012380D01*
X017451Y012435D01*
X017341Y012435D01*
X017286Y012380D01*
X017341Y012215D02*
X017451Y012215D01*
X017506Y012270D01*
X017648Y012435D02*
X017703Y012435D01*
X017813Y012325D01*
X017813Y012215D02*
X017813Y012435D01*
X017961Y012380D02*
X017961Y012215D01*
X018127Y012215D01*
X018182Y012270D01*
X018127Y012325D01*
X017961Y012325D01*
X017961Y012380D02*
X018017Y012435D01*
X018127Y012435D01*
X018330Y012435D02*
X018330Y012270D01*
X018385Y012215D01*
X018440Y012270D01*
X018495Y012215D01*
X018550Y012270D01*
X018550Y012435D01*
X018698Y012435D02*
X018863Y012435D01*
X018918Y012380D01*
X018918Y012270D01*
X018863Y012215D01*
X018698Y012215D01*
X018698Y012545D01*
X018903Y012715D02*
X019013Y012715D01*
X019068Y012770D01*
X019068Y012880D01*
X019013Y012935D01*
X018903Y012935D01*
X018848Y012880D01*
X018848Y012825D01*
X019068Y012825D01*
X019210Y012935D02*
X019265Y012935D01*
X019375Y012825D01*
X019375Y012715D02*
X019375Y012935D01*
X019891Y012880D02*
X020111Y012880D01*
X019962Y012545D02*
X019962Y012215D01*
X019962Y012380D02*
X019742Y012380D01*
X019742Y012545D02*
X019742Y012215D01*
X019594Y012270D02*
X019538Y012325D01*
X019373Y012325D01*
X019373Y012380D02*
X019373Y012215D01*
X019538Y012215D01*
X019594Y012270D01*
X019538Y012435D02*
X019428Y012435D01*
X019373Y012380D01*
X019225Y012325D02*
X019115Y012435D01*
X019060Y012435D01*
X019225Y012435D02*
X019225Y012215D01*
X018699Y013045D02*
X018644Y013045D01*
X020478Y012380D02*
X020478Y012215D01*
X020478Y012380D02*
X020533Y012435D01*
X020698Y012435D01*
X020698Y012215D01*
X020847Y012325D02*
X020847Y012380D01*
X020902Y012435D01*
X021012Y012435D01*
X021067Y012380D01*
X021067Y012270D01*
X021012Y012215D01*
X020902Y012215D01*
X020847Y012325D02*
X021067Y012325D01*
X021215Y012380D02*
X021215Y012270D01*
X021270Y012215D01*
X021435Y012215D01*
X021435Y012105D02*
X021435Y012435D01*
X021270Y012435D01*
X021215Y012380D01*
X021155Y012715D02*
X021155Y012935D01*
X021155Y012825D02*
X021045Y012935D01*
X020990Y012935D01*
X020848Y012880D02*
X020793Y012935D01*
X020683Y012935D01*
X020628Y012880D01*
X020628Y012825D01*
X020848Y012825D01*
X020848Y012770D02*
X020848Y012880D01*
X020848Y012770D02*
X020793Y012715D01*
X020683Y012715D01*
X021303Y012715D02*
X021468Y012715D01*
X021523Y012770D01*
X021468Y012825D01*
X021303Y012825D01*
X021303Y012880D02*
X021303Y012715D01*
X021303Y012880D02*
X021358Y012935D01*
X021468Y012935D01*
X021671Y012935D02*
X021671Y012770D01*
X021726Y012715D01*
X021781Y012770D01*
X021837Y012715D01*
X021892Y012770D01*
X021892Y012935D01*
X022040Y012935D02*
X022205Y012935D01*
X022260Y012880D01*
X022260Y012770D01*
X022205Y012715D01*
X022040Y012715D01*
X022040Y013045D01*
X022402Y012935D02*
X022457Y012935D01*
X022567Y012825D01*
X022567Y012715D02*
X022567Y012935D01*
X022715Y012880D02*
X022715Y012715D01*
X022880Y012715D01*
X022935Y012770D01*
X022880Y012825D01*
X022715Y012825D01*
X022715Y012880D02*
X022770Y012935D01*
X022880Y012935D01*
X023083Y012880D02*
X023303Y012880D01*
X023303Y012715D02*
X023303Y013045D01*
X023083Y013045D02*
X023083Y012715D01*
X023056Y012545D02*
X023277Y012545D01*
X023277Y012215D01*
X023056Y012215D01*
X022908Y012215D02*
X022908Y012545D01*
X022743Y012545D01*
X022688Y012490D01*
X022688Y012380D01*
X022743Y012325D01*
X022908Y012325D01*
X022798Y012325D02*
X022688Y012215D01*
X022540Y012215D02*
X022540Y012545D01*
X022320Y012215D01*
X022320Y012545D01*
X021803Y012490D02*
X021803Y012270D01*
X021748Y012215D01*
X021638Y012215D01*
X021583Y012270D01*
X021583Y012490D01*
X021638Y012545D01*
X021748Y012545D01*
X021803Y012490D01*
X023167Y012380D02*
X023277Y012380D01*
X023425Y012270D02*
X023480Y012215D01*
X023590Y012215D01*
X023645Y012270D01*
X023645Y012490D01*
X023590Y012545D01*
X023480Y012545D01*
X023425Y012490D01*
X023820Y012715D02*
X023820Y012880D01*
X023875Y012935D01*
X024040Y012935D01*
X024040Y012715D01*
X024188Y012825D02*
X024408Y012825D01*
X024408Y012770D02*
X024408Y012880D01*
X024353Y012935D01*
X024243Y012935D01*
X024188Y012880D01*
X024188Y012825D01*
X024243Y012715D02*
X024353Y012715D01*
X024408Y012770D01*
X024556Y012770D02*
X024612Y012715D01*
X024777Y012715D01*
X024777Y012605D02*
X024777Y012935D01*
X024612Y012935D01*
X024556Y012880D01*
X024556Y012770D01*
X024925Y012770D02*
X024980Y012715D01*
X025090Y012715D01*
X025145Y012770D01*
X025145Y012990D01*
X025090Y013045D01*
X024980Y013045D01*
X024925Y012990D01*
X024925Y012770D01*
X014683Y012380D02*
X014683Y012270D01*
X014628Y012215D01*
X014518Y012215D01*
X014462Y012325D02*
X014683Y012325D01*
X014683Y012380D02*
X014628Y012435D01*
X014518Y012435D01*
X014462Y012380D01*
X014462Y012325D01*
X014041Y012770D02*
X013985Y012715D01*
X014041Y012770D02*
X014041Y012990D01*
X014096Y012935D02*
X013985Y012935D01*
X013850Y012880D02*
X013795Y012935D01*
X013685Y012935D01*
X013630Y012880D01*
X013630Y012715D01*
X013482Y012770D02*
X013482Y012880D01*
X013427Y012935D01*
X013317Y012935D01*
X013262Y012880D01*
X013262Y012825D01*
X013482Y012825D01*
X013482Y012770D02*
X013427Y012715D01*
X013317Y012715D01*
X013850Y012715D02*
X013850Y013045D01*
D14*
X016233Y006238D03*
D15*
X016233Y006241D03*
D16*
X016233Y006244D03*
D17*
X016233Y006247D03*
X016233Y006334D03*
D18*
X016233Y006325D03*
X016233Y006322D03*
X016233Y006250D03*
D19*
X016233Y006253D03*
X016233Y006256D03*
X016233Y006319D03*
D20*
X016233Y006313D03*
X016233Y006259D03*
D21*
X016233Y006262D03*
X016233Y006265D03*
X016233Y006307D03*
X016233Y006310D03*
D22*
X016233Y006304D03*
X016233Y006301D03*
X016233Y006298D03*
X016233Y006274D03*
X016233Y006271D03*
X016233Y006268D03*
D23*
X016233Y006277D03*
X016233Y006280D03*
X016233Y006283D03*
X016233Y006286D03*
X016233Y006289D03*
X016233Y006292D03*
X016233Y006295D03*
D24*
X016231Y006316D03*
D25*
X016233Y006328D03*
X016233Y006331D03*
D26*
X016246Y006538D03*
X016156Y006979D03*
X016318Y007045D03*
X016309Y007069D03*
X016549Y007210D03*
X016549Y007213D03*
X016546Y007216D03*
X016546Y007219D03*
X016543Y007222D03*
X016534Y007237D03*
X016531Y007243D03*
X016528Y007249D03*
X016519Y007264D03*
X016516Y007267D03*
X016516Y007270D03*
X016513Y007273D03*
X016513Y007276D03*
X016504Y007288D03*
X016504Y007291D03*
X016501Y007294D03*
X016501Y007297D03*
X016498Y007300D03*
X016489Y007315D03*
X016486Y007321D03*
X016483Y007324D03*
X016483Y007327D03*
X016474Y007342D03*
X016471Y007345D03*
X016471Y007348D03*
X016468Y007351D03*
X016468Y007354D03*
X016459Y007366D03*
X016459Y007369D03*
X016456Y007372D03*
X016453Y007378D03*
X016444Y007393D03*
X016441Y007399D03*
X016438Y007402D03*
X016438Y007405D03*
X016429Y007420D03*
X016426Y007423D03*
X016426Y007426D03*
X016423Y007429D03*
X016423Y007432D03*
X016414Y007444D03*
X016414Y007447D03*
X016411Y007450D03*
X016408Y007456D03*
X016399Y007471D03*
X016396Y007477D03*
X016393Y007480D03*
X016393Y007483D03*
X016384Y007498D03*
X016381Y007501D03*
X016381Y007504D03*
X016378Y007507D03*
X016378Y007510D03*
X016369Y007522D03*
X016369Y007525D03*
X016366Y007528D03*
X016363Y007534D03*
X016354Y007549D03*
X016351Y007555D03*
X016348Y007558D03*
X016348Y007561D03*
X016339Y007576D03*
X016336Y007579D03*
X016336Y007582D03*
X016333Y007585D03*
X016324Y007600D03*
X016324Y007603D03*
X016321Y007606D03*
X016318Y007612D03*
X016309Y007627D03*
X016306Y007633D03*
X016303Y007636D03*
X016303Y007639D03*
X016294Y007654D03*
X016291Y007657D03*
X016291Y007660D03*
X016174Y007660D03*
X016171Y007654D03*
X016168Y007648D03*
X016159Y007633D03*
X016156Y007630D03*
X016156Y007627D03*
X016153Y007624D03*
X016153Y007621D03*
X016144Y007609D03*
X016144Y007606D03*
X016141Y007603D03*
X016141Y007600D03*
X016138Y007597D03*
X016129Y007582D03*
X016126Y007576D03*
X016123Y007570D03*
X016114Y007555D03*
X016111Y007552D03*
X016111Y007549D03*
X016108Y007546D03*
X016108Y007543D03*
X016099Y007531D03*
X016099Y007528D03*
X016096Y007525D03*
X016096Y007522D03*
X016093Y007519D03*
X016084Y007504D03*
X016081Y007498D03*
X016078Y007492D03*
X016069Y007477D03*
X016066Y007474D03*
X016066Y007471D03*
X016063Y007468D03*
X016063Y007465D03*
X016054Y007453D03*
X016054Y007450D03*
X016051Y007447D03*
X016051Y007444D03*
X016048Y007441D03*
X016039Y007426D03*
X016036Y007420D03*
X016033Y007417D03*
X016033Y007414D03*
X016024Y007399D03*
X016021Y007396D03*
X016021Y007393D03*
X016018Y007390D03*
X016018Y007387D03*
X016009Y007375D03*
X016009Y007372D03*
X016006Y007369D03*
X016003Y007363D03*
X015994Y007348D03*
X015991Y007342D03*
X015988Y007339D03*
X015988Y007336D03*
X015979Y007321D03*
X015976Y007318D03*
X015976Y007315D03*
X015973Y007312D03*
X015973Y007309D03*
X015964Y007297D03*
X015964Y007294D03*
X015961Y007291D03*
X015958Y007285D03*
X015949Y007270D03*
X015946Y007264D03*
X015943Y007261D03*
X015943Y007258D03*
X015934Y007243D03*
X015931Y007240D03*
X015931Y007237D03*
X015928Y007234D03*
X015928Y007231D03*
X015919Y007219D03*
X015919Y007216D03*
X015916Y007213D03*
X015913Y007207D03*
X015904Y007192D03*
X015901Y007186D03*
X015898Y007183D03*
X015898Y007180D03*
X015889Y007165D03*
X015886Y007162D03*
X015886Y007159D03*
X015883Y007156D03*
X015883Y007153D03*
X015874Y007141D03*
X015874Y007138D03*
X015871Y007135D03*
X015868Y007129D03*
X015859Y007114D03*
X015856Y007108D03*
X015853Y007105D03*
X015853Y007102D03*
X015844Y007087D03*
X015841Y007084D03*
X015841Y007081D03*
X015838Y007078D03*
X015829Y007063D03*
X015829Y007060D03*
X015826Y007057D03*
X015823Y007051D03*
X015814Y007036D03*
X015811Y007030D03*
X015808Y007027D03*
X015808Y007024D03*
X015799Y007009D03*
X015796Y007006D03*
X015796Y007003D03*
X015793Y007000D03*
X015784Y006985D03*
X015784Y006982D03*
X015781Y006979D03*
X015778Y006973D03*
X015769Y006958D03*
X015766Y006952D03*
X015763Y006949D03*
X015763Y006946D03*
X015754Y006931D03*
X015751Y006928D03*
X015751Y006925D03*
X015748Y006922D03*
X015739Y006907D03*
X015739Y006904D03*
X015736Y006901D03*
X015733Y006895D03*
X015724Y006880D03*
X015721Y006874D03*
X015718Y006871D03*
X015718Y006868D03*
X015709Y006853D03*
X015706Y006850D03*
X015706Y006847D03*
X015703Y006844D03*
X015694Y006829D03*
X015694Y006826D03*
X015691Y006823D03*
X015688Y006817D03*
X015679Y006802D03*
X015676Y006796D03*
X015673Y006793D03*
X015673Y006790D03*
X015664Y006778D03*
X015664Y006775D03*
X015661Y006772D03*
X015661Y006769D03*
X015658Y006766D03*
X015658Y006763D03*
X015649Y006751D03*
X015649Y006748D03*
X015646Y006745D03*
X015643Y006739D03*
X015634Y006724D03*
X015631Y006718D03*
X015628Y006715D03*
X015628Y006712D03*
X015619Y006700D03*
X015619Y006697D03*
X015616Y006694D03*
X015616Y006691D03*
X015613Y006688D03*
X015604Y006673D03*
X015604Y006670D03*
X015601Y006667D03*
X015598Y006661D03*
X015589Y006646D03*
X015586Y006640D03*
X015583Y006637D03*
X015583Y006634D03*
X015574Y006622D03*
X015574Y006619D03*
X015571Y006616D03*
X015571Y006613D03*
X015568Y006610D03*
X015559Y006595D03*
X015559Y006592D03*
X015556Y006589D03*
X015553Y006583D03*
X015544Y006568D03*
X015541Y006565D03*
X015541Y006562D03*
X015538Y006559D03*
X015538Y006556D03*
X015529Y006544D03*
X015529Y006541D03*
X015526Y006538D03*
X015526Y006535D03*
X015523Y006532D03*
X015514Y006517D03*
X015514Y006514D03*
X015511Y006511D03*
X015508Y006505D03*
X015499Y006490D03*
X015496Y006487D03*
X015496Y006484D03*
X015493Y006481D03*
X015493Y006478D03*
X015484Y006466D03*
X015484Y006463D03*
X015481Y006460D03*
X015481Y006457D03*
X015478Y006454D03*
X015469Y006439D03*
X015469Y006436D03*
X015466Y006433D03*
X015463Y006427D03*
X015454Y006412D03*
X015451Y006409D03*
X015451Y006406D03*
X015448Y006403D03*
X015448Y006400D03*
X015439Y006388D03*
X015439Y006385D03*
X015436Y006382D03*
X015436Y006379D03*
X015433Y006376D03*
X015424Y006361D03*
X015424Y006358D03*
X015421Y006355D03*
X015418Y006352D03*
X015418Y006349D03*
X016639Y007054D03*
X016639Y007057D03*
X016636Y007060D03*
X016636Y007063D03*
X016633Y007066D03*
X016624Y007081D03*
X016624Y007084D03*
X016621Y007087D03*
X016618Y007093D03*
X016609Y007108D03*
X016606Y007111D03*
X016606Y007114D03*
X016603Y007117D03*
X016603Y007120D03*
X016594Y007132D03*
X016594Y007135D03*
X016591Y007138D03*
X016591Y007141D03*
X016588Y007144D03*
X016579Y007159D03*
X016576Y007165D03*
X016573Y007171D03*
X016564Y007186D03*
X016561Y007189D03*
X016561Y007192D03*
X016558Y007195D03*
X016558Y007198D03*
X016648Y007042D03*
X016648Y007039D03*
X016651Y007036D03*
X016651Y007033D03*
X016654Y007030D03*
X016663Y007015D03*
X016666Y007009D03*
X016669Y007006D03*
X016669Y007003D03*
X016678Y006988D03*
X016681Y006985D03*
X016681Y006982D03*
X016684Y006979D03*
X016684Y006976D03*
X016693Y006964D03*
X016693Y006961D03*
X016696Y006958D03*
X016699Y006952D03*
X016708Y006937D03*
X016711Y006931D03*
X016714Y006928D03*
X016714Y006925D03*
X016723Y006910D03*
X016726Y006907D03*
X016726Y006904D03*
X016729Y006901D03*
X016729Y006898D03*
X016738Y006886D03*
X016738Y006883D03*
X016741Y006880D03*
X016744Y006874D03*
X016753Y006859D03*
X016756Y006853D03*
X016759Y006850D03*
X016759Y006847D03*
X016768Y006832D03*
X016771Y006829D03*
X016771Y006826D03*
X016774Y006823D03*
X016774Y006820D03*
X016783Y006808D03*
X016783Y006805D03*
X016786Y006802D03*
X016789Y006796D03*
X016798Y006781D03*
X016801Y006775D03*
X016804Y006772D03*
X016804Y006769D03*
X016813Y006754D03*
X016816Y006751D03*
X016816Y006748D03*
X016819Y006745D03*
X016819Y006742D03*
X016828Y006730D03*
X016828Y006727D03*
X016831Y006724D03*
X016834Y006718D03*
X016843Y006703D03*
X016846Y006697D03*
X016849Y006694D03*
X016849Y006691D03*
X016858Y006676D03*
X016861Y006673D03*
X016861Y006670D03*
X016864Y006667D03*
X016873Y006652D03*
X016873Y006649D03*
X016876Y006646D03*
X016879Y006640D03*
X016888Y006625D03*
X016891Y006619D03*
X016894Y006616D03*
X016894Y006613D03*
X016903Y006598D03*
X016906Y006595D03*
X016906Y006592D03*
X016909Y006589D03*
X016918Y006574D03*
X016918Y006571D03*
X016921Y006568D03*
X016924Y006562D03*
X016933Y006547D03*
X016936Y006541D03*
X016939Y006538D03*
X016939Y006535D03*
X016948Y006523D03*
X016948Y006520D03*
X016951Y006517D03*
X016951Y006514D03*
X016954Y006511D03*
X016963Y006496D03*
X016963Y006493D03*
X016966Y006490D03*
X016969Y006484D03*
X016978Y006469D03*
X016981Y006463D03*
X016984Y006460D03*
X016984Y006457D03*
X016993Y006445D03*
X016993Y006442D03*
X016996Y006439D03*
X016996Y006436D03*
X016999Y006433D03*
X017008Y006418D03*
X017008Y006415D03*
X017011Y006412D03*
X017014Y006406D03*
X017023Y006391D03*
X017026Y006385D03*
X017029Y006382D03*
X017029Y006379D03*
X017038Y006367D03*
X017038Y006364D03*
X017041Y006361D03*
X017041Y006358D03*
X017044Y006355D03*
X017053Y006340D03*
X017053Y006337D03*
D27*
X017046Y006352D03*
X017001Y006430D03*
X016956Y006508D03*
X016911Y006586D03*
X016901Y006601D03*
X016866Y006664D03*
X016856Y006679D03*
X016824Y006736D03*
X016811Y006757D03*
X016779Y006814D03*
X016766Y006835D03*
X016734Y006892D03*
X016721Y006913D03*
X016701Y006949D03*
X016689Y006970D03*
X016676Y006991D03*
X016656Y007027D03*
X016644Y007048D03*
X016631Y007069D03*
X016611Y007105D03*
X016599Y007126D03*
X016586Y007147D03*
X016566Y007183D03*
X016554Y007204D03*
X016521Y007261D03*
X016509Y007282D03*
X016496Y007303D03*
X016476Y007339D03*
X016464Y007360D03*
X016451Y007381D03*
X016431Y007417D03*
X016419Y007438D03*
X016406Y007459D03*
X016386Y007495D03*
X016374Y007516D03*
X016361Y007537D03*
X016341Y007573D03*
X016331Y007588D03*
X016329Y007594D03*
X016296Y007651D03*
X016161Y007636D03*
X016149Y007615D03*
X016136Y007594D03*
X016116Y007558D03*
X016104Y007537D03*
X016091Y007516D03*
X016071Y007480D03*
X016059Y007459D03*
X016046Y007438D03*
X016026Y007402D03*
X016014Y007381D03*
X016001Y007360D03*
X015981Y007324D03*
X015969Y007303D03*
X015956Y007282D03*
X015936Y007246D03*
X015924Y007225D03*
X015891Y007168D03*
X015879Y007147D03*
X015846Y007090D03*
X015836Y007075D03*
X015834Y007069D03*
X015801Y007012D03*
X015791Y006997D03*
X015756Y006934D03*
X015746Y006919D03*
X015711Y006856D03*
X015701Y006841D03*
X015669Y006784D03*
X015624Y006706D03*
X015611Y006685D03*
X015579Y006628D03*
X015566Y006607D03*
X015534Y006550D03*
X015521Y006529D03*
X015489Y006472D03*
X015476Y006451D03*
X015456Y006415D03*
X015444Y006394D03*
X015431Y006373D03*
X015411Y006337D03*
X016311Y007066D03*
X016301Y007090D03*
D28*
X016312Y007063D03*
X016312Y007060D03*
X016315Y007054D03*
X016315Y007051D03*
X016372Y006859D03*
X016660Y007018D03*
X016660Y007021D03*
X016657Y007024D03*
X016645Y007045D03*
X016642Y007051D03*
X016630Y007072D03*
X016627Y007075D03*
X016627Y007078D03*
X016615Y007096D03*
X016615Y007099D03*
X016612Y007102D03*
X016600Y007123D03*
X016597Y007129D03*
X016585Y007150D03*
X016582Y007153D03*
X016582Y007156D03*
X016570Y007174D03*
X016570Y007177D03*
X016567Y007180D03*
X016555Y007201D03*
X016552Y007207D03*
X016540Y007228D03*
X016537Y007231D03*
X016537Y007234D03*
X016525Y007252D03*
X016525Y007255D03*
X016522Y007258D03*
X016510Y007279D03*
X016507Y007285D03*
X016495Y007306D03*
X016492Y007309D03*
X016492Y007312D03*
X016480Y007330D03*
X016480Y007333D03*
X016477Y007336D03*
X016465Y007357D03*
X016462Y007363D03*
X016450Y007384D03*
X016447Y007387D03*
X016447Y007390D03*
X016435Y007408D03*
X016435Y007411D03*
X016432Y007414D03*
X016420Y007435D03*
X016417Y007441D03*
X016405Y007462D03*
X016402Y007465D03*
X016402Y007468D03*
X016390Y007486D03*
X016390Y007489D03*
X016387Y007492D03*
X016375Y007513D03*
X016372Y007519D03*
X016360Y007540D03*
X016357Y007543D03*
X016357Y007546D03*
X016345Y007564D03*
X016345Y007567D03*
X016342Y007570D03*
X016330Y007591D03*
X016327Y007597D03*
X016315Y007615D03*
X016315Y007618D03*
X016312Y007621D03*
X016312Y007624D03*
X016300Y007642D03*
X016300Y007645D03*
X016297Y007648D03*
X016165Y007645D03*
X016165Y007642D03*
X016162Y007639D03*
X016150Y007618D03*
X016147Y007612D03*
X016135Y007591D03*
X016132Y007588D03*
X016132Y007585D03*
X016120Y007567D03*
X016120Y007564D03*
X016117Y007561D03*
X016105Y007540D03*
X016102Y007534D03*
X016090Y007513D03*
X016087Y007510D03*
X016087Y007507D03*
X016075Y007489D03*
X016075Y007486D03*
X016072Y007483D03*
X016060Y007462D03*
X016057Y007456D03*
X016045Y007435D03*
X016042Y007432D03*
X016042Y007429D03*
X016030Y007411D03*
X016030Y007408D03*
X016027Y007405D03*
X016015Y007384D03*
X016012Y007378D03*
X016000Y007357D03*
X015997Y007354D03*
X015997Y007351D03*
X015985Y007333D03*
X015985Y007330D03*
X015982Y007327D03*
X015970Y007306D03*
X015967Y007300D03*
X015955Y007279D03*
X015952Y007276D03*
X015952Y007273D03*
X015940Y007255D03*
X015940Y007252D03*
X015937Y007249D03*
X015925Y007228D03*
X015922Y007222D03*
X015910Y007204D03*
X015910Y007201D03*
X015907Y007198D03*
X015907Y007195D03*
X015895Y007177D03*
X015895Y007174D03*
X015892Y007171D03*
X015880Y007150D03*
X015877Y007144D03*
X015865Y007126D03*
X015865Y007123D03*
X015862Y007120D03*
X015862Y007117D03*
X015850Y007099D03*
X015850Y007096D03*
X015847Y007093D03*
X015835Y007072D03*
X015832Y007066D03*
X015820Y007048D03*
X015820Y007045D03*
X015817Y007042D03*
X015817Y007039D03*
X015805Y007021D03*
X015805Y007018D03*
X015802Y007015D03*
X015790Y006994D03*
X015787Y006991D03*
X015787Y006988D03*
X015775Y006970D03*
X015775Y006967D03*
X015772Y006964D03*
X015772Y006961D03*
X015760Y006943D03*
X015760Y006940D03*
X015757Y006937D03*
X015745Y006916D03*
X015742Y006913D03*
X015742Y006910D03*
X015730Y006892D03*
X015730Y006889D03*
X015727Y006886D03*
X015727Y006883D03*
X015715Y006865D03*
X015715Y006862D03*
X015712Y006859D03*
X015700Y006838D03*
X015697Y006835D03*
X015697Y006832D03*
X015685Y006814D03*
X015685Y006811D03*
X015682Y006808D03*
X015682Y006805D03*
X015670Y006787D03*
X015667Y006781D03*
X015655Y006760D03*
X015652Y006754D03*
X015640Y006736D03*
X015640Y006733D03*
X015637Y006730D03*
X015637Y006727D03*
X015625Y006709D03*
X015622Y006703D03*
X015610Y006682D03*
X015607Y006679D03*
X015607Y006676D03*
X015595Y006658D03*
X015595Y006655D03*
X015592Y006652D03*
X015592Y006649D03*
X015580Y006631D03*
X015577Y006625D03*
X015565Y006604D03*
X015562Y006601D03*
X015562Y006598D03*
X015550Y006580D03*
X015550Y006577D03*
X015547Y006574D03*
X015547Y006571D03*
X015535Y006553D03*
X015532Y006547D03*
X015520Y006526D03*
X015517Y006523D03*
X015517Y006520D03*
X015505Y006502D03*
X015505Y006499D03*
X015502Y006496D03*
X015502Y006493D03*
X015490Y006475D03*
X015487Y006469D03*
X015475Y006448D03*
X015472Y006445D03*
X015472Y006442D03*
X015460Y006424D03*
X015460Y006421D03*
X015457Y006418D03*
X015445Y006397D03*
X015442Y006391D03*
X015430Y006370D03*
X015427Y006367D03*
X015427Y006364D03*
X015415Y006346D03*
X015415Y006343D03*
X015412Y006340D03*
X016672Y006997D03*
X016672Y007000D03*
X016675Y006994D03*
X016687Y006973D03*
X016690Y006967D03*
X016702Y006946D03*
X016705Y006943D03*
X016705Y006940D03*
X016717Y006922D03*
X016717Y006919D03*
X016720Y006916D03*
X016732Y006895D03*
X016735Y006889D03*
X016747Y006871D03*
X016747Y006868D03*
X016750Y006865D03*
X016750Y006862D03*
X016762Y006844D03*
X016762Y006841D03*
X016765Y006838D03*
X016777Y006817D03*
X016780Y006811D03*
X016792Y006793D03*
X016792Y006790D03*
X016795Y006787D03*
X016795Y006784D03*
X016807Y006766D03*
X016807Y006763D03*
X016810Y006760D03*
X016822Y006739D03*
X016825Y006733D03*
X016837Y006715D03*
X016837Y006712D03*
X016840Y006709D03*
X016840Y006706D03*
X016852Y006688D03*
X016852Y006685D03*
X016855Y006682D03*
X016867Y006661D03*
X016870Y006658D03*
X016870Y006655D03*
X016882Y006637D03*
X016882Y006634D03*
X016885Y006631D03*
X016885Y006628D03*
X016897Y006610D03*
X016897Y006607D03*
X016900Y006604D03*
X016912Y006583D03*
X016915Y006580D03*
X016915Y006577D03*
X016927Y006559D03*
X016927Y006556D03*
X016930Y006553D03*
X016930Y006550D03*
X016942Y006532D03*
X016942Y006529D03*
X016945Y006526D03*
X016957Y006505D03*
X016960Y006502D03*
X016960Y006499D03*
X016972Y006481D03*
X016972Y006478D03*
X016975Y006475D03*
X016975Y006472D03*
X016987Y006454D03*
X016987Y006451D03*
X016990Y006448D03*
X017002Y006427D03*
X017005Y006424D03*
X017005Y006421D03*
X017017Y006403D03*
X017017Y006400D03*
X017020Y006397D03*
X017020Y006394D03*
X017032Y006376D03*
X017032Y006373D03*
X017035Y006370D03*
X017047Y006349D03*
X017050Y006346D03*
X017050Y006343D03*
D29*
X017025Y006388D03*
X017013Y006409D03*
X016980Y006466D03*
X016968Y006487D03*
X016935Y006544D03*
X016923Y006565D03*
X016890Y006622D03*
X016878Y006643D03*
X016845Y006700D03*
X016833Y006721D03*
X016800Y006778D03*
X016788Y006799D03*
X016755Y006856D03*
X016743Y006877D03*
X016710Y006934D03*
X016698Y006955D03*
X016665Y007012D03*
X016620Y007090D03*
X016578Y007162D03*
X016575Y007168D03*
X016533Y007240D03*
X016530Y007246D03*
X016488Y007318D03*
X016455Y007375D03*
X016443Y007396D03*
X016410Y007453D03*
X016398Y007474D03*
X016365Y007531D03*
X016353Y007552D03*
X016320Y007609D03*
X016308Y007630D03*
X016173Y007657D03*
X016170Y007651D03*
X016128Y007579D03*
X016125Y007573D03*
X016083Y007501D03*
X016080Y007495D03*
X016038Y007423D03*
X015993Y007345D03*
X015960Y007288D03*
X015948Y007267D03*
X015915Y007210D03*
X015903Y007189D03*
X015870Y007132D03*
X015858Y007111D03*
X015825Y007054D03*
X015813Y007033D03*
X015780Y006976D03*
X015768Y006955D03*
X015735Y006898D03*
X015723Y006877D03*
X015690Y006820D03*
X015678Y006799D03*
X015645Y006742D03*
X015633Y006721D03*
X015600Y006664D03*
X015588Y006643D03*
X015555Y006586D03*
X015510Y006508D03*
X015465Y006430D03*
X016245Y006541D03*
X016245Y006544D03*
X016308Y007072D03*
X016308Y007075D03*
X016305Y007078D03*
X016305Y007081D03*
X016305Y007084D03*
X016233Y007756D03*
X016233Y007759D03*
D30*
X016443Y006796D03*
X016314Y006628D03*
X016314Y006625D03*
X016155Y006595D03*
X016281Y006412D03*
D31*
X016279Y006415D03*
X016279Y006418D03*
X016309Y006616D03*
X016312Y006622D03*
X016156Y006592D03*
X016087Y007045D03*
D32*
X016440Y006799D03*
X016311Y006619D03*
X016308Y006613D03*
X016164Y006586D03*
X016161Y006589D03*
X016278Y006421D03*
D33*
X016276Y006424D03*
X016276Y006427D03*
X016306Y006607D03*
X016306Y006610D03*
X016168Y006583D03*
X016435Y006802D03*
X016090Y007042D03*
D34*
X016092Y007039D03*
X016305Y006604D03*
X016302Y006598D03*
X016275Y006430D03*
D35*
X016275Y006433D03*
X016233Y007807D03*
D36*
X016099Y007033D03*
X016429Y006808D03*
X016297Y006586D03*
X016294Y006580D03*
X016180Y006571D03*
X016273Y006439D03*
X016273Y006436D03*
D37*
X016271Y006442D03*
X016293Y006577D03*
X016296Y006583D03*
X016184Y006568D03*
D38*
X016189Y006565D03*
X016291Y006574D03*
X016270Y006448D03*
X016270Y006445D03*
X016426Y006811D03*
X016102Y007030D03*
D39*
X016108Y007024D03*
X016420Y006817D03*
X016270Y006451D03*
D40*
X016269Y006454D03*
X016269Y006457D03*
X016233Y007804D03*
D41*
X016111Y007021D03*
X016417Y006820D03*
X016267Y006460D03*
D42*
X016266Y006463D03*
X016266Y006466D03*
X016413Y006823D03*
D43*
X016114Y007018D03*
X016264Y006469D03*
X016231Y007801D03*
D44*
X016240Y006574D03*
X016264Y006472D03*
D45*
X016263Y006475D03*
X016263Y006478D03*
X016239Y006577D03*
X016239Y006580D03*
X016239Y006583D03*
X016239Y006586D03*
X016236Y006595D03*
X016406Y006829D03*
X016121Y007012D03*
X016233Y007798D03*
D46*
X016402Y006832D03*
X016231Y006619D03*
X016234Y006607D03*
X016234Y006604D03*
X016234Y006601D03*
X016234Y006598D03*
X016237Y006592D03*
X016237Y006589D03*
X016261Y006481D03*
D47*
X016260Y006484D03*
X016260Y006487D03*
X016233Y006610D03*
X016233Y006613D03*
X016233Y006616D03*
X016230Y006622D03*
X016230Y006625D03*
X016230Y006628D03*
X016226Y006640D03*
X016125Y007009D03*
X016233Y007795D03*
D48*
X016233Y007792D03*
X016131Y007003D03*
X016218Y006685D03*
X016221Y006673D03*
X016221Y006670D03*
X016221Y006667D03*
X016221Y006664D03*
X016224Y006658D03*
X016224Y006655D03*
X016260Y006490D03*
D49*
X016258Y006493D03*
X016258Y006496D03*
X016219Y006676D03*
X016219Y006679D03*
X016219Y006682D03*
X016216Y006688D03*
X016216Y006691D03*
X016216Y006694D03*
X016213Y006706D03*
X016396Y006838D03*
D50*
X016212Y006718D03*
X016212Y006715D03*
X016212Y006712D03*
X016212Y006709D03*
X016215Y006703D03*
X016215Y006700D03*
X016215Y006697D03*
X016257Y006499D03*
X016233Y007789D03*
D51*
X016207Y006739D03*
X016207Y006736D03*
X016207Y006733D03*
X016207Y006730D03*
X016210Y006724D03*
X016210Y006721D03*
X016255Y006505D03*
X016255Y006502D03*
D52*
X016255Y006508D03*
X016198Y006775D03*
X016198Y006778D03*
X016198Y006781D03*
X016198Y006784D03*
X016195Y006793D03*
X016195Y006796D03*
D53*
X016194Y006799D03*
X016194Y006802D03*
X016194Y006805D03*
X016191Y006817D03*
X016196Y006790D03*
X016196Y006787D03*
X016386Y006847D03*
X016361Y006925D03*
X016361Y006928D03*
X016143Y006991D03*
X016259Y006562D03*
X016254Y006511D03*
X016233Y007777D03*
X016233Y007780D03*
D54*
X016351Y006955D03*
X016354Y006946D03*
X016357Y006940D03*
X016357Y006937D03*
X016360Y006934D03*
X016360Y006931D03*
X016363Y006922D03*
X016186Y006838D03*
X016189Y006829D03*
X016189Y006826D03*
X016189Y006823D03*
X016189Y006820D03*
X016192Y006814D03*
X016192Y006811D03*
X016192Y006808D03*
X016252Y006517D03*
X016252Y006514D03*
D55*
X016251Y006520D03*
X016260Y006565D03*
X016260Y006568D03*
X016260Y006571D03*
X016188Y006832D03*
X016188Y006835D03*
X016185Y006841D03*
X016185Y006844D03*
X016185Y006847D03*
X016185Y006850D03*
X016181Y006859D03*
X016181Y006862D03*
X016146Y006988D03*
X016346Y006967D03*
X016350Y006961D03*
X016350Y006958D03*
X016353Y006952D03*
X016353Y006949D03*
X016356Y006943D03*
X016383Y006850D03*
X016233Y007774D03*
D56*
X016231Y007771D03*
X016339Y006988D03*
X016342Y006982D03*
X016342Y006979D03*
X016342Y006976D03*
X016345Y006973D03*
X016345Y006970D03*
X016348Y006964D03*
X016378Y006853D03*
X016183Y006853D03*
X016183Y006856D03*
X016180Y006865D03*
X016180Y006868D03*
X016180Y006871D03*
X016177Y006883D03*
X016249Y006523D03*
D57*
X016251Y006526D03*
X016179Y006874D03*
X016179Y006877D03*
X016179Y006880D03*
X016176Y006886D03*
X016176Y006889D03*
X016176Y006892D03*
X016176Y006895D03*
X016173Y006904D03*
X016149Y006985D03*
X016332Y007006D03*
X016332Y007009D03*
X016335Y007003D03*
X016335Y007000D03*
X016335Y006997D03*
X016338Y006994D03*
X016338Y006991D03*
X016341Y006985D03*
X016233Y007768D03*
D58*
X016324Y007030D03*
X016324Y007027D03*
X016327Y007021D03*
X016327Y007018D03*
X016330Y007015D03*
X016330Y007012D03*
X016375Y006856D03*
X016174Y006898D03*
X016174Y006901D03*
X016153Y006982D03*
X016249Y006529D03*
D59*
X016248Y006532D03*
X016248Y006535D03*
X016326Y007024D03*
X016323Y007033D03*
X016323Y007036D03*
X016320Y007039D03*
X016320Y007042D03*
X016317Y007048D03*
X016233Y007762D03*
X016233Y007765D03*
D60*
X016233Y007753D03*
X016286Y007132D03*
X016286Y007129D03*
X016289Y007123D03*
X016289Y007120D03*
X016293Y007117D03*
X016293Y007114D03*
X016161Y006973D03*
X016364Y006865D03*
X016244Y006547D03*
D61*
X016243Y006550D03*
X016363Y006868D03*
X016165Y006970D03*
X016288Y007126D03*
X016285Y007135D03*
X016285Y007138D03*
X016282Y007141D03*
X016282Y007144D03*
X016279Y007150D03*
X016276Y007159D03*
D62*
X016275Y007162D03*
X016275Y007165D03*
X016271Y007171D03*
X016278Y007156D03*
X016278Y007153D03*
X016281Y007147D03*
X016241Y006556D03*
X016241Y006553D03*
X016233Y007747D03*
X016233Y007750D03*
D63*
X016264Y007192D03*
X016267Y007186D03*
X016267Y007183D03*
X016267Y007180D03*
X016270Y007177D03*
X016270Y007174D03*
X016273Y007168D03*
X016168Y006967D03*
X016360Y006871D03*
X016240Y006559D03*
D64*
X016191Y006562D03*
X016421Y006814D03*
X016106Y007027D03*
D65*
X016179Y006574D03*
X016299Y006589D03*
X016299Y006592D03*
D66*
X016303Y006601D03*
X016174Y006577D03*
X016171Y006580D03*
X016096Y007036D03*
D67*
X016432Y006805D03*
X016300Y006595D03*
D68*
X016228Y006631D03*
X016228Y006634D03*
X016228Y006637D03*
X016225Y006643D03*
X016225Y006646D03*
X016225Y006649D03*
X016225Y006652D03*
X016222Y006661D03*
X016399Y006835D03*
X016126Y007006D03*
D69*
X016134Y007000D03*
X016209Y006727D03*
D70*
X016206Y006742D03*
X016206Y006745D03*
X016206Y006748D03*
X016389Y006844D03*
X016136Y006997D03*
D71*
X016204Y006751D03*
X016393Y006841D03*
D72*
X016200Y006772D03*
X016203Y006760D03*
X016203Y006757D03*
X016203Y006754D03*
X016233Y007783D03*
X016233Y007786D03*
D73*
X016314Y007057D03*
X015654Y006757D03*
D74*
X016141Y006994D03*
X016201Y006769D03*
X016201Y006766D03*
X016201Y006763D03*
D75*
X016410Y006826D03*
D76*
X016369Y006862D03*
X016159Y006976D03*
X016303Y007087D03*
X016300Y007093D03*
X016300Y007096D03*
X016297Y007099D03*
X016297Y007102D03*
X016297Y007105D03*
X016294Y007108D03*
X016294Y007111D03*
D77*
X016266Y007189D03*
X016263Y007195D03*
X016263Y007198D03*
X016260Y007201D03*
X016260Y007204D03*
X016260Y007207D03*
X016257Y007210D03*
X016257Y007213D03*
X016356Y006874D03*
X016233Y007741D03*
X016233Y007744D03*
D78*
X016233Y007738D03*
X016233Y007735D03*
X016242Y007252D03*
X016245Y007246D03*
X016245Y007243D03*
X016248Y007240D03*
X016248Y007237D03*
X016251Y007228D03*
X016176Y006961D03*
X016353Y006877D03*
D79*
X016350Y006880D03*
X016233Y007276D03*
X016233Y007279D03*
X016230Y007282D03*
X016230Y007285D03*
X016230Y007288D03*
X016233Y007732D03*
D80*
X016233Y007729D03*
X016233Y007726D03*
X016221Y007309D03*
X016346Y006883D03*
D81*
X016342Y006886D03*
X016183Y006952D03*
D82*
X016339Y006889D03*
D83*
X016336Y006892D03*
X016192Y006943D03*
X016231Y007714D03*
D84*
X016233Y007711D03*
X016332Y006895D03*
D85*
X016329Y006898D03*
D86*
X016326Y006901D03*
X016203Y006934D03*
X016233Y007699D03*
X016233Y007702D03*
D87*
X016321Y006904D03*
D88*
X016266Y006907D03*
X016266Y006910D03*
X016266Y006913D03*
D89*
X016264Y006916D03*
D90*
X016263Y006919D03*
D91*
X016215Y006922D03*
X016233Y007684D03*
X016233Y007687D03*
D92*
X016233Y007690D03*
X016212Y006925D03*
D93*
X016210Y006928D03*
X016231Y007693D03*
D94*
X016233Y007696D03*
X016206Y006931D03*
D95*
X016200Y006937D03*
X016233Y007705D03*
X016233Y007708D03*
D96*
X016195Y006940D03*
D97*
X016191Y006946D03*
X016233Y007717D03*
D98*
X016233Y007720D03*
X016233Y007723D03*
X016188Y006949D03*
D99*
X016180Y006955D03*
X016228Y007291D03*
X016225Y007297D03*
X016225Y007300D03*
X016222Y007303D03*
X016222Y007306D03*
X016219Y007312D03*
D100*
X016237Y007267D03*
X016237Y007264D03*
X016240Y007258D03*
X016240Y007255D03*
X016177Y006958D03*
D101*
X016171Y006964D03*
X016255Y007216D03*
X016255Y007219D03*
X016252Y007222D03*
X016252Y007225D03*
X016249Y007231D03*
X016249Y007234D03*
D102*
X016119Y007015D03*
D103*
X016084Y007048D03*
D104*
X016243Y007249D03*
X016234Y007273D03*
D105*
X016239Y007261D03*
D106*
X016236Y007270D03*
X016226Y007294D03*
D107*
X016005Y007366D03*
D108*
X016233Y007663D03*
X016233Y007666D03*
D109*
X016233Y007669D03*
X016233Y007672D03*
D110*
X016233Y007675D03*
D111*
X016233Y007678D03*
X016233Y007681D03*
D112*
X019566Y013465D02*
X019465Y013566D01*
X019586Y013715D01*
X019555Y013775D01*
X019534Y013839D01*
X019344Y013858D01*
X019344Y014002D01*
X019534Y014021D01*
X019555Y014085D01*
X019586Y014145D01*
X019465Y014294D01*
X019566Y014395D01*
X019715Y014274D01*
X019775Y014305D01*
X019839Y014326D01*
X019858Y014516D01*
X020002Y014516D01*
X020021Y014326D01*
X020085Y014305D01*
X020145Y014274D01*
X020294Y014395D01*
X020395Y014294D01*
X020274Y014145D01*
X020305Y014085D01*
X020326Y014021D01*
X020516Y014002D01*
X020516Y013858D01*
X020326Y013839D01*
X020305Y013775D01*
X020274Y013715D01*
X020395Y013566D01*
X020294Y013465D01*
X020145Y013586D01*
X020085Y013555D01*
X020001Y013759D01*
X020038Y013781D01*
X020070Y013810D01*
X020094Y013846D01*
X020109Y013887D01*
X020115Y013930D01*
X020109Y013974D01*
X020094Y014015D01*
X020069Y014052D01*
X020036Y014081D01*
X019997Y014102D01*
X019954Y014113D01*
X019910Y014113D01*
X019867Y014103D01*
X019828Y014083D01*
X019794Y014055D01*
X019768Y014019D01*
X019752Y013978D01*
X019746Y013934D01*
X019344Y013934D01*
X019344Y013992D02*
X019757Y013992D01*
X019746Y013934D02*
X019750Y013890D01*
X019765Y013848D01*
X019789Y013811D01*
X019821Y013781D01*
X019859Y013759D01*
X019775Y013555D01*
X019715Y013586D01*
X019566Y013465D01*
X019558Y013474D02*
X019577Y013474D01*
X019648Y013531D02*
X019500Y013531D01*
X019483Y013589D02*
X019789Y013589D01*
X019812Y013646D02*
X019530Y013646D01*
X019577Y013704D02*
X019836Y013704D01*
X019856Y013761D02*
X019562Y013761D01*
X019541Y013819D02*
X019784Y013819D01*
X019755Y013876D02*
X019344Y013876D01*
X019543Y014049D02*
X019790Y014049D01*
X019881Y014107D02*
X019566Y014107D01*
X019570Y014164D02*
X020290Y014164D01*
X020294Y014107D02*
X019979Y014107D01*
X020071Y014049D02*
X020317Y014049D01*
X020337Y014222D02*
X019523Y014222D01*
X019476Y014279D02*
X019709Y014279D01*
X019724Y014279D02*
X020136Y014279D01*
X020151Y014279D02*
X020384Y014279D01*
X020352Y014337D02*
X020222Y014337D01*
X020292Y014394D02*
X020295Y014394D01*
X020014Y014394D02*
X019846Y014394D01*
X019840Y014337D02*
X020020Y014337D01*
X020008Y014452D02*
X019852Y014452D01*
X019857Y014510D02*
X020003Y014510D01*
X019638Y014337D02*
X019508Y014337D01*
X019565Y014394D02*
X019568Y014394D01*
X020103Y013992D02*
X020516Y013992D01*
X020516Y013934D02*
X020114Y013934D01*
X020106Y013876D02*
X020516Y013876D01*
X020319Y013819D02*
X020076Y013819D01*
X020004Y013761D02*
X020298Y013761D01*
X020283Y013704D02*
X020024Y013704D01*
X020048Y013646D02*
X020330Y013646D01*
X020377Y013589D02*
X020071Y013589D01*
X020212Y013531D02*
X020360Y013531D01*
X020302Y013474D02*
X020283Y013474D01*
M02*
