G75*
G70*
%OFA0B0*%
%FSLAX24Y24*%
%IPPOS*%
%LPD*%
%AMOC8*
5,1,8,0,0,1.08239X$1,22.5*
%
%ADD10C,0.1162*%
%ADD11R,0.0690X0.0572*%
%ADD12R,0.0493X0.0808*%
%ADD13R,0.0572X0.0690*%
%ADD14R,0.0560X0.0280*%
%ADD15R,0.0280X0.0560*%
%ADD16R,0.0729X0.0395*%
%ADD17R,0.0532X0.0532*%
%ADD18C,0.0454*%
%ADD19C,0.0820*%
%ADD20R,0.0414X0.0375*%
%ADD21C,0.0560*%
%ADD22R,0.0650X0.0850*%
%ADD23R,0.1560X0.0850*%
%ADD24C,0.0535*%
%ADD25C,0.0800*%
%ADD26OC8,0.0690*%
%ADD27C,0.0690*%
%ADD28C,0.0710*%
%ADD29R,0.0296X0.0532*%
%ADD30C,0.0720*%
%ADD31C,0.1700*%
%ADD32R,0.0690X0.0847*%
%ADD33C,0.1060*%
%ADD34R,0.0387X0.0308*%
%ADD35R,0.0308X0.0387*%
%ADD36R,0.0847X0.0651*%
%ADD37R,0.0729X0.0769*%
%ADD38R,0.0887X0.0651*%
%ADD39R,0.0769X0.0611*%
%ADD40C,0.0496*%
%ADD41C,0.0457*%
D10*
X001933Y017431D03*
X025933Y002931D03*
D11*
X012558Y002557D03*
X012558Y003305D03*
X011621Y003325D03*
X010683Y003325D03*
X010683Y002538D03*
X011621Y002538D03*
X009308Y006932D03*
X009308Y007680D03*
X007058Y008663D03*
X007058Y009450D03*
X004058Y007680D03*
X004058Y006932D03*
X001496Y005805D03*
X001496Y005057D03*
X004121Y002555D03*
X005058Y002825D03*
X005058Y002038D03*
X004121Y001807D03*
X008933Y013495D03*
X008933Y014243D03*
X009808Y014870D03*
X009808Y015618D03*
X008808Y016057D03*
X008808Y016805D03*
X006121Y016993D03*
X006121Y016245D03*
X003273Y016895D03*
X003273Y017683D03*
X012058Y016305D03*
X012058Y015557D03*
X012058Y014700D03*
X012058Y013913D03*
X018433Y015307D03*
X018433Y016055D03*
D12*
X004136Y005035D03*
X003231Y005035D03*
X003231Y003578D03*
X004136Y003578D03*
D13*
X004077Y005994D03*
X003290Y005994D03*
X006665Y011181D03*
X007452Y011181D03*
X007247Y013431D03*
X007995Y013431D03*
X007807Y016181D03*
X007059Y016181D03*
X007040Y017181D03*
X007827Y017181D03*
X007557Y018181D03*
X006809Y018181D03*
X004870Y017056D03*
X004122Y017056D03*
X010309Y016556D03*
X011057Y016556D03*
X013559Y006931D03*
X014307Y006931D03*
X014327Y005806D03*
X013540Y005806D03*
D14*
X008623Y005719D03*
X008623Y006034D03*
X008623Y005404D03*
X008623Y005089D03*
X008623Y004774D03*
X008623Y004459D03*
X008623Y004144D03*
X008623Y003829D03*
X005243Y003829D03*
X005243Y004144D03*
X005243Y004459D03*
X005243Y004774D03*
X005243Y005089D03*
X005243Y005404D03*
X005243Y005719D03*
X005243Y006034D03*
D15*
X005831Y006621D03*
X006146Y006621D03*
X006461Y006621D03*
X006776Y006621D03*
X007091Y006621D03*
X007406Y006621D03*
X007721Y006621D03*
X008036Y006621D03*
X008036Y003241D03*
X007721Y003241D03*
X007406Y003241D03*
X007091Y003241D03*
X006776Y003241D03*
X006461Y003241D03*
X006146Y003241D03*
X005831Y003241D03*
D16*
X005943Y008719D03*
X004762Y009506D03*
X005943Y010294D03*
X004762Y011081D03*
X005943Y011868D03*
X004762Y012656D03*
X005943Y013443D03*
X004762Y014231D03*
X005943Y015018D03*
X004762Y015805D03*
X013424Y015805D03*
X014605Y015018D03*
X013424Y014231D03*
X014605Y013443D03*
X013424Y012656D03*
X014605Y011868D03*
X013424Y011081D03*
X014605Y010294D03*
X013424Y009506D03*
X014605Y008719D03*
D17*
X014597Y017181D03*
X013770Y017181D03*
X002371Y004095D03*
X001558Y004095D03*
X001558Y003268D03*
X002371Y003268D03*
D18*
X010433Y006681D03*
X016683Y011931D03*
X013433Y015056D03*
D19*
X016683Y017931D03*
X014683Y018181D03*
X013683Y018181D03*
X010683Y018181D03*
X009683Y018181D03*
X008683Y018181D03*
X005683Y018181D03*
X004683Y018181D03*
X016683Y010931D03*
X010933Y001431D03*
X009933Y001431D03*
X008933Y001431D03*
X007933Y001431D03*
X006933Y001431D03*
X005933Y001431D03*
D20*
X010540Y012307D03*
X011366Y012681D03*
X010540Y013055D03*
X010540Y014057D03*
X011366Y014431D03*
X010540Y014805D03*
D21*
X002121Y010119D03*
X002121Y009431D03*
X002121Y008744D03*
D22*
X009356Y008754D03*
X010256Y008754D03*
X011156Y008754D03*
D23*
X010246Y011234D03*
D24*
X003096Y007369D03*
X001521Y007369D03*
D25*
X003433Y010931D03*
X003433Y011931D03*
X003433Y012931D03*
X003433Y013931D03*
X003433Y014931D03*
X003433Y015931D03*
D26*
X011433Y005294D03*
D27*
X011433Y006694D03*
D28*
X017359Y005431D02*
X018008Y005431D01*
X025359Y005431D02*
X026008Y005431D01*
D29*
X007807Y014292D03*
X007433Y014292D03*
X007059Y014292D03*
X007059Y015321D03*
X007807Y015321D03*
D30*
X018933Y010511D02*
X018933Y009851D01*
X018933Y007511D02*
X018933Y006851D01*
X022933Y006851D02*
X022933Y007511D01*
X025933Y007511D02*
X025933Y006851D01*
D31*
X023933Y002931D03*
X024933Y011931D03*
X024933Y014431D03*
X022433Y014431D03*
X019933Y014431D03*
X019933Y016931D03*
X022433Y016931D03*
X024933Y016931D03*
D32*
X022422Y011931D03*
X021320Y011931D03*
X020235Y011931D03*
X019132Y011931D03*
X016922Y006931D03*
X015820Y006931D03*
D33*
X015833Y003431D02*
X015833Y002431D01*
X013833Y002431D02*
X013833Y003431D01*
X020033Y003431D02*
X020033Y002431D01*
X022033Y002431D02*
X022033Y003431D01*
D34*
X009871Y003916D03*
X009871Y004822D03*
D35*
X008136Y012619D03*
X007231Y012619D03*
D36*
X008183Y009772D03*
X008183Y008591D03*
D37*
X015808Y008374D03*
X015808Y009989D03*
D38*
X017246Y009890D03*
X017246Y008473D03*
D39*
X012308Y008762D03*
X012308Y010101D03*
D40*
X013308Y010306D03*
X016558Y007806D03*
X017683Y006931D03*
X018183Y011681D03*
X007621Y005744D03*
X006683Y005431D03*
X006433Y004459D03*
X008433Y002181D03*
X012183Y001181D03*
D41*
X003183Y002181D03*
X006433Y002431D03*
X007683Y004181D03*
X007933Y004744D03*
X007183Y004931D03*
X005933Y005931D03*
X005058Y006556D03*
X005308Y007056D03*
X008308Y007806D03*
X010182Y007805D03*
X009308Y005556D03*
X010308Y005306D03*
X010558Y004244D03*
X009933Y002681D03*
X002433Y005181D03*
X005933Y009431D03*
X003683Y010056D03*
X006683Y012119D03*
X005933Y012681D03*
X007621Y011994D03*
X008621Y011556D03*
X008183Y010869D03*
X009433Y012681D03*
X009871Y013556D03*
X008871Y014931D03*
X008308Y015306D03*
X006808Y014806D03*
X005933Y014306D03*
X005433Y015494D03*
X005433Y016400D03*
X002683Y014431D03*
X002183Y013338D03*
X009683Y016931D03*
X011433Y011181D03*
M02*
