%
M48
M72
T01C0.0197
T02C0.0236
T03C0.0276
T04C0.0315
T05C0.0320
T06C0.0354
T07C0.0394
T08C0.0400
T09C0.0433
T10C0.0440
T11C0.0520
T12C0.0670
T13C0.1102
T14C0.1260
%
T01
X5189Y2186
X8439Y2436
X9689Y4186
X9939Y4748
X9189Y4936
X7939Y5936
X7064Y6561
X7314Y7061
X4439Y5186
X10314Y7811
X12188Y7810
X11314Y5561
X12314Y5311
X12564Y4248
X11939Y2686
X7939Y9436
X5689Y10061
X8689Y12123
X7939Y12686
X9627Y11998
X10627Y11561
X10189Y10873
X11439Y12686
X11877Y13561
X10877Y14936
X10314Y15311
X8814Y14811
X7939Y14311
X7439Y15498
X7439Y16404
X4689Y14436
X4189Y13342
X11689Y16936
X13439Y11186
T02
X15314Y10311
X18564Y7811
X19689Y6936
X20189Y11686
X9627Y5748
X8689Y5436
X8439Y4463
X10439Y2186
X14189Y1186
T03
X4127Y8748
X4127Y9436
X4127Y10123
T04
X3527Y7373
X5101Y7373
T05
X13439Y6698
X13439Y5298
T06
X12689Y18186
X11689Y18186
X10689Y18186
X7689Y18186
X6689Y18186
X15689Y18186
X16689Y18186
T07
X18689Y17936
X18689Y10936
X12939Y1436
X11939Y1436
X10939Y1436
X9939Y1436
X8939Y1436
X7939Y1436
T08
X5439Y10936
X5439Y11936
X5439Y12936
X5439Y13936
X5439Y14936
X5439Y15936
T09
X19689Y5436
X27689Y5436
T10
X27939Y7186
X24939Y7186
X20939Y7186
X20939Y10186
T11
X22039Y2936
X24039Y2936
X17839Y2936
X15839Y2936
T12
X25939Y2936
X26939Y11936
X26939Y14436
X24439Y14436
X21939Y14436
X21939Y16936
X24064Y16936
X25814Y16936
T13
X29439Y14436
T14
X2189Y7436
M30
