G75*
G70*
%OFA0B0*%
%FSLAX24Y24*%
%IPPOS*%
%LPD*%
%AMOC8*
5,1,8,0,0,1.08239X$1,22.5*
%
%ADD10R,0.0630X0.0512*%
%ADD11R,0.0433X0.0748*%
%ADD12R,0.0512X0.0630*%
%ADD13R,0.0500X0.0220*%
%ADD14R,0.0220X0.0500*%
%ADD15R,0.0669X0.0335*%
%ADD16R,0.0472X0.0472*%
%ADD17R,0.0354X0.0315*%
%ADD18R,0.0590X0.0790*%
%ADD19R,0.1500X0.0790*%
%ADD20R,0.0236X0.0472*%
%ADD21R,0.0630X0.0787*%
%ADD22R,0.0327X0.0248*%
%ADD23R,0.0248X0.0327*%
%ADD24R,0.0787X0.0591*%
%ADD25R,0.0669X0.0709*%
%ADD26R,0.0827X0.0591*%
%ADD27R,0.0709X0.0551*%
D10*
X004121Y001807D03*
X005058Y002038D03*
X004121Y002555D03*
X005058Y002825D03*
X001496Y005057D03*
X001496Y005805D03*
X004058Y006932D03*
X004058Y007680D03*
X007058Y008663D03*
X007058Y009450D03*
X009308Y007680D03*
X009308Y006932D03*
X010683Y003325D03*
X011621Y003325D03*
X012558Y003305D03*
X012558Y002557D03*
X011621Y002538D03*
X010683Y002538D03*
X008933Y013495D03*
X008933Y014243D03*
X009808Y014870D03*
X009808Y015618D03*
X008808Y016057D03*
X008808Y016805D03*
X006121Y016993D03*
X006121Y016245D03*
X003273Y016895D03*
X003273Y017683D03*
X012058Y016305D03*
X012058Y015557D03*
X012058Y014700D03*
X012058Y013913D03*
X018433Y015307D03*
X018433Y016055D03*
D11*
X004136Y005035D03*
X003231Y005035D03*
X003231Y003578D03*
X004136Y003578D03*
D12*
X004077Y005994D03*
X003290Y005994D03*
X006665Y011181D03*
X007452Y011181D03*
X007247Y013431D03*
X007995Y013431D03*
X007807Y016181D03*
X007059Y016181D03*
X007040Y017181D03*
X007827Y017181D03*
X007557Y018181D03*
X006809Y018181D03*
X004870Y017056D03*
X004122Y017056D03*
X010309Y016556D03*
X011057Y016556D03*
X013559Y006931D03*
X014307Y006931D03*
X014327Y005806D03*
X013540Y005806D03*
D13*
X008623Y005719D03*
X008623Y006034D03*
X008623Y005404D03*
X008623Y005089D03*
X008623Y004774D03*
X008623Y004459D03*
X008623Y004144D03*
X008623Y003829D03*
X005243Y003829D03*
X005243Y004144D03*
X005243Y004459D03*
X005243Y004774D03*
X005243Y005089D03*
X005243Y005404D03*
X005243Y005719D03*
X005243Y006034D03*
D14*
X005831Y006621D03*
X006146Y006621D03*
X006461Y006621D03*
X006776Y006621D03*
X007091Y006621D03*
X007406Y006621D03*
X007721Y006621D03*
X008036Y006621D03*
X008036Y003241D03*
X007721Y003241D03*
X007406Y003241D03*
X007091Y003241D03*
X006776Y003241D03*
X006461Y003241D03*
X006146Y003241D03*
X005831Y003241D03*
D15*
X005943Y008719D03*
X004762Y009506D03*
X005943Y010294D03*
X004762Y011081D03*
X005943Y011868D03*
X004762Y012656D03*
X005943Y013443D03*
X004762Y014231D03*
X005943Y015018D03*
X004762Y015805D03*
X013424Y015805D03*
X014605Y015018D03*
X013424Y014231D03*
X014605Y013443D03*
X013424Y012656D03*
X014605Y011868D03*
X013424Y011081D03*
X014605Y010294D03*
X013424Y009506D03*
X014605Y008719D03*
D16*
X014597Y017181D03*
X013770Y017181D03*
X002371Y004095D03*
X001558Y004095D03*
X001558Y003268D03*
X002371Y003268D03*
D17*
X010540Y012307D03*
X011366Y012681D03*
X010540Y013055D03*
X010540Y014057D03*
X011366Y014431D03*
X010540Y014805D03*
D18*
X010256Y008754D03*
X011156Y008754D03*
X009356Y008754D03*
D19*
X010246Y011234D03*
D20*
X007807Y014292D03*
X007433Y014292D03*
X007059Y014292D03*
X007059Y015321D03*
X007807Y015321D03*
D21*
X019132Y011931D03*
X020235Y011931D03*
X021320Y011931D03*
X022422Y011931D03*
X016922Y006931D03*
X015820Y006931D03*
D22*
X009871Y004822D03*
X009871Y003916D03*
D23*
X008136Y012619D03*
X007231Y012619D03*
D24*
X008183Y009772D03*
X008183Y008591D03*
D25*
X015808Y008374D03*
X015808Y009989D03*
D26*
X017246Y009890D03*
X017246Y008473D03*
D27*
X012308Y008762D03*
X012308Y010101D03*
M02*
