G75*
G70*
%OFA0B0*%
%FSLAX24Y24*%
%IPPOS*%
%LPD*%
%AMOC8*
5,1,8,0,0,1.08239X$1,22.5*
%
%ADD10C,0.1320*%
%ADD11C,0.1162*%
%ADD12C,0.0820*%
%ADD13C,0.0560*%
%ADD14C,0.0535*%
%ADD15C,0.0800*%
%ADD16OC8,0.0690*%
%ADD17C,0.0690*%
%ADD18C,0.0710*%
%ADD19C,0.0720*%
%ADD20C,0.1700*%
%ADD21C,0.1060*%
%ADD22C,0.0496*%
%ADD23C,0.0457*%
D10*
X002189Y007436D03*
D11*
X029439Y014436D03*
D12*
X018689Y017936D03*
X016689Y018186D03*
X015689Y018186D03*
X012689Y018186D03*
X011689Y018186D03*
X010689Y018186D03*
X007689Y018186D03*
X006689Y018186D03*
X018689Y010936D03*
X012939Y001436D03*
X011939Y001436D03*
X010939Y001436D03*
X009939Y001436D03*
X008939Y001436D03*
X007939Y001436D03*
D13*
X004127Y008748D03*
X004127Y009436D03*
X004127Y010123D03*
D14*
X003527Y007373D03*
X005101Y007373D03*
D15*
X005439Y010936D03*
X005439Y011936D03*
X005439Y012936D03*
X005439Y013936D03*
X005439Y014936D03*
X005439Y015936D03*
D16*
X013439Y005298D03*
D17*
X013439Y006698D03*
D18*
X019364Y005436D02*
X020014Y005436D01*
X027364Y005436D02*
X028014Y005436D01*
D19*
X027939Y006856D02*
X027939Y007516D01*
X024939Y007516D02*
X024939Y006856D01*
X020939Y006856D02*
X020939Y007516D01*
X020939Y009856D02*
X020939Y010516D01*
D20*
X021939Y014436D03*
X024439Y014436D03*
X026939Y014436D03*
X026939Y011936D03*
X025814Y016936D03*
X024064Y016936D03*
X021939Y016936D03*
X025939Y002936D03*
D21*
X024039Y002436D02*
X024039Y003436D01*
X022039Y003436D02*
X022039Y002436D01*
X017839Y002436D02*
X017839Y003436D01*
X015839Y003436D02*
X015839Y002436D01*
D22*
X014189Y001186D03*
X010439Y002186D03*
X008439Y004463D03*
X008689Y005436D03*
X009627Y005748D03*
X015314Y010311D03*
X018564Y007811D03*
X019689Y006936D03*
X020189Y011686D03*
D23*
X005189Y002186D03*
X008439Y002436D03*
X009689Y004186D03*
X009939Y004748D03*
X009189Y004936D03*
X007939Y005936D03*
X007064Y006561D03*
X007314Y007061D03*
X004439Y005186D03*
X010314Y007811D03*
X012188Y007810D03*
X011314Y005561D03*
X012314Y005311D03*
X012564Y004248D03*
X011939Y002686D03*
X007939Y009436D03*
X005689Y010061D03*
X008689Y012123D03*
X007939Y012686D03*
X009627Y011998D03*
X010627Y011561D03*
X010189Y010873D03*
X011439Y012686D03*
X011877Y013561D03*
X010877Y014936D03*
X010314Y015311D03*
X008814Y014811D03*
X007939Y014311D03*
X007439Y015498D03*
X007439Y016404D03*
X004689Y014436D03*
X004189Y013342D03*
X011689Y016936D03*
X013439Y011186D03*
M02*
