G75*
G70*
%OFA0B0*%
%FSLAX24Y24*%
%IPPOS*%
%LPD*%
%AMOC8*
5,1,8,0,0,1.08239X$1,22.5*
%
%ADD10C,0.1600*%
%ADD11C,0.1320*%
%ADD12C,0.1162*%
%ADD13C,0.0820*%
%ADD14C,0.0560*%
%ADD15C,0.0535*%
%ADD16C,0.0800*%
%ADD17OC8,0.0690*%
%ADD18C,0.0690*%
%ADD19C,0.0710*%
%ADD20C,0.0720*%
%ADD21C,0.1700*%
%ADD22C,0.0496*%
%ADD23C,0.0457*%
D10*
X016430Y002430D02*
X016430Y003930D01*
X022430Y006180D02*
X023180Y006180D01*
X024930Y007930D01*
X027930Y007930D02*
X027930Y006180D01*
X024430Y004180D02*
X024430Y002430D01*
D11*
X002180Y007430D03*
D12*
X024180Y017680D03*
D13*
X018680Y017930D03*
X016680Y018180D03*
X015680Y018180D03*
X012680Y018180D03*
X011680Y018180D03*
X010680Y018180D03*
X007680Y018180D03*
X006680Y018180D03*
X018680Y010930D03*
X012930Y001430D03*
X011930Y001430D03*
X010930Y001430D03*
X009930Y001430D03*
X008930Y001430D03*
X007930Y001430D03*
D14*
X004118Y008742D03*
X004118Y009430D03*
X004118Y010117D03*
D15*
X003518Y007367D03*
X005092Y007367D03*
D16*
X005430Y010930D03*
X005430Y011930D03*
X005430Y012930D03*
X005430Y013930D03*
X005430Y014930D03*
X005430Y015930D03*
D17*
X013430Y005293D03*
D18*
X013430Y006693D03*
D19*
X016105Y004180D02*
X016755Y004180D01*
X024105Y004180D02*
X024755Y004180D01*
D20*
X024930Y007600D02*
X024930Y008260D01*
X027930Y008260D02*
X027930Y007600D01*
X020930Y007600D02*
X020930Y008260D01*
X020930Y010600D02*
X020930Y011260D01*
D21*
X021930Y014430D03*
X021930Y016930D03*
X027180Y014555D03*
X027180Y012805D03*
X027930Y006180D03*
X024430Y002430D03*
X022430Y006180D03*
X016430Y002430D03*
D22*
X014180Y001180D03*
X010430Y002180D03*
X008430Y004458D03*
X008680Y005430D03*
X009618Y005743D03*
X015305Y010305D03*
X018555Y007805D03*
X019680Y006930D03*
X020180Y011680D03*
D23*
X005180Y002180D03*
X008430Y002430D03*
X009680Y004180D03*
X009930Y004743D03*
X009180Y004930D03*
X007930Y005930D03*
X007055Y006555D03*
X007305Y007055D03*
X004430Y005180D03*
X010305Y007805D03*
X012179Y007804D03*
X011305Y005555D03*
X012305Y005305D03*
X012555Y004242D03*
X011930Y002680D03*
X007930Y009430D03*
X010180Y010868D03*
X010618Y011555D03*
X009618Y011993D03*
X008680Y012118D03*
X007930Y012680D03*
X007930Y014305D03*
X008805Y014805D03*
X007430Y015493D03*
X007430Y016399D03*
X010305Y015305D03*
X010867Y014930D03*
X011867Y013555D03*
X011430Y012680D03*
X013430Y011180D03*
X005680Y010055D03*
X004180Y013336D03*
X004680Y014430D03*
X011680Y016930D03*
M02*
