G75*
G70*
%OFA0B0*%
%FSLAX24Y24*%
%IPPOS*%
%LPD*%
%AMOC8*
5,1,8,0,0,1.08239X$1,22.5*
%
%ADD10C,0.0110*%
%ADD11C,0.0080*%
%ADD12R,0.1716X0.0003*%
%ADD13R,0.1740X0.0003*%
%ADD14R,0.1752X0.0003*%
%ADD15R,0.1758X0.0003*%
%ADD16R,0.1770X0.0003*%
%ADD17R,0.1776X0.0003*%
%ADD18R,0.1782X0.0003*%
%ADD19R,0.1788X0.0003*%
%ADD20R,0.1794X0.0003*%
%ADD21R,0.1800X0.0003*%
%ADD22R,0.1779X0.0003*%
%ADD23R,0.1764X0.0003*%
%ADD24R,0.0111X0.0003*%
%ADD25R,0.0114X0.0003*%
%ADD26R,0.0111X0.0003*%
%ADD27R,0.0114X0.0003*%
%ADD28R,0.0006X0.0003*%
%ADD29R,0.0009X0.0003*%
%ADD30R,0.0012X0.0003*%
%ADD31R,0.0015X0.0003*%
%ADD32R,0.0018X0.0003*%
%ADD33R,0.0024X0.0003*%
%ADD34R,0.0027X0.0003*%
%ADD35R,0.0030X0.0003*%
%ADD36R,0.0033X0.0003*%
%ADD37R,0.0039X0.0003*%
%ADD38R,0.0042X0.0003*%
%ADD39R,0.0045X0.0003*%
%ADD40R,0.0048X0.0003*%
%ADD41R,0.0051X0.0003*%
%ADD42R,0.0057X0.0003*%
%ADD43R,0.0060X0.0003*%
%ADD44R,0.0063X0.0003*%
%ADD45R,0.0066X0.0003*%
%ADD46R,0.0072X0.0003*%
%ADD47R,0.0075X0.0003*%
%ADD48R,0.0078X0.0003*%
%ADD49R,0.0081X0.0003*%
%ADD50R,0.0087X0.0003*%
%ADD51R,0.0090X0.0003*%
%ADD52R,0.0093X0.0003*%
%ADD53R,0.0096X0.0003*%
%ADD54R,0.0099X0.0003*%
%ADD55R,0.0102X0.0003*%
%ADD56R,0.0105X0.0003*%
%ADD57R,0.0108X0.0003*%
%ADD58R,0.0120X0.0003*%
%ADD59R,0.0123X0.0003*%
%ADD60R,0.0126X0.0003*%
%ADD61R,0.0129X0.0003*%
%ADD62R,0.0036X0.0003*%
%ADD63R,0.0024X0.0003*%
%ADD64R,0.0021X0.0003*%
%ADD65R,0.0021X0.0003*%
%ADD66R,0.0069X0.0003*%
%ADD67R,0.0078X0.0003*%
%ADD68R,0.0084X0.0003*%
%ADD69R,0.0081X0.0003*%
%ADD70R,0.0084X0.0003*%
%ADD71R,0.0108X0.0003*%
%ADD72R,0.0087X0.0003*%
%ADD73R,0.0054X0.0003*%
%ADD74R,0.0117X0.0003*%
%ADD75R,0.0132X0.0003*%
%ADD76R,0.0138X0.0003*%
%ADD77R,0.0144X0.0003*%
%ADD78R,0.0150X0.0003*%
%ADD79R,0.0153X0.0003*%
%ADD80R,0.0159X0.0003*%
%ADD81R,0.0165X0.0003*%
%ADD82R,0.0168X0.0003*%
%ADD83R,0.0174X0.0003*%
%ADD84R,0.0180X0.0003*%
%ADD85R,0.0183X0.0003*%
%ADD86R,0.0294X0.0003*%
%ADD87R,0.0291X0.0003*%
%ADD88R,0.0294X0.0003*%
%ADD89R,0.0198X0.0003*%
%ADD90R,0.0192X0.0003*%
%ADD91R,0.0189X0.0003*%
%ADD92R,0.0186X0.0003*%
%ADD93R,0.0174X0.0003*%
%ADD94R,0.0171X0.0003*%
%ADD95R,0.0162X0.0003*%
%ADD96R,0.0156X0.0003*%
%ADD97R,0.0147X0.0003*%
%ADD98R,0.0141X0.0003*%
%ADD99R,0.0135X0.0003*%
%ADD100R,0.0054X0.0003*%
%ADD101R,0.0003X0.0003*%
%ADD102R,0.0141X0.0003*%
%ADD103R,0.0138X0.0003*%
%ADD104R,0.0144X0.0003*%
%ADD105R,0.0003X0.0114*%
%ADD106R,0.0222X0.0003*%
%ADD107R,0.0216X0.0003*%
%ADD108R,0.0210X0.0003*%
%ADD109R,0.0204X0.0003*%
%ADD110C,0.0060*%
%ADD111C,0.0070*%
%ADD112C,0.0059*%
D10*
X013579Y015840D02*
X013579Y016291D01*
X013354Y016291D01*
X013279Y016216D01*
X013279Y016066D01*
X013354Y015991D01*
X013579Y015991D01*
X013795Y015991D02*
X013795Y016291D01*
X014095Y016291D02*
X014095Y016066D01*
X014020Y015991D01*
X013795Y015991D01*
X014310Y016066D02*
X014310Y016216D01*
X014385Y016291D01*
X014536Y016291D01*
X014611Y016216D01*
X014611Y016066D01*
X014536Y015991D01*
X014385Y015991D01*
X014310Y016066D01*
X014815Y016291D02*
X014890Y016291D01*
X015040Y016141D01*
X015040Y015991D02*
X015040Y016291D01*
X015256Y016291D02*
X015481Y016291D01*
X015556Y016216D01*
X015556Y016066D01*
X015481Y015991D01*
X015256Y015991D01*
X015256Y015916D02*
X015256Y016291D01*
X015237Y016590D02*
X015162Y016666D01*
X015162Y017041D01*
X015387Y017041D01*
X015462Y016966D01*
X015462Y016816D01*
X015387Y016741D01*
X015162Y016741D01*
X015237Y016590D02*
X015312Y016590D01*
X015678Y016741D02*
X015678Y017041D01*
X015978Y017041D02*
X015978Y016816D01*
X015903Y016741D01*
X015678Y016741D01*
X016171Y016741D02*
X016322Y016741D01*
X016246Y016741D02*
X016246Y017191D01*
X016322Y017191D01*
X016537Y017116D02*
X016537Y016966D01*
X016612Y016891D01*
X016837Y016891D01*
X016837Y016741D02*
X016837Y017191D01*
X016612Y017191D01*
X016537Y017116D01*
X017053Y017116D02*
X017128Y017191D01*
X017278Y017191D01*
X017353Y017116D01*
X017353Y016816D01*
X017278Y016741D01*
X017128Y016741D01*
X017053Y016816D01*
X017053Y016966D01*
X017203Y016966D01*
X017568Y017191D02*
X017868Y017191D01*
X017868Y016741D01*
X017568Y016741D01*
X017718Y016966D02*
X017868Y016966D01*
X018084Y016891D02*
X018084Y016816D01*
X018159Y016741D01*
X018309Y016741D01*
X018384Y016816D01*
X018309Y016966D02*
X018159Y016966D01*
X018084Y016891D01*
X018084Y017116D02*
X018159Y017191D01*
X018309Y017191D01*
X018384Y017116D01*
X018384Y017041D01*
X018309Y016966D01*
X018339Y016291D02*
X018264Y016216D01*
X018264Y016141D01*
X018564Y016141D01*
X018564Y016216D02*
X018489Y016291D01*
X018339Y016291D01*
X018564Y016216D02*
X018564Y016066D01*
X018489Y015991D01*
X018339Y015991D01*
X018048Y015991D02*
X018048Y016291D01*
X017823Y016291D01*
X017748Y016216D01*
X017748Y015991D01*
X017532Y016066D02*
X017532Y016216D01*
X017457Y016291D01*
X017307Y016291D01*
X017232Y016216D01*
X017232Y016141D01*
X017532Y016141D01*
X017532Y016066D02*
X017457Y015991D01*
X017307Y015991D01*
X017017Y015991D02*
X017017Y016291D01*
X016867Y016291D02*
X016792Y016291D01*
X016867Y016291D02*
X017017Y016141D01*
X016587Y016216D02*
X016587Y016066D01*
X016512Y015991D01*
X016287Y015991D01*
X016287Y015916D02*
X016287Y016291D01*
X016512Y016291D01*
X016587Y016216D01*
X016287Y015916D02*
X016362Y015840D01*
X016437Y015840D01*
X016072Y016066D02*
X015996Y015991D01*
X015771Y015991D01*
X015771Y015916D02*
X015846Y015840D01*
X015921Y015840D01*
X015771Y015916D02*
X015771Y016291D01*
X016072Y016291D02*
X016072Y016066D01*
X015406Y015840D02*
X015331Y015840D01*
X015256Y015916D01*
X014281Y016741D02*
X014131Y017041D01*
X013915Y017041D02*
X013765Y017191D01*
X013765Y016741D01*
X013915Y016741D02*
X013615Y016741D01*
X013400Y016741D02*
X013325Y016741D01*
X013325Y016816D01*
X013400Y016816D01*
X013400Y016741D01*
X013142Y016816D02*
X012842Y017116D01*
X012842Y016816D01*
X012917Y016741D01*
X013067Y016741D01*
X013142Y016816D01*
X013142Y017116D01*
X013067Y017191D01*
X012917Y017191D01*
X012842Y017116D01*
X012763Y016291D02*
X012989Y016291D01*
X013064Y016216D01*
X012989Y016141D01*
X012839Y016141D01*
X012763Y016066D01*
X012839Y015991D01*
X013064Y015991D01*
X012548Y015991D02*
X012473Y015991D01*
X012473Y016066D01*
X012548Y016066D01*
X012548Y015991D01*
X012290Y016066D02*
X012290Y016216D01*
X012215Y016291D01*
X011990Y016291D01*
X011775Y016216D02*
X011775Y016066D01*
X011700Y015991D01*
X011549Y015991D01*
X011474Y016066D01*
X011474Y016216D01*
X011549Y016291D01*
X011700Y016291D01*
X011775Y016216D01*
X011990Y015991D02*
X012215Y015991D01*
X012290Y016066D01*
X011259Y015991D02*
X011259Y016291D01*
X011184Y016291D01*
X011109Y016216D01*
X011034Y016291D01*
X010959Y016216D01*
X010959Y015991D01*
X011109Y015991D02*
X011109Y016216D01*
X014281Y016741D02*
X014431Y017041D01*
X018757Y016291D02*
X018907Y016291D01*
X018832Y016366D02*
X018832Y016066D01*
X018757Y015991D01*
X019112Y016291D02*
X019187Y016291D01*
X019337Y016141D01*
X019337Y015991D02*
X019337Y016291D01*
X019553Y016216D02*
X019553Y015991D01*
X019778Y015991D01*
X019853Y016066D01*
X019778Y016141D01*
X019553Y016141D01*
X019553Y016216D02*
X019628Y016291D01*
X019778Y016291D01*
X020068Y016216D02*
X020068Y015991D01*
X020218Y015991D02*
X020218Y016216D01*
X020143Y016291D01*
X020068Y016216D01*
X020218Y016216D02*
X020293Y016291D01*
X020368Y016291D01*
X020368Y015991D01*
X020584Y016066D02*
X020659Y016141D01*
X020809Y016141D01*
X020884Y016216D01*
X020809Y016291D01*
X020584Y016291D01*
X020584Y016066D02*
X020659Y015991D01*
X020884Y015991D01*
D11*
X003874Y002726D02*
X003817Y002782D01*
X003817Y003009D01*
X003874Y003066D01*
X004044Y003066D01*
X004044Y002726D01*
X003874Y002726D01*
X004204Y002726D02*
X004431Y002726D01*
X004431Y003066D01*
X004204Y003066D01*
X004317Y002896D02*
X004431Y002896D01*
X004591Y003066D02*
X004817Y003066D01*
X004704Y003066D02*
X004704Y002726D01*
X004977Y002782D02*
X005034Y002726D01*
X005147Y002726D01*
X005204Y002782D01*
X005204Y003009D01*
X005147Y003066D01*
X005034Y003066D01*
X004977Y003009D01*
X005364Y003066D02*
X005591Y003066D01*
X005591Y002726D01*
X005364Y002726D01*
X005477Y002896D02*
X005591Y002896D01*
X005751Y002726D02*
X005751Y003066D01*
X005978Y003066D02*
X005751Y002726D01*
X005978Y002726D02*
X005978Y003066D01*
X006137Y003066D02*
X006137Y002726D01*
X006364Y003066D01*
X006364Y002726D01*
X006524Y002782D02*
X006524Y003009D01*
X006581Y003066D01*
X006694Y003066D01*
X006751Y003009D01*
X006751Y002782D01*
X006694Y002726D01*
X006581Y002726D01*
X006524Y002782D01*
X006911Y002782D02*
X006968Y002726D01*
X007081Y002726D01*
X007138Y002782D01*
X007138Y003009D01*
X007081Y003066D01*
X006968Y003066D01*
X006911Y003009D01*
X006645Y003413D02*
X006532Y003413D01*
X006589Y003413D02*
X006589Y003753D01*
X006645Y003753D02*
X006532Y003753D01*
X006388Y003753D02*
X006161Y003413D01*
X006161Y003753D01*
X006388Y003753D02*
X006388Y003413D01*
X005614Y003470D02*
X005558Y003413D01*
X005444Y003413D01*
X005387Y003470D01*
X005228Y003470D02*
X005171Y003413D01*
X005057Y003413D01*
X005001Y003470D01*
X005001Y003697D01*
X005057Y003753D01*
X005171Y003753D01*
X005228Y003697D01*
X005228Y003470D01*
X005387Y003697D02*
X005444Y003753D01*
X005558Y003753D01*
X005614Y003697D01*
X005614Y003470D01*
X004841Y003413D02*
X004841Y003753D01*
X004727Y003640D01*
X004614Y003753D01*
X004614Y003413D01*
X004454Y003413D02*
X004454Y003753D01*
X004341Y003640D01*
X004227Y003753D01*
X004227Y003413D01*
X004067Y003470D02*
X004011Y003413D01*
X003897Y003413D01*
X003841Y003470D01*
X003841Y003527D01*
X003897Y003583D01*
X004011Y003583D01*
X004067Y003640D01*
X004067Y003697D01*
X004011Y003753D01*
X003897Y003753D01*
X003841Y003697D01*
X007192Y003697D02*
X007249Y003753D01*
X007362Y003753D01*
X007419Y003697D01*
X007419Y003470D01*
X007362Y003413D01*
X007249Y003413D01*
X007192Y003470D01*
X007192Y003583D01*
X007305Y003583D01*
X007579Y003470D02*
X007579Y003753D01*
X007806Y003753D02*
X007806Y003470D01*
X007749Y003413D01*
X007635Y003413D01*
X007579Y003470D01*
X007965Y003413D02*
X008192Y003413D01*
X008192Y003753D01*
X008352Y003697D02*
X008352Y003583D01*
X008409Y003527D01*
X008579Y003527D01*
X008579Y003413D02*
X008579Y003753D01*
X008409Y003753D01*
X008352Y003697D01*
X009125Y003697D02*
X009125Y003583D01*
X009182Y003527D01*
X009352Y003527D01*
X009239Y003527D02*
X009125Y003413D01*
X009352Y003413D02*
X009352Y003753D01*
X009182Y003753D01*
X009125Y003697D01*
X009512Y003753D02*
X009739Y003753D01*
X009739Y003413D01*
X009512Y003413D01*
X009626Y003583D02*
X009739Y003583D01*
X009899Y003527D02*
X009899Y003753D01*
X010126Y003753D02*
X010126Y003527D01*
X010012Y003413D01*
X009899Y003527D01*
X010286Y003413D02*
X010512Y003413D01*
X010512Y003753D01*
X010286Y003753D01*
X010399Y003583D02*
X010512Y003583D01*
X010672Y003413D02*
X010672Y003753D01*
X010899Y003753D02*
X010672Y003413D01*
X010899Y003413D02*
X010899Y003753D01*
X010891Y003066D02*
X010891Y002726D01*
X011149Y002726D02*
X011262Y002726D01*
X011206Y002726D02*
X011206Y003066D01*
X011262Y003066D02*
X011149Y003066D01*
X011005Y003066D02*
X010778Y003066D01*
X010618Y003066D02*
X010618Y002726D01*
X010618Y002896D02*
X010391Y002896D01*
X010391Y003066D02*
X010391Y002726D01*
X009844Y002726D02*
X009618Y002952D01*
X009618Y003009D01*
X009674Y003066D01*
X009788Y003066D01*
X009844Y003009D01*
X009844Y002726D02*
X009618Y002726D01*
X009458Y002896D02*
X009231Y002896D01*
X009288Y003066D02*
X009458Y002896D01*
X009288Y002726D02*
X009288Y003066D01*
X009071Y003009D02*
X009071Y002782D01*
X008844Y003009D01*
X008844Y002782D01*
X008901Y002726D01*
X009014Y002726D01*
X009071Y002782D01*
X009071Y003009D02*
X009014Y003066D01*
X008901Y003066D01*
X008844Y003009D01*
X008684Y003066D02*
X008684Y002839D01*
X008571Y002726D01*
X008458Y002839D01*
X008458Y003066D01*
X008298Y002952D02*
X008184Y003066D01*
X008071Y002952D01*
X008071Y002726D01*
X007911Y002782D02*
X007854Y002726D01*
X007741Y002726D01*
X007684Y002782D01*
X007911Y002782D02*
X007911Y003009D01*
X007854Y003066D01*
X007741Y003066D01*
X007684Y003009D01*
X008071Y002896D02*
X008298Y002896D01*
X008298Y002952D02*
X008298Y002726D01*
X011422Y002726D02*
X011422Y003066D01*
X011649Y003066D02*
X011649Y002726D01*
X011536Y002839D01*
X011422Y002726D01*
X012938Y004351D02*
X012938Y004691D01*
X012825Y004691D02*
X013052Y004691D01*
X013212Y004691D02*
X013212Y004351D01*
X013439Y004691D01*
X013439Y004351D01*
X013598Y004351D02*
X013825Y004351D01*
X013825Y004691D01*
X013598Y004691D01*
X013712Y004521D02*
X013825Y004521D01*
X013985Y004521D02*
X014042Y004464D01*
X014212Y004464D01*
X014212Y004351D02*
X014212Y004691D01*
X014042Y004691D01*
X013985Y004634D01*
X013985Y004521D01*
X014099Y004464D02*
X013985Y004351D01*
X014372Y004351D02*
X014485Y004464D01*
X014429Y004464D02*
X014599Y004464D01*
X014599Y004351D02*
X014599Y004691D01*
X014429Y004691D01*
X014372Y004634D01*
X014372Y004521D01*
X014429Y004464D01*
X014759Y004407D02*
X014759Y004691D01*
X014985Y004691D02*
X014985Y004407D01*
X014929Y004351D01*
X014815Y004351D01*
X014759Y004407D01*
X015145Y004407D02*
X015202Y004351D01*
X015315Y004351D01*
X015372Y004407D01*
X015372Y004634D01*
X015315Y004691D01*
X015202Y004691D01*
X015145Y004634D01*
X015124Y005226D02*
X015067Y005282D01*
X015067Y005509D01*
X015124Y005566D01*
X015237Y005566D01*
X015294Y005509D01*
X015294Y005282D01*
X015237Y005226D01*
X015124Y005226D01*
X014907Y005226D02*
X014907Y005566D01*
X014680Y005226D01*
X014680Y005566D01*
X014520Y005566D02*
X014520Y005226D01*
X014294Y005226D01*
X014020Y005226D02*
X014020Y005396D01*
X013907Y005509D01*
X013907Y005566D01*
X014020Y005396D02*
X014134Y005509D01*
X014134Y005566D01*
X015840Y005566D02*
X016067Y005566D01*
X016067Y005226D01*
X015840Y005226D01*
X015954Y005396D02*
X016067Y005396D01*
X016227Y005339D02*
X016227Y005282D01*
X016284Y005226D01*
X016397Y005226D01*
X016454Y005282D01*
X016397Y005396D02*
X016284Y005396D01*
X016227Y005339D01*
X016227Y005509D02*
X016284Y005566D01*
X016397Y005566D01*
X016454Y005509D01*
X016454Y005452D01*
X016397Y005396D01*
X016614Y005282D02*
X016614Y005566D01*
X016841Y005566D02*
X016841Y005282D01*
X016784Y005226D01*
X016670Y005226D01*
X016614Y005282D01*
X017387Y005339D02*
X017387Y005566D01*
X017387Y005339D02*
X017501Y005226D01*
X017614Y005339D01*
X017614Y005566D01*
X017774Y005509D02*
X018001Y005282D01*
X017944Y005226D01*
X017831Y005226D01*
X017774Y005282D01*
X017774Y005509D01*
X017831Y005566D01*
X017944Y005566D01*
X018001Y005509D01*
X018001Y005282D01*
X018161Y005396D02*
X018387Y005396D01*
X018217Y005566D01*
X018217Y005226D01*
X018547Y005226D02*
X018774Y005226D01*
X018547Y005452D01*
X018547Y005509D01*
X018604Y005566D01*
X018717Y005566D01*
X018774Y005509D01*
X018852Y004691D02*
X018739Y004577D01*
X018625Y004691D01*
X018625Y004351D01*
X018466Y004351D02*
X018466Y004577D01*
X018352Y004691D01*
X018239Y004577D01*
X018239Y004351D01*
X018079Y004351D02*
X017852Y004691D01*
X018079Y004691D02*
X017852Y004351D01*
X018239Y004521D02*
X018466Y004521D01*
X018852Y004351D02*
X018852Y004691D01*
X019399Y004577D02*
X019399Y004351D01*
X019399Y004521D02*
X019626Y004521D01*
X019626Y004577D02*
X019512Y004691D01*
X019399Y004577D01*
X019626Y004577D02*
X019626Y004351D01*
X019786Y004407D02*
X019842Y004351D01*
X019956Y004351D01*
X020012Y004407D01*
X019786Y004634D01*
X019786Y004407D01*
X020012Y004407D02*
X020012Y004634D01*
X019956Y004691D01*
X019842Y004691D01*
X019786Y004634D01*
X020172Y004351D02*
X020399Y004351D01*
X020286Y004351D02*
X020286Y004691D01*
X020399Y004577D01*
X017306Y004691D02*
X017306Y004351D01*
X017079Y004351D01*
X016919Y004407D02*
X016862Y004351D01*
X016749Y004351D01*
X016692Y004407D01*
X016692Y004634D01*
X016749Y004691D01*
X016862Y004691D01*
X016919Y004634D01*
X016919Y004407D01*
X016532Y004351D02*
X016532Y004577D01*
X016419Y004691D01*
X016305Y004577D01*
X016305Y004351D01*
X016145Y004351D02*
X016145Y004691D01*
X015975Y004691D01*
X015919Y004634D01*
X015919Y004407D01*
X015975Y004351D01*
X016145Y004351D01*
X016305Y004521D02*
X016532Y004521D01*
X016462Y008132D02*
X016235Y008132D01*
X016075Y008132D02*
X015848Y008132D01*
X015962Y008302D02*
X016075Y008302D01*
X016075Y008472D02*
X015848Y008472D01*
X016075Y008472D02*
X016075Y008132D01*
X016462Y008132D02*
X016462Y008472D01*
X016622Y008472D02*
X016622Y008189D01*
X016679Y008132D01*
X016792Y008132D01*
X016849Y008189D01*
X016849Y008472D01*
X017009Y008415D02*
X017065Y008472D01*
X017235Y008472D01*
X017235Y008132D01*
X017065Y008132D01*
X017009Y008189D01*
X017009Y008415D01*
X017395Y008415D02*
X017395Y008189D01*
X017452Y008132D01*
X017565Y008132D01*
X017622Y008189D01*
X017622Y008415D01*
X017565Y008472D01*
X017452Y008472D01*
X017395Y008415D01*
X017399Y008788D02*
X017399Y009128D01*
X017239Y009128D02*
X017239Y008788D01*
X017013Y008788D01*
X016853Y008788D02*
X016853Y009128D01*
X016626Y008788D01*
X016626Y009128D01*
X016466Y009128D02*
X016239Y009128D01*
X016353Y009128D02*
X016353Y008788D01*
X016079Y008845D02*
X016023Y008788D01*
X015909Y008788D01*
X015852Y008845D01*
X015852Y008902D01*
X015909Y008958D01*
X016023Y008958D01*
X016079Y009015D01*
X016079Y009072D01*
X016023Y009128D01*
X015909Y009128D01*
X015852Y009072D01*
X015306Y009015D02*
X015192Y009128D01*
X015079Y009015D01*
X015079Y008788D01*
X014919Y008788D02*
X014919Y009128D01*
X014749Y009128D01*
X014692Y009072D01*
X014692Y008958D01*
X014749Y008902D01*
X014919Y008902D01*
X014806Y008902D02*
X014692Y008788D01*
X014533Y008788D02*
X014306Y008788D01*
X014419Y008958D02*
X014533Y008958D01*
X014533Y009128D02*
X014533Y008788D01*
X014529Y008472D02*
X014302Y008472D01*
X014142Y008415D02*
X014085Y008472D01*
X013972Y008472D01*
X013915Y008415D01*
X013915Y008189D01*
X013972Y008132D01*
X014085Y008132D01*
X014142Y008189D01*
X014142Y008415D01*
X014415Y008302D02*
X014529Y008302D01*
X014529Y008132D02*
X014529Y008472D01*
X014688Y008472D02*
X014915Y008472D01*
X014915Y008132D01*
X014688Y008132D01*
X014802Y008302D02*
X014915Y008302D01*
X015075Y008359D02*
X015132Y008302D01*
X015302Y008302D01*
X015302Y008472D02*
X015132Y008472D01*
X015075Y008415D01*
X015075Y008359D01*
X015132Y008302D02*
X015075Y008245D01*
X015075Y008189D01*
X015132Y008132D01*
X015302Y008132D01*
X015302Y008472D01*
X015306Y008788D02*
X015306Y009015D01*
X015306Y008958D02*
X015079Y008958D01*
X014533Y009128D02*
X014306Y009128D01*
X013759Y009015D02*
X013646Y009128D01*
X013532Y009015D01*
X013532Y008788D01*
X013532Y008958D02*
X013759Y008958D01*
X013759Y009015D02*
X013759Y008788D01*
X013755Y008472D02*
X013585Y008472D01*
X013528Y008415D01*
X013528Y008302D01*
X013585Y008245D01*
X013755Y008245D01*
X013755Y008132D02*
X013755Y008472D01*
X013642Y008245D02*
X013528Y008132D01*
X013368Y008132D02*
X013142Y008132D01*
X013255Y008302D02*
X013368Y008302D01*
X013368Y008472D02*
X013368Y008132D01*
X013368Y008472D02*
X013142Y008472D01*
X013259Y008788D02*
X013259Y009128D01*
X013372Y009128D02*
X013146Y009128D01*
X013204Y009476D02*
X013204Y009816D01*
X012977Y009476D01*
X012977Y009816D01*
X013364Y009759D02*
X013421Y009816D01*
X013534Y009816D01*
X013591Y009759D01*
X013591Y009532D01*
X013534Y009476D01*
X013421Y009476D01*
X013364Y009532D01*
X013364Y009759D01*
X013735Y009816D02*
X013849Y009816D01*
X013792Y009816D02*
X013792Y009476D01*
X013849Y009476D02*
X013735Y009476D01*
X014122Y009476D02*
X014122Y009816D01*
X014235Y009816D02*
X014009Y009816D01*
X014395Y009702D02*
X014395Y009476D01*
X014395Y009646D02*
X014622Y009646D01*
X014622Y009702D02*
X014509Y009816D01*
X014395Y009702D01*
X014622Y009702D02*
X014622Y009476D01*
X014895Y009476D02*
X014895Y009816D01*
X014782Y009816D02*
X015009Y009816D01*
X015169Y009816D02*
X015169Y009476D01*
X015395Y009816D01*
X015395Y009476D01*
X015555Y009476D02*
X015782Y009476D01*
X015782Y009816D01*
X015555Y009816D01*
X015669Y009646D02*
X015782Y009646D01*
X015942Y009816D02*
X015942Y009476D01*
X016169Y009476D02*
X016169Y009816D01*
X016055Y009702D01*
X015942Y009816D01*
X016329Y009816D02*
X016329Y009532D01*
X016385Y009476D01*
X016499Y009476D01*
X016556Y009532D01*
X016556Y009816D01*
X016715Y009759D02*
X016772Y009816D01*
X016886Y009816D01*
X016942Y009759D01*
X016942Y009532D01*
X016886Y009476D01*
X016772Y009476D01*
X016715Y009532D01*
X017102Y009532D02*
X017102Y009759D01*
X017159Y009816D01*
X017272Y009816D01*
X017329Y009759D01*
X017329Y009532D01*
X017272Y009476D01*
X017159Y009476D01*
X017102Y009532D01*
X017489Y009532D02*
X017489Y009759D01*
X017545Y009816D01*
X017716Y009816D01*
X017716Y009476D01*
X017545Y009476D01*
X017489Y009532D01*
X017626Y009128D02*
X017399Y008788D01*
X017626Y008788D02*
X017626Y009128D01*
X017786Y009072D02*
X017786Y008845D01*
X017843Y008788D01*
X017956Y008788D01*
X018013Y008845D01*
X018013Y009072D01*
X017956Y009128D01*
X017843Y009128D01*
X017786Y009072D01*
X018173Y009072D02*
X018173Y008958D01*
X018229Y008902D01*
X018399Y008902D01*
X018399Y008788D02*
X018399Y009128D01*
X018229Y009128D01*
X018173Y009072D01*
X018559Y009128D02*
X018559Y008788D01*
X018786Y008788D02*
X018786Y009128D01*
X018673Y009015D01*
X018559Y009128D01*
X018489Y009476D02*
X018319Y009476D01*
X018262Y009532D01*
X018262Y009759D01*
X018319Y009816D01*
X018489Y009816D01*
X018489Y009476D01*
X018649Y009476D02*
X018649Y009702D01*
X018762Y009816D01*
X018876Y009702D01*
X018876Y009476D01*
X019036Y009476D02*
X019262Y009476D01*
X019262Y009816D01*
X019036Y009816D01*
X019149Y009646D02*
X019262Y009646D01*
X019422Y009646D02*
X019479Y009589D01*
X019649Y009589D01*
X019536Y009589D02*
X019422Y009476D01*
X019422Y009646D02*
X019422Y009759D01*
X019479Y009816D01*
X019649Y009816D01*
X019649Y009476D01*
X019503Y009128D02*
X019560Y009072D01*
X019560Y008845D01*
X019503Y008788D01*
X019389Y008788D01*
X019333Y008845D01*
X019173Y008845D02*
X019116Y008788D01*
X019003Y008788D01*
X018946Y008845D01*
X018946Y009072D01*
X019003Y009128D01*
X019116Y009128D01*
X019173Y009072D01*
X019173Y008845D01*
X019333Y009072D02*
X019389Y009128D01*
X019503Y009128D01*
X020106Y008788D02*
X020333Y008788D01*
X020333Y009128D01*
X020720Y009128D02*
X020720Y008788D01*
X020493Y008788D01*
X020489Y008472D02*
X020716Y008472D01*
X020716Y008132D01*
X020489Y008132D01*
X020602Y008302D02*
X020716Y008302D01*
X020875Y008245D02*
X020989Y008132D01*
X021102Y008245D01*
X021102Y008472D01*
X021262Y008415D02*
X021319Y008472D01*
X021432Y008472D01*
X021489Y008415D01*
X021489Y008189D01*
X021432Y008132D01*
X021319Y008132D01*
X021262Y008189D01*
X021262Y008415D01*
X020875Y008472D02*
X020875Y008245D01*
X020879Y008788D02*
X020879Y009015D01*
X020993Y009128D01*
X021106Y009015D01*
X021106Y008788D01*
X021106Y008958D02*
X020879Y008958D01*
X021653Y008958D02*
X021880Y008958D01*
X021876Y008472D02*
X021762Y008359D01*
X021649Y008472D01*
X021649Y008132D01*
X021876Y008132D02*
X021876Y008472D01*
X022036Y008472D02*
X022262Y008472D01*
X022262Y008132D01*
X022036Y008132D01*
X022149Y008302D02*
X022262Y008302D01*
X022422Y008302D02*
X022479Y008245D01*
X022649Y008245D01*
X022649Y008132D02*
X022649Y008472D01*
X022479Y008472D01*
X022422Y008415D01*
X022422Y008302D01*
X022536Y008245D02*
X022422Y008132D01*
X022426Y008788D02*
X022540Y008902D01*
X022483Y008902D02*
X022653Y008902D01*
X022653Y008788D02*
X022653Y009128D01*
X022483Y009128D01*
X022426Y009072D01*
X022426Y008958D01*
X022483Y008902D01*
X022813Y008788D02*
X023040Y008788D01*
X023040Y009128D01*
X022813Y009128D01*
X022926Y008958D02*
X023040Y008958D01*
X023200Y008958D02*
X023313Y008958D01*
X023200Y008958D02*
X023200Y008845D01*
X023256Y008788D01*
X023370Y008788D01*
X023426Y008845D01*
X023426Y009072D01*
X023370Y009128D01*
X023256Y009128D01*
X023200Y009072D01*
X023586Y009128D02*
X023586Y008788D01*
X023813Y009128D01*
X023813Y008788D01*
X023973Y008788D02*
X023973Y009015D01*
X024086Y009128D01*
X024200Y009015D01*
X024200Y008788D01*
X024360Y008845D02*
X024416Y008788D01*
X024587Y008788D01*
X024587Y009128D01*
X024416Y009128D01*
X024360Y009072D01*
X024360Y008845D01*
X024200Y008958D02*
X023973Y008958D01*
X019942Y008472D02*
X019715Y008132D01*
X019556Y008132D02*
X019385Y008132D01*
X019329Y008189D01*
X019329Y008245D01*
X019385Y008302D01*
X019556Y008302D01*
X019556Y008472D02*
X019385Y008472D01*
X019329Y008415D01*
X019329Y008359D01*
X019385Y008302D01*
X019169Y008302D02*
X019055Y008302D01*
X018942Y008472D02*
X019169Y008472D01*
X019169Y008132D01*
X018942Y008132D01*
X018782Y008132D02*
X018555Y008132D01*
X018669Y008302D02*
X018782Y008302D01*
X018782Y008472D02*
X018555Y008472D01*
X018782Y008472D02*
X018782Y008132D01*
X018009Y008132D02*
X018009Y008472D01*
X017895Y008359D01*
X017782Y008472D01*
X017782Y008132D01*
X017239Y008958D02*
X017126Y008958D01*
X017013Y009128D02*
X017239Y009128D01*
X018649Y009646D02*
X018876Y009646D01*
X019556Y008472D02*
X019556Y008132D01*
X019715Y008472D02*
X019942Y008132D01*
X012595Y008132D02*
X012595Y008472D01*
X012425Y008472D01*
X012368Y008415D01*
X012368Y008302D01*
X012425Y008245D01*
X012595Y008245D01*
X012208Y008245D02*
X012038Y008245D01*
X011981Y008302D01*
X011981Y008415D01*
X012038Y008472D01*
X012208Y008472D01*
X012208Y008132D01*
X012095Y008245D02*
X011981Y008132D01*
X011822Y008189D02*
X011822Y008415D01*
X011765Y008472D01*
X011652Y008472D01*
X011595Y008415D01*
X011595Y008189D01*
X011652Y008132D01*
X011765Y008132D01*
X011822Y008189D01*
X011435Y008189D02*
X011435Y008415D01*
X011378Y008472D01*
X011265Y008472D01*
X011208Y008415D01*
X011208Y008302D02*
X011322Y008302D01*
X011208Y008302D02*
X011208Y008189D01*
X011265Y008132D01*
X011378Y008132D01*
X011435Y008189D01*
X011048Y008245D02*
X010878Y008245D01*
X010821Y008302D01*
X010821Y008415D01*
X010878Y008472D01*
X011048Y008472D01*
X011048Y008132D01*
X010935Y008245D02*
X010821Y008132D01*
X010662Y008132D02*
X010662Y008359D01*
X010548Y008472D01*
X010435Y008359D01*
X010435Y008132D01*
X010275Y008132D02*
X010275Y008472D01*
X010161Y008359D01*
X010048Y008472D01*
X010048Y008132D01*
X009888Y008132D02*
X009888Y008472D01*
X009775Y008359D01*
X009661Y008472D01*
X009661Y008132D01*
X009501Y008132D02*
X009388Y008132D01*
X009445Y008132D02*
X009445Y008472D01*
X009501Y008472D02*
X009388Y008472D01*
X009244Y008472D02*
X009017Y008132D01*
X009017Y008472D01*
X008857Y008415D02*
X008857Y008189D01*
X008800Y008132D01*
X008687Y008132D01*
X008630Y008189D01*
X008630Y008302D01*
X008744Y008302D01*
X008857Y008415D02*
X008800Y008472D01*
X008687Y008472D01*
X008630Y008415D01*
X008634Y008788D02*
X008634Y009128D01*
X008474Y009128D02*
X008247Y009128D01*
X008361Y009128D02*
X008361Y008788D01*
X008634Y008788D02*
X008861Y009128D01*
X008861Y008788D01*
X009021Y008788D02*
X009248Y008788D01*
X009248Y009128D01*
X009021Y009128D01*
X009134Y008958D02*
X009248Y008958D01*
X009408Y009128D02*
X009634Y009128D01*
X009521Y009128D02*
X009521Y008788D01*
X009794Y008845D02*
X009794Y009072D01*
X009851Y009128D01*
X009964Y009128D01*
X010021Y009072D01*
X010021Y008845D01*
X009964Y008788D01*
X009851Y008788D01*
X009794Y008845D01*
X010181Y008958D02*
X010181Y009072D01*
X010238Y009128D01*
X010408Y009128D01*
X010408Y008788D01*
X010408Y008902D02*
X010238Y008902D01*
X010181Y008958D01*
X010954Y008902D02*
X010954Y008845D01*
X011011Y008788D01*
X011124Y008788D01*
X011181Y008845D01*
X011124Y008958D02*
X011011Y008958D01*
X010954Y008902D01*
X010954Y009072D02*
X011011Y009128D01*
X011124Y009128D01*
X011181Y009072D01*
X011181Y009015D01*
X011124Y008958D01*
X011341Y008788D02*
X011341Y009128D01*
X011568Y009128D02*
X011341Y008788D01*
X011568Y008788D02*
X011568Y009128D01*
X011712Y009128D02*
X011826Y009128D01*
X011769Y009128D02*
X011769Y008788D01*
X011826Y008788D02*
X011712Y008788D01*
X011986Y008788D02*
X011986Y009015D01*
X012099Y009128D01*
X012212Y009015D01*
X012212Y008788D01*
X012372Y008788D02*
X012372Y009128D01*
X012486Y009015D01*
X012599Y009128D01*
X012599Y008788D01*
X012212Y008958D02*
X011986Y008958D01*
X011987Y009476D02*
X011987Y009816D01*
X011931Y009816D02*
X012044Y009816D01*
X012204Y009816D02*
X012431Y009816D01*
X012431Y009476D01*
X012431Y009646D02*
X012317Y009646D01*
X012044Y009476D02*
X011931Y009476D01*
X011786Y009476D02*
X011786Y009816D01*
X011616Y009816D01*
X011559Y009759D01*
X011559Y009646D01*
X011616Y009589D01*
X011786Y009589D01*
X011673Y009589D02*
X011559Y009476D01*
X011400Y009532D02*
X011343Y009476D01*
X011229Y009476D01*
X011173Y009532D01*
X011173Y009589D01*
X011229Y009646D01*
X011343Y009646D01*
X011400Y009702D01*
X011400Y009759D01*
X011343Y009816D01*
X011229Y009816D01*
X011173Y009759D01*
X011013Y009816D02*
X010786Y009816D01*
X010899Y009816D02*
X010899Y009476D01*
X009244Y008472D02*
X009244Y008132D01*
X010435Y008302D02*
X010662Y008302D01*
X008088Y008788D02*
X007974Y008788D01*
X008031Y008788D02*
X008031Y009128D01*
X008088Y009128D02*
X007974Y009128D01*
X007830Y009015D02*
X007716Y009128D01*
X007603Y009015D01*
X007603Y008788D01*
X007443Y008788D02*
X007216Y008788D01*
X007443Y008788D02*
X007443Y009128D01*
X007603Y008958D02*
X007830Y008958D01*
X007830Y009015D02*
X007830Y008788D01*
D12*
X016242Y006244D03*
D13*
X016242Y006247D03*
D14*
X016242Y006250D03*
D15*
X016242Y006253D03*
X016242Y006340D03*
D16*
X016242Y006331D03*
X016242Y006328D03*
X016242Y006256D03*
D17*
X016242Y006259D03*
X016242Y006262D03*
X016242Y006325D03*
D18*
X016242Y006319D03*
X016242Y006265D03*
D19*
X016242Y006268D03*
X016242Y006271D03*
X016242Y006313D03*
X016242Y006316D03*
D20*
X016242Y006310D03*
X016242Y006307D03*
X016242Y006304D03*
X016242Y006280D03*
X016242Y006277D03*
X016242Y006274D03*
D21*
X016242Y006283D03*
X016242Y006286D03*
X016242Y006289D03*
X016242Y006292D03*
X016242Y006295D03*
X016242Y006298D03*
X016242Y006301D03*
D22*
X016240Y006322D03*
D23*
X016242Y006334D03*
X016242Y006337D03*
D24*
X016255Y006544D03*
X016783Y006826D03*
X016783Y006829D03*
X016780Y006832D03*
X016780Y006835D03*
X016777Y006838D03*
X016768Y006853D03*
X016768Y006856D03*
X016765Y006859D03*
X016762Y006865D03*
X016753Y006880D03*
X016750Y006886D03*
X016747Y006889D03*
X016747Y006892D03*
X016738Y006904D03*
X016738Y006907D03*
X016735Y006910D03*
X016735Y006913D03*
X016732Y006916D03*
X016723Y006931D03*
X016723Y006934D03*
X016720Y006937D03*
X016717Y006943D03*
X016708Y006958D03*
X016705Y006964D03*
X016702Y006967D03*
X016702Y006970D03*
X016693Y006982D03*
X016693Y006985D03*
X016690Y006988D03*
X016690Y006991D03*
X016687Y006994D03*
X016678Y007009D03*
X016678Y007012D03*
X016675Y007015D03*
X016672Y007021D03*
X016663Y007036D03*
X016660Y007039D03*
X016660Y007042D03*
X016657Y007045D03*
X016657Y007048D03*
X016648Y007060D03*
X016648Y007063D03*
X016645Y007066D03*
X016645Y007069D03*
X016642Y007072D03*
X016633Y007087D03*
X016633Y007090D03*
X016630Y007093D03*
X016627Y007099D03*
X016618Y007114D03*
X016615Y007117D03*
X016615Y007120D03*
X016612Y007123D03*
X016612Y007126D03*
X016603Y007138D03*
X016603Y007141D03*
X016600Y007144D03*
X016600Y007147D03*
X016597Y007150D03*
X016588Y007165D03*
X016585Y007171D03*
X016582Y007177D03*
X016573Y007192D03*
X016570Y007195D03*
X016570Y007198D03*
X016567Y007201D03*
X016567Y007204D03*
X016558Y007216D03*
X016558Y007219D03*
X016555Y007222D03*
X016555Y007225D03*
X016552Y007228D03*
X016543Y007243D03*
X016540Y007249D03*
X016537Y007255D03*
X016528Y007270D03*
X016525Y007273D03*
X016525Y007276D03*
X016522Y007279D03*
X016522Y007282D03*
X016513Y007294D03*
X016513Y007297D03*
X016510Y007300D03*
X016510Y007303D03*
X016507Y007306D03*
X016498Y007321D03*
X016495Y007327D03*
X016492Y007330D03*
X016492Y007333D03*
X016483Y007348D03*
X016480Y007351D03*
X016480Y007354D03*
X016477Y007357D03*
X016477Y007360D03*
X016468Y007372D03*
X016468Y007375D03*
X016465Y007378D03*
X016462Y007384D03*
X016453Y007399D03*
X016450Y007405D03*
X016447Y007408D03*
X016447Y007411D03*
X016438Y007426D03*
X016435Y007429D03*
X016435Y007432D03*
X016432Y007435D03*
X016432Y007438D03*
X016423Y007450D03*
X016423Y007453D03*
X016420Y007456D03*
X016417Y007462D03*
X016408Y007477D03*
X016405Y007483D03*
X016402Y007486D03*
X016402Y007489D03*
X016393Y007504D03*
X016390Y007507D03*
X016390Y007510D03*
X016387Y007513D03*
X016387Y007516D03*
X016378Y007528D03*
X016378Y007531D03*
X016375Y007534D03*
X016372Y007540D03*
X016363Y007555D03*
X016360Y007561D03*
X016357Y007564D03*
X016357Y007567D03*
X016348Y007582D03*
X016345Y007585D03*
X016345Y007588D03*
X016342Y007591D03*
X016333Y007606D03*
X016333Y007609D03*
X016330Y007612D03*
X016327Y007618D03*
X016318Y007633D03*
X016315Y007639D03*
X016312Y007642D03*
X016312Y007645D03*
X016303Y007660D03*
X016300Y007663D03*
X016300Y007666D03*
X016183Y007666D03*
X016180Y007660D03*
X016177Y007654D03*
X016168Y007639D03*
X016165Y007636D03*
X016165Y007633D03*
X016162Y007630D03*
X016162Y007627D03*
X016153Y007615D03*
X016153Y007612D03*
X016150Y007609D03*
X016150Y007606D03*
X016147Y007603D03*
X016138Y007588D03*
X016135Y007582D03*
X016132Y007576D03*
X016123Y007561D03*
X016120Y007558D03*
X016120Y007555D03*
X016117Y007552D03*
X016117Y007549D03*
X016108Y007537D03*
X016108Y007534D03*
X016105Y007531D03*
X016105Y007528D03*
X016102Y007525D03*
X016093Y007510D03*
X016090Y007504D03*
X016087Y007498D03*
X016078Y007483D03*
X016075Y007480D03*
X016075Y007477D03*
X016072Y007474D03*
X016072Y007471D03*
X016063Y007459D03*
X016063Y007456D03*
X016060Y007453D03*
X016060Y007450D03*
X016057Y007447D03*
X016048Y007432D03*
X016045Y007426D03*
X016042Y007423D03*
X016042Y007420D03*
X016033Y007405D03*
X016030Y007402D03*
X016030Y007399D03*
X016027Y007396D03*
X016027Y007393D03*
X016018Y007381D03*
X016018Y007378D03*
X016015Y007375D03*
X016012Y007369D03*
X016003Y007354D03*
X016000Y007348D03*
X015997Y007345D03*
X015997Y007342D03*
X015988Y007327D03*
X015985Y007324D03*
X015985Y007321D03*
X015982Y007318D03*
X015982Y007315D03*
X015973Y007303D03*
X015973Y007300D03*
X015970Y007297D03*
X015967Y007291D03*
X015958Y007276D03*
X015955Y007270D03*
X015952Y007267D03*
X015952Y007264D03*
X015943Y007249D03*
X015940Y007246D03*
X015940Y007243D03*
X015937Y007240D03*
X015937Y007237D03*
X015928Y007225D03*
X015928Y007222D03*
X015925Y007219D03*
X015922Y007213D03*
X015913Y007198D03*
X015910Y007192D03*
X015907Y007189D03*
X015907Y007186D03*
X015898Y007171D03*
X015895Y007168D03*
X015895Y007165D03*
X015892Y007162D03*
X015892Y007159D03*
X015883Y007147D03*
X015883Y007144D03*
X015880Y007141D03*
X015877Y007135D03*
X015868Y007120D03*
X015865Y007114D03*
X015862Y007111D03*
X015862Y007108D03*
X015853Y007093D03*
X015850Y007090D03*
X015850Y007087D03*
X015847Y007084D03*
X015838Y007069D03*
X015838Y007066D03*
X015835Y007063D03*
X015832Y007057D03*
X015823Y007042D03*
X015820Y007036D03*
X015817Y007033D03*
X015817Y007030D03*
X015808Y007015D03*
X015805Y007012D03*
X015805Y007009D03*
X015802Y007006D03*
X015793Y006991D03*
X015793Y006988D03*
X015790Y006985D03*
X015787Y006979D03*
X015778Y006964D03*
X015775Y006958D03*
X015772Y006955D03*
X015772Y006952D03*
X015763Y006937D03*
X015760Y006934D03*
X015760Y006931D03*
X015757Y006928D03*
X015748Y006913D03*
X015748Y006910D03*
X015745Y006907D03*
X015742Y006901D03*
X015733Y006886D03*
X015730Y006880D03*
X015727Y006877D03*
X015727Y006874D03*
X015718Y006859D03*
X015715Y006856D03*
X015715Y006853D03*
X015712Y006850D03*
X015703Y006835D03*
X015703Y006832D03*
X015700Y006829D03*
X015697Y006823D03*
X015688Y006808D03*
X015685Y006802D03*
X015682Y006799D03*
X015682Y006796D03*
X015673Y006784D03*
X015673Y006781D03*
X015670Y006778D03*
X015670Y006775D03*
X015667Y006772D03*
X015667Y006769D03*
X015658Y006757D03*
X015658Y006754D03*
X015655Y006751D03*
X015652Y006745D03*
X015643Y006730D03*
X015640Y006724D03*
X015637Y006721D03*
X015637Y006718D03*
X015628Y006706D03*
X015628Y006703D03*
X015625Y006700D03*
X015625Y006697D03*
X015622Y006694D03*
X015613Y006679D03*
X015613Y006676D03*
X015610Y006673D03*
X015607Y006667D03*
X015598Y006652D03*
X015595Y006646D03*
X015592Y006643D03*
X015592Y006640D03*
X015583Y006628D03*
X015583Y006625D03*
X015580Y006622D03*
X015580Y006619D03*
X015577Y006616D03*
X015568Y006601D03*
X015568Y006598D03*
X015565Y006595D03*
X015562Y006589D03*
X015553Y006574D03*
X015550Y006571D03*
X015550Y006568D03*
X015547Y006565D03*
X015547Y006562D03*
X015538Y006550D03*
X015538Y006547D03*
X015535Y006544D03*
X015535Y006541D03*
X015532Y006538D03*
X015523Y006523D03*
X015523Y006520D03*
X015520Y006517D03*
X015517Y006511D03*
X015508Y006496D03*
X015505Y006493D03*
X015505Y006490D03*
X015502Y006487D03*
X015502Y006484D03*
X015493Y006472D03*
X015493Y006469D03*
X015490Y006466D03*
X015490Y006463D03*
X015487Y006460D03*
X015478Y006445D03*
X015478Y006442D03*
X015475Y006439D03*
X015472Y006433D03*
X015463Y006418D03*
X015460Y006415D03*
X015460Y006412D03*
X015457Y006409D03*
X015457Y006406D03*
X015448Y006394D03*
X015448Y006391D03*
X015445Y006388D03*
X015445Y006385D03*
X015442Y006382D03*
X015433Y006367D03*
X015433Y006364D03*
X015430Y006361D03*
X015427Y006358D03*
X015427Y006355D03*
X016165Y006985D03*
X016327Y007051D03*
X016318Y007075D03*
X016792Y006814D03*
X016792Y006811D03*
X016795Y006808D03*
X016798Y006802D03*
X016807Y006787D03*
X016810Y006781D03*
X016813Y006778D03*
X016813Y006775D03*
X016822Y006760D03*
X016825Y006757D03*
X016825Y006754D03*
X016828Y006751D03*
X016828Y006748D03*
X016837Y006736D03*
X016837Y006733D03*
X016840Y006730D03*
X016843Y006724D03*
X016852Y006709D03*
X016855Y006703D03*
X016858Y006700D03*
X016858Y006697D03*
X016867Y006682D03*
X016870Y006679D03*
X016870Y006676D03*
X016873Y006673D03*
X016882Y006658D03*
X016882Y006655D03*
X016885Y006652D03*
X016888Y006646D03*
X016897Y006631D03*
X016900Y006625D03*
X016903Y006622D03*
X016903Y006619D03*
X016912Y006604D03*
X016915Y006601D03*
X016915Y006598D03*
X016918Y006595D03*
X016927Y006580D03*
X016927Y006577D03*
X016930Y006574D03*
X016933Y006568D03*
X016942Y006553D03*
X016945Y006547D03*
X016948Y006544D03*
X016948Y006541D03*
X016957Y006529D03*
X016957Y006526D03*
X016960Y006523D03*
X016960Y006520D03*
X016963Y006517D03*
X016972Y006502D03*
X016972Y006499D03*
X016975Y006496D03*
X016978Y006490D03*
X016987Y006475D03*
X016990Y006469D03*
X016993Y006466D03*
X016993Y006463D03*
X017002Y006451D03*
X017002Y006448D03*
X017005Y006445D03*
X017005Y006442D03*
X017008Y006439D03*
X017017Y006424D03*
X017017Y006421D03*
X017020Y006418D03*
X017023Y006412D03*
X017032Y006397D03*
X017035Y006391D03*
X017038Y006388D03*
X017038Y006385D03*
X017047Y006373D03*
X017047Y006370D03*
X017050Y006367D03*
X017050Y006364D03*
X017053Y006361D03*
X017062Y006346D03*
X017062Y006343D03*
D25*
X017055Y006358D03*
X017010Y006436D03*
X016965Y006514D03*
X016920Y006592D03*
X016911Y006607D03*
X016875Y006670D03*
X016866Y006685D03*
X016833Y006742D03*
X016821Y006763D03*
X016788Y006820D03*
X016776Y006841D03*
X016743Y006898D03*
X016731Y006919D03*
X016710Y006955D03*
X016698Y006976D03*
X016686Y006997D03*
X016665Y007033D03*
X016653Y007054D03*
X016641Y007075D03*
X016620Y007111D03*
X016608Y007132D03*
X016596Y007153D03*
X016575Y007189D03*
X016563Y007210D03*
X016530Y007267D03*
X016518Y007288D03*
X016506Y007309D03*
X016485Y007345D03*
X016473Y007366D03*
X016461Y007387D03*
X016440Y007423D03*
X016428Y007444D03*
X016416Y007465D03*
X016395Y007501D03*
X016383Y007522D03*
X016371Y007543D03*
X016350Y007579D03*
X016341Y007594D03*
X016338Y007600D03*
X016305Y007657D03*
X016170Y007642D03*
X016158Y007621D03*
X016146Y007600D03*
X016125Y007564D03*
X016113Y007543D03*
X016101Y007522D03*
X016080Y007486D03*
X016068Y007465D03*
X016056Y007444D03*
X016035Y007408D03*
X016023Y007387D03*
X016011Y007366D03*
X015990Y007330D03*
X015978Y007309D03*
X015966Y007288D03*
X015945Y007252D03*
X015933Y007231D03*
X015900Y007174D03*
X015888Y007153D03*
X015855Y007096D03*
X015846Y007081D03*
X015843Y007075D03*
X015810Y007018D03*
X015801Y007003D03*
X015765Y006940D03*
X015756Y006925D03*
X015720Y006862D03*
X015711Y006847D03*
X015678Y006790D03*
X015633Y006712D03*
X015621Y006691D03*
X015588Y006634D03*
X015576Y006613D03*
X015543Y006556D03*
X015531Y006535D03*
X015498Y006478D03*
X015486Y006457D03*
X015465Y006421D03*
X015453Y006400D03*
X015441Y006379D03*
X015420Y006343D03*
X016320Y007072D03*
X016311Y007096D03*
D26*
X016321Y007069D03*
X016321Y007066D03*
X016324Y007060D03*
X016324Y007057D03*
X016381Y006865D03*
X016669Y007024D03*
X016669Y007027D03*
X016666Y007030D03*
X016654Y007051D03*
X016651Y007057D03*
X016639Y007078D03*
X016636Y007081D03*
X016636Y007084D03*
X016624Y007102D03*
X016624Y007105D03*
X016621Y007108D03*
X016609Y007129D03*
X016606Y007135D03*
X016594Y007156D03*
X016591Y007159D03*
X016591Y007162D03*
X016579Y007180D03*
X016579Y007183D03*
X016576Y007186D03*
X016564Y007207D03*
X016561Y007213D03*
X016549Y007234D03*
X016546Y007237D03*
X016546Y007240D03*
X016534Y007258D03*
X016534Y007261D03*
X016531Y007264D03*
X016519Y007285D03*
X016516Y007291D03*
X016504Y007312D03*
X016501Y007315D03*
X016501Y007318D03*
X016489Y007336D03*
X016489Y007339D03*
X016486Y007342D03*
X016474Y007363D03*
X016471Y007369D03*
X016459Y007390D03*
X016456Y007393D03*
X016456Y007396D03*
X016444Y007414D03*
X016444Y007417D03*
X016441Y007420D03*
X016429Y007441D03*
X016426Y007447D03*
X016414Y007468D03*
X016411Y007471D03*
X016411Y007474D03*
X016399Y007492D03*
X016399Y007495D03*
X016396Y007498D03*
X016384Y007519D03*
X016381Y007525D03*
X016369Y007546D03*
X016366Y007549D03*
X016366Y007552D03*
X016354Y007570D03*
X016354Y007573D03*
X016351Y007576D03*
X016339Y007597D03*
X016336Y007603D03*
X016324Y007621D03*
X016324Y007624D03*
X016321Y007627D03*
X016321Y007630D03*
X016309Y007648D03*
X016309Y007651D03*
X016306Y007654D03*
X016174Y007651D03*
X016174Y007648D03*
X016171Y007645D03*
X016159Y007624D03*
X016156Y007618D03*
X016144Y007597D03*
X016141Y007594D03*
X016141Y007591D03*
X016129Y007573D03*
X016129Y007570D03*
X016126Y007567D03*
X016114Y007546D03*
X016111Y007540D03*
X016099Y007519D03*
X016096Y007516D03*
X016096Y007513D03*
X016084Y007495D03*
X016084Y007492D03*
X016081Y007489D03*
X016069Y007468D03*
X016066Y007462D03*
X016054Y007441D03*
X016051Y007438D03*
X016051Y007435D03*
X016039Y007417D03*
X016039Y007414D03*
X016036Y007411D03*
X016024Y007390D03*
X016021Y007384D03*
X016009Y007363D03*
X016006Y007360D03*
X016006Y007357D03*
X015994Y007339D03*
X015994Y007336D03*
X015991Y007333D03*
X015979Y007312D03*
X015976Y007306D03*
X015964Y007285D03*
X015961Y007282D03*
X015961Y007279D03*
X015949Y007261D03*
X015949Y007258D03*
X015946Y007255D03*
X015934Y007234D03*
X015931Y007228D03*
X015919Y007210D03*
X015919Y007207D03*
X015916Y007204D03*
X015916Y007201D03*
X015904Y007183D03*
X015904Y007180D03*
X015901Y007177D03*
X015889Y007156D03*
X015886Y007150D03*
X015874Y007132D03*
X015874Y007129D03*
X015871Y007126D03*
X015871Y007123D03*
X015859Y007105D03*
X015859Y007102D03*
X015856Y007099D03*
X015844Y007078D03*
X015841Y007072D03*
X015829Y007054D03*
X015829Y007051D03*
X015826Y007048D03*
X015826Y007045D03*
X015814Y007027D03*
X015814Y007024D03*
X015811Y007021D03*
X015799Y007000D03*
X015796Y006997D03*
X015796Y006994D03*
X015784Y006976D03*
X015784Y006973D03*
X015781Y006970D03*
X015781Y006967D03*
X015769Y006949D03*
X015769Y006946D03*
X015766Y006943D03*
X015754Y006922D03*
X015751Y006919D03*
X015751Y006916D03*
X015739Y006898D03*
X015739Y006895D03*
X015736Y006892D03*
X015736Y006889D03*
X015724Y006871D03*
X015724Y006868D03*
X015721Y006865D03*
X015709Y006844D03*
X015706Y006841D03*
X015706Y006838D03*
X015694Y006820D03*
X015694Y006817D03*
X015691Y006814D03*
X015691Y006811D03*
X015679Y006793D03*
X015676Y006787D03*
X015664Y006766D03*
X015661Y006760D03*
X015649Y006742D03*
X015649Y006739D03*
X015646Y006736D03*
X015646Y006733D03*
X015634Y006715D03*
X015631Y006709D03*
X015619Y006688D03*
X015616Y006685D03*
X015616Y006682D03*
X015604Y006664D03*
X015604Y006661D03*
X015601Y006658D03*
X015601Y006655D03*
X015589Y006637D03*
X015586Y006631D03*
X015574Y006610D03*
X015571Y006607D03*
X015571Y006604D03*
X015559Y006586D03*
X015559Y006583D03*
X015556Y006580D03*
X015556Y006577D03*
X015544Y006559D03*
X015541Y006553D03*
X015529Y006532D03*
X015526Y006529D03*
X015526Y006526D03*
X015514Y006508D03*
X015514Y006505D03*
X015511Y006502D03*
X015511Y006499D03*
X015499Y006481D03*
X015496Y006475D03*
X015484Y006454D03*
X015481Y006451D03*
X015481Y006448D03*
X015469Y006430D03*
X015469Y006427D03*
X015466Y006424D03*
X015454Y006403D03*
X015451Y006397D03*
X015439Y006376D03*
X015436Y006373D03*
X015436Y006370D03*
X015424Y006352D03*
X015424Y006349D03*
X015421Y006346D03*
X016681Y007003D03*
X016681Y007006D03*
X016684Y007000D03*
X016696Y006979D03*
X016699Y006973D03*
X016711Y006952D03*
X016714Y006949D03*
X016714Y006946D03*
X016726Y006928D03*
X016726Y006925D03*
X016729Y006922D03*
X016741Y006901D03*
X016744Y006895D03*
X016756Y006877D03*
X016756Y006874D03*
X016759Y006871D03*
X016759Y006868D03*
X016771Y006850D03*
X016771Y006847D03*
X016774Y006844D03*
X016786Y006823D03*
X016789Y006817D03*
X016801Y006799D03*
X016801Y006796D03*
X016804Y006793D03*
X016804Y006790D03*
X016816Y006772D03*
X016816Y006769D03*
X016819Y006766D03*
X016831Y006745D03*
X016834Y006739D03*
X016846Y006721D03*
X016846Y006718D03*
X016849Y006715D03*
X016849Y006712D03*
X016861Y006694D03*
X016861Y006691D03*
X016864Y006688D03*
X016876Y006667D03*
X016879Y006664D03*
X016879Y006661D03*
X016891Y006643D03*
X016891Y006640D03*
X016894Y006637D03*
X016894Y006634D03*
X016906Y006616D03*
X016906Y006613D03*
X016909Y006610D03*
X016921Y006589D03*
X016924Y006586D03*
X016924Y006583D03*
X016936Y006565D03*
X016936Y006562D03*
X016939Y006559D03*
X016939Y006556D03*
X016951Y006538D03*
X016951Y006535D03*
X016954Y006532D03*
X016966Y006511D03*
X016969Y006508D03*
X016969Y006505D03*
X016981Y006487D03*
X016981Y006484D03*
X016984Y006481D03*
X016984Y006478D03*
X016996Y006460D03*
X016996Y006457D03*
X016999Y006454D03*
X017011Y006433D03*
X017014Y006430D03*
X017014Y006427D03*
X017026Y006409D03*
X017026Y006406D03*
X017029Y006403D03*
X017029Y006400D03*
X017041Y006382D03*
X017041Y006379D03*
X017044Y006376D03*
X017056Y006355D03*
X017059Y006352D03*
X017059Y006349D03*
D27*
X017034Y006394D03*
X017022Y006415D03*
X016989Y006472D03*
X016977Y006493D03*
X016944Y006550D03*
X016932Y006571D03*
X016899Y006628D03*
X016887Y006649D03*
X016854Y006706D03*
X016842Y006727D03*
X016809Y006784D03*
X016797Y006805D03*
X016764Y006862D03*
X016752Y006883D03*
X016719Y006940D03*
X016707Y006961D03*
X016674Y007018D03*
X016629Y007096D03*
X016587Y007168D03*
X016584Y007174D03*
X016542Y007246D03*
X016539Y007252D03*
X016497Y007324D03*
X016464Y007381D03*
X016452Y007402D03*
X016419Y007459D03*
X016407Y007480D03*
X016374Y007537D03*
X016362Y007558D03*
X016329Y007615D03*
X016317Y007636D03*
X016182Y007663D03*
X016179Y007657D03*
X016137Y007585D03*
X016134Y007579D03*
X016092Y007507D03*
X016089Y007501D03*
X016047Y007429D03*
X016002Y007351D03*
X015969Y007294D03*
X015957Y007273D03*
X015924Y007216D03*
X015912Y007195D03*
X015879Y007138D03*
X015867Y007117D03*
X015834Y007060D03*
X015822Y007039D03*
X015789Y006982D03*
X015777Y006961D03*
X015744Y006904D03*
X015732Y006883D03*
X015699Y006826D03*
X015687Y006805D03*
X015654Y006748D03*
X015642Y006727D03*
X015609Y006670D03*
X015597Y006649D03*
X015564Y006592D03*
X015519Y006514D03*
X015474Y006436D03*
X016254Y006547D03*
X016254Y006550D03*
X016317Y007078D03*
X016317Y007081D03*
X016314Y007084D03*
X016314Y007087D03*
X016314Y007090D03*
X016242Y007762D03*
X016242Y007765D03*
D28*
X016452Y006802D03*
X016323Y006634D03*
X016323Y006631D03*
X016164Y006601D03*
X016290Y006418D03*
D29*
X016288Y006421D03*
X016288Y006424D03*
X016318Y006622D03*
X016321Y006628D03*
X016165Y006598D03*
X016096Y007051D03*
D30*
X016449Y006805D03*
X016320Y006625D03*
X016317Y006619D03*
X016173Y006592D03*
X016170Y006595D03*
X016287Y006427D03*
D31*
X016285Y006430D03*
X016285Y006433D03*
X016315Y006613D03*
X016315Y006616D03*
X016177Y006589D03*
X016444Y006808D03*
X016099Y007048D03*
D32*
X016101Y007045D03*
X016314Y006610D03*
X016311Y006604D03*
X016284Y006436D03*
D33*
X016284Y006439D03*
X016242Y007813D03*
D34*
X016108Y007039D03*
X016438Y006814D03*
X016306Y006592D03*
X016303Y006586D03*
X016189Y006577D03*
X016282Y006445D03*
X016282Y006442D03*
D35*
X016281Y006448D03*
X016302Y006583D03*
X016305Y006589D03*
X016194Y006574D03*
D36*
X016198Y006571D03*
X016300Y006580D03*
X016279Y006454D03*
X016279Y006451D03*
X016435Y006817D03*
X016111Y007036D03*
D37*
X016117Y007030D03*
X016429Y006823D03*
X016279Y006457D03*
D38*
X016278Y006460D03*
X016278Y006463D03*
X016242Y007810D03*
D39*
X016120Y007027D03*
X016426Y006826D03*
X016276Y006466D03*
D40*
X016275Y006469D03*
X016275Y006472D03*
X016422Y006829D03*
D41*
X016123Y007024D03*
X016273Y006475D03*
X016240Y007807D03*
D42*
X016249Y006580D03*
X016273Y006478D03*
D43*
X016272Y006481D03*
X016272Y006484D03*
X016248Y006583D03*
X016248Y006586D03*
X016248Y006589D03*
X016248Y006592D03*
X016245Y006601D03*
X016416Y006835D03*
X016131Y007018D03*
X016242Y007804D03*
D44*
X016411Y006838D03*
X016240Y006625D03*
X016243Y006613D03*
X016243Y006610D03*
X016243Y006607D03*
X016243Y006604D03*
X016246Y006598D03*
X016246Y006595D03*
X016270Y006487D03*
D45*
X016269Y006490D03*
X016269Y006493D03*
X016242Y006616D03*
X016242Y006619D03*
X016242Y006622D03*
X016239Y006628D03*
X016239Y006631D03*
X016239Y006634D03*
X016236Y006646D03*
X016134Y007015D03*
X016242Y007801D03*
D46*
X016242Y007798D03*
X016140Y007009D03*
X016227Y006691D03*
X016230Y006679D03*
X016230Y006676D03*
X016230Y006673D03*
X016230Y006670D03*
X016233Y006664D03*
X016233Y006661D03*
X016269Y006496D03*
D47*
X016267Y006499D03*
X016267Y006502D03*
X016228Y006682D03*
X016228Y006685D03*
X016228Y006688D03*
X016225Y006694D03*
X016225Y006697D03*
X016225Y006700D03*
X016222Y006712D03*
X016405Y006844D03*
D48*
X016221Y006724D03*
X016221Y006721D03*
X016221Y006718D03*
X016221Y006715D03*
X016224Y006709D03*
X016224Y006706D03*
X016224Y006703D03*
X016266Y006505D03*
X016242Y007795D03*
D49*
X016216Y006745D03*
X016216Y006742D03*
X016216Y006739D03*
X016216Y006736D03*
X016219Y006730D03*
X016219Y006727D03*
X016264Y006511D03*
X016264Y006508D03*
D50*
X016264Y006514D03*
X016207Y006781D03*
X016207Y006784D03*
X016207Y006787D03*
X016207Y006790D03*
X016204Y006799D03*
X016204Y006802D03*
D51*
X016203Y006805D03*
X016203Y006808D03*
X016203Y006811D03*
X016200Y006823D03*
X016206Y006796D03*
X016206Y006793D03*
X016395Y006853D03*
X016371Y006931D03*
X016371Y006934D03*
X016152Y006997D03*
X016269Y006568D03*
X016263Y006517D03*
X016242Y007783D03*
X016242Y007786D03*
D52*
X016360Y006961D03*
X016363Y006952D03*
X016366Y006946D03*
X016366Y006943D03*
X016369Y006940D03*
X016369Y006937D03*
X016372Y006928D03*
X016195Y006844D03*
X016198Y006835D03*
X016198Y006832D03*
X016198Y006829D03*
X016198Y006826D03*
X016201Y006820D03*
X016201Y006817D03*
X016201Y006814D03*
X016261Y006523D03*
X016261Y006520D03*
D53*
X016260Y006526D03*
X016269Y006571D03*
X016269Y006574D03*
X016269Y006577D03*
X016197Y006838D03*
X016197Y006841D03*
X016194Y006847D03*
X016194Y006850D03*
X016194Y006853D03*
X016194Y006856D03*
X016191Y006865D03*
X016191Y006868D03*
X016155Y006994D03*
X016356Y006973D03*
X016359Y006967D03*
X016359Y006964D03*
X016362Y006958D03*
X016362Y006955D03*
X016365Y006949D03*
X016392Y006856D03*
X016242Y007780D03*
D54*
X016240Y007777D03*
X016348Y006994D03*
X016351Y006988D03*
X016351Y006985D03*
X016351Y006982D03*
X016354Y006979D03*
X016354Y006976D03*
X016357Y006970D03*
X016387Y006859D03*
X016192Y006862D03*
X016192Y006859D03*
X016189Y006871D03*
X016189Y006874D03*
X016189Y006877D03*
X016186Y006889D03*
X016258Y006529D03*
D55*
X016260Y006532D03*
X016188Y006880D03*
X016188Y006883D03*
X016188Y006886D03*
X016185Y006892D03*
X016185Y006895D03*
X016185Y006898D03*
X016185Y006901D03*
X016182Y006910D03*
X016158Y006991D03*
X016341Y007012D03*
X016341Y007015D03*
X016344Y007009D03*
X016344Y007006D03*
X016344Y007003D03*
X016347Y007000D03*
X016347Y006997D03*
X016350Y006991D03*
X016242Y007774D03*
D56*
X016333Y007036D03*
X016333Y007033D03*
X016336Y007027D03*
X016336Y007024D03*
X016339Y007021D03*
X016339Y007018D03*
X016384Y006862D03*
X016183Y006904D03*
X016183Y006907D03*
X016162Y006988D03*
X016258Y006535D03*
D57*
X016257Y006538D03*
X016257Y006541D03*
X016335Y007030D03*
X016332Y007039D03*
X016332Y007042D03*
X016329Y007045D03*
X016329Y007048D03*
X016326Y007054D03*
X016242Y007768D03*
X016242Y007771D03*
D58*
X016242Y007759D03*
X016296Y007138D03*
X016296Y007135D03*
X016299Y007129D03*
X016299Y007126D03*
X016302Y007123D03*
X016302Y007120D03*
X016170Y006979D03*
X016374Y006871D03*
X016254Y006553D03*
D59*
X016252Y006556D03*
X016372Y006874D03*
X016174Y006976D03*
X016297Y007132D03*
X016294Y007141D03*
X016294Y007144D03*
X016291Y007147D03*
X016291Y007150D03*
X016288Y007156D03*
X016285Y007165D03*
D60*
X016284Y007168D03*
X016284Y007171D03*
X016281Y007177D03*
X016287Y007162D03*
X016287Y007159D03*
X016290Y007153D03*
X016251Y006562D03*
X016251Y006559D03*
X016242Y007753D03*
X016242Y007756D03*
D61*
X016273Y007198D03*
X016276Y007192D03*
X016276Y007189D03*
X016276Y007186D03*
X016279Y007183D03*
X016279Y007180D03*
X016282Y007174D03*
X016177Y006973D03*
X016369Y006877D03*
X016249Y006565D03*
D62*
X016200Y006568D03*
X016431Y006820D03*
X016116Y007033D03*
D63*
X016188Y006580D03*
X016308Y006595D03*
X016308Y006598D03*
D64*
X016312Y006607D03*
X016183Y006583D03*
X016180Y006586D03*
X016105Y007042D03*
D65*
X016441Y006811D03*
X016309Y006601D03*
D66*
X016237Y006637D03*
X016237Y006640D03*
X016237Y006643D03*
X016234Y006649D03*
X016234Y006652D03*
X016234Y006655D03*
X016234Y006658D03*
X016231Y006667D03*
X016408Y006841D03*
X016135Y007012D03*
D67*
X016143Y007006D03*
X016218Y006733D03*
D68*
X016215Y006748D03*
X016215Y006751D03*
X016215Y006754D03*
X016398Y006850D03*
X016146Y007003D03*
D69*
X016213Y006757D03*
X016402Y006847D03*
D70*
X016209Y006778D03*
X016212Y006766D03*
X016212Y006763D03*
X016212Y006760D03*
X016242Y007789D03*
X016242Y007792D03*
D71*
X016323Y007063D03*
X015663Y006763D03*
D72*
X016150Y007000D03*
X016210Y006775D03*
X016210Y006772D03*
X016210Y006769D03*
D73*
X016419Y006832D03*
D74*
X016378Y006868D03*
X016312Y007093D03*
X016309Y007099D03*
X016309Y007102D03*
X016306Y007105D03*
X016306Y007108D03*
X016306Y007111D03*
X016303Y007114D03*
X016303Y007117D03*
X016168Y006982D03*
D75*
X016365Y006880D03*
X016275Y007195D03*
X016272Y007201D03*
X016272Y007204D03*
X016269Y007207D03*
X016269Y007210D03*
X016269Y007213D03*
X016266Y007216D03*
X016266Y007219D03*
X016242Y007747D03*
X016242Y007750D03*
D76*
X016242Y007744D03*
X016242Y007741D03*
X016251Y007258D03*
X016254Y007252D03*
X016254Y007249D03*
X016257Y007246D03*
X016257Y007243D03*
X016260Y007234D03*
X016185Y006967D03*
X016362Y006883D03*
D77*
X016359Y006886D03*
X016242Y007282D03*
X016242Y007285D03*
X016239Y007288D03*
X016239Y007291D03*
X016239Y007294D03*
X016242Y007738D03*
D78*
X016242Y007735D03*
X016242Y007732D03*
X016230Y007315D03*
X016356Y006889D03*
D79*
X016351Y006892D03*
X016192Y006958D03*
D80*
X016348Y006895D03*
D81*
X016345Y006898D03*
X016201Y006949D03*
X016240Y007720D03*
D82*
X016242Y007717D03*
X016341Y006901D03*
D83*
X016338Y006904D03*
D84*
X016335Y006907D03*
X016212Y006940D03*
X016242Y007705D03*
X016242Y007708D03*
D85*
X016330Y006910D03*
D86*
X016275Y006913D03*
X016275Y006916D03*
X016275Y006919D03*
D87*
X016273Y006922D03*
D88*
X016272Y006925D03*
D89*
X016224Y006928D03*
X016242Y007690D03*
X016242Y007693D03*
D90*
X016242Y007696D03*
X016221Y006931D03*
D91*
X016219Y006934D03*
X016240Y007699D03*
D92*
X016242Y007702D03*
X016215Y006937D03*
D93*
X016209Y006943D03*
X016242Y007711D03*
X016242Y007714D03*
D94*
X016204Y006946D03*
D95*
X016200Y006952D03*
X016242Y007723D03*
D96*
X016242Y007726D03*
X016242Y007729D03*
X016197Y006955D03*
D97*
X016189Y006961D03*
X016237Y007297D03*
X016234Y007303D03*
X016234Y007306D03*
X016231Y007309D03*
X016231Y007312D03*
X016228Y007318D03*
D98*
X016246Y007273D03*
X016246Y007270D03*
X016249Y007264D03*
X016249Y007261D03*
X016186Y006964D03*
D99*
X016180Y006970D03*
X016264Y007222D03*
X016264Y007225D03*
X016261Y007228D03*
X016261Y007231D03*
X016258Y007237D03*
X016258Y007240D03*
D100*
X016128Y007021D03*
D101*
X016093Y007054D03*
D102*
X016252Y007255D03*
X016243Y007279D03*
D103*
X016248Y007267D03*
D104*
X016245Y007276D03*
X016236Y007300D03*
D105*
X016014Y007372D03*
D106*
X016242Y007669D03*
X016242Y007672D03*
D107*
X016242Y007675D03*
X016242Y007678D03*
D108*
X016242Y007681D03*
D109*
X016242Y007684D03*
X016242Y007687D03*
D110*
X016135Y015216D02*
X016038Y015312D01*
X015941Y015216D01*
X015941Y015506D01*
X016135Y015506D02*
X016135Y015216D01*
X015813Y015264D02*
X015813Y015361D01*
X015764Y015409D01*
X015667Y015409D01*
X015619Y015361D01*
X015619Y015312D01*
X015813Y015312D01*
X015813Y015264D02*
X015764Y015216D01*
X015667Y015216D01*
X015490Y015216D02*
X015345Y015216D01*
X015297Y015264D01*
X015345Y015312D01*
X015442Y015312D01*
X015490Y015361D01*
X015442Y015409D01*
X015297Y015409D01*
X015168Y015409D02*
X015071Y015409D01*
X015120Y015457D02*
X015120Y015264D01*
X015071Y015216D01*
X014953Y015264D02*
X014953Y015361D01*
X014905Y015409D01*
X014808Y015409D01*
X014760Y015361D01*
X014760Y015264D01*
X014808Y015216D01*
X014905Y015216D01*
X014953Y015264D01*
X014631Y015216D02*
X014631Y015409D01*
X014486Y015409D01*
X014438Y015361D01*
X014438Y015216D01*
X014309Y015119D02*
X014212Y015216D01*
X014260Y015216D01*
X014260Y015264D01*
X014212Y015264D01*
X014212Y015216D01*
X013772Y015216D02*
X013578Y015409D01*
X013578Y015457D01*
X013627Y015506D01*
X013723Y015506D01*
X013772Y015457D01*
X013772Y015216D02*
X013578Y015216D01*
X013449Y015264D02*
X013256Y015457D01*
X013256Y015264D01*
X013304Y015216D01*
X013401Y015216D01*
X013449Y015264D01*
X013449Y015457D01*
X013401Y015506D01*
X013304Y015506D01*
X013256Y015457D01*
X013127Y015409D02*
X013030Y015506D01*
X013030Y015216D01*
X012934Y015216D02*
X013127Y015216D01*
X012805Y015216D02*
X012611Y015409D01*
X012611Y015457D01*
X012660Y015506D01*
X012757Y015506D01*
X012805Y015457D01*
X012805Y015216D02*
X012611Y015216D01*
X016586Y015312D02*
X016779Y015312D01*
X016779Y015264D02*
X016779Y015361D01*
X016731Y015409D01*
X016634Y015409D01*
X016586Y015361D01*
X016586Y015312D01*
X016634Y015216D02*
X016731Y015216D01*
X016779Y015264D01*
X016903Y015216D02*
X017048Y015312D01*
X016903Y015409D01*
X017048Y015506D02*
X017048Y015216D01*
X017177Y015216D02*
X017177Y015409D01*
X017370Y015409D02*
X017370Y015264D01*
X017322Y015216D01*
X017177Y015216D01*
X017499Y015216D02*
X017692Y015216D01*
X017692Y015506D01*
X018143Y015409D02*
X018143Y015167D01*
X018192Y015119D01*
X018240Y015119D01*
X018288Y015216D02*
X018143Y015216D01*
X018288Y015216D02*
X018337Y015264D01*
X018337Y015409D01*
X018466Y015361D02*
X018514Y015409D01*
X018659Y015409D01*
X018659Y015506D02*
X018659Y015216D01*
X018514Y015216D01*
X018466Y015264D01*
X018466Y015361D01*
D111*
X018654Y013051D02*
X018654Y012721D01*
X018709Y012721D02*
X018599Y012721D01*
X018463Y012776D02*
X018408Y012721D01*
X018298Y012721D01*
X018243Y012831D02*
X018463Y012831D01*
X018463Y012886D02*
X018408Y012941D01*
X018298Y012941D01*
X018243Y012886D01*
X018243Y012831D01*
X018095Y012776D02*
X018040Y012831D01*
X017875Y012831D01*
X017875Y012886D02*
X017875Y012721D01*
X018040Y012721D01*
X018095Y012776D01*
X018040Y012941D02*
X017930Y012941D01*
X017875Y012886D01*
X017727Y012886D02*
X017672Y012941D01*
X017506Y012941D01*
X017562Y012831D02*
X017672Y012831D01*
X017727Y012886D01*
X017727Y012721D02*
X017562Y012721D01*
X017506Y012776D01*
X017562Y012831D01*
X017358Y012831D02*
X017138Y012831D01*
X017138Y012886D01*
X017193Y012941D01*
X017303Y012941D01*
X017358Y012886D01*
X017358Y012776D01*
X017303Y012721D01*
X017193Y012721D01*
X016990Y012776D02*
X016990Y012886D01*
X016935Y012941D01*
X016770Y012941D01*
X016770Y013051D02*
X016770Y012721D01*
X016935Y012721D01*
X016990Y012776D01*
X016779Y012551D02*
X016779Y012221D01*
X016559Y012221D01*
X016411Y012221D02*
X016301Y012221D01*
X016356Y012221D02*
X016356Y012441D01*
X016411Y012441D01*
X016356Y012551D02*
X016356Y012606D01*
X016198Y012721D02*
X016033Y012721D01*
X016033Y012941D01*
X015885Y012941D02*
X015720Y012941D01*
X015665Y012886D01*
X015665Y012721D01*
X015517Y012776D02*
X015517Y012886D01*
X015462Y012941D01*
X015297Y012941D01*
X015297Y013051D02*
X015297Y012721D01*
X015462Y012721D01*
X015517Y012776D01*
X015149Y012776D02*
X015093Y012721D01*
X014983Y012721D01*
X014928Y012831D02*
X015149Y012831D01*
X015149Y012886D02*
X015093Y012941D01*
X014983Y012941D01*
X014928Y012886D01*
X014928Y012831D01*
X014780Y012831D02*
X014670Y012941D01*
X014615Y012941D01*
X014780Y012941D02*
X014780Y012721D01*
X014840Y012441D02*
X015005Y012441D01*
X015060Y012386D01*
X015005Y012331D01*
X014895Y012331D01*
X014840Y012276D01*
X014895Y012221D01*
X015060Y012221D01*
X015208Y012221D02*
X015208Y012386D01*
X015264Y012441D01*
X015429Y012441D01*
X015429Y012221D01*
X015577Y012331D02*
X015797Y012331D01*
X015797Y012276D02*
X015797Y012386D01*
X015742Y012441D01*
X015632Y012441D01*
X015577Y012386D01*
X015577Y012331D01*
X015632Y012221D02*
X015742Y012221D01*
X015797Y012276D01*
X015945Y012221D02*
X016110Y012221D01*
X016165Y012276D01*
X016165Y012386D01*
X016110Y012441D01*
X015945Y012441D01*
X015885Y012721D02*
X015885Y012941D01*
X016253Y012941D02*
X016253Y012776D01*
X016198Y012721D01*
X017296Y012386D02*
X017296Y012331D01*
X017516Y012331D01*
X017516Y012276D02*
X017516Y012386D01*
X017461Y012441D01*
X017351Y012441D01*
X017296Y012386D01*
X017351Y012221D02*
X017461Y012221D01*
X017516Y012276D01*
X017657Y012441D02*
X017712Y012441D01*
X017823Y012331D01*
X017823Y012221D02*
X017823Y012441D01*
X017971Y012386D02*
X017971Y012221D01*
X018136Y012221D01*
X018191Y012276D01*
X018136Y012331D01*
X017971Y012331D01*
X017971Y012386D02*
X018026Y012441D01*
X018136Y012441D01*
X018339Y012441D02*
X018339Y012276D01*
X018394Y012221D01*
X018449Y012276D01*
X018504Y012221D01*
X018559Y012276D01*
X018559Y012441D01*
X018707Y012441D02*
X018872Y012441D01*
X018927Y012386D01*
X018927Y012276D01*
X018872Y012221D01*
X018707Y012221D01*
X018707Y012551D01*
X018912Y012721D02*
X019022Y012721D01*
X019077Y012776D01*
X019077Y012886D01*
X019022Y012941D01*
X018912Y012941D01*
X018857Y012886D01*
X018857Y012831D01*
X019077Y012831D01*
X019219Y012941D02*
X019274Y012941D01*
X019384Y012831D01*
X019384Y012721D02*
X019384Y012941D01*
X019438Y012441D02*
X019383Y012386D01*
X019383Y012221D01*
X019548Y012221D01*
X019603Y012276D01*
X019548Y012331D01*
X019383Y012331D01*
X019438Y012441D02*
X019548Y012441D01*
X019751Y012386D02*
X019971Y012386D01*
X019971Y012221D02*
X019971Y012551D01*
X019751Y012551D02*
X019751Y012221D01*
X019234Y012221D02*
X019234Y012441D01*
X019124Y012441D02*
X019069Y012441D01*
X019124Y012441D02*
X019234Y012331D01*
X019900Y012886D02*
X020121Y012886D01*
X020637Y012886D02*
X020637Y012831D01*
X020857Y012831D01*
X020857Y012886D02*
X020802Y012941D01*
X020692Y012941D01*
X020637Y012886D01*
X020692Y012721D02*
X020802Y012721D01*
X020857Y012776D01*
X020857Y012886D01*
X020999Y012941D02*
X021054Y012941D01*
X021164Y012831D01*
X021164Y012721D02*
X021164Y012941D01*
X021312Y012886D02*
X021312Y012721D01*
X021477Y012721D01*
X021532Y012776D01*
X021477Y012831D01*
X021312Y012831D01*
X021312Y012886D02*
X021367Y012941D01*
X021477Y012941D01*
X021681Y012941D02*
X021681Y012776D01*
X021736Y012721D01*
X021791Y012776D01*
X021846Y012721D01*
X021901Y012776D01*
X021901Y012941D01*
X022049Y012941D02*
X022214Y012941D01*
X022269Y012886D01*
X022269Y012776D01*
X022214Y012721D01*
X022049Y012721D01*
X022049Y013051D01*
X022411Y012941D02*
X022466Y012941D01*
X022576Y012831D01*
X022576Y012721D02*
X022576Y012941D01*
X022724Y012886D02*
X022724Y012721D01*
X022889Y012721D01*
X022944Y012776D01*
X022889Y012831D01*
X022724Y012831D01*
X022724Y012886D02*
X022779Y012941D01*
X022889Y012941D01*
X023092Y012886D02*
X023313Y012886D01*
X023313Y012721D02*
X023313Y013051D01*
X023092Y013051D02*
X023092Y012721D01*
X023066Y012551D02*
X023286Y012551D01*
X023286Y012221D01*
X023066Y012221D01*
X022917Y012221D02*
X022917Y012551D01*
X022752Y012551D01*
X022697Y012496D01*
X022697Y012386D01*
X022752Y012331D01*
X022917Y012331D01*
X022807Y012331D02*
X022697Y012221D01*
X022549Y012221D02*
X022549Y012551D01*
X022329Y012221D01*
X022329Y012551D01*
X021813Y012496D02*
X021813Y012276D01*
X021757Y012221D01*
X021647Y012221D01*
X021592Y012276D01*
X021592Y012496D01*
X021647Y012551D01*
X021757Y012551D01*
X021813Y012496D01*
X021444Y012441D02*
X021279Y012441D01*
X021224Y012386D01*
X021224Y012276D01*
X021279Y012221D01*
X021444Y012221D01*
X021444Y012111D02*
X021444Y012441D01*
X021076Y012386D02*
X021076Y012276D01*
X021021Y012221D01*
X020911Y012221D01*
X020856Y012331D02*
X021076Y012331D01*
X021076Y012386D02*
X021021Y012441D01*
X020911Y012441D01*
X020856Y012386D01*
X020856Y012331D01*
X020708Y012441D02*
X020542Y012441D01*
X020487Y012386D01*
X020487Y012221D01*
X020708Y012221D02*
X020708Y012441D01*
X018709Y013051D02*
X018654Y013051D01*
X018463Y012886D02*
X018463Y012776D01*
X015149Y012776D02*
X015149Y012886D01*
X014692Y012386D02*
X014637Y012441D01*
X014527Y012441D01*
X014472Y012386D01*
X014472Y012331D01*
X014692Y012331D01*
X014692Y012276D02*
X014692Y012386D01*
X014692Y012276D02*
X014637Y012221D01*
X014527Y012221D01*
X013995Y012721D02*
X014050Y012776D01*
X014050Y012996D01*
X014105Y012941D02*
X013995Y012941D01*
X013859Y012886D02*
X013804Y012941D01*
X013694Y012941D01*
X013639Y012886D01*
X013639Y012721D01*
X013491Y012776D02*
X013491Y012886D01*
X013436Y012941D01*
X013326Y012941D01*
X013271Y012886D01*
X013271Y012831D01*
X013491Y012831D01*
X013491Y012776D02*
X013436Y012721D01*
X013326Y012721D01*
X013859Y012721D02*
X013859Y013051D01*
X023176Y012386D02*
X023286Y012386D01*
X023434Y012496D02*
X023489Y012551D01*
X023599Y012551D01*
X023654Y012496D01*
X023654Y012276D01*
X023599Y012221D01*
X023489Y012221D01*
X023434Y012276D01*
X023829Y012721D02*
X023829Y012886D01*
X023884Y012941D01*
X024049Y012941D01*
X024049Y012721D01*
X024197Y012831D02*
X024417Y012831D01*
X024417Y012886D02*
X024362Y012941D01*
X024252Y012941D01*
X024197Y012886D01*
X024197Y012831D01*
X024252Y012721D02*
X024362Y012721D01*
X024417Y012776D01*
X024417Y012886D01*
X024566Y012886D02*
X024566Y012776D01*
X024621Y012721D01*
X024786Y012721D01*
X024786Y012611D02*
X024786Y012941D01*
X024621Y012941D01*
X024566Y012886D01*
X024934Y012996D02*
X024989Y013051D01*
X025099Y013051D01*
X025154Y012996D01*
X025154Y012776D01*
X025099Y012721D01*
X024989Y012721D01*
X024934Y012776D01*
X024934Y012996D01*
D112*
X020525Y013864D02*
X020335Y013844D01*
X020314Y013780D01*
X020283Y013720D01*
X020404Y013572D01*
X020303Y013470D01*
X020154Y013591D01*
X020094Y013560D01*
X020010Y013765D01*
X020048Y013786D01*
X020079Y013816D01*
X020104Y013852D01*
X020119Y013893D01*
X020525Y013893D01*
X020525Y013864D02*
X020525Y014008D01*
X020335Y014027D01*
X020314Y014091D01*
X020283Y014151D01*
X020404Y014299D01*
X020303Y014401D01*
X020154Y014280D01*
X020094Y014311D01*
X020030Y014331D01*
X020011Y014522D01*
X019867Y014522D01*
X019848Y014331D01*
X019784Y014311D01*
X019724Y014280D01*
X019575Y014401D01*
X019474Y014299D01*
X019595Y014151D01*
X019564Y014091D01*
X019543Y014027D01*
X019353Y014008D01*
X019353Y013864D01*
X019543Y013844D01*
X019564Y013780D01*
X019595Y013720D01*
X019474Y013572D01*
X019575Y013470D01*
X019724Y013591D01*
X019784Y013560D01*
X019868Y013765D01*
X019830Y013787D01*
X019798Y013817D01*
X019774Y013854D01*
X019759Y013896D01*
X019755Y013940D01*
X019761Y013983D01*
X019777Y014024D01*
X019803Y014060D01*
X019837Y014089D01*
X019876Y014109D01*
X019919Y014119D01*
X019963Y014119D01*
X020006Y014108D01*
X020045Y014087D01*
X020078Y014057D01*
X020103Y014021D01*
X020118Y013979D01*
X020124Y013936D01*
X020119Y013893D01*
X020122Y013950D02*
X020525Y013950D01*
X020521Y014008D02*
X020108Y014008D01*
X020069Y014066D02*
X020322Y014066D01*
X020298Y014123D02*
X019581Y014123D01*
X019570Y014181D02*
X020308Y014181D01*
X020355Y014238D02*
X019523Y014238D01*
X019476Y014296D02*
X019704Y014296D01*
X019755Y014296D02*
X020123Y014296D01*
X020174Y014296D02*
X020402Y014296D01*
X020350Y014354D02*
X020245Y014354D01*
X020028Y014354D02*
X019850Y014354D01*
X019856Y014411D02*
X020022Y014411D01*
X020016Y014469D02*
X019862Y014469D01*
X019634Y014354D02*
X019528Y014354D01*
X019556Y014066D02*
X019809Y014066D01*
X019771Y014008D02*
X019357Y014008D01*
X019353Y013950D02*
X019756Y013950D01*
X019760Y013893D02*
X019353Y013893D01*
X019546Y013835D02*
X019786Y013835D01*
X019846Y013778D02*
X019565Y013778D01*
X019594Y013720D02*
X019850Y013720D01*
X019826Y013662D02*
X019547Y013662D01*
X019500Y013605D02*
X019802Y013605D01*
X019670Y013547D02*
X019499Y013547D01*
X019556Y013490D02*
X019599Y013490D01*
X020052Y013662D02*
X020331Y013662D01*
X020378Y013605D02*
X020076Y013605D01*
X020028Y013720D02*
X020284Y013720D01*
X020313Y013778D02*
X020032Y013778D01*
X020092Y013835D02*
X020332Y013835D01*
X020380Y013547D02*
X020208Y013547D01*
X020279Y013490D02*
X020322Y013490D01*
M02*
