G75*
G70*
%OFA0B0*%
%FSLAX24Y24*%
%IPPOS*%
%LPD*%
%AMOC8*
5,1,8,0,0,1.08239X$1,22.5*
%
%ADD10C,0.0000*%
%ADD11R,0.0630X0.0512*%
%ADD12R,0.0433X0.0748*%
%ADD13R,0.0512X0.0630*%
%ADD14R,0.0500X0.0220*%
%ADD15R,0.0220X0.0500*%
%ADD16R,0.0669X0.0335*%
%ADD17R,0.0472X0.0472*%
%ADD18C,0.0394*%
%ADD19C,0.0760*%
%ADD20R,0.0354X0.0315*%
%ADD21C,0.0500*%
%ADD22R,0.0590X0.0790*%
%ADD23R,0.1500X0.0790*%
%ADD24C,0.0475*%
%ADD25C,0.0740*%
%ADD26OC8,0.0630*%
%ADD27C,0.0630*%
%ADD28C,0.0650*%
%ADD29R,0.0236X0.0472*%
%ADD30C,0.0660*%
%ADD31C,0.1640*%
%ADD32R,0.0630X0.0787*%
%ADD33C,0.1000*%
%ADD34R,0.0327X0.0248*%
%ADD35R,0.0248X0.0327*%
%ADD36R,0.0787X0.0591*%
%ADD37R,0.0669X0.0709*%
%ADD38R,0.0827X0.0591*%
%ADD39R,0.0709X0.0551*%
%ADD40C,0.0160*%
%ADD41C,0.0240*%
%ADD42C,0.0436*%
%ADD43C,0.0397*%
%ADD44C,0.0100*%
%ADD45C,0.0320*%
%ADD46C,0.0120*%
%ADD47C,0.0400*%
%ADD48C,0.1700*%
%ADD49C,0.1500*%
D10*
X000683Y002681D02*
X000796Y002684D01*
X000909Y002682D01*
X001022Y002674D01*
X001135Y002661D01*
X001246Y002643D01*
X001357Y002620D01*
X001467Y002591D01*
X001575Y002557D01*
X001681Y002518D01*
X001785Y002474D01*
X001887Y002425D01*
X001987Y002371D01*
X002084Y002313D01*
X002178Y002250D01*
X002269Y002183D01*
X002356Y002111D01*
X002440Y002035D01*
X002521Y001956D01*
X002597Y001872D01*
X002670Y001785D01*
X002738Y001695D01*
X002802Y001602D01*
X002861Y001505D01*
X002916Y001406D01*
X002966Y001305D01*
X003011Y001201D01*
X003051Y001095D01*
X003086Y000987D01*
X003116Y000878D01*
X003141Y000768D01*
X003160Y000656D01*
X003174Y000544D01*
X003183Y000431D01*
X023183Y000431D01*
X024683Y001181D02*
X025433Y001931D01*
X025933Y001931D01*
X025993Y001933D01*
X026054Y001938D01*
X026113Y001947D01*
X026172Y001960D01*
X026231Y001976D01*
X026288Y001996D01*
X026343Y002019D01*
X026398Y002046D01*
X026450Y002075D01*
X026501Y002108D01*
X026550Y002144D01*
X026596Y002182D01*
X026640Y002224D01*
X026682Y002268D01*
X026720Y002314D01*
X026756Y002363D01*
X026789Y002414D01*
X026818Y002466D01*
X026845Y002521D01*
X026868Y002576D01*
X026888Y002633D01*
X026904Y002692D01*
X026917Y002751D01*
X026926Y002810D01*
X026931Y002871D01*
X026933Y002931D01*
X026933Y017181D01*
X024933Y019181D01*
X003933Y019181D01*
X003931Y019127D01*
X003925Y019074D01*
X003916Y019022D01*
X003903Y018970D01*
X003886Y018919D01*
X003865Y018869D01*
X003841Y018822D01*
X003814Y018776D01*
X003783Y018732D01*
X003750Y018690D01*
X003713Y018651D01*
X003674Y018614D01*
X003632Y018581D01*
X003588Y018550D01*
X003542Y018523D01*
X003495Y018499D01*
X003445Y018478D01*
X003394Y018461D01*
X003342Y018448D01*
X003290Y018439D01*
X003237Y018433D01*
X003183Y018431D01*
X001933Y018431D01*
X001382Y017431D02*
X001384Y017478D01*
X001390Y017524D01*
X001400Y017570D01*
X001413Y017615D01*
X001431Y017658D01*
X001452Y017700D01*
X001476Y017740D01*
X001504Y017777D01*
X001535Y017812D01*
X001569Y017845D01*
X001605Y017874D01*
X001644Y017900D01*
X001685Y017923D01*
X001728Y017942D01*
X001772Y017958D01*
X001817Y017970D01*
X001863Y017978D01*
X001910Y017982D01*
X001956Y017982D01*
X002003Y017978D01*
X002049Y017970D01*
X002094Y017958D01*
X002138Y017942D01*
X002181Y017923D01*
X002222Y017900D01*
X002261Y017874D01*
X002297Y017845D01*
X002331Y017812D01*
X002362Y017777D01*
X002390Y017740D01*
X002414Y017700D01*
X002435Y017658D01*
X002453Y017615D01*
X002466Y017570D01*
X002476Y017524D01*
X002482Y017478D01*
X002484Y017431D01*
X002482Y017384D01*
X002476Y017338D01*
X002466Y017292D01*
X002453Y017247D01*
X002435Y017204D01*
X002414Y017162D01*
X002390Y017122D01*
X002362Y017085D01*
X002331Y017050D01*
X002297Y017017D01*
X002261Y016988D01*
X002222Y016962D01*
X002181Y016939D01*
X002138Y016920D01*
X002094Y016904D01*
X002049Y016892D01*
X002003Y016884D01*
X001956Y016880D01*
X001910Y016880D01*
X001863Y016884D01*
X001817Y016892D01*
X001772Y016904D01*
X001728Y016920D01*
X001685Y016939D01*
X001644Y016962D01*
X001605Y016988D01*
X001569Y017017D01*
X001535Y017050D01*
X001504Y017085D01*
X001476Y017122D01*
X001452Y017162D01*
X001431Y017204D01*
X001413Y017247D01*
X001400Y017292D01*
X001390Y017338D01*
X001384Y017384D01*
X001382Y017431D01*
X000683Y017181D02*
X000685Y017249D01*
X000690Y017316D01*
X000699Y017383D01*
X000712Y017450D01*
X000729Y017515D01*
X000748Y017580D01*
X000772Y017644D01*
X000799Y017706D01*
X000829Y017767D01*
X000862Y017825D01*
X000898Y017882D01*
X000938Y017937D01*
X000980Y017990D01*
X001026Y018041D01*
X001073Y018088D01*
X001124Y018134D01*
X001177Y018176D01*
X001232Y018216D01*
X001289Y018252D01*
X001347Y018285D01*
X001408Y018315D01*
X001470Y018342D01*
X001534Y018366D01*
X001599Y018385D01*
X001664Y018402D01*
X001731Y018415D01*
X001798Y018424D01*
X001865Y018429D01*
X001933Y018431D01*
X000683Y017181D02*
X000683Y002681D01*
X023183Y000431D02*
X023274Y000433D01*
X023366Y000440D01*
X023457Y000451D01*
X023547Y000467D01*
X023636Y000487D01*
X023724Y000511D01*
X023811Y000539D01*
X023897Y000572D01*
X023980Y000609D01*
X024062Y000650D01*
X024142Y000695D01*
X024219Y000743D01*
X024294Y000796D01*
X024367Y000852D01*
X024436Y000911D01*
X024503Y000974D01*
X024566Y001040D01*
X024626Y001109D01*
X024683Y001181D01*
X025933Y001931D02*
X025993Y001933D01*
X026054Y001938D01*
X026113Y001947D01*
X026172Y001960D01*
X026231Y001976D01*
X026288Y001996D01*
X026343Y002019D01*
X026398Y002046D01*
X026450Y002075D01*
X026501Y002108D01*
X026550Y002144D01*
X026596Y002182D01*
X026640Y002224D01*
X026682Y002268D01*
X026720Y002314D01*
X026756Y002363D01*
X026789Y002414D01*
X026818Y002466D01*
X026845Y002521D01*
X026868Y002576D01*
X026888Y002633D01*
X026904Y002692D01*
X026917Y002751D01*
X026926Y002810D01*
X026931Y002871D01*
X026933Y002931D01*
X025382Y002931D02*
X025384Y002978D01*
X025390Y003024D01*
X025400Y003070D01*
X025413Y003115D01*
X025431Y003158D01*
X025452Y003200D01*
X025476Y003240D01*
X025504Y003277D01*
X025535Y003312D01*
X025569Y003345D01*
X025605Y003374D01*
X025644Y003400D01*
X025685Y003423D01*
X025728Y003442D01*
X025772Y003458D01*
X025817Y003470D01*
X025863Y003478D01*
X025910Y003482D01*
X025956Y003482D01*
X026003Y003478D01*
X026049Y003470D01*
X026094Y003458D01*
X026138Y003442D01*
X026181Y003423D01*
X026222Y003400D01*
X026261Y003374D01*
X026297Y003345D01*
X026331Y003312D01*
X026362Y003277D01*
X026390Y003240D01*
X026414Y003200D01*
X026435Y003158D01*
X026453Y003115D01*
X026466Y003070D01*
X026476Y003024D01*
X026482Y002978D01*
X026484Y002931D01*
X026482Y002884D01*
X026476Y002838D01*
X026466Y002792D01*
X026453Y002747D01*
X026435Y002704D01*
X026414Y002662D01*
X026390Y002622D01*
X026362Y002585D01*
X026331Y002550D01*
X026297Y002517D01*
X026261Y002488D01*
X026222Y002462D01*
X026181Y002439D01*
X026138Y002420D01*
X026094Y002404D01*
X026049Y002392D01*
X026003Y002384D01*
X025956Y002380D01*
X025910Y002380D01*
X025863Y002384D01*
X025817Y002392D01*
X025772Y002404D01*
X025728Y002420D01*
X025685Y002439D01*
X025644Y002462D01*
X025605Y002488D01*
X025569Y002517D01*
X025535Y002550D01*
X025504Y002585D01*
X025476Y002622D01*
X025452Y002662D01*
X025431Y002704D01*
X025413Y002747D01*
X025400Y002792D01*
X025390Y002838D01*
X025384Y002884D01*
X025382Y002931D01*
D11*
X012558Y002557D03*
X012558Y003305D03*
X011621Y003325D03*
X010683Y003325D03*
X010683Y002538D03*
X011621Y002538D03*
X009308Y006932D03*
X009308Y007680D03*
X007058Y008663D03*
X007058Y009450D03*
X004058Y007680D03*
X004058Y006932D03*
X001496Y005805D03*
X001496Y005057D03*
X004121Y002555D03*
X005058Y002825D03*
X005058Y002038D03*
X004121Y001807D03*
X008933Y013495D03*
X008933Y014243D03*
X009808Y014870D03*
X009808Y015618D03*
X008808Y016057D03*
X008808Y016805D03*
X006121Y016993D03*
X006121Y016245D03*
X003273Y016895D03*
X003273Y017683D03*
X012058Y016305D03*
X012058Y015557D03*
X012058Y014700D03*
X012058Y013913D03*
X018433Y015307D03*
X018433Y016055D03*
D12*
X004136Y005035D03*
X003231Y005035D03*
X003231Y003578D03*
X004136Y003578D03*
D13*
X004077Y005994D03*
X003290Y005994D03*
X006665Y011181D03*
X007452Y011181D03*
X007247Y013431D03*
X007995Y013431D03*
X007807Y016181D03*
X007059Y016181D03*
X007040Y017181D03*
X007827Y017181D03*
X007557Y018181D03*
X006809Y018181D03*
X004870Y017056D03*
X004122Y017056D03*
X010309Y016556D03*
X011057Y016556D03*
X013559Y006931D03*
X014307Y006931D03*
X014327Y005806D03*
X013540Y005806D03*
D14*
X008623Y005719D03*
X008623Y006034D03*
X008623Y005404D03*
X008623Y005089D03*
X008623Y004774D03*
X008623Y004459D03*
X008623Y004144D03*
X008623Y003829D03*
X005243Y003829D03*
X005243Y004144D03*
X005243Y004459D03*
X005243Y004774D03*
X005243Y005089D03*
X005243Y005404D03*
X005243Y005719D03*
X005243Y006034D03*
D15*
X005831Y006621D03*
X006146Y006621D03*
X006461Y006621D03*
X006776Y006621D03*
X007091Y006621D03*
X007406Y006621D03*
X007721Y006621D03*
X008036Y006621D03*
X008036Y003241D03*
X007721Y003241D03*
X007406Y003241D03*
X007091Y003241D03*
X006776Y003241D03*
X006461Y003241D03*
X006146Y003241D03*
X005831Y003241D03*
D16*
X005943Y008719D03*
X004762Y009506D03*
X005943Y010294D03*
X004762Y011081D03*
X005943Y011868D03*
X004762Y012656D03*
X005943Y013443D03*
X004762Y014231D03*
X005943Y015018D03*
X004762Y015805D03*
X013424Y015805D03*
X014605Y015018D03*
X013424Y014231D03*
X014605Y013443D03*
X013424Y012656D03*
X014605Y011868D03*
X013424Y011081D03*
X014605Y010294D03*
X013424Y009506D03*
X014605Y008719D03*
D17*
X014597Y017181D03*
X013770Y017181D03*
X002371Y004095D03*
X001558Y004095D03*
X001558Y003268D03*
X002371Y003268D03*
D18*
X010433Y006681D03*
X016683Y011931D03*
X013433Y015056D03*
D19*
X016683Y017931D03*
X014683Y018181D03*
X013683Y018181D03*
X010683Y018181D03*
X009683Y018181D03*
X008683Y018181D03*
X005683Y018181D03*
X004683Y018181D03*
X016683Y010931D03*
X010933Y001431D03*
X009933Y001431D03*
X008933Y001431D03*
X007933Y001431D03*
X006933Y001431D03*
X005933Y001431D03*
D20*
X010540Y012307D03*
X011366Y012681D03*
X010540Y013055D03*
X010540Y014057D03*
X011366Y014431D03*
X010540Y014805D03*
D21*
X002121Y010119D03*
X002121Y009431D03*
X002121Y008744D03*
D22*
X009356Y008754D03*
X010256Y008754D03*
X011156Y008754D03*
D23*
X010246Y011234D03*
D24*
X003096Y007369D03*
X001521Y007369D03*
D25*
X003433Y010931D03*
X003433Y011931D03*
X003433Y012931D03*
X003433Y013931D03*
X003433Y014931D03*
X003433Y015931D03*
D26*
X011433Y005294D03*
D27*
X011433Y006694D03*
D28*
X017359Y005431D02*
X018008Y005431D01*
X025359Y005431D02*
X026008Y005431D01*
D29*
X007807Y014292D03*
X007433Y014292D03*
X007059Y014292D03*
X007059Y015321D03*
X007807Y015321D03*
D30*
X018933Y010511D02*
X018933Y009851D01*
X018933Y007511D02*
X018933Y006851D01*
X022933Y006851D02*
X022933Y007511D01*
X025933Y007511D02*
X025933Y006851D01*
D31*
X023933Y002931D03*
X024933Y011931D03*
X024933Y014431D03*
X022433Y014431D03*
X019933Y014431D03*
X019933Y016931D03*
X022433Y016931D03*
X024933Y016931D03*
D32*
X022422Y011931D03*
X021320Y011931D03*
X020235Y011931D03*
X019132Y011931D03*
X016922Y006931D03*
X015820Y006931D03*
D33*
X015833Y003431D02*
X015833Y002431D01*
X013833Y002431D02*
X013833Y003431D01*
X020033Y003431D02*
X020033Y002431D01*
X022033Y002431D02*
X022033Y003431D01*
D34*
X009871Y003916D03*
X009871Y004822D03*
D35*
X008136Y012619D03*
X007231Y012619D03*
D36*
X008183Y009772D03*
X008183Y008591D03*
D37*
X015808Y008374D03*
X015808Y009989D03*
D38*
X017246Y009890D03*
X017246Y008473D03*
D39*
X012308Y008762D03*
X012308Y010101D03*
D40*
X012308Y012306D01*
X011933Y012681D01*
X011366Y012681D01*
X010949Y012706D02*
X010865Y012706D01*
X010853Y012694D02*
X010920Y012762D01*
X010949Y012832D01*
X010949Y012476D01*
X010986Y012388D01*
X011053Y012320D01*
X011142Y012284D01*
X011591Y012284D01*
X011680Y012320D01*
X011721Y012361D01*
X011801Y012361D01*
X011988Y012174D01*
X011988Y010616D01*
X011906Y010616D01*
X011818Y010580D01*
X011751Y010512D01*
X011714Y010424D01*
X011714Y009777D01*
X011751Y009689D01*
X011818Y009622D01*
X011906Y009585D01*
X012710Y009585D01*
X012799Y009622D01*
X012849Y009672D01*
X012849Y009291D01*
X012885Y009203D01*
X012953Y009135D01*
X013041Y009099D01*
X013806Y009099D01*
X013894Y009135D01*
X013962Y009203D01*
X013998Y009291D01*
X013998Y009721D01*
X013962Y009809D01*
X013894Y009877D01*
X013806Y009914D01*
X013557Y009914D01*
X013568Y009918D01*
X013697Y010047D01*
X013766Y010215D01*
X013766Y010398D01*
X013697Y010566D01*
X013589Y010674D01*
X013806Y010674D01*
X013894Y010710D01*
X013962Y010778D01*
X013998Y010866D01*
X013998Y011296D01*
X013962Y011384D01*
X013894Y011452D01*
X013806Y011488D01*
X013041Y011488D01*
X012953Y011452D01*
X012885Y011384D01*
X012849Y011296D01*
X012849Y010866D01*
X012885Y010778D01*
X012953Y010710D01*
X013032Y010678D01*
X012920Y010566D01*
X012893Y010501D01*
X012871Y010501D01*
X012866Y010512D01*
X012799Y010580D01*
X012710Y010616D01*
X012628Y010616D01*
X012628Y012243D01*
X012628Y012370D01*
X012580Y012488D01*
X012205Y012863D01*
X012115Y012953D01*
X011997Y013001D01*
X011721Y013001D01*
X011680Y013042D01*
X011591Y013079D01*
X011142Y013079D01*
X011053Y013042D01*
X010986Y012975D01*
X010957Y012905D01*
X010957Y013261D01*
X010920Y013349D01*
X010853Y013416D01*
X010765Y013453D01*
X010315Y013453D01*
X010300Y013447D01*
X010309Y013469D01*
X010309Y013644D01*
X010250Y013786D01*
X010264Y013772D01*
X010301Y013751D01*
X010341Y013740D01*
X010539Y013740D01*
X010539Y014057D01*
X010203Y014057D01*
X010203Y013879D01*
X010213Y013838D01*
X010219Y013828D01*
X010119Y013928D01*
X009958Y013995D01*
X009885Y013995D01*
X009878Y014001D01*
X009878Y014049D01*
X009971Y014141D01*
X010203Y014141D01*
X010203Y014058D01*
X010539Y014058D01*
X010539Y014057D01*
X010540Y014057D01*
X010540Y014058D01*
X010877Y014058D01*
X010877Y014141D01*
X010984Y014141D01*
X010986Y014138D01*
X011053Y014070D01*
X011142Y014034D01*
X011503Y014034D01*
X011503Y013609D01*
X011540Y013521D01*
X011607Y013453D01*
X011696Y013417D01*
X012102Y013417D01*
X012347Y013172D01*
X012464Y013123D01*
X012592Y013123D01*
X014083Y013123D01*
X014134Y013072D01*
X014222Y013036D01*
X014987Y013036D01*
X015075Y013072D01*
X015143Y013140D01*
X015179Y013228D01*
X015179Y013658D01*
X015143Y013746D01*
X015075Y013814D01*
X014987Y013851D01*
X014222Y013851D01*
X014134Y013814D01*
X014083Y013763D01*
X012660Y013763D01*
X012613Y013810D01*
X012613Y014216D01*
X012577Y014305D01*
X012575Y014306D01*
X012577Y014308D01*
X012613Y014396D01*
X012613Y015004D01*
X012577Y015092D01*
X012540Y015129D01*
X012577Y015166D01*
X012613Y015254D01*
X012613Y015861D01*
X012577Y015949D01*
X012526Y016000D01*
X012533Y016028D01*
X012533Y016257D01*
X012107Y016257D01*
X012107Y016353D01*
X015183Y016353D01*
X015183Y016511D02*
X012533Y016511D01*
X012533Y016582D02*
X012522Y016623D01*
X012501Y016660D01*
X012472Y016689D01*
X012435Y016710D01*
X012394Y016721D01*
X012106Y016721D01*
X012106Y016354D01*
X012010Y016354D01*
X012010Y016721D01*
X011722Y016721D01*
X011682Y016710D01*
X011645Y016689D01*
X011615Y016660D01*
X011594Y016623D01*
X011583Y016582D01*
X011583Y016353D01*
X012010Y016353D01*
X011553Y016353D01*
X011583Y016257D02*
X011583Y016028D01*
X011591Y016000D01*
X011540Y015949D01*
X011510Y015876D01*
X010682Y015876D01*
X010565Y015828D01*
X010475Y015738D01*
X010363Y015626D01*
X010363Y015922D01*
X010330Y016001D01*
X010613Y016001D01*
X010683Y016031D01*
X010754Y016001D01*
X011361Y016001D01*
X011449Y016038D01*
X011517Y016106D01*
X011553Y016194D01*
X011583Y016194D01*
X011553Y016194D02*
X011553Y016919D01*
X011517Y017007D01*
X011489Y017035D01*
X011566Y017111D01*
X012801Y017111D01*
X013002Y016910D01*
X013120Y016861D01*
X013247Y016861D01*
X013309Y016861D01*
X013330Y016809D01*
X013398Y016742D01*
X013486Y016705D01*
X014054Y016705D01*
X014142Y016742D01*
X014210Y016809D01*
X014228Y016854D01*
X014233Y016847D01*
X014262Y016817D01*
X014299Y016796D01*
X014339Y016785D01*
X014559Y016785D01*
X014559Y017143D01*
X014635Y017143D01*
X014635Y016785D01*
X014854Y016785D01*
X014895Y016796D01*
X014931Y016817D01*
X014961Y016847D01*
X014982Y016883D01*
X014993Y016924D01*
X014993Y017143D01*
X014635Y017143D01*
X014635Y017220D01*
X014559Y017220D01*
X014559Y017578D01*
X014339Y017578D01*
X014299Y017567D01*
X014262Y017546D01*
X014233Y017516D01*
X014228Y017509D01*
X014210Y017554D01*
X014142Y017621D01*
X014054Y017658D01*
X014036Y017658D01*
X014209Y017830D01*
X014232Y017885D01*
X014271Y017830D01*
X014332Y017770D01*
X014400Y017720D01*
X014476Y017681D01*
X014557Y017655D01*
X014641Y017641D01*
X014675Y017641D01*
X014675Y018173D01*
X014692Y018173D01*
X014692Y017641D01*
X014726Y017641D01*
X014810Y017655D01*
X014891Y017681D01*
X014966Y017720D01*
X015035Y017770D01*
X015095Y017830D01*
X015145Y017898D01*
X015183Y017973D01*
X015183Y007331D01*
X014788Y007331D01*
X014767Y007382D01*
X014699Y007450D01*
X014611Y007486D01*
X014004Y007486D01*
X013916Y007450D01*
X013864Y007399D01*
X013836Y007406D01*
X013607Y007406D01*
X013607Y006980D01*
X013511Y006980D01*
X013511Y007406D01*
X013282Y007406D01*
X013242Y007395D01*
X013205Y007374D01*
X013175Y007345D01*
X013154Y007308D01*
X013143Y007267D01*
X013143Y006979D01*
X013511Y006979D01*
X013511Y006883D01*
X013143Y006883D01*
X013143Y006595D01*
X013154Y006555D01*
X013175Y006518D01*
X013205Y006488D01*
X013242Y006467D01*
X013282Y006456D01*
X013511Y006456D01*
X013511Y006883D01*
X013607Y006883D01*
X013607Y006456D01*
X013836Y006456D01*
X013864Y006464D01*
X013916Y006413D01*
X013947Y006400D01*
X013947Y006330D01*
X013935Y006325D01*
X013933Y006323D01*
X013932Y006325D01*
X013843Y006361D01*
X013236Y006361D01*
X013148Y006325D01*
X013080Y006257D01*
X013044Y006169D01*
X013044Y006086D01*
X012977Y006152D01*
X012977Y006153D01*
X012887Y006243D01*
X012770Y006291D01*
X011816Y006291D01*
X011904Y006380D01*
X011988Y006584D01*
X011988Y006683D01*
X012647Y007342D01*
X012708Y007489D01*
X012708Y007649D01*
X012708Y008247D01*
X012710Y008247D01*
X012799Y008283D01*
X012866Y008351D01*
X012903Y008439D01*
X012903Y009085D01*
X012866Y009174D01*
X012799Y009241D01*
X012710Y009278D01*
X011906Y009278D01*
X011818Y009241D01*
X011751Y009174D01*
X011742Y009154D01*
X011691Y009154D01*
X011691Y009197D01*
X011654Y009285D01*
X011587Y009352D01*
X011499Y009389D01*
X010813Y009389D01*
X010725Y009352D01*
X010706Y009333D01*
X010687Y009352D01*
X010656Y009365D01*
X010656Y009501D01*
X010595Y009648D01*
X010132Y010111D01*
X009985Y010172D01*
X009826Y010172D01*
X009001Y010172D01*
X009427Y010598D01*
X009434Y010605D01*
X009448Y010599D01*
X011044Y010599D01*
X011132Y010635D01*
X011199Y010703D01*
X011236Y010791D01*
X011236Y011677D01*
X011199Y011765D01*
X011132Y011832D01*
X011044Y011869D01*
X009566Y011869D01*
X009566Y011924D01*
X009705Y012063D01*
X009753Y012180D01*
X009753Y012308D01*
X009753Y012381D01*
X009805Y012433D01*
X009872Y012594D01*
X009872Y012667D01*
X009940Y012735D01*
X010186Y012735D01*
X010227Y012694D01*
X010315Y012658D01*
X010765Y012658D01*
X010853Y012694D01*
X010815Y012593D02*
X010779Y012614D01*
X010738Y012625D01*
X010540Y012625D01*
X010540Y012308D01*
X010539Y012308D01*
X010539Y012307D01*
X010203Y012307D01*
X010203Y012129D01*
X010213Y012088D01*
X010234Y012052D01*
X010264Y012022D01*
X010301Y012001D01*
X010341Y011990D01*
X010539Y011990D01*
X010539Y012307D01*
X010540Y012307D01*
X010540Y011990D01*
X010738Y011990D01*
X010779Y012001D01*
X010815Y012022D01*
X010845Y012052D01*
X010866Y012088D01*
X010877Y012129D01*
X010877Y012307D01*
X010540Y012307D01*
X010540Y012308D01*
X010877Y012308D01*
X010877Y012486D01*
X010866Y012527D01*
X010845Y012563D01*
X010815Y012593D01*
X010854Y012548D02*
X010949Y012548D01*
X010985Y012389D02*
X010877Y012389D01*
X010877Y012231D02*
X011931Y012231D01*
X011988Y012072D02*
X010857Y012072D01*
X010540Y012072D02*
X010539Y012072D01*
X010539Y012231D02*
X010540Y012231D01*
X010539Y012308D02*
X010203Y012308D01*
X010203Y012486D01*
X010213Y012527D01*
X010234Y012563D01*
X010264Y012593D01*
X010301Y012614D01*
X010341Y012625D01*
X010539Y012625D01*
X010539Y012308D01*
X010539Y012389D02*
X010540Y012389D01*
X010539Y012548D02*
X010540Y012548D01*
X010226Y012548D02*
X009853Y012548D01*
X009911Y012706D02*
X010215Y012706D01*
X010203Y012389D02*
X009761Y012389D01*
X009753Y012231D02*
X010203Y012231D01*
X010223Y012072D02*
X009709Y012072D01*
X009566Y011914D02*
X011988Y011914D01*
X011988Y011755D02*
X011203Y011755D01*
X011236Y011597D02*
X011988Y011597D01*
X011988Y011438D02*
X011236Y011438D01*
X011236Y011279D02*
X011988Y011279D01*
X011988Y011121D02*
X011236Y011121D01*
X011236Y010962D02*
X011988Y010962D01*
X011988Y010804D02*
X011236Y010804D01*
X011142Y010645D02*
X011988Y010645D01*
X011740Y010487D02*
X009316Y010487D01*
X009158Y010328D02*
X011714Y010328D01*
X011714Y010170D02*
X009990Y010170D01*
X010232Y010011D02*
X011714Y010011D01*
X011714Y009853D02*
X010390Y009853D01*
X010549Y009694D02*
X011749Y009694D01*
X011527Y009377D02*
X012849Y009377D01*
X012849Y009535D02*
X010642Y009535D01*
X010656Y009377D02*
X010784Y009377D01*
X010256Y008754D02*
X010246Y008744D01*
X010183Y008556D01*
X010182Y007805D01*
X010057Y007680D01*
X009308Y007680D01*
X009288Y008199D02*
X009040Y008199D01*
X008999Y008210D01*
X008963Y008231D01*
X008933Y008261D01*
X008912Y008297D01*
X008901Y008338D01*
X008901Y008686D01*
X009288Y008686D01*
X009423Y008686D01*
X009423Y008199D01*
X009672Y008199D01*
X009713Y008210D01*
X009749Y008231D01*
X009753Y008234D01*
X009757Y008223D01*
X009825Y008155D01*
X009863Y008140D01*
X009863Y008106D01*
X009828Y008070D01*
X009827Y008072D01*
X009759Y008140D01*
X009671Y008176D01*
X008946Y008176D01*
X008857Y008140D01*
X008790Y008072D01*
X008753Y007984D01*
X008753Y007377D01*
X008783Y007306D01*
X008753Y007236D01*
X008753Y006629D01*
X008790Y006541D01*
X008857Y006473D01*
X008886Y006461D01*
X008808Y006384D01*
X008386Y006384D01*
X008386Y006919D01*
X008356Y006992D01*
X008356Y007265D01*
X008356Y007393D01*
X008307Y007510D01*
X007705Y008113D01*
X007615Y008203D01*
X007497Y008251D01*
X007411Y008251D01*
X007435Y008258D01*
X007472Y008279D01*
X007501Y008309D01*
X007522Y008345D01*
X007533Y008386D01*
X007533Y008615D01*
X007107Y008615D01*
X007107Y008711D01*
X007533Y008711D01*
X007533Y008940D01*
X007522Y008980D01*
X007514Y008995D01*
X007577Y009058D01*
X007613Y009146D01*
X007613Y009171D01*
X007633Y009179D01*
X007706Y009252D01*
X007742Y009237D01*
X008625Y009237D01*
X008713Y009273D01*
X008781Y009341D01*
X008793Y009372D01*
X009740Y009372D01*
X009792Y009320D01*
X009757Y009285D01*
X009753Y009273D01*
X009749Y009277D01*
X009713Y009298D01*
X009672Y009309D01*
X009423Y009309D01*
X009423Y008822D01*
X009288Y008822D01*
X009288Y009309D01*
X009040Y009309D01*
X008999Y009298D01*
X008963Y009277D01*
X008933Y009247D01*
X008912Y009211D01*
X008901Y009170D01*
X008901Y008821D01*
X009288Y008821D01*
X009288Y008686D01*
X009288Y008199D01*
X009288Y008267D02*
X009423Y008267D01*
X009423Y008426D02*
X009288Y008426D01*
X009288Y008584D02*
X009423Y008584D01*
X009288Y008743D02*
X008737Y008743D01*
X008737Y008659D02*
X008737Y008907D01*
X008726Y008948D01*
X008705Y008984D01*
X008675Y009014D01*
X008639Y009035D01*
X008598Y009046D01*
X008251Y009046D01*
X008251Y008659D01*
X008116Y008659D01*
X008116Y009046D01*
X007769Y009046D01*
X007728Y009035D01*
X007691Y009014D01*
X007662Y008984D01*
X007641Y008948D01*
X007630Y008907D01*
X007630Y008659D01*
X008115Y008659D01*
X008115Y008523D01*
X007630Y008523D01*
X007630Y008274D01*
X007641Y008234D01*
X007662Y008197D01*
X007691Y008168D01*
X007728Y008146D01*
X007769Y008136D01*
X008116Y008136D01*
X008116Y008523D01*
X008251Y008523D01*
X008251Y008136D01*
X008598Y008136D01*
X008639Y008146D01*
X008675Y008168D01*
X008705Y008197D01*
X008726Y008234D01*
X008737Y008274D01*
X008737Y008523D01*
X008251Y008523D01*
X008251Y008659D01*
X008737Y008659D01*
X008901Y008584D02*
X008251Y008584D01*
X008115Y008584D02*
X007533Y008584D01*
X007533Y008426D02*
X007630Y008426D01*
X007632Y008267D02*
X007451Y008267D01*
X007705Y008113D02*
X007705Y008113D01*
X007709Y008109D02*
X008826Y008109D01*
X008753Y007950D02*
X007867Y007950D01*
X008026Y007791D02*
X008753Y007791D01*
X008753Y007633D02*
X008184Y007633D01*
X008322Y007474D02*
X008753Y007474D01*
X008779Y007316D02*
X008356Y007316D01*
X008356Y007157D02*
X008753Y007157D01*
X008753Y006999D02*
X008356Y006999D01*
X008386Y006840D02*
X008753Y006840D01*
X008753Y006682D02*
X008386Y006682D01*
X008386Y006523D02*
X008807Y006523D01*
X008913Y006036D02*
X009308Y006431D01*
X009433Y006306D01*
X009769Y005971D01*
X009769Y005159D01*
X009871Y005056D01*
X009871Y004822D01*
X009871Y004822D01*
X010274Y004779D02*
X012829Y004779D01*
X012987Y004938D02*
X011749Y004938D01*
X011630Y004819D02*
X011908Y005097D01*
X011908Y005294D01*
X011908Y005491D01*
X011748Y005651D01*
X012574Y005651D01*
X012662Y005563D01*
X012662Y005563D01*
X012752Y005473D01*
X012870Y005424D01*
X012997Y005424D01*
X013052Y005424D01*
X013080Y005355D01*
X013148Y005288D01*
X013220Y005258D01*
X013220Y005170D01*
X012287Y004238D01*
X012238Y004120D01*
X012238Y003993D01*
X012238Y003801D01*
X012196Y003801D01*
X012107Y003765D01*
X012099Y003757D01*
X012072Y003784D01*
X011984Y003821D01*
X011935Y003821D01*
X011892Y003925D01*
X011302Y004515D01*
X011185Y004564D01*
X011057Y004564D01*
X010858Y004564D01*
X010807Y004616D01*
X010646Y004682D01*
X010471Y004682D01*
X010310Y004616D01*
X010187Y004492D01*
X010120Y004331D01*
X010120Y004175D01*
X010096Y004189D01*
X010055Y004200D01*
X009871Y004200D01*
X009871Y003917D01*
X009871Y003917D01*
X009871Y004200D01*
X009686Y004200D01*
X009646Y004189D01*
X009609Y004168D01*
X009579Y004138D01*
X009558Y004102D01*
X009547Y004061D01*
X009547Y003916D01*
X009547Y003771D01*
X009548Y003769D01*
X009503Y003814D01*
X009503Y004460D01*
X009503Y004563D01*
X009504Y004562D01*
X009571Y004494D01*
X009660Y004458D01*
X010082Y004458D01*
X010170Y004494D01*
X010238Y004562D01*
X010274Y004650D01*
X010274Y004868D01*
X010396Y004868D01*
X010557Y004935D01*
X010680Y005058D01*
X010747Y005219D01*
X010747Y005394D01*
X010680Y005555D01*
X010583Y005651D01*
X011119Y005651D01*
X010958Y005491D01*
X010958Y005294D01*
X011433Y005294D01*
X011433Y005294D01*
X010958Y005294D01*
X010958Y005097D01*
X011237Y004819D01*
X011433Y004819D01*
X011433Y005294D01*
X011434Y005294D01*
X011908Y005294D01*
X011434Y005294D01*
X011434Y005294D01*
X011434Y004819D01*
X011630Y004819D01*
X011434Y004938D02*
X011433Y004938D01*
X011433Y005096D02*
X011434Y005096D01*
X011433Y005255D02*
X011434Y005255D01*
X011118Y004938D02*
X010560Y004938D01*
X010696Y005096D02*
X010959Y005096D01*
X010958Y005255D02*
X010747Y005255D01*
X010739Y005413D02*
X010958Y005413D01*
X011040Y005572D02*
X010663Y005572D01*
X009769Y005971D02*
X012706Y005971D01*
X012933Y005744D01*
X013477Y005744D01*
X013540Y005806D01*
X013540Y005038D01*
X012558Y004056D01*
X012558Y003305D01*
X013113Y003002D02*
X013077Y002914D01*
X013026Y002863D01*
X013033Y002834D01*
X013033Y002605D01*
X012607Y002605D01*
X012607Y002509D01*
X013033Y002509D01*
X013033Y002280D01*
X013022Y002240D01*
X013001Y002203D01*
X012972Y002173D01*
X012935Y002152D01*
X012894Y002141D01*
X012732Y002141D01*
X013332Y001541D01*
X015183Y001541D01*
X015183Y002067D01*
X015093Y002284D01*
X015093Y003579D01*
X015183Y003796D01*
X015183Y006531D01*
X014788Y006531D01*
X014767Y006480D01*
X014699Y006413D01*
X014667Y006400D01*
X014667Y006346D01*
X014719Y006325D01*
X014786Y006257D01*
X014823Y006169D01*
X014823Y005444D01*
X014786Y005355D01*
X014719Y005288D01*
X014631Y005251D01*
X014023Y005251D01*
X013935Y005288D01*
X013933Y005290D01*
X013932Y005288D01*
X013860Y005258D01*
X013860Y005101D01*
X013860Y004974D01*
X013811Y004856D01*
X012878Y003924D01*
X012878Y003801D01*
X012921Y003801D01*
X013009Y003765D01*
X013077Y003697D01*
X013113Y003609D01*
X013113Y003002D01*
X013113Y003035D02*
X013173Y003035D01*
X013173Y002981D02*
X013783Y002981D01*
X013783Y002881D01*
X013883Y002881D01*
X013883Y001772D01*
X013962Y001783D01*
X014046Y001805D01*
X014126Y001838D01*
X014201Y001881D01*
X014269Y001934D01*
X014331Y001995D01*
X014383Y002064D01*
X014427Y002139D01*
X014460Y002219D01*
X014482Y002302D01*
X014493Y002388D01*
X014493Y002881D01*
X013884Y002881D01*
X013884Y002981D01*
X014493Y002981D01*
X014493Y003475D01*
X014482Y003560D01*
X014460Y003644D01*
X014427Y003724D01*
X014383Y003799D01*
X014331Y003867D01*
X014269Y003929D01*
X014201Y003981D01*
X014126Y004025D01*
X014046Y004058D01*
X013962Y004080D01*
X013883Y004090D01*
X013883Y002982D01*
X013783Y002982D01*
X013783Y004090D01*
X013704Y004080D01*
X013621Y004058D01*
X013541Y004025D01*
X013466Y003981D01*
X013397Y003929D01*
X013336Y003867D01*
X013283Y003799D01*
X013240Y003724D01*
X013207Y003644D01*
X013185Y003560D01*
X013173Y003475D01*
X013173Y002981D01*
X013173Y002881D02*
X013173Y002388D01*
X013185Y002302D01*
X013207Y002219D01*
X013240Y002139D01*
X013283Y002064D01*
X013336Y001995D01*
X013397Y001934D01*
X013466Y001881D01*
X013541Y001838D01*
X013621Y001805D01*
X013704Y001783D01*
X013783Y001772D01*
X013783Y002881D01*
X013173Y002881D01*
X013173Y002877D02*
X013040Y002877D01*
X013033Y002718D02*
X013173Y002718D01*
X013173Y002560D02*
X012607Y002560D01*
X013033Y002401D02*
X013173Y002401D01*
X013201Y002242D02*
X013023Y002242D01*
X012790Y002084D02*
X013272Y002084D01*
X013409Y001925D02*
X012948Y001925D01*
X013107Y001767D02*
X015183Y001767D01*
X015183Y001925D02*
X014258Y001925D01*
X014395Y002084D02*
X015176Y002084D01*
X015111Y002242D02*
X014466Y002242D01*
X014493Y002401D02*
X015093Y002401D01*
X015093Y002560D02*
X014493Y002560D01*
X014493Y002718D02*
X015093Y002718D01*
X015093Y002877D02*
X014493Y002877D01*
X014493Y003035D02*
X015093Y003035D01*
X015093Y003194D02*
X014493Y003194D01*
X014493Y003352D02*
X015093Y003352D01*
X015093Y003511D02*
X014489Y003511D01*
X014449Y003669D02*
X015131Y003669D01*
X015183Y003828D02*
X014361Y003828D01*
X014192Y003986D02*
X015183Y003986D01*
X015183Y004145D02*
X013100Y004145D01*
X013258Y004304D02*
X015183Y004304D01*
X015183Y004462D02*
X013417Y004462D01*
X013575Y004621D02*
X015183Y004621D01*
X015183Y004779D02*
X013734Y004779D01*
X013845Y004938D02*
X015183Y004938D01*
X015183Y005096D02*
X013860Y005096D01*
X013860Y005255D02*
X014015Y005255D01*
X014639Y005255D02*
X015183Y005255D01*
X015183Y005413D02*
X014810Y005413D01*
X014823Y005572D02*
X015183Y005572D01*
X015183Y005730D02*
X014823Y005730D01*
X014823Y005889D02*
X015183Y005889D01*
X015183Y006048D02*
X014823Y006048D01*
X014808Y006206D02*
X015183Y006206D01*
X015183Y006365D02*
X014667Y006365D01*
X014784Y006523D02*
X015183Y006523D01*
X013947Y006365D02*
X011889Y006365D01*
X011963Y006523D02*
X013173Y006523D01*
X013143Y006682D02*
X011988Y006682D01*
X012145Y006840D02*
X013143Y006840D01*
X013143Y006999D02*
X012304Y006999D01*
X012462Y007157D02*
X013143Y007157D01*
X013159Y007316D02*
X012621Y007316D01*
X012702Y007474D02*
X013975Y007474D01*
X013607Y007316D02*
X013511Y007316D01*
X013511Y007157D02*
X013607Y007157D01*
X013607Y006999D02*
X013511Y006999D01*
X013511Y006840D02*
X013607Y006840D01*
X013607Y006682D02*
X013511Y006682D01*
X013511Y006523D02*
X013607Y006523D01*
X013059Y006206D02*
X012924Y006206D01*
X012653Y005572D02*
X011827Y005572D01*
X011908Y005413D02*
X013056Y005413D01*
X012870Y005424D02*
X012870Y005424D01*
X013220Y005255D02*
X011908Y005255D01*
X011907Y005096D02*
X013146Y005096D01*
X012670Y004621D02*
X010794Y004621D01*
X010558Y004244D02*
X011121Y004244D01*
X011621Y003744D01*
X011621Y003325D01*
X011558Y003388D01*
X011621Y003325D02*
X011621Y003325D01*
X011932Y003828D02*
X012238Y003828D01*
X012238Y003986D02*
X011831Y003986D01*
X011672Y004145D02*
X012249Y004145D01*
X012353Y004304D02*
X011514Y004304D01*
X011355Y004462D02*
X012511Y004462D01*
X012941Y003986D02*
X013475Y003986D01*
X013306Y003828D02*
X012878Y003828D01*
X013088Y003669D02*
X013218Y003669D01*
X013178Y003511D02*
X013113Y003511D01*
X013113Y003352D02*
X013173Y003352D01*
X013173Y003194D02*
X013113Y003194D01*
X013783Y003194D02*
X013883Y003194D01*
X013883Y003352D02*
X013783Y003352D01*
X013783Y003511D02*
X013883Y003511D01*
X013883Y003669D02*
X013783Y003669D01*
X013783Y003828D02*
X013883Y003828D01*
X013883Y003986D02*
X013783Y003986D01*
X013783Y003035D02*
X013883Y003035D01*
X013883Y002877D02*
X013783Y002877D01*
X013783Y002718D02*
X013883Y002718D01*
X013883Y002560D02*
X013783Y002560D01*
X013783Y002401D02*
X013883Y002401D01*
X013883Y002242D02*
X013783Y002242D01*
X013783Y002084D02*
X013883Y002084D01*
X013883Y001925D02*
X013783Y001925D01*
X013266Y001608D02*
X015183Y001608D01*
X015183Y000821D02*
X013255Y000821D01*
X013112Y000821D01*
X012979Y000876D01*
X012284Y001571D01*
X011862Y001571D01*
X011729Y001626D01*
X011628Y001727D01*
X011314Y002042D01*
X011258Y002042D01*
X011170Y002078D01*
X011102Y002146D01*
X011098Y002156D01*
X011097Y002154D01*
X011060Y002133D01*
X011019Y002122D01*
X010731Y002122D01*
X010731Y002489D01*
X010635Y002489D01*
X010635Y002122D01*
X010347Y002122D01*
X010307Y002133D01*
X010270Y002154D01*
X010253Y002171D01*
X010253Y001970D01*
X010285Y001957D01*
X010433Y001808D01*
X010582Y001957D01*
X010810Y002051D01*
X011057Y002051D01*
X011285Y001957D01*
X011459Y001783D01*
X011553Y001555D01*
X011553Y001308D01*
X011459Y001080D01*
X011285Y000906D01*
X011057Y000811D01*
X010810Y000811D01*
X010582Y000906D01*
X010433Y001055D01*
X010285Y000906D01*
X010057Y000811D01*
X009810Y000811D01*
X009582Y000906D01*
X009433Y001055D01*
X009285Y000906D01*
X009057Y000811D01*
X008810Y000811D01*
X008779Y000824D01*
X008666Y000711D01*
X015183Y000711D01*
X015183Y000821D01*
X015183Y000816D02*
X011067Y000816D01*
X010800Y000816D02*
X010067Y000816D01*
X009800Y000816D02*
X009067Y000816D01*
X008800Y000816D02*
X008770Y000816D01*
X008371Y000869D02*
X008933Y001431D01*
X008933Y002931D01*
X008623Y003241D01*
X008623Y003829D01*
X008623Y004144D02*
X008221Y004144D01*
X008183Y004181D01*
X007683Y004181D01*
X006711Y004181D01*
X006433Y004459D01*
X005243Y004459D01*
X005243Y004144D02*
X004721Y004144D01*
X004558Y004306D01*
X003433Y004306D01*
X003231Y004509D01*
X003231Y005035D01*
X003231Y005872D01*
X003290Y005994D01*
X003231Y006022D01*
X002794Y006048D02*
X002051Y006048D01*
X002051Y006109D02*
X002014Y006197D01*
X001947Y006265D01*
X001859Y006301D01*
X001841Y006301D01*
X001841Y007014D01*
X001926Y007098D01*
X001998Y007274D01*
X001998Y007464D01*
X001926Y007639D01*
X001841Y007724D01*
X001841Y008011D01*
X002083Y008254D01*
X002218Y008254D01*
X002398Y008329D01*
X002536Y008466D01*
X002611Y008646D01*
X002611Y008841D01*
X002536Y009021D01*
X002470Y009088D01*
X002494Y009111D01*
X003551Y009111D01*
X004786Y007876D01*
X004613Y007876D01*
X004613Y007984D01*
X004577Y008072D01*
X004509Y008140D01*
X004421Y008176D01*
X003696Y008176D01*
X003607Y008140D01*
X003540Y008072D01*
X003510Y008000D01*
X003471Y008000D01*
X003344Y008000D01*
X003226Y007952D01*
X003121Y007846D01*
X003001Y007846D01*
X002825Y007774D01*
X002691Y007639D01*
X002618Y007464D01*
X002618Y007274D01*
X002691Y007098D01*
X002825Y006964D01*
X003001Y006891D01*
X003191Y006891D01*
X003366Y006964D01*
X003501Y007098D01*
X003568Y007261D01*
X003591Y007238D01*
X003583Y007209D01*
X003583Y006980D01*
X004010Y006980D01*
X004010Y006884D01*
X004106Y006884D01*
X004106Y006516D01*
X004394Y006516D01*
X004435Y006527D01*
X004472Y006548D01*
X004501Y006578D01*
X004522Y006615D01*
X004533Y006655D01*
X004533Y006884D01*
X004107Y006884D01*
X004107Y006980D01*
X004533Y006980D01*
X004533Y007209D01*
X004526Y007236D01*
X004908Y007236D01*
X004870Y007144D01*
X004870Y006969D01*
X004876Y006955D01*
X004810Y006928D01*
X004687Y006805D01*
X004620Y006644D01*
X004620Y006571D01*
X004475Y006425D01*
X004465Y006401D01*
X004461Y006407D01*
X004431Y006437D01*
X004395Y006458D01*
X004354Y006469D01*
X004125Y006469D01*
X004125Y006042D01*
X004029Y006042D01*
X004029Y006469D01*
X003800Y006469D01*
X003759Y006458D01*
X003745Y006449D01*
X003682Y006512D01*
X003593Y006549D01*
X002986Y006549D01*
X002898Y006512D01*
X002830Y006445D01*
X002794Y006357D01*
X002794Y005631D01*
X002824Y005558D01*
X002811Y005545D01*
X002774Y005456D01*
X002774Y004613D01*
X002811Y004525D01*
X002878Y004457D01*
X002911Y004444D01*
X002959Y004328D01*
X003095Y004192D01*
X002966Y004192D01*
X002878Y004156D01*
X002864Y004141D01*
X002847Y004158D01*
X002847Y004379D01*
X002811Y004467D01*
X002743Y004534D01*
X002655Y004571D01*
X002087Y004571D01*
X001999Y004534D01*
X001965Y004500D01*
X001931Y004534D01*
X001878Y004556D01*
X001878Y004570D01*
X001947Y004598D01*
X002014Y004666D01*
X002051Y004754D01*
X002051Y005361D01*
X002022Y005431D01*
X002051Y005502D01*
X002051Y006109D01*
X002005Y006206D02*
X002794Y006206D01*
X002797Y006365D02*
X001841Y006365D01*
X001841Y006523D02*
X002924Y006523D01*
X002791Y006999D02*
X001841Y006999D01*
X001841Y006840D02*
X003583Y006840D01*
X003583Y006884D02*
X003583Y006655D01*
X003594Y006615D01*
X003615Y006578D01*
X003645Y006548D01*
X003682Y006527D01*
X003722Y006516D01*
X004010Y006516D01*
X004010Y006884D01*
X003583Y006884D01*
X003583Y006999D02*
X003401Y006999D01*
X003525Y007157D02*
X003583Y007157D01*
X003583Y006682D02*
X001841Y006682D01*
X001950Y007157D02*
X002667Y007157D01*
X002618Y007316D02*
X001998Y007316D01*
X001994Y007474D02*
X002623Y007474D01*
X002688Y007633D02*
X001928Y007633D01*
X001841Y007791D02*
X002868Y007791D01*
X003224Y007950D02*
X001841Y007950D01*
X001938Y008109D02*
X003576Y008109D01*
X003407Y007680D02*
X003096Y007369D01*
X003407Y007680D02*
X004058Y007680D01*
X004059Y007556D01*
X007246Y007556D01*
X007721Y007081D01*
X007721Y006621D01*
X008036Y006621D02*
X008036Y007329D01*
X007433Y007931D01*
X005183Y007931D01*
X003683Y009431D01*
X002121Y009431D01*
X001679Y009218D02*
X000963Y009218D01*
X000963Y009060D02*
X001744Y009060D01*
X001772Y009088D02*
X001706Y009021D01*
X001631Y008841D01*
X001631Y008706D01*
X001250Y008325D01*
X001201Y008208D01*
X001201Y008080D01*
X001201Y007724D01*
X001116Y007639D01*
X001044Y007464D01*
X001044Y007274D01*
X001116Y007098D01*
X001201Y007014D01*
X001201Y006301D01*
X001133Y006301D01*
X001045Y006265D01*
X000977Y006197D01*
X000963Y006163D01*
X000963Y017181D01*
X000972Y017308D01*
X001037Y017553D01*
X001164Y017772D01*
X001183Y017791D01*
X001102Y017597D01*
X001102Y017266D01*
X001229Y016961D01*
X001463Y016727D01*
X001768Y016600D01*
X002099Y016600D01*
X002404Y016727D01*
X002638Y016961D01*
X002718Y017155D01*
X002718Y016919D01*
X002002Y016203D01*
X001912Y016113D01*
X001863Y015995D01*
X001863Y013638D01*
X001812Y013586D01*
X001745Y013425D01*
X001745Y013250D01*
X001812Y013089D01*
X001935Y012966D01*
X002096Y012899D01*
X002271Y012899D01*
X002363Y012938D01*
X002363Y010618D01*
X002412Y010500D01*
X002502Y010410D01*
X003127Y009785D01*
X003209Y009751D01*
X002494Y009751D01*
X002414Y009832D01*
X002434Y009852D01*
X002472Y009904D01*
X002501Y009961D01*
X002521Y010023D01*
X002531Y010087D01*
X002531Y010119D01*
X002531Y010151D01*
X002521Y010215D01*
X002501Y010276D01*
X002472Y010334D01*
X002434Y010386D01*
X002388Y010432D01*
X002336Y010470D01*
X002278Y010499D01*
X002217Y010519D01*
X002153Y010529D01*
X002121Y010529D01*
X002121Y010119D01*
X002121Y010119D01*
X002531Y010119D01*
X002121Y010119D01*
X002121Y010119D01*
X002121Y010529D01*
X002089Y010529D01*
X002025Y010519D01*
X001964Y010499D01*
X001906Y010470D01*
X001854Y010432D01*
X001808Y010386D01*
X001770Y010334D01*
X001741Y010276D01*
X001721Y010215D01*
X001711Y010151D01*
X001711Y010119D01*
X002120Y010119D01*
X002120Y010119D01*
X001711Y010119D01*
X001711Y010087D01*
X001721Y010023D01*
X001741Y009961D01*
X001770Y009904D01*
X001808Y009852D01*
X001828Y009832D01*
X001706Y009709D01*
X001631Y009529D01*
X001631Y009334D01*
X001706Y009154D01*
X001772Y009088D01*
X001656Y008901D02*
X000963Y008901D01*
X000963Y008743D02*
X001631Y008743D01*
X001509Y008584D02*
X000963Y008584D01*
X000963Y008426D02*
X001350Y008426D01*
X001226Y008267D02*
X000963Y008267D01*
X000963Y008109D02*
X001201Y008109D01*
X001201Y007950D02*
X000963Y007950D01*
X000963Y007791D02*
X001201Y007791D01*
X001114Y007633D02*
X000963Y007633D01*
X000963Y007474D02*
X001048Y007474D01*
X001044Y007316D02*
X000963Y007316D01*
X000963Y007157D02*
X001092Y007157D01*
X001201Y006999D02*
X000963Y006999D01*
X000963Y006840D02*
X001201Y006840D01*
X001201Y006682D02*
X000963Y006682D01*
X000963Y006523D02*
X001201Y006523D01*
X001201Y006365D02*
X000963Y006365D01*
X000963Y006206D02*
X000986Y006206D01*
X001496Y005805D02*
X001521Y005831D01*
X001521Y007369D01*
X001521Y008144D01*
X002121Y008744D01*
X002611Y008743D02*
X003919Y008743D01*
X003761Y008901D02*
X002586Y008901D01*
X002498Y009060D02*
X003602Y009060D01*
X004032Y009535D02*
X004187Y009535D01*
X004187Y009380D02*
X003897Y009670D01*
X003932Y009685D01*
X004055Y009808D01*
X004122Y009969D01*
X004122Y010111D01*
X005120Y010111D01*
X005247Y010111D01*
X005365Y010160D01*
X005369Y010164D01*
X005369Y010079D01*
X005405Y009990D01*
X005473Y009923D01*
X005561Y009886D01*
X005936Y009886D01*
X005919Y009870D01*
X005846Y009870D01*
X005685Y009803D01*
X005562Y009680D01*
X005495Y009519D01*
X005495Y009344D01*
X005562Y009183D01*
X005685Y009060D01*
X004507Y009060D01*
X004468Y009099D02*
X005144Y009099D01*
X005233Y009135D01*
X005300Y009203D01*
X005337Y009291D01*
X005337Y009721D01*
X005300Y009809D01*
X005233Y009877D01*
X005144Y009914D01*
X004380Y009914D01*
X004291Y009877D01*
X004224Y009809D01*
X004187Y009721D01*
X004187Y009380D01*
X004468Y009099D02*
X005316Y008251D01*
X006705Y008251D01*
X006682Y008258D01*
X006645Y008279D01*
X006615Y008309D01*
X006594Y008345D01*
X006583Y008386D01*
X006583Y008615D01*
X007010Y008615D01*
X007010Y008711D01*
X006583Y008711D01*
X006583Y008940D01*
X006594Y008980D01*
X006603Y008995D01*
X006540Y009058D01*
X006503Y009146D01*
X006503Y009549D01*
X006372Y009417D01*
X006372Y009344D01*
X006305Y009183D01*
X006182Y009060D01*
X006539Y009060D01*
X006406Y008984D02*
X006376Y009014D01*
X006340Y009035D01*
X006299Y009046D01*
X006149Y009046D01*
X006182Y009060D01*
X006320Y009218D02*
X006503Y009218D01*
X006503Y009377D02*
X006372Y009377D01*
X006490Y009535D02*
X006503Y009535D01*
X007058Y009450D02*
X007452Y009450D01*
X007683Y009681D01*
X008093Y009681D01*
X008183Y009772D01*
X007673Y009218D02*
X008916Y009218D01*
X008901Y009060D02*
X007577Y009060D01*
X007533Y008901D02*
X007630Y008901D01*
X007630Y008743D02*
X007533Y008743D01*
X008116Y008743D02*
X008251Y008743D01*
X008251Y008901D02*
X008116Y008901D01*
X008116Y008426D02*
X008251Y008426D01*
X008251Y008267D02*
X008116Y008267D01*
X008735Y008267D02*
X008929Y008267D01*
X008901Y008426D02*
X008737Y008426D01*
X008737Y008901D02*
X008901Y008901D01*
X009288Y008901D02*
X009423Y008901D01*
X009423Y009060D02*
X009288Y009060D01*
X009288Y009218D02*
X009423Y009218D01*
X008746Y010369D02*
X009246Y010869D01*
X009246Y012056D01*
X009433Y012244D01*
X009433Y012681D01*
X009807Y013055D01*
X010540Y013055D01*
X010957Y013023D02*
X011034Y013023D01*
X010957Y013182D02*
X012337Y013182D01*
X012178Y013341D02*
X010924Y013341D01*
X010779Y013751D02*
X010815Y013772D01*
X010845Y013802D01*
X010866Y013838D01*
X010877Y013879D01*
X010877Y014057D01*
X010540Y014057D01*
X010540Y013740D01*
X010738Y013740D01*
X010779Y013751D01*
X010853Y013816D02*
X011503Y013816D01*
X011503Y013658D02*
X010303Y013658D01*
X010309Y013499D02*
X011562Y013499D01*
X011698Y013023D02*
X012950Y013023D01*
X012953Y013027D02*
X012885Y012959D01*
X012849Y012871D01*
X012849Y012441D01*
X012885Y012353D01*
X012953Y012285D01*
X013041Y012249D01*
X013806Y012249D01*
X013894Y012285D01*
X013962Y012353D01*
X013998Y012441D01*
X013998Y012871D01*
X013962Y012959D01*
X013894Y013027D01*
X013806Y013063D01*
X013041Y013063D01*
X012953Y013027D01*
X012849Y012865D02*
X012202Y012865D01*
X012361Y012706D02*
X012849Y012706D01*
X012849Y012548D02*
X012520Y012548D01*
X012620Y012389D02*
X012870Y012389D01*
X012628Y012231D02*
X014126Y012231D01*
X014134Y012239D02*
X014067Y012172D01*
X014030Y012083D01*
X014030Y011653D01*
X014067Y011565D01*
X014134Y011498D01*
X014222Y011461D01*
X014987Y011461D01*
X015075Y011498D01*
X015143Y011565D01*
X015179Y011653D01*
X015179Y012083D01*
X015143Y012172D01*
X015075Y012239D01*
X014987Y012276D01*
X014222Y012276D01*
X014134Y012239D01*
X014030Y012072D02*
X012628Y012072D01*
X012628Y011914D02*
X014030Y011914D01*
X014030Y011755D02*
X012628Y011755D01*
X012628Y011597D02*
X014054Y011597D01*
X013908Y011438D02*
X015183Y011438D01*
X015183Y011279D02*
X013998Y011279D01*
X013998Y011121D02*
X015183Y011121D01*
X015183Y010962D02*
X013998Y010962D01*
X013972Y010804D02*
X015183Y010804D01*
X015183Y010645D02*
X015094Y010645D01*
X015075Y010664D02*
X014987Y010701D01*
X014222Y010701D01*
X014134Y010664D01*
X014067Y010597D01*
X014030Y010509D01*
X014030Y010079D01*
X014067Y009990D01*
X014134Y009923D01*
X014222Y009886D01*
X014987Y009886D01*
X015075Y009923D01*
X015143Y009990D01*
X015179Y010079D01*
X015179Y010509D01*
X015143Y010597D01*
X015075Y010664D01*
X015179Y010487D02*
X015183Y010487D01*
X015179Y010328D02*
X015183Y010328D01*
X015179Y010170D02*
X015183Y010170D01*
X015183Y010011D02*
X015151Y010011D01*
X015183Y009853D02*
X013919Y009853D01*
X013998Y009694D02*
X015183Y009694D01*
X015183Y009535D02*
X013998Y009535D01*
X013998Y009377D02*
X015183Y009377D01*
X015183Y009218D02*
X013968Y009218D01*
X014104Y009060D02*
X012903Y009060D01*
X012903Y008901D02*
X014030Y008901D01*
X014030Y008934D02*
X014030Y008504D01*
X014067Y008416D01*
X014134Y008348D01*
X014222Y008311D01*
X014987Y008311D01*
X015075Y008348D01*
X015143Y008416D01*
X015179Y008504D01*
X015179Y008934D01*
X015143Y009022D01*
X015075Y009090D01*
X014987Y009126D01*
X014222Y009126D01*
X014134Y009090D01*
X014067Y009022D01*
X014030Y008934D01*
X014030Y008743D02*
X012903Y008743D01*
X012903Y008584D02*
X014030Y008584D01*
X014062Y008426D02*
X012897Y008426D01*
X012760Y008267D02*
X015183Y008267D01*
X015183Y008109D02*
X012708Y008109D01*
X012708Y007950D02*
X015183Y007950D01*
X015183Y007791D02*
X012708Y007791D01*
X012708Y007633D02*
X015183Y007633D01*
X015183Y007474D02*
X014640Y007474D01*
X015147Y008426D02*
X015183Y008426D01*
X015179Y008584D02*
X015183Y008584D01*
X015179Y008743D02*
X015183Y008743D01*
X015179Y008901D02*
X015183Y008901D01*
X015183Y009060D02*
X015105Y009060D01*
X015808Y008374D02*
X015808Y008306D01*
X015746Y008244D01*
X015907Y009890D02*
X015808Y009989D01*
X014058Y010011D02*
X013661Y010011D01*
X013748Y010170D02*
X014030Y010170D01*
X014030Y010328D02*
X013766Y010328D01*
X013730Y010487D02*
X014030Y010487D01*
X014115Y010645D02*
X013617Y010645D01*
X012999Y010645D02*
X012628Y010645D01*
X012628Y010804D02*
X012875Y010804D01*
X012849Y010962D02*
X012628Y010962D01*
X012628Y011121D02*
X012849Y011121D01*
X012849Y011279D02*
X012628Y011279D01*
X012628Y011438D02*
X012939Y011438D01*
X013977Y012389D02*
X015183Y012389D01*
X015183Y012231D02*
X015084Y012231D01*
X015179Y012072D02*
X015183Y012072D01*
X015179Y011914D02*
X015183Y011914D01*
X015179Y011755D02*
X015183Y011755D01*
X015183Y011597D02*
X015156Y011597D01*
X015183Y012548D02*
X013998Y012548D01*
X013998Y012706D02*
X015183Y012706D01*
X015183Y012865D02*
X013998Y012865D01*
X013897Y013023D02*
X015183Y013023D01*
X015183Y013182D02*
X015160Y013182D01*
X015179Y013341D02*
X015183Y013341D01*
X015179Y013499D02*
X015183Y013499D01*
X015179Y013658D02*
X015183Y013658D01*
X015183Y013816D02*
X015070Y013816D01*
X015183Y013975D02*
X013981Y013975D01*
X013998Y014016D02*
X013998Y014446D01*
X013962Y014534D01*
X013894Y014601D01*
X013806Y014638D01*
X013564Y014638D01*
X013681Y014686D01*
X013804Y014809D01*
X013870Y014969D01*
X013870Y015143D01*
X013804Y015304D01*
X013709Y015398D01*
X013806Y015398D01*
X013894Y015435D01*
X013962Y015502D01*
X013998Y015590D01*
X013998Y016020D01*
X013962Y016109D01*
X013894Y016176D01*
X013806Y016213D01*
X013041Y016213D01*
X012953Y016176D01*
X012885Y016109D01*
X012849Y016020D01*
X012849Y015590D01*
X012885Y015502D01*
X012953Y015435D01*
X013041Y015398D01*
X013157Y015398D01*
X013063Y015304D01*
X012997Y015143D01*
X012997Y014969D01*
X013063Y014809D01*
X013186Y014686D01*
X013302Y014638D01*
X013041Y014638D01*
X012953Y014601D01*
X012885Y014534D01*
X012849Y014446D01*
X012849Y014016D01*
X012885Y013927D01*
X012953Y013860D01*
X013041Y013823D01*
X013806Y013823D01*
X013894Y013860D01*
X013962Y013927D01*
X013998Y014016D01*
X013998Y014133D02*
X015183Y014133D01*
X015183Y014292D02*
X013998Y014292D01*
X013996Y014450D02*
X015183Y014450D01*
X015183Y014609D02*
X013876Y014609D01*
X013762Y014767D02*
X014045Y014767D01*
X014030Y014803D02*
X014067Y014715D01*
X014134Y014647D01*
X014222Y014611D01*
X014987Y014611D01*
X015075Y014647D01*
X015143Y014715D01*
X015179Y014803D01*
X015179Y015233D01*
X015143Y015321D01*
X015075Y015389D01*
X014987Y015425D01*
X014222Y015425D01*
X014134Y015389D01*
X014067Y015321D01*
X014030Y015233D01*
X014030Y014803D01*
X014030Y014926D02*
X013852Y014926D01*
X013870Y015084D02*
X014030Y015084D01*
X014034Y015243D02*
X013829Y015243D01*
X013814Y015402D02*
X014165Y015402D01*
X013986Y015560D02*
X015183Y015560D01*
X015183Y015402D02*
X015044Y015402D01*
X015175Y015243D02*
X015183Y015243D01*
X015179Y015084D02*
X015183Y015084D01*
X015179Y014926D02*
X015183Y014926D01*
X015183Y014767D02*
X015165Y014767D01*
X015183Y015719D02*
X013998Y015719D01*
X013998Y015877D02*
X015183Y015877D01*
X015183Y016036D02*
X013992Y016036D01*
X013850Y016194D02*
X015183Y016194D01*
X015183Y016670D02*
X012491Y016670D01*
X012533Y016582D02*
X012533Y016353D01*
X012107Y016353D01*
X012010Y016353D02*
X012010Y016257D01*
X011583Y016257D01*
X011583Y016036D02*
X011444Y016036D01*
X011510Y015877D02*
X010363Y015877D01*
X010363Y015719D02*
X010456Y015719D01*
X010746Y015556D02*
X012057Y015556D01*
X012058Y015557D01*
X012058Y014700D01*
X012613Y014767D02*
X013105Y014767D01*
X013015Y014926D02*
X012613Y014926D01*
X012580Y015084D02*
X012997Y015084D01*
X013038Y015243D02*
X012609Y015243D01*
X012613Y015402D02*
X013033Y015402D01*
X012861Y015560D02*
X012613Y015560D01*
X012613Y015719D02*
X012849Y015719D01*
X012849Y015877D02*
X012607Y015877D01*
X012533Y016036D02*
X012855Y016036D01*
X012997Y016194D02*
X012533Y016194D01*
X012106Y016511D02*
X012010Y016511D01*
X012010Y016670D02*
X012106Y016670D01*
X011626Y016670D02*
X011553Y016670D01*
X011553Y016828D02*
X013322Y016828D01*
X012925Y016987D02*
X011525Y016987D01*
X011433Y017431D02*
X012933Y017431D01*
X013183Y017181D01*
X013770Y017181D01*
X014218Y016828D02*
X014251Y016828D01*
X014559Y016828D02*
X014635Y016828D01*
X014635Y016987D02*
X014559Y016987D01*
X014635Y017146D02*
X015183Y017146D01*
X015183Y017304D02*
X014993Y017304D01*
X014993Y017220D02*
X014993Y017439D01*
X014982Y017479D01*
X014961Y017516D01*
X014931Y017546D01*
X014895Y017567D01*
X014854Y017578D01*
X014635Y017578D01*
X014635Y017220D01*
X014993Y017220D01*
X014993Y016987D02*
X015183Y016987D01*
X015183Y016828D02*
X014943Y016828D01*
X014635Y017304D02*
X014559Y017304D01*
X014559Y017463D02*
X014635Y017463D01*
X014675Y017780D02*
X014692Y017780D01*
X014675Y017938D02*
X014692Y017938D01*
X014675Y018097D02*
X014692Y018097D01*
X014692Y018190D02*
X014675Y018190D01*
X014675Y018721D01*
X014641Y018721D01*
X014557Y018708D01*
X014476Y018682D01*
X014400Y018643D01*
X014332Y018593D01*
X014271Y018533D01*
X014232Y018478D01*
X014209Y018533D01*
X014035Y018707D01*
X013807Y018801D01*
X013560Y018801D01*
X013332Y018707D01*
X013158Y018533D01*
X013063Y018305D01*
X013063Y018058D01*
X013076Y018027D01*
X012801Y017751D01*
X011370Y017751D01*
X011252Y017703D01*
X011162Y017613D01*
X011162Y017613D01*
X010786Y017237D01*
X010737Y017119D01*
X010737Y017105D01*
X010683Y017082D01*
X010613Y017111D01*
X010083Y017111D01*
X010055Y017180D01*
X009932Y017303D01*
X009771Y017370D01*
X009596Y017370D01*
X009435Y017303D01*
X009328Y017196D01*
X009327Y017197D01*
X009259Y017265D01*
X009171Y017301D01*
X008446Y017301D01*
X008357Y017265D01*
X008323Y017230D01*
X008323Y017544D01*
X008286Y017632D01*
X008219Y017700D01*
X008131Y017736D01*
X008019Y017736D01*
X008053Y017819D01*
X008053Y017861D01*
X008145Y017861D01*
X008158Y017830D01*
X008332Y017656D01*
X008560Y017561D01*
X008807Y017561D01*
X009035Y017656D01*
X009209Y017830D01*
X009232Y017885D01*
X009271Y017830D01*
X009332Y017770D01*
X009400Y017720D01*
X009476Y017681D01*
X009557Y017655D01*
X009641Y017641D01*
X009675Y017641D01*
X009675Y018173D01*
X009692Y018173D01*
X009692Y017641D01*
X009726Y017641D01*
X009810Y017655D01*
X009891Y017681D01*
X009966Y017720D01*
X010035Y017770D01*
X010095Y017830D01*
X010135Y017885D01*
X010158Y017830D01*
X010332Y017656D01*
X010560Y017561D01*
X010807Y017561D01*
X011035Y017656D01*
X011209Y017830D01*
X011303Y018058D01*
X011303Y018305D01*
X011209Y018533D01*
X011035Y018707D01*
X010807Y018801D01*
X010560Y018801D01*
X010332Y018707D01*
X010158Y018533D01*
X010135Y018478D01*
X010095Y018533D01*
X010035Y018593D01*
X009966Y018643D01*
X009891Y018682D01*
X009810Y018708D01*
X009726Y018721D01*
X009692Y018721D01*
X009692Y018190D01*
X009675Y018190D01*
X009675Y018721D01*
X009641Y018721D01*
X009557Y018708D01*
X009476Y018682D01*
X009400Y018643D01*
X009332Y018593D01*
X009271Y018533D01*
X009232Y018478D01*
X009209Y018533D01*
X009035Y018707D01*
X008807Y018801D01*
X008560Y018801D01*
X008332Y018707D01*
X008158Y018533D01*
X008145Y018501D01*
X008053Y018501D01*
X008053Y018544D01*
X008017Y018632D01*
X007949Y018700D01*
X007861Y018736D01*
X007254Y018736D01*
X007183Y018707D01*
X007113Y018736D01*
X006506Y018736D01*
X006417Y018700D01*
X006350Y018632D01*
X006313Y018544D01*
X006313Y018501D01*
X006222Y018501D01*
X006209Y018533D01*
X006035Y018707D01*
X005807Y018801D01*
X005560Y018801D01*
X005332Y018707D01*
X005183Y018558D01*
X005035Y018707D01*
X004807Y018801D01*
X004560Y018801D01*
X004332Y018707D01*
X004158Y018533D01*
X004063Y018305D01*
X004063Y018058D01*
X004076Y018027D01*
X003877Y017828D01*
X003787Y017738D01*
X003744Y017635D01*
X003322Y017635D01*
X003322Y017731D01*
X003748Y017731D01*
X003748Y017960D01*
X003737Y018000D01*
X003716Y018037D01*
X003687Y018066D01*
X003650Y018088D01*
X003609Y018098D01*
X003321Y018098D01*
X003321Y017731D01*
X003225Y017731D01*
X003225Y018098D01*
X002937Y018098D01*
X002897Y018088D01*
X002860Y018066D01*
X002830Y018037D01*
X002809Y018000D01*
X002798Y017960D01*
X002798Y017731D01*
X003225Y017731D01*
X003225Y017635D01*
X002798Y017635D01*
X002798Y017406D01*
X002809Y017365D01*
X002818Y017350D01*
X002765Y017297D01*
X002765Y017597D01*
X002638Y017902D01*
X002404Y018136D01*
X002367Y018151D01*
X003239Y018151D01*
X003346Y018151D01*
X003346Y018151D01*
X003657Y018252D01*
X003921Y018444D01*
X004113Y018708D01*
X004175Y018901D01*
X015183Y018901D01*
X015183Y018389D01*
X015145Y018464D01*
X015095Y018533D01*
X015035Y018593D01*
X014966Y018643D01*
X014891Y018682D01*
X014810Y018708D01*
X014726Y018721D01*
X014692Y018721D01*
X014692Y018190D01*
X014692Y018255D02*
X014675Y018255D01*
X014675Y018414D02*
X014692Y018414D01*
X014675Y018572D02*
X014692Y018572D01*
X014311Y018572D02*
X014169Y018572D01*
X013977Y018731D02*
X015183Y018731D01*
X015183Y018572D02*
X015056Y018572D01*
X015171Y018414D02*
X015183Y018414D01*
X015166Y017938D02*
X015183Y017938D01*
X015183Y017780D02*
X015045Y017780D01*
X015183Y017621D02*
X014142Y017621D01*
X014158Y017780D02*
X014321Y017780D01*
X014987Y017463D02*
X015183Y017463D01*
X013683Y018181D02*
X012933Y017431D01*
X012829Y017780D02*
X011159Y017780D01*
X011171Y017621D02*
X010951Y017621D01*
X011012Y017463D02*
X008323Y017463D01*
X008323Y017304D02*
X009438Y017304D01*
X009683Y016931D02*
X010121Y016494D01*
X010246Y016494D01*
X010247Y016494D01*
X010309Y016556D01*
X009808Y016244D02*
X009247Y016805D01*
X008808Y016805D01*
X008557Y016869D01*
X007933Y016869D01*
X007891Y016912D01*
X007891Y016993D01*
X007827Y017181D01*
X007808Y017075D01*
X007808Y017431D01*
X007558Y017681D01*
X006933Y017681D01*
X006808Y017806D01*
X006808Y018180D01*
X006809Y018181D01*
X005683Y018181D01*
X005208Y017780D02*
X005159Y017780D01*
X005183Y017805D02*
X005332Y017656D01*
X005560Y017561D01*
X005807Y017561D01*
X006035Y017656D01*
X006209Y017830D01*
X006222Y017861D01*
X006313Y017861D01*
X006313Y017819D01*
X006350Y017730D01*
X006417Y017663D01*
X006506Y017626D01*
X006537Y017626D01*
X006537Y017625D01*
X006627Y017535D01*
X006628Y017534D01*
X006624Y017517D01*
X006624Y017400D01*
X006572Y017452D01*
X006484Y017489D01*
X005758Y017489D01*
X005670Y017452D01*
X005602Y017385D01*
X005573Y017314D01*
X005557Y017314D01*
X005440Y017265D01*
X005350Y017175D01*
X005286Y017111D01*
X005286Y017392D01*
X005275Y017433D01*
X005254Y017470D01*
X005224Y017499D01*
X005188Y017520D01*
X005147Y017531D01*
X004918Y017531D01*
X004918Y017105D01*
X004822Y017105D01*
X004822Y017531D01*
X004593Y017531D01*
X004565Y017524D01*
X004521Y017567D01*
X004529Y017574D01*
X004560Y017561D01*
X004807Y017561D01*
X005035Y017656D01*
X005183Y017805D01*
X004951Y017621D02*
X005416Y017621D01*
X005258Y017463D02*
X005695Y017463D01*
X005621Y017494D02*
X005558Y017431D01*
X005621Y017494D02*
X006621Y017494D01*
X007040Y017075D01*
X007040Y017181D01*
X007040Y016201D01*
X007059Y016181D01*
X007183Y016057D01*
X007183Y015869D01*
X007433Y015619D01*
X007433Y014292D01*
X007433Y013906D01*
X007434Y013906D01*
X007434Y014292D01*
X007433Y014292D01*
X007433Y013994D01*
X007308Y013869D01*
X007308Y013555D01*
X007247Y013431D01*
X007231Y013478D01*
X007247Y013431D02*
X007308Y013432D01*
X007308Y013181D01*
X007683Y012806D01*
X007691Y012876D02*
X007882Y012876D01*
X007863Y012844D01*
X007852Y012803D01*
X007852Y012619D01*
X008136Y012619D01*
X008136Y012619D01*
X007852Y012619D01*
X007852Y012434D01*
X007863Y012394D01*
X007884Y012357D01*
X007914Y012328D01*
X007950Y012306D01*
X007991Y012296D01*
X008136Y012296D01*
X008136Y012619D01*
X008136Y012619D01*
X008136Y012296D01*
X008281Y012296D01*
X008301Y012301D01*
X008301Y011856D01*
X008249Y011805D01*
X008182Y011644D01*
X008182Y011469D01*
X008249Y011308D01*
X008373Y011185D01*
X008534Y011118D01*
X008708Y011118D01*
X008869Y011185D01*
X008926Y011241D01*
X008926Y011001D01*
X008613Y010689D01*
X007870Y010689D01*
X007911Y010730D01*
X007948Y010819D01*
X007948Y011544D01*
X007941Y011561D01*
X007941Y011694D01*
X007993Y011746D01*
X008059Y011907D01*
X008059Y012081D01*
X007993Y012242D01*
X007869Y012366D01*
X007708Y012432D01*
X007595Y012432D01*
X007595Y012830D01*
X007558Y012918D01*
X007520Y012956D01*
X007524Y012956D01*
X007552Y012964D01*
X007603Y012913D01*
X007691Y012876D01*
X007580Y012865D02*
X007875Y012865D01*
X007852Y012706D02*
X007595Y012706D01*
X007595Y012548D02*
X007852Y012548D01*
X007866Y012389D02*
X007812Y012389D01*
X007997Y012231D02*
X008301Y012231D01*
X008301Y012072D02*
X008059Y012072D01*
X008059Y011914D02*
X008301Y011914D01*
X008229Y011755D02*
X007996Y011755D01*
X007941Y011597D02*
X008182Y011597D01*
X008195Y011438D02*
X007948Y011438D01*
X007948Y011279D02*
X008278Y011279D01*
X008527Y011121D02*
X007948Y011121D01*
X007948Y010962D02*
X008887Y010962D01*
X008926Y011121D02*
X008715Y011121D01*
X008728Y010804D02*
X007942Y010804D01*
X007452Y011181D02*
X007452Y011200D01*
X007621Y011369D01*
X007621Y011994D01*
X008136Y012389D02*
X008136Y012389D01*
X008136Y012548D02*
X008136Y012548D01*
X008621Y012369D02*
X008933Y012681D01*
X008933Y013495D01*
X008058Y013495D01*
X007995Y013431D01*
X008056Y013432D01*
X007995Y013431D02*
X007933Y013555D01*
X007933Y013869D01*
X007807Y013995D01*
X007807Y014292D01*
X008165Y014292D02*
X008378Y014292D01*
X008378Y014450D02*
X008165Y014450D01*
X008165Y014576D02*
X008129Y014664D01*
X008061Y014732D01*
X007973Y014768D01*
X007641Y014768D01*
X007553Y014732D01*
X007510Y014688D01*
X007434Y014688D01*
X007434Y014293D01*
X007433Y014293D01*
X007433Y014688D01*
X007357Y014688D01*
X007313Y014732D01*
X007247Y014759D01*
X007247Y014853D01*
X007313Y014881D01*
X007381Y014948D01*
X007417Y015037D01*
X007417Y015604D01*
X007381Y015693D01*
X007361Y015713D01*
X007364Y015714D01*
X007416Y015663D01*
X007465Y015642D01*
X007449Y015604D01*
X007449Y015037D01*
X007486Y014948D01*
X007553Y014881D01*
X007641Y014844D01*
X007973Y014844D01*
X008061Y014881D01*
X008099Y014919D01*
X008221Y014868D01*
X008396Y014868D01*
X008432Y014883D01*
X008432Y014844D01*
X008490Y014705D01*
X008482Y014702D01*
X008415Y014635D01*
X008378Y014546D01*
X008378Y013953D01*
X008299Y013986D01*
X008231Y013986D01*
X008205Y014050D01*
X008165Y014089D01*
X008165Y014576D01*
X008152Y014609D02*
X008404Y014609D01*
X008464Y014767D02*
X007975Y014767D01*
X007639Y014767D02*
X007247Y014767D01*
X007359Y014926D02*
X007508Y014926D01*
X007449Y015084D02*
X007417Y015084D01*
X007417Y015243D02*
X007449Y015243D01*
X007449Y015402D02*
X007417Y015402D01*
X007417Y015560D02*
X007449Y015560D01*
X007807Y015321D02*
X007821Y015306D01*
X008308Y015306D01*
X007807Y015321D02*
X007807Y016181D01*
X007807Y016181D01*
X007933Y016181D01*
X007933Y016056D01*
X008622Y016056D01*
X008808Y016057D01*
X009121Y015556D02*
X009747Y015556D01*
X009808Y015618D01*
X009808Y016244D01*
X009121Y015556D02*
X008871Y015306D01*
X008871Y014931D01*
X008871Y014305D01*
X008933Y014243D01*
X008378Y014133D02*
X008165Y014133D01*
X008327Y013975D02*
X008378Y013975D01*
X007434Y013975D02*
X007433Y013975D01*
X007433Y014133D02*
X007434Y014133D01*
X007433Y014450D02*
X007434Y014450D01*
X007433Y014609D02*
X007434Y014609D01*
X007059Y014292D02*
X006683Y013916D01*
X006683Y012806D01*
X006871Y012619D01*
X006683Y012431D01*
X006683Y012119D01*
X006871Y012619D02*
X007231Y012619D01*
X007231Y012666D01*
X007295Y013383D02*
X007499Y013383D01*
X007499Y013479D01*
X007295Y013479D01*
X007295Y013383D01*
X006683Y013916D02*
X006433Y014166D01*
X005933Y014306D02*
X005933Y015008D01*
X006433Y015306D02*
X006121Y015619D01*
X006121Y016245D01*
X006665Y016576D02*
X006647Y016619D01*
X006676Y016689D01*
X006676Y016748D01*
X006686Y016738D01*
X006722Y016717D01*
X006763Y016706D01*
X006992Y016706D01*
X006992Y017133D01*
X007088Y017133D01*
X007088Y016706D01*
X007317Y016706D01*
X007357Y016717D01*
X007372Y016726D01*
X007407Y016691D01*
X007364Y016649D01*
X007336Y016656D01*
X007107Y016656D01*
X007107Y016230D01*
X007011Y016230D01*
X007011Y016656D01*
X006782Y016656D01*
X006742Y016645D01*
X006705Y016624D01*
X006675Y016595D01*
X006665Y016576D01*
X006668Y016670D02*
X007386Y016670D01*
X007107Y016511D02*
X007011Y016511D01*
X007011Y016353D02*
X007107Y016353D01*
X007088Y016828D02*
X006992Y016828D01*
X006992Y016987D02*
X007088Y016987D01*
X006624Y017463D02*
X006547Y017463D01*
X006541Y017621D02*
X005951Y017621D01*
X006159Y017780D02*
X006330Y017780D01*
X005534Y017304D02*
X005286Y017304D01*
X005286Y017146D02*
X005320Y017146D01*
X005621Y016994D02*
X006182Y016994D01*
X006121Y016993D01*
X006183Y016993D01*
X005621Y016994D02*
X005433Y016806D01*
X005433Y016400D01*
X005034Y016581D02*
X004995Y016487D01*
X004995Y016313D01*
X005036Y016213D01*
X004380Y016213D01*
X004291Y016176D01*
X004224Y016109D01*
X004187Y016020D01*
X004187Y015590D01*
X004224Y015502D01*
X004291Y015435D01*
X004380Y015398D01*
X004442Y015398D01*
X004442Y015393D01*
X003961Y014911D01*
X003454Y014911D01*
X003454Y014951D01*
X003963Y014951D01*
X003963Y014973D01*
X003950Y015056D01*
X003925Y015135D01*
X003887Y015209D01*
X003838Y015277D01*
X003779Y015336D01*
X003711Y015385D01*
X003637Y015423D01*
X003610Y015431D01*
X003637Y015440D01*
X003711Y015478D01*
X003779Y015527D01*
X003838Y015586D01*
X003887Y015654D01*
X003925Y015728D01*
X003950Y015807D01*
X003963Y015890D01*
X003963Y015911D01*
X003454Y015911D01*
X003454Y015951D01*
X003963Y015951D01*
X003963Y015973D01*
X003950Y016056D01*
X003925Y016135D01*
X003887Y016209D01*
X003838Y016277D01*
X003779Y016336D01*
X003711Y016385D01*
X003662Y016410D01*
X003724Y016436D01*
X003792Y016503D01*
X003795Y016511D01*
X003818Y016501D01*
X004425Y016501D01*
X004514Y016538D01*
X004565Y016589D01*
X004593Y016581D01*
X004822Y016581D01*
X004822Y017008D01*
X004918Y017008D01*
X004918Y016581D01*
X005034Y016581D01*
X005005Y016511D02*
X004449Y016511D01*
X004822Y016670D02*
X004918Y016670D01*
X004918Y016828D02*
X004822Y016828D01*
X004822Y016987D02*
X004918Y016987D01*
X004918Y017146D02*
X004822Y017146D01*
X004822Y017304D02*
X004918Y017304D01*
X004918Y017463D02*
X004822Y017463D01*
X004683Y018181D02*
X004058Y017556D01*
X004058Y017057D01*
X004122Y017056D01*
X003755Y016353D02*
X004995Y016353D01*
X004763Y015806D02*
X004762Y015805D01*
X004762Y015260D01*
X003433Y013931D01*
X002683Y014431D02*
X002683Y010681D01*
X003308Y010056D01*
X003683Y010056D01*
X004073Y009853D02*
X004267Y009853D01*
X004187Y009694D02*
X003941Y009694D01*
X004122Y010011D02*
X005396Y010011D01*
X005257Y009853D02*
X005805Y009853D01*
X005576Y009694D02*
X005337Y009694D01*
X005337Y009535D02*
X005502Y009535D01*
X005495Y009377D02*
X005337Y009377D01*
X005307Y009218D02*
X005547Y009218D01*
X005587Y009046D02*
X005547Y009035D01*
X005510Y009014D01*
X005481Y008984D01*
X005459Y008948D01*
X005449Y008907D01*
X005449Y008722D01*
X005939Y008722D01*
X005939Y008715D01*
X005449Y008715D01*
X005449Y008530D01*
X005459Y008490D01*
X005481Y008453D01*
X005510Y008423D01*
X005547Y008402D01*
X005587Y008391D01*
X005939Y008391D01*
X005939Y008715D01*
X005947Y008715D01*
X005947Y008722D01*
X006438Y008722D01*
X006438Y008907D01*
X006427Y008948D01*
X006406Y008984D01*
X006438Y008901D02*
X006583Y008901D01*
X006583Y008743D02*
X006438Y008743D01*
X006438Y008715D02*
X005947Y008715D01*
X005947Y008391D01*
X006299Y008391D01*
X006340Y008402D01*
X006376Y008423D01*
X006406Y008453D01*
X006427Y008490D01*
X006438Y008530D01*
X006438Y008715D01*
X006438Y008584D02*
X006583Y008584D01*
X006583Y008426D02*
X006378Y008426D01*
X006665Y008267D02*
X005300Y008267D01*
X005142Y008426D02*
X005508Y008426D01*
X005449Y008584D02*
X004983Y008584D01*
X004825Y008743D02*
X005449Y008743D01*
X005449Y008901D02*
X004666Y008901D01*
X004237Y008426D02*
X002496Y008426D01*
X002585Y008584D02*
X004078Y008584D01*
X004395Y008267D02*
X002250Y008267D01*
X001631Y009377D02*
X000963Y009377D01*
X000963Y009535D02*
X001634Y009535D01*
X001699Y009694D02*
X000963Y009694D01*
X000963Y009853D02*
X001808Y009853D01*
X001725Y010011D02*
X000963Y010011D01*
X000963Y010170D02*
X001714Y010170D01*
X001767Y010328D02*
X000963Y010328D01*
X000963Y010487D02*
X001940Y010487D01*
X002121Y010487D02*
X002121Y010487D01*
X002121Y010328D02*
X002121Y010328D01*
X002121Y010170D02*
X002121Y010170D01*
X002434Y009853D02*
X003060Y009853D01*
X002901Y010011D02*
X002517Y010011D01*
X002528Y010170D02*
X002743Y010170D01*
X002584Y010328D02*
X002474Y010328D01*
X002425Y010487D02*
X002302Y010487D01*
X002363Y010645D02*
X000963Y010645D01*
X000963Y010804D02*
X002363Y010804D01*
X002363Y010962D02*
X000963Y010962D01*
X000963Y011121D02*
X002363Y011121D01*
X002363Y011279D02*
X000963Y011279D01*
X000963Y011438D02*
X002363Y011438D01*
X002363Y011597D02*
X000963Y011597D01*
X000963Y011755D02*
X002363Y011755D01*
X002363Y011914D02*
X000963Y011914D01*
X000963Y012072D02*
X002363Y012072D01*
X002363Y012231D02*
X000963Y012231D01*
X000963Y012389D02*
X002363Y012389D01*
X002363Y012548D02*
X000963Y012548D01*
X000963Y012706D02*
X002363Y012706D01*
X002363Y012865D02*
X000963Y012865D01*
X000963Y013023D02*
X001878Y013023D01*
X001773Y013182D02*
X000963Y013182D01*
X000963Y013341D02*
X001745Y013341D01*
X001776Y013499D02*
X000963Y013499D01*
X000963Y013658D02*
X001863Y013658D01*
X001863Y013816D02*
X000963Y013816D01*
X000963Y013975D02*
X001863Y013975D01*
X001863Y014133D02*
X000963Y014133D01*
X000963Y014292D02*
X001863Y014292D01*
X001863Y014450D02*
X000963Y014450D01*
X000963Y014609D02*
X001863Y014609D01*
X001863Y014767D02*
X000963Y014767D01*
X000963Y014926D02*
X001863Y014926D01*
X001863Y015084D02*
X000963Y015084D01*
X000963Y015243D02*
X001863Y015243D01*
X001863Y015402D02*
X000963Y015402D01*
X000963Y015560D02*
X001863Y015560D01*
X001863Y015719D02*
X000963Y015719D01*
X000963Y015877D02*
X001863Y015877D01*
X001880Y016036D02*
X000963Y016036D01*
X000963Y016194D02*
X001994Y016194D01*
X002152Y016353D02*
X000963Y016353D01*
X000963Y016511D02*
X002311Y016511D01*
X002267Y016670D02*
X002469Y016670D01*
X002506Y016828D02*
X002628Y016828D01*
X002649Y016987D02*
X002718Y016987D01*
X002715Y017146D02*
X002718Y017146D01*
X002765Y017304D02*
X002772Y017304D01*
X002765Y017463D02*
X002798Y017463D01*
X002798Y017621D02*
X002754Y017621D01*
X002798Y017780D02*
X002689Y017780D01*
X002602Y017938D02*
X002798Y017938D01*
X002931Y018097D02*
X002443Y018097D01*
X003225Y018097D02*
X003321Y018097D01*
X003321Y017938D02*
X003225Y017938D01*
X003225Y017780D02*
X003321Y017780D01*
X003748Y017780D02*
X003829Y017780D01*
X003748Y017938D02*
X003988Y017938D01*
X004063Y018097D02*
X003616Y018097D01*
X003657Y018252D02*
X003657Y018252D01*
X003661Y018255D02*
X004063Y018255D01*
X004109Y018414D02*
X003879Y018414D01*
X003921Y018444D02*
X003921Y018444D01*
X003921Y018444D01*
X004014Y018572D02*
X004198Y018572D01*
X004113Y018708D02*
X004113Y018708D01*
X004120Y018731D02*
X004390Y018731D01*
X004171Y018890D02*
X015183Y018890D01*
X013390Y018731D02*
X010977Y018731D01*
X011169Y018572D02*
X013198Y018572D01*
X013109Y018414D02*
X011258Y018414D01*
X011303Y018255D02*
X013063Y018255D01*
X013063Y018097D02*
X011303Y018097D01*
X011254Y017938D02*
X012988Y017938D01*
X011433Y017431D02*
X011057Y017055D01*
X011057Y016556D01*
X011553Y016511D02*
X011583Y016511D01*
X010748Y017146D02*
X010069Y017146D01*
X009929Y017304D02*
X010854Y017304D01*
X010416Y017621D02*
X008951Y017621D01*
X009159Y017780D02*
X009321Y017780D01*
X009675Y017780D02*
X009692Y017780D01*
X009675Y017938D02*
X009692Y017938D01*
X009675Y018097D02*
X009692Y018097D01*
X009675Y018255D02*
X009692Y018255D01*
X009675Y018414D02*
X009692Y018414D01*
X009675Y018572D02*
X009692Y018572D01*
X010056Y018572D02*
X010198Y018572D01*
X010390Y018731D02*
X008977Y018731D01*
X009169Y018572D02*
X009311Y018572D01*
X008683Y018181D02*
X007557Y018181D01*
X008042Y018572D02*
X008198Y018572D01*
X008390Y018731D02*
X007874Y018731D01*
X007241Y018731D02*
X007126Y018731D01*
X006493Y018731D02*
X005977Y018731D01*
X006169Y018572D02*
X006325Y018572D01*
X005390Y018731D02*
X004977Y018731D01*
X005169Y018572D02*
X005198Y018572D01*
X003273Y016895D02*
X003147Y016895D01*
X002183Y015931D01*
X002183Y013338D01*
X002503Y014831D02*
X002503Y015799D01*
X003104Y016399D01*
X003184Y016399D01*
X003156Y016385D01*
X003088Y016336D01*
X003029Y016277D01*
X002980Y016209D01*
X002942Y016135D01*
X002916Y016056D01*
X002903Y015973D01*
X002903Y015951D01*
X003413Y015951D01*
X003413Y015911D01*
X003453Y015911D01*
X003453Y015401D01*
X003453Y014952D01*
X003413Y014952D01*
X003413Y015461D01*
X003413Y015911D01*
X002903Y015911D01*
X002903Y015890D01*
X002916Y015807D01*
X002942Y015728D01*
X002980Y015654D01*
X003029Y015586D01*
X003088Y015527D01*
X003156Y015478D01*
X003230Y015440D01*
X003257Y015431D01*
X003230Y015423D01*
X003156Y015385D01*
X003088Y015336D01*
X003029Y015277D01*
X002980Y015209D01*
X002942Y015135D01*
X002916Y015056D01*
X002903Y014973D01*
X002903Y014951D01*
X003413Y014951D01*
X003413Y014911D01*
X002903Y014911D01*
X002903Y014890D01*
X002916Y014810D01*
X002771Y014870D01*
X002596Y014870D01*
X002503Y014831D01*
X002503Y014926D02*
X003413Y014926D01*
X003454Y014926D02*
X003975Y014926D01*
X003941Y015084D02*
X004134Y015084D01*
X004292Y015243D02*
X003862Y015243D01*
X003678Y015402D02*
X004371Y015402D01*
X004200Y015560D02*
X003812Y015560D01*
X003920Y015719D02*
X004187Y015719D01*
X004187Y015877D02*
X003961Y015877D01*
X003953Y016036D02*
X004194Y016036D01*
X004335Y016194D02*
X003894Y016194D01*
X003453Y015877D02*
X003413Y015877D01*
X003413Y015719D02*
X003453Y015719D01*
X003453Y015560D02*
X003413Y015560D01*
X003413Y015402D02*
X003453Y015402D01*
X003453Y015243D02*
X003413Y015243D01*
X003413Y015084D02*
X003453Y015084D01*
X003005Y015243D02*
X002503Y015243D01*
X002503Y015084D02*
X002926Y015084D01*
X003189Y015402D02*
X002503Y015402D01*
X002503Y015560D02*
X003055Y015560D01*
X002947Y015719D02*
X002503Y015719D01*
X002582Y015877D02*
X002905Y015877D01*
X002913Y016036D02*
X002740Y016036D01*
X002899Y016194D02*
X002973Y016194D01*
X003057Y016353D02*
X003112Y016353D01*
X001600Y016670D02*
X000963Y016670D01*
X000963Y016828D02*
X001361Y016828D01*
X001218Y016987D02*
X000963Y016987D01*
X000963Y017146D02*
X001152Y017146D01*
X001102Y017304D02*
X000971Y017304D01*
X001013Y017463D02*
X001102Y017463D01*
X001112Y017621D02*
X001077Y017621D01*
X001172Y017780D02*
X001178Y017780D01*
X005183Y015244D02*
X005433Y015494D01*
X005183Y015244D02*
X005183Y014681D01*
X005433Y014431D01*
X005433Y013931D01*
X005183Y013681D01*
X005183Y013181D01*
X005433Y012931D01*
X005683Y012931D01*
X005933Y012681D01*
X004762Y013760D02*
X004183Y013181D01*
X004183Y012681D01*
X003433Y011931D01*
X003433Y010931D02*
X003933Y010431D01*
X005183Y010431D01*
X005933Y011181D01*
X006665Y011181D01*
X006871Y010369D02*
X008746Y010369D01*
X008621Y011556D02*
X008621Y012369D01*
X009871Y013556D02*
X009558Y013869D01*
X009558Y014181D01*
X009808Y014431D01*
X009808Y014870D01*
X010540Y014805D02*
X010540Y015350D01*
X010746Y015556D01*
X010877Y014133D02*
X010991Y014133D01*
X010877Y013975D02*
X011503Y013975D01*
X012058Y013913D02*
X012528Y013443D01*
X014605Y013443D01*
X014139Y013816D02*
X012613Y013816D01*
X012613Y013975D02*
X012866Y013975D01*
X012849Y014133D02*
X012613Y014133D01*
X012582Y014292D02*
X012849Y014292D01*
X012851Y014450D02*
X012613Y014450D01*
X012613Y014609D02*
X012971Y014609D01*
X010540Y013975D02*
X010539Y013975D01*
X010539Y013816D02*
X010540Y013816D01*
X010203Y013975D02*
X010007Y013975D01*
X009963Y014133D02*
X010203Y014133D01*
X007933Y016181D02*
X007807Y016055D01*
X007807Y016181D02*
X007871Y016245D01*
X007059Y015321D02*
X006808Y015070D01*
X006808Y014806D01*
X007045Y015306D02*
X007059Y015321D01*
X007058Y015320D01*
X004762Y014231D02*
X004762Y013760D01*
X007827Y017181D02*
X007807Y017201D01*
X008291Y017621D02*
X008416Y017621D01*
X008208Y017780D02*
X008037Y017780D01*
X010045Y017780D02*
X010208Y017780D01*
X006871Y010369D02*
X005933Y009431D01*
X005718Y009046D02*
X005587Y009046D01*
X005685Y009060D02*
X005718Y009046D01*
X005939Y008584D02*
X005947Y008584D01*
X005939Y008426D02*
X005947Y008426D01*
X004712Y007950D02*
X004613Y007950D01*
X004554Y008109D02*
X004540Y008109D01*
X004533Y007157D02*
X004876Y007157D01*
X004870Y006999D02*
X004533Y006999D01*
X004533Y006840D02*
X004722Y006840D01*
X004636Y006682D02*
X004533Y006682D01*
X004573Y006523D02*
X004419Y006523D01*
X004106Y006523D02*
X004010Y006523D01*
X004010Y006682D02*
X004106Y006682D01*
X004106Y006840D02*
X004010Y006840D01*
X003697Y006523D02*
X003655Y006523D01*
X004029Y006365D02*
X004125Y006365D01*
X004125Y006206D02*
X004029Y006206D01*
X004029Y006048D02*
X004125Y006048D01*
X004121Y005994D02*
X004433Y005681D01*
X004566Y005681D01*
X004843Y005404D01*
X004808Y005369D01*
X004833Y005378D02*
X004833Y005399D01*
X004832Y005399D01*
X004715Y005448D01*
X004565Y005598D01*
X004493Y005669D01*
X004493Y005658D01*
X004482Y005617D01*
X004481Y005615D01*
X004489Y005612D01*
X004556Y005545D01*
X004593Y005456D01*
X004593Y004626D01*
X004622Y004626D01*
X004740Y004578D01*
X004753Y004564D01*
X004753Y004617D01*
X004790Y004705D01*
X004833Y004748D01*
X004833Y004774D01*
X004861Y004774D01*
X004861Y004774D01*
X004861Y004774D01*
X004833Y004774D01*
X004833Y004799D01*
X004790Y004843D01*
X004753Y004931D01*
X004753Y005247D01*
X004790Y005335D01*
X004833Y005378D01*
X004843Y005404D02*
X005243Y005404D01*
X005906Y005404D01*
X005933Y005431D01*
X005867Y005409D02*
X005740Y005409D01*
X005653Y005409D01*
X005653Y005429D01*
X005697Y005473D01*
X005726Y005543D01*
X005846Y005493D01*
X006021Y005493D01*
X006158Y005550D01*
X006190Y005473D01*
X006225Y005437D01*
X006225Y005340D01*
X006295Y005172D01*
X006424Y005043D01*
X006592Y004973D01*
X006745Y004973D01*
X006745Y004844D01*
X006780Y004761D01*
X006693Y004847D01*
X006524Y004917D01*
X006428Y004917D01*
X005985Y005360D01*
X005867Y005409D01*
X005653Y005413D02*
X006225Y005413D01*
X006261Y005255D02*
X006090Y005255D01*
X006249Y005096D02*
X006371Y005096D01*
X006407Y004938D02*
X006745Y004938D01*
X006761Y004779D02*
X006772Y004779D01*
X007183Y004931D02*
X007183Y005306D01*
X007621Y005744D01*
X007121Y005744D01*
X006776Y006089D01*
X006776Y006089D01*
X006776Y006621D01*
X006461Y006621D02*
X006461Y005654D01*
X006683Y005431D01*
X007532Y005203D02*
X007615Y005286D01*
X007712Y005286D01*
X007880Y005356D01*
X008009Y005484D01*
X008079Y005653D01*
X008079Y005835D01*
X008009Y006003D01*
X007881Y006131D01*
X008133Y006131D01*
X008133Y005876D01*
X008133Y005561D01*
X008133Y005246D01*
X008170Y005158D01*
X008213Y005114D01*
X008213Y005089D01*
X008241Y005089D01*
X008241Y005089D01*
X008241Y005089D01*
X008213Y005089D01*
X008213Y005063D01*
X008170Y005020D01*
X008133Y004932D01*
X008133Y004616D01*
X008133Y004501D01*
X008120Y004501D01*
X007983Y004501D01*
X007932Y004553D01*
X007771Y004620D01*
X007596Y004620D01*
X007435Y004553D01*
X007383Y004501D01*
X007291Y004501D01*
X007432Y004560D01*
X007555Y004683D01*
X007622Y004844D01*
X007622Y005019D01*
X007555Y005180D01*
X007532Y005203D01*
X007584Y005255D02*
X008133Y005255D01*
X008133Y005413D02*
X007938Y005413D01*
X008045Y005572D02*
X008133Y005572D01*
X008133Y005730D02*
X008079Y005730D01*
X008057Y005889D02*
X008133Y005889D01*
X008133Y006048D02*
X007965Y006048D01*
X008621Y006036D02*
X008913Y006036D01*
X008623Y006034D02*
X008621Y006036D01*
X008623Y005719D02*
X009146Y005719D01*
X009308Y005556D01*
X009183Y005681D01*
X009084Y005175D02*
X009221Y005118D01*
X009396Y005118D01*
X009449Y005140D01*
X009449Y005095D01*
X009479Y005021D01*
X009467Y004993D01*
X009467Y004674D01*
X009455Y004705D01*
X009365Y004795D01*
X009365Y004795D01*
X009205Y004955D01*
X009130Y005029D01*
X009115Y005045D01*
X009105Y005049D01*
X009033Y005079D01*
X009033Y005089D01*
X009033Y005114D01*
X009077Y005158D01*
X009084Y005175D01*
X009033Y005096D02*
X009449Y005096D01*
X009467Y004938D02*
X009222Y004938D01*
X009205Y004955D02*
X009205Y004955D01*
X009276Y005089D02*
X009433Y004931D01*
X009433Y004229D01*
X009871Y003916D01*
X009871Y003916D01*
X010194Y003916D01*
X010194Y003771D01*
X010185Y003737D01*
X010232Y003784D01*
X010321Y003821D01*
X010434Y003821D01*
X010310Y003872D01*
X010194Y003988D01*
X010194Y003916D01*
X009871Y003916D01*
X009870Y003916D02*
X009547Y003916D01*
X009870Y003916D01*
X009870Y003916D01*
X009871Y003986D02*
X009871Y003986D01*
X009871Y004145D02*
X009871Y004145D01*
X009586Y004145D02*
X009503Y004145D01*
X009503Y004304D02*
X010120Y004304D01*
X010093Y004462D02*
X010174Y004462D01*
X010262Y004621D02*
X010322Y004621D01*
X009649Y004462D02*
X009503Y004462D01*
X009183Y004524D02*
X008933Y004774D01*
X008623Y004774D01*
X008623Y005089D02*
X009276Y005089D01*
X009033Y005089D02*
X009009Y005089D01*
X009010Y005089D01*
X009033Y005089D01*
X009381Y004779D02*
X009467Y004779D01*
X009183Y004524D02*
X009183Y003681D01*
X009522Y003343D01*
X010666Y003343D01*
X010683Y003325D01*
X010417Y003828D02*
X010194Y003828D01*
X010194Y003986D02*
X010196Y003986D01*
X009547Y003986D02*
X009503Y003986D01*
X009503Y003828D02*
X009547Y003828D01*
X008133Y004621D02*
X007493Y004621D01*
X007595Y004779D02*
X008133Y004779D01*
X008136Y004938D02*
X007622Y004938D01*
X007590Y005096D02*
X008213Y005096D01*
X008153Y005089D02*
X007933Y004744D01*
X008153Y005089D02*
X008623Y005089D01*
X009308Y006431D02*
X009308Y006932D01*
X009790Y008109D02*
X009863Y008109D01*
X011682Y009218D02*
X011795Y009218D01*
X012821Y009218D02*
X012879Y009218D01*
X006146Y007094D02*
X006146Y006621D01*
X005831Y006621D02*
X005831Y006034D01*
X005933Y005931D01*
X005243Y005719D02*
X004896Y005719D01*
X004746Y005869D01*
X004746Y006244D01*
X005058Y006556D01*
X005308Y007056D02*
X005496Y007244D01*
X005996Y007244D01*
X006146Y007094D01*
X004121Y005994D02*
X004077Y005994D01*
X004529Y005572D02*
X004590Y005572D01*
X004593Y005413D02*
X004797Y005413D01*
X004757Y005255D02*
X004593Y005255D01*
X004593Y005096D02*
X004753Y005096D01*
X004753Y004938D02*
X004593Y004938D01*
X004593Y004779D02*
X004833Y004779D01*
X004841Y004774D02*
X004808Y004806D01*
X004808Y004806D01*
X004746Y004869D01*
X004841Y004774D02*
X005243Y004774D01*
X005243Y005089D02*
X005803Y005089D01*
X006433Y004459D01*
X005243Y003829D02*
X005243Y003491D01*
X005058Y003306D01*
X005058Y002825D01*
X005613Y002776D02*
X005613Y002521D01*
X005577Y002433D01*
X005514Y002370D01*
X005522Y002355D01*
X005533Y002315D01*
X005533Y002086D01*
X005107Y002086D01*
X005107Y001990D01*
X005533Y001990D01*
X005533Y001795D01*
X005582Y001843D01*
X005650Y001893D01*
X005726Y001932D01*
X005807Y001958D01*
X005891Y001971D01*
X005915Y001971D01*
X005915Y001450D01*
X005952Y001450D01*
X005952Y001971D01*
X005976Y001971D01*
X006060Y001958D01*
X006141Y001932D01*
X006216Y001893D01*
X006285Y001843D01*
X006345Y001783D01*
X006385Y001728D01*
X006408Y001783D01*
X006582Y001957D01*
X006810Y002051D01*
X007057Y002051D01*
X007285Y001957D01*
X007433Y001808D01*
X007519Y001894D01*
X007449Y001963D01*
X007401Y002080D01*
X007401Y002208D01*
X007401Y002751D01*
X007248Y002751D01*
X006933Y002751D01*
X006733Y002751D01*
X006805Y002680D01*
X006872Y002519D01*
X006872Y002344D01*
X006805Y002183D01*
X006682Y002060D01*
X006521Y001993D01*
X006346Y001993D01*
X006185Y002060D01*
X006062Y002183D01*
X005995Y002344D01*
X005995Y002417D01*
X005875Y002538D01*
X005826Y002655D01*
X005826Y002751D01*
X005673Y002751D01*
X005613Y002776D01*
X005613Y002718D02*
X005826Y002718D01*
X005866Y002560D02*
X005613Y002560D01*
X005545Y002401D02*
X005995Y002401D01*
X006037Y002242D02*
X005533Y002242D01*
X005533Y001925D02*
X005714Y001925D01*
X005915Y001925D02*
X005952Y001925D01*
X005952Y001767D02*
X005915Y001767D01*
X005915Y001608D02*
X005952Y001608D01*
X005915Y001450D02*
X005915Y001413D01*
X005393Y001413D01*
X005393Y001389D01*
X005407Y001305D01*
X005433Y001224D01*
X005451Y001189D01*
X004628Y001189D01*
X004499Y001318D01*
X004572Y001348D01*
X004639Y001416D01*
X004676Y001504D01*
X004676Y001636D01*
X004682Y001633D01*
X004722Y001622D01*
X005010Y001622D01*
X005010Y001989D01*
X005106Y001989D01*
X005106Y001622D01*
X005394Y001622D01*
X005431Y001632D01*
X005407Y001558D01*
X005393Y001474D01*
X005393Y001450D01*
X005915Y001450D01*
X004653Y001450D01*
X004676Y001608D02*
X005423Y001608D01*
X005106Y001767D02*
X005010Y001767D01*
X005010Y001925D02*
X005106Y001925D01*
X005107Y002084D02*
X006161Y002084D01*
X006153Y001925D02*
X006551Y001925D01*
X006401Y001767D02*
X006357Y001767D01*
X006706Y002084D02*
X007401Y002084D01*
X007401Y002242D02*
X006830Y002242D01*
X006872Y002401D02*
X007401Y002401D01*
X007401Y002560D02*
X006855Y002560D01*
X006767Y002718D02*
X007401Y002718D01*
X008036Y002579D02*
X008433Y002181D01*
X007933Y001931D02*
X007933Y001431D01*
X007933Y001931D02*
X007721Y002144D01*
X007721Y003241D01*
X008036Y003241D02*
X008036Y002579D01*
X007487Y001925D02*
X007316Y001925D01*
X006433Y002431D02*
X006146Y002719D01*
X006146Y003241D01*
X005243Y003829D02*
X004894Y003829D01*
X004643Y003578D01*
X004136Y003578D01*
X004121Y002555D02*
X003208Y002555D01*
X002808Y002956D01*
X002808Y003744D01*
X002457Y004095D01*
X002371Y004095D01*
X002860Y004145D02*
X002868Y004145D01*
X002847Y004304D02*
X002984Y004304D01*
X002873Y004462D02*
X002813Y004462D01*
X002774Y004621D02*
X001969Y004621D01*
X002051Y004779D02*
X002774Y004779D01*
X002774Y004938D02*
X002051Y004938D01*
X002051Y005096D02*
X002774Y005096D01*
X002774Y005255D02*
X002051Y005255D01*
X002029Y005413D02*
X002774Y005413D01*
X002818Y005572D02*
X002051Y005572D01*
X002051Y005730D02*
X002794Y005730D01*
X002794Y005889D02*
X002051Y005889D01*
X001558Y004994D02*
X001558Y004095D01*
X001082Y004145D02*
X000963Y004145D01*
X000963Y004304D02*
X001082Y004304D01*
X001082Y004379D02*
X001082Y003811D01*
X001119Y003723D01*
X001186Y003655D01*
X001231Y003636D01*
X001224Y003632D01*
X001194Y003602D01*
X001173Y003566D01*
X001162Y003525D01*
X001162Y003306D01*
X001520Y003306D01*
X001520Y003230D01*
X001162Y003230D01*
X001162Y003011D01*
X001173Y002970D01*
X001192Y002938D01*
X000968Y002977D01*
X000963Y002976D01*
X000963Y004700D01*
X000977Y004666D01*
X001045Y004598D01*
X001133Y004561D01*
X001238Y004561D01*
X001238Y004556D01*
X001186Y004534D01*
X001119Y004467D01*
X001082Y004379D01*
X001117Y004462D02*
X000963Y004462D01*
X000963Y004621D02*
X001022Y004621D01*
X000963Y003986D02*
X001082Y003986D01*
X001082Y003828D02*
X000963Y003828D01*
X000963Y003669D02*
X001172Y003669D01*
X001162Y003511D02*
X000963Y003511D01*
X000963Y003352D02*
X001162Y003352D01*
X001162Y003194D02*
X000963Y003194D01*
X000963Y003035D02*
X001162Y003035D01*
X000968Y002977D02*
X000968Y002977D01*
X001520Y003035D02*
X001596Y003035D01*
X001596Y002877D02*
X001544Y002877D01*
X001558Y002874D02*
X001520Y002881D01*
X001520Y003230D01*
X001596Y003230D01*
X001596Y002872D01*
X001816Y002872D01*
X001856Y002883D01*
X001893Y002904D01*
X001923Y002934D01*
X001944Y002970D01*
X001955Y003011D01*
X001955Y003230D01*
X001597Y003230D01*
X001597Y003306D01*
X001955Y003306D01*
X001955Y003525D01*
X001944Y003566D01*
X001923Y003602D01*
X001893Y003632D01*
X001885Y003636D01*
X001931Y003655D01*
X001965Y003689D01*
X001999Y003655D01*
X002044Y003636D01*
X002036Y003632D01*
X002007Y003603D01*
X001986Y003566D01*
X001975Y003525D01*
X001975Y003306D01*
X002333Y003306D01*
X002333Y003230D01*
X002409Y003230D01*
X002409Y002872D01*
X002497Y002872D01*
X002537Y002774D01*
X003027Y002284D01*
X003145Y002235D01*
X003272Y002235D01*
X003573Y002235D01*
X003595Y002181D01*
X003566Y002111D01*
X003566Y001504D01*
X003602Y001416D01*
X003670Y001348D01*
X003758Y001311D01*
X003801Y001311D01*
X003801Y001308D01*
X003801Y001180D01*
X003850Y001063D01*
X004201Y000711D01*
X003449Y000711D01*
X003447Y000745D01*
X003283Y001321D01*
X002995Y001847D01*
X002598Y002295D01*
X002111Y002643D01*
X002111Y002643D01*
X001558Y002874D01*
X001558Y002874D01*
X001834Y002877D02*
X002096Y002877D01*
X002114Y002872D02*
X002333Y002872D01*
X002333Y003230D01*
X001975Y003230D01*
X001975Y003011D01*
X001986Y002970D01*
X002007Y002934D01*
X002036Y002904D01*
X002073Y002883D01*
X002114Y002872D01*
X001975Y003035D02*
X001955Y003035D01*
X001955Y003194D02*
X001975Y003194D01*
X001975Y003352D02*
X001955Y003352D01*
X001955Y003511D02*
X001975Y003511D01*
X001984Y003669D02*
X001945Y003669D01*
X001596Y003194D02*
X001520Y003194D01*
X001931Y002718D02*
X002593Y002718D01*
X002752Y002560D02*
X002227Y002560D01*
X002449Y002401D02*
X002910Y002401D01*
X003128Y002242D02*
X002644Y002242D01*
X002598Y002295D02*
X002598Y002295D01*
X002785Y002084D02*
X003566Y002084D01*
X003566Y001925D02*
X002926Y001925D01*
X003039Y001767D02*
X003566Y001767D01*
X003566Y001608D02*
X003126Y001608D01*
X003213Y001450D02*
X003588Y001450D01*
X003801Y001291D02*
X003292Y001291D01*
X003337Y001133D02*
X003821Y001133D01*
X003938Y000974D02*
X003382Y000974D01*
X003427Y000816D02*
X004097Y000816D01*
X004496Y000869D02*
X008371Y000869D01*
X009353Y000974D02*
X009514Y000974D01*
X009933Y001431D02*
X009933Y002681D01*
X010635Y002401D02*
X010731Y002401D01*
X010731Y002242D02*
X010635Y002242D01*
X010253Y002084D02*
X011164Y002084D01*
X011316Y001925D02*
X011430Y001925D01*
X011466Y001767D02*
X011589Y001767D01*
X011531Y001608D02*
X011773Y001608D01*
X011553Y001450D02*
X012406Y001450D01*
X012564Y001291D02*
X011546Y001291D01*
X011481Y001133D02*
X012723Y001133D01*
X012882Y000974D02*
X011353Y000974D01*
X010514Y000974D02*
X010353Y000974D01*
X010316Y001925D02*
X010551Y001925D01*
X005411Y001291D02*
X004526Y001291D01*
X004121Y001244D02*
X004496Y000869D01*
X004121Y001244D02*
X004121Y001807D01*
X002409Y002877D02*
X002333Y002877D01*
X002333Y003035D02*
X002409Y003035D01*
X002409Y003194D02*
X002333Y003194D01*
X004636Y004621D02*
X004755Y004621D01*
X022422Y014420D02*
X022433Y014431D01*
D41*
X019933Y014431D02*
X018683Y014431D01*
X018433Y014681D01*
X018433Y015307D01*
X018433Y016055D02*
X018433Y016681D01*
X018683Y016931D01*
X019933Y016931D01*
X014307Y006931D02*
X014307Y005826D01*
X014327Y005806D01*
X011621Y002538D02*
X011558Y002494D01*
X011558Y002306D01*
X011933Y001931D01*
X012433Y001931D01*
X013183Y001181D01*
X016183Y001181D01*
X020433Y005431D01*
X025683Y005431D01*
X005943Y015018D02*
X005933Y015008D01*
D42*
X013308Y010306D03*
X016558Y007806D03*
X017683Y006931D03*
X018183Y011681D03*
X007621Y005744D03*
X006683Y005431D03*
X006433Y004459D03*
X008433Y002181D03*
X012183Y001181D03*
D43*
X009933Y002681D03*
X010558Y004244D03*
X010308Y005306D03*
X009308Y005556D03*
X007933Y004744D03*
X007683Y004181D03*
X007183Y004931D03*
X005933Y005931D03*
X005058Y006556D03*
X005308Y007056D03*
X008308Y007806D03*
X010182Y007805D03*
X008183Y010869D03*
X008621Y011556D03*
X007621Y011994D03*
X006683Y012119D03*
X005933Y012681D03*
X005933Y014306D03*
X006808Y014806D03*
X005433Y015494D03*
X005433Y016400D03*
X002683Y014431D03*
X002183Y013338D03*
X003683Y010056D03*
X005933Y009431D03*
X009433Y012681D03*
X009871Y013556D03*
X008871Y014931D03*
X008308Y015306D03*
X009683Y016931D03*
X011433Y011181D03*
X002433Y005181D03*
X003183Y002181D03*
X006433Y002431D03*
D44*
X009808Y014431D02*
X011366Y014431D01*
D45*
X016683Y010931D02*
X017246Y010369D01*
X017246Y009890D01*
X016537Y009890D01*
X016439Y009989D01*
X015808Y009989D01*
X017225Y008473D02*
X016558Y007806D01*
X015746Y008244D02*
X015683Y008244D01*
X015371Y007931D01*
X013433Y007931D01*
X012308Y007569D02*
X012308Y008762D01*
X012300Y008754D01*
X011156Y008754D01*
X010256Y008754D02*
X010256Y009421D01*
X009905Y009772D01*
X008183Y009772D01*
X011433Y006694D02*
X012308Y007569D01*
X014307Y006931D02*
X015820Y006931D01*
X016922Y006931D02*
X017683Y006931D01*
X017246Y008473D02*
X017225Y008473D01*
X013308Y010306D02*
X013103Y010101D01*
X012308Y010101D01*
D46*
X006433Y014166D02*
X006433Y015306D01*
X001496Y005057D02*
X001496Y005056D01*
X001558Y004994D01*
X001683Y003282D02*
X001558Y003268D01*
D47*
X017246Y008473D02*
X018580Y008473D01*
X018933Y008119D01*
X018933Y007181D01*
X018183Y011681D02*
X018433Y011931D01*
X019132Y011931D01*
X020235Y011931D02*
X021320Y011931D01*
X022422Y011931D02*
X022422Y014420D01*
D48*
X019965Y014431D02*
X024933Y014431D01*
X024933Y011931D02*
X024933Y010681D01*
X022933Y008681D01*
X022933Y007181D01*
X023933Y002931D02*
X019933Y002931D01*
X022433Y016931D02*
X024933Y016931D01*
D49*
X025933Y007431D02*
X025933Y005431D01*
X025433Y005431D01*
X017683Y005431D02*
X015808Y003556D01*
X015808Y002619D01*
M02*
