G75*
G70*
%OFA0B0*%
%FSLAX24Y24*%
%IPPOS*%
%LPD*%
%AMOC8*
5,1,8,0,0,1.08239X$1,22.5*
%
%ADD10C,0.0760*%
%ADD11C,0.0500*%
%ADD12C,0.0475*%
%ADD13C,0.0740*%
%ADD14OC8,0.0630*%
%ADD15C,0.0630*%
%ADD16C,0.0650*%
%ADD17C,0.0660*%
%ADD18C,0.1640*%
%ADD19C,0.0436*%
%ADD20C,0.0160*%
%ADD21C,0.0397*%
%ADD22C,0.0320*%
%ADD23C,0.1700*%
%ADD24C,0.1600*%
%ADD25C,0.1000*%
D10*
X007939Y001436D03*
X008939Y001436D03*
X009939Y001436D03*
X010939Y001436D03*
X011939Y001436D03*
X012939Y001436D03*
X018689Y010936D03*
X018689Y017936D03*
X016689Y018186D03*
X015689Y018186D03*
X012689Y018186D03*
X011689Y018186D03*
X010689Y018186D03*
X007689Y018186D03*
X006689Y018186D03*
D11*
X004127Y010123D03*
X004127Y009436D03*
X004127Y008748D03*
D12*
X003527Y007373D03*
X005101Y007373D03*
D13*
X005439Y010936D03*
X005439Y011936D03*
X005439Y012936D03*
X005439Y013936D03*
X005439Y014936D03*
X005439Y015936D03*
D14*
X013439Y005298D03*
D15*
X013439Y006698D03*
D16*
X016114Y004186D02*
X016764Y004186D01*
X024114Y004186D02*
X024764Y004186D01*
D17*
X024939Y007606D02*
X024939Y008266D01*
X027939Y008266D02*
X027939Y007606D01*
X020939Y007606D02*
X020939Y008266D01*
X020939Y010606D02*
X020939Y011266D01*
D18*
X021939Y014436D03*
X021939Y016936D03*
X027189Y014561D03*
X027189Y012811D03*
X027939Y006186D03*
X024439Y002436D03*
X022439Y006186D03*
X016439Y002436D03*
D19*
X014189Y001186D03*
X010439Y002186D03*
X008439Y004463D03*
X008689Y005436D03*
X009627Y005748D03*
X015314Y010311D03*
X018564Y007811D03*
X019689Y006936D03*
X020189Y011686D03*
D20*
X004081Y002719D02*
X004219Y002203D01*
X004219Y001991D01*
X004219Y001991D01*
X004219Y000716D01*
X017189Y000716D01*
X017189Y001804D01*
X017171Y001782D01*
X017093Y001704D01*
X017007Y001635D01*
X016914Y001576D01*
X016815Y001529D01*
X016711Y001492D01*
X016603Y001468D01*
X016519Y001458D01*
X016519Y002355D01*
X016359Y002355D01*
X016359Y001458D01*
X016275Y001468D01*
X016167Y001492D01*
X016063Y001529D01*
X015964Y001576D01*
X015871Y001635D01*
X015785Y001704D01*
X015707Y001782D01*
X015639Y001868D01*
X015580Y001961D01*
X015532Y002060D01*
X015496Y002164D01*
X015471Y002271D01*
X015462Y002356D01*
X016359Y002356D01*
X016359Y002516D01*
X016359Y003413D01*
X016275Y003403D01*
X016167Y003379D01*
X016063Y003342D01*
X015964Y003295D01*
X015871Y003236D01*
X015785Y003167D01*
X015707Y003090D01*
X015639Y003004D01*
X015580Y002910D01*
X015532Y002811D01*
X015496Y002707D01*
X015471Y002600D01*
X015462Y002516D01*
X016359Y002516D01*
X016519Y002516D01*
X016519Y003413D01*
X016603Y003403D01*
X016711Y003379D01*
X016815Y003342D01*
X016914Y003295D01*
X017007Y003236D01*
X017093Y003167D01*
X017171Y003090D01*
X017189Y003067D01*
X017189Y003952D01*
X017178Y003931D01*
X017134Y003870D01*
X017080Y003816D01*
X017018Y003771D01*
X016950Y003736D01*
X016877Y003713D01*
X016802Y003701D01*
X016467Y003701D01*
X016467Y004157D01*
X016411Y004157D01*
X016411Y003701D01*
X016076Y003701D01*
X016001Y003713D01*
X015928Y003736D01*
X015860Y003771D01*
X015798Y003816D01*
X015744Y003870D01*
X015700Y003931D01*
X015665Y003999D01*
X015641Y004072D01*
X015629Y004147D01*
X015629Y004157D01*
X016411Y004157D01*
X016411Y004214D01*
X016411Y004670D01*
X016076Y004670D01*
X016001Y004658D01*
X015928Y004635D01*
X015860Y004600D01*
X015798Y004555D01*
X015744Y004501D01*
X015700Y004440D01*
X015665Y004372D01*
X015641Y004299D01*
X015629Y004224D01*
X015629Y004214D01*
X016411Y004214D01*
X016467Y004214D01*
X016467Y004670D01*
X016802Y004670D01*
X016877Y004658D01*
X016950Y004635D01*
X017018Y004600D01*
X017080Y004555D01*
X017134Y004501D01*
X017178Y004440D01*
X017189Y004419D01*
X017189Y007411D01*
X014717Y007411D01*
X013994Y006687D01*
X013994Y006588D01*
X013910Y006384D01*
X013753Y006228D01*
X013549Y006143D01*
X013329Y006143D01*
X013125Y006228D01*
X012969Y006384D01*
X012884Y006588D01*
X012884Y006809D01*
X012969Y007012D01*
X013125Y007169D01*
X013329Y007253D01*
X013428Y007253D01*
X014151Y007976D01*
X014151Y016157D01*
X012743Y017566D01*
X012566Y017566D01*
X012338Y017660D01*
X012163Y017834D01*
X012141Y017889D01*
X012101Y017834D01*
X012041Y017774D01*
X011972Y017724D01*
X011896Y017685D01*
X011816Y017659D01*
X011732Y017646D01*
X011698Y017646D01*
X011698Y018177D01*
X011680Y018177D01*
X011680Y017646D01*
X011647Y017646D01*
X011563Y017659D01*
X011482Y017685D01*
X011406Y017724D01*
X011337Y017774D01*
X011277Y017834D01*
X011237Y017889D01*
X011215Y017834D01*
X011040Y017660D01*
X010812Y017566D01*
X010566Y017566D01*
X010535Y017579D01*
X009960Y017004D01*
X009870Y016914D01*
X009753Y016866D01*
X007572Y016866D01*
X007542Y016836D01*
X007687Y016776D01*
X007739Y016724D01*
X009157Y016724D01*
X009284Y016724D01*
X009402Y016676D01*
X009481Y016596D01*
X009492Y016586D01*
X009492Y016586D01*
X010328Y015749D01*
X010401Y015749D01*
X010562Y015682D01*
X010686Y015559D01*
X010752Y015398D01*
X010752Y015359D01*
X010789Y015374D01*
X010964Y015374D01*
X011125Y015307D01*
X011248Y015184D01*
X011315Y015023D01*
X011315Y014848D01*
X011248Y014687D01*
X011125Y014564D01*
X010964Y014497D01*
X012119Y014497D01*
X012119Y014339D02*
X008377Y014339D01*
X008377Y014325D02*
X008377Y014398D01*
X008339Y014491D01*
X008514Y014491D01*
X008566Y014439D01*
X008727Y014372D01*
X008901Y014372D01*
X009062Y014439D01*
X009114Y014491D01*
X010815Y014491D01*
X010831Y014497D01*
X010964Y014497D01*
X011217Y014656D02*
X012119Y014656D01*
X012119Y014814D02*
X011301Y014814D01*
X011315Y014973D02*
X012119Y014973D01*
X012119Y015131D02*
X011270Y015131D01*
X011142Y015290D02*
X012119Y015290D01*
X012119Y015448D02*
X010731Y015448D01*
X010638Y015607D02*
X012119Y015607D01*
X012119Y015766D02*
X010312Y015766D01*
X010153Y015924D02*
X012119Y015924D01*
X012119Y016053D02*
X012119Y013935D01*
X011964Y013999D01*
X011789Y013999D01*
X011628Y013932D01*
X011577Y013881D01*
X011125Y013881D01*
X011008Y013832D01*
X010918Y013742D01*
X009612Y012436D01*
X009539Y012436D01*
X008996Y012436D01*
X008937Y012495D02*
X008858Y012527D01*
X008960Y012629D01*
X009009Y012747D01*
X009009Y012874D01*
X009009Y013624D01*
X008960Y013742D01*
X008870Y013832D01*
X008377Y014325D01*
X008522Y014180D02*
X012119Y014180D01*
X012119Y014022D02*
X008681Y014022D01*
X008839Y013863D02*
X011083Y013863D01*
X010880Y013704D02*
X008976Y013704D01*
X009009Y013546D02*
X010722Y013546D01*
X010563Y013387D02*
X009009Y013387D01*
X009009Y013229D02*
X010405Y013229D01*
X010246Y013070D02*
X009009Y013070D01*
X009009Y012912D02*
X010088Y012912D01*
X009929Y012753D02*
X009009Y012753D01*
X008926Y012595D02*
X009771Y012595D01*
X009539Y012436D02*
X009378Y012370D01*
X009255Y012246D01*
X009188Y012085D01*
X009188Y011911D01*
X009255Y011750D01*
X009307Y011698D01*
X009307Y010208D01*
X009009Y010506D01*
X009009Y011823D01*
X009061Y011875D01*
X009127Y012036D01*
X009127Y012210D01*
X009061Y012371D01*
X008937Y012495D01*
X009100Y012278D02*
X009286Y012278D01*
X009202Y012119D02*
X009127Y012119D01*
X009096Y011961D02*
X009188Y011961D01*
X009233Y011802D02*
X009009Y011802D01*
X009009Y011643D02*
X009307Y011643D01*
X009307Y011485D02*
X009009Y011485D01*
X009009Y011326D02*
X009307Y011326D01*
X009307Y011168D02*
X009009Y011168D01*
X009009Y011009D02*
X009307Y011009D01*
X009307Y010851D02*
X009009Y010851D01*
X009009Y010692D02*
X009307Y010692D01*
X009307Y010534D02*
X009009Y010534D01*
X009140Y010375D02*
X009307Y010375D01*
X009298Y010217D02*
X009307Y010217D01*
X009127Y009936D02*
X009127Y005623D01*
X009502Y005248D01*
X009814Y005248D01*
X010127Y005561D01*
X011314Y005561D01*
X011014Y005881D02*
X010190Y005881D01*
X010068Y005881D01*
X010015Y006008D01*
X009947Y006076D01*
X009947Y011698D01*
X009998Y011750D01*
X010065Y011911D01*
X010065Y011984D01*
X011322Y013241D01*
X011577Y013241D01*
X011628Y013189D01*
X011789Y013122D01*
X011923Y013122D01*
X011806Y013006D01*
X011739Y013006D01*
X011687Y013057D01*
X011526Y013124D01*
X011352Y013124D01*
X011191Y013057D01*
X011067Y012934D01*
X011001Y012773D01*
X011001Y012598D01*
X011067Y012437D01*
X011191Y012314D01*
X011352Y012247D01*
X011526Y012247D01*
X011687Y012314D01*
X011739Y012366D01*
X012003Y012366D01*
X012120Y012414D01*
X012210Y012504D01*
X012620Y012914D01*
X012710Y013004D01*
X012759Y013122D01*
X012759Y016122D01*
X012759Y016249D01*
X012710Y016367D01*
X012127Y016950D01*
X012127Y017023D01*
X012061Y017184D01*
X011937Y017307D01*
X011776Y017374D01*
X011602Y017374D01*
X011441Y017307D01*
X011317Y017184D01*
X011251Y017023D01*
X011251Y016848D01*
X011317Y016687D01*
X011441Y016564D01*
X011602Y016497D01*
X011675Y016497D01*
X012119Y016053D01*
X012089Y016083D02*
X009995Y016083D01*
X009836Y016241D02*
X011931Y016241D01*
X011772Y016400D02*
X009677Y016400D01*
X009519Y016558D02*
X011454Y016558D01*
X011305Y016717D02*
X009302Y016717D01*
X009220Y016404D02*
X010314Y015311D01*
X010752Y014811D02*
X010877Y014936D01*
X010752Y014811D02*
X008689Y014811D01*
X008814Y014811D01*
X008689Y014811D02*
X008689Y014811D01*
X007439Y014811D01*
X006564Y013936D01*
X005439Y013936D01*
X004689Y013186D01*
X004533Y013342D01*
X004189Y013342D01*
X003841Y013070D02*
X002219Y013070D01*
X002219Y012912D02*
X004082Y012912D01*
X004102Y012903D02*
X003941Y012970D01*
X003817Y013094D01*
X003751Y013255D01*
X003751Y013429D01*
X003817Y013590D01*
X003941Y013714D01*
X004102Y013780D01*
X004276Y013780D01*
X004437Y013714D01*
X004489Y013662D01*
X004596Y013662D01*
X004679Y013628D01*
X004840Y013789D01*
X004829Y013814D01*
X004829Y014019D01*
X004776Y013997D01*
X004602Y013997D01*
X004441Y014064D01*
X004317Y014187D01*
X004251Y014348D01*
X004251Y014523D01*
X004317Y014684D01*
X004369Y014736D01*
X004369Y016122D01*
X004369Y016249D01*
X004418Y016367D01*
X006082Y018031D01*
X006069Y018062D01*
X006069Y018309D01*
X006163Y018537D01*
X006282Y018656D01*
X004219Y018656D01*
X004219Y017630D01*
X004219Y017630D01*
X004219Y017418D01*
X004219Y017418D01*
X004081Y016902D01*
X004081Y016902D01*
X003813Y016439D01*
X003813Y016439D01*
X003435Y016061D01*
X003435Y016061D01*
X002973Y015794D01*
X002973Y015794D01*
X002456Y015656D01*
X002456Y015656D01*
X002245Y015656D01*
X002245Y015656D01*
X002219Y015656D01*
X002219Y009241D01*
X002219Y009130D01*
X002176Y009027D01*
X001219Y008070D01*
X001219Y006802D01*
X002348Y005673D01*
X002426Y005594D01*
X002469Y005491D01*
X002469Y003962D01*
X002973Y003827D01*
X002973Y003827D01*
X003435Y003560D01*
X003435Y003560D01*
X003435Y003560D01*
X003813Y003182D01*
X003813Y003182D01*
X004081Y002719D01*
X004054Y002765D02*
X008119Y002765D01*
X008119Y002736D02*
X008067Y002684D01*
X008001Y002523D01*
X008001Y002348D01*
X008067Y002187D01*
X008191Y002064D01*
X008352Y001997D01*
X008526Y001997D01*
X008619Y002036D01*
X008619Y001974D01*
X008588Y001961D01*
X008413Y001787D01*
X008391Y001732D01*
X008351Y001787D01*
X008291Y001847D01*
X008222Y001897D01*
X008146Y001936D01*
X008066Y001962D01*
X007982Y001976D01*
X007957Y001976D01*
X007957Y001454D01*
X007921Y001454D01*
X007921Y001976D01*
X007897Y001976D01*
X007813Y001962D01*
X007732Y001936D01*
X007656Y001897D01*
X007587Y001847D01*
X007527Y001787D01*
X007477Y001719D01*
X007439Y001643D01*
X007412Y001562D01*
X007399Y001478D01*
X007399Y001454D01*
X007920Y001454D01*
X007920Y001417D01*
X007399Y001417D01*
X007399Y001393D01*
X007412Y001309D01*
X007439Y001228D01*
X007477Y001153D01*
X007527Y001084D01*
X007587Y001024D01*
X007656Y000974D01*
X007732Y000935D01*
X007813Y000909D01*
X007897Y000896D01*
X007921Y000896D01*
X007921Y001417D01*
X007957Y001417D01*
X007957Y000896D01*
X007982Y000896D01*
X008066Y000909D01*
X008146Y000935D01*
X008222Y000974D01*
X008291Y001024D01*
X008351Y001084D01*
X008391Y001139D01*
X008413Y001084D01*
X008588Y000910D01*
X008816Y000816D01*
X009062Y000816D01*
X009290Y000910D01*
X009439Y001059D01*
X009588Y000910D01*
X009816Y000816D01*
X010062Y000816D01*
X010290Y000910D01*
X010439Y001059D01*
X010588Y000910D01*
X010816Y000816D01*
X011062Y000816D01*
X011290Y000910D01*
X011439Y001059D01*
X011588Y000910D01*
X011816Y000816D01*
X012062Y000816D01*
X012290Y000910D01*
X012439Y001059D01*
X012588Y000910D01*
X012816Y000816D01*
X013062Y000816D01*
X013290Y000910D01*
X013465Y001084D01*
X013559Y001312D01*
X013559Y001559D01*
X013465Y001787D01*
X013290Y001961D01*
X013062Y002056D01*
X012816Y002056D01*
X012785Y002043D01*
X012370Y002457D01*
X012326Y002475D01*
X012377Y002598D01*
X012377Y002671D01*
X013460Y003754D01*
X013509Y003872D01*
X013509Y003999D01*
X013509Y004499D01*
X013460Y004617D01*
X013370Y004707D01*
X013254Y004823D01*
X013439Y004823D01*
X013636Y004823D01*
X013914Y005101D01*
X013914Y005298D01*
X013439Y005298D01*
X013439Y004823D01*
X013439Y005298D01*
X013439Y005298D01*
X013439Y005298D01*
X013439Y005299D02*
X013439Y005773D01*
X013242Y005773D01*
X013134Y005665D01*
X013134Y005687D01*
X013123Y005714D01*
X013085Y005804D01*
X012995Y005894D01*
X012710Y006179D01*
X012710Y006179D01*
X012509Y006381D01*
X012509Y007372D01*
X012509Y007499D01*
X012508Y007502D01*
X012508Y007510D01*
X012560Y007561D01*
X012626Y007722D01*
X012626Y007897D01*
X012560Y008058D01*
X012436Y008181D01*
X012275Y008248D01*
X012101Y008248D01*
X011940Y008181D01*
X011816Y008058D01*
X011750Y007897D01*
X011750Y007722D01*
X011816Y007561D01*
X011868Y007510D01*
X011868Y007500D01*
X011868Y007373D01*
X011869Y007371D01*
X011869Y006208D01*
X011509Y006568D01*
X011509Y010934D01*
X011509Y011062D01*
X011460Y011179D01*
X011065Y011575D01*
X011065Y011648D01*
X010998Y011809D01*
X010875Y011932D01*
X010714Y011999D01*
X010539Y011999D01*
X010378Y011932D01*
X010255Y011809D01*
X010188Y011648D01*
X010188Y011473D01*
X010255Y011312D01*
X010378Y011189D01*
X010539Y011122D01*
X010612Y011122D01*
X010869Y010866D01*
X010869Y006372D01*
X010918Y006254D01*
X011008Y006164D01*
X011189Y005983D01*
X011066Y005932D01*
X011014Y005881D01*
X011074Y005936D02*
X010045Y005936D01*
X009947Y006094D02*
X011078Y006094D01*
X011008Y006164D02*
X011008Y006164D01*
X010919Y006253D02*
X009947Y006253D01*
X009947Y006411D02*
X010869Y006411D01*
X010869Y006570D02*
X009947Y006570D01*
X009947Y006729D02*
X010869Y006729D01*
X010869Y006887D02*
X009947Y006887D01*
X009947Y007046D02*
X010869Y007046D01*
X010869Y007204D02*
X009947Y007204D01*
X009947Y007363D02*
X010869Y007363D01*
X010869Y007521D02*
X009947Y007521D01*
X009947Y007680D02*
X010869Y007680D01*
X010869Y007838D02*
X009947Y007838D01*
X009947Y007997D02*
X010869Y007997D01*
X010869Y008155D02*
X009947Y008155D01*
X009947Y008314D02*
X010869Y008314D01*
X010869Y008473D02*
X009947Y008473D01*
X009947Y008631D02*
X010869Y008631D01*
X010869Y008790D02*
X009947Y008790D01*
X009947Y008948D02*
X010869Y008948D01*
X010869Y009107D02*
X009947Y009107D01*
X009947Y009265D02*
X010869Y009265D01*
X010869Y009424D02*
X009947Y009424D01*
X009947Y009582D02*
X010869Y009582D01*
X010869Y009741D02*
X009947Y009741D01*
X009947Y009899D02*
X010869Y009899D01*
X010869Y010058D02*
X009947Y010058D01*
X009947Y010217D02*
X010869Y010217D01*
X010869Y010375D02*
X009947Y010375D01*
X009947Y010534D02*
X010869Y010534D01*
X010869Y010692D02*
X009947Y010692D01*
X009947Y010851D02*
X010869Y010851D01*
X010725Y011009D02*
X009947Y011009D01*
X009947Y011168D02*
X010429Y011168D01*
X010249Y011326D02*
X009947Y011326D01*
X009947Y011485D02*
X010188Y011485D01*
X010188Y011643D02*
X009947Y011643D01*
X010020Y011802D02*
X010252Y011802D01*
X010065Y011961D02*
X010446Y011961D01*
X010200Y012119D02*
X014151Y012119D01*
X014151Y011961D02*
X010807Y011961D01*
X011001Y011802D02*
X014151Y011802D01*
X014151Y011643D02*
X011065Y011643D01*
X011155Y011485D02*
X014151Y011485D01*
X014151Y011326D02*
X011313Y011326D01*
X011465Y011168D02*
X014151Y011168D01*
X014151Y011009D02*
X011509Y011009D01*
X011509Y010851D02*
X014151Y010851D01*
X014151Y010692D02*
X011509Y010692D01*
X011509Y010534D02*
X014151Y010534D01*
X014151Y010375D02*
X011509Y010375D01*
X011509Y010217D02*
X014151Y010217D01*
X014151Y010058D02*
X011509Y010058D01*
X011509Y009899D02*
X014151Y009899D01*
X014151Y009741D02*
X011509Y009741D01*
X011509Y009582D02*
X014151Y009582D01*
X014151Y009424D02*
X011509Y009424D01*
X011509Y009265D02*
X014151Y009265D01*
X014151Y009107D02*
X011509Y009107D01*
X011509Y008948D02*
X014151Y008948D01*
X014151Y008790D02*
X011509Y008790D01*
X011509Y008631D02*
X014151Y008631D01*
X014151Y008473D02*
X011509Y008473D01*
X011509Y008314D02*
X014151Y008314D01*
X014151Y008155D02*
X012462Y008155D01*
X012585Y007997D02*
X014151Y007997D01*
X014014Y007838D02*
X012626Y007838D01*
X012609Y007680D02*
X013855Y007680D01*
X013697Y007521D02*
X012520Y007521D01*
X012509Y007363D02*
X013538Y007363D01*
X013211Y007204D02*
X012509Y007204D01*
X012509Y007046D02*
X013002Y007046D01*
X012917Y006887D02*
X012509Y006887D01*
X012509Y006729D02*
X012884Y006729D01*
X012891Y006570D02*
X012509Y006570D01*
X012509Y006411D02*
X012957Y006411D01*
X013099Y006253D02*
X012637Y006253D01*
X012795Y006094D02*
X017189Y006094D01*
X017189Y005936D02*
X012954Y005936D01*
X012995Y005894D02*
X012995Y005894D01*
X013097Y005777D02*
X017189Y005777D01*
X017189Y005619D02*
X013790Y005619D01*
X013914Y005495D02*
X013636Y005773D01*
X013439Y005773D01*
X013439Y005299D01*
X013439Y005299D01*
X013439Y005298D02*
X013914Y005298D01*
X013914Y005495D01*
X013914Y005460D02*
X017189Y005460D01*
X017189Y005302D02*
X013914Y005302D01*
X013914Y005143D02*
X017189Y005143D01*
X017189Y004985D02*
X013797Y004985D01*
X013639Y004826D02*
X017189Y004826D01*
X017189Y004668D02*
X016820Y004668D01*
X017126Y004509D02*
X017189Y004509D01*
X016467Y004509D02*
X016411Y004509D01*
X016411Y004668D02*
X016467Y004668D01*
X016467Y004350D02*
X016411Y004350D01*
X016411Y004192D02*
X013509Y004192D01*
X013509Y004350D02*
X015658Y004350D01*
X015752Y004509D02*
X013505Y004509D01*
X013410Y004668D02*
X016058Y004668D01*
X016411Y004033D02*
X016467Y004033D01*
X016467Y003875D02*
X016411Y003875D01*
X016411Y003716D02*
X016467Y003716D01*
X016519Y003399D02*
X016359Y003399D01*
X016257Y003399D02*
X013105Y003399D01*
X012947Y003241D02*
X015878Y003241D01*
X015701Y003082D02*
X012788Y003082D01*
X012630Y002924D02*
X015588Y002924D01*
X015516Y002765D02*
X012471Y002765D01*
X012377Y002606D02*
X015473Y002606D01*
X015469Y002289D02*
X012538Y002289D01*
X012696Y002131D02*
X015507Y002131D01*
X015574Y001972D02*
X013263Y001972D01*
X013438Y001814D02*
X015681Y001814D01*
X015846Y001655D02*
X013519Y001655D01*
X013559Y001497D02*
X016155Y001497D01*
X016359Y001497D02*
X016519Y001497D01*
X016519Y001655D02*
X016359Y001655D01*
X016359Y001814D02*
X016519Y001814D01*
X016519Y001972D02*
X016359Y001972D01*
X016359Y002131D02*
X016519Y002131D01*
X016519Y002289D02*
X016359Y002289D01*
X016359Y002448D02*
X012379Y002448D01*
X012189Y002186D02*
X012939Y001436D01*
X013504Y001180D02*
X017189Y001180D01*
X017189Y001338D02*
X013559Y001338D01*
X013401Y001021D02*
X017189Y001021D01*
X017189Y000862D02*
X013176Y000862D01*
X012702Y000862D02*
X012176Y000862D01*
X012401Y001021D02*
X012477Y001021D01*
X011702Y000862D02*
X011176Y000862D01*
X011401Y001021D02*
X011477Y001021D01*
X010702Y000862D02*
X010176Y000862D01*
X010401Y001021D02*
X010477Y001021D01*
X009702Y000862D02*
X009176Y000862D01*
X009401Y001021D02*
X009477Y001021D01*
X008939Y001436D02*
X008939Y002186D01*
X009189Y002436D01*
X009189Y004936D01*
X009627Y004928D02*
X009627Y004848D01*
X009561Y004687D01*
X009509Y004636D01*
X009509Y004586D01*
X009602Y004624D01*
X009776Y004624D01*
X009937Y004557D01*
X010061Y004434D01*
X010127Y004273D01*
X010127Y004098D01*
X010061Y003937D01*
X010009Y003886D01*
X010009Y003318D01*
X010322Y003006D01*
X011639Y003006D01*
X011691Y003057D01*
X011852Y003124D01*
X011925Y003124D01*
X012611Y003810D01*
X012477Y003810D01*
X012316Y003876D01*
X012192Y004000D01*
X012126Y004161D01*
X012126Y004234D01*
X012043Y004317D01*
X011994Y004434D01*
X011994Y004562D01*
X011994Y005011D01*
X011942Y005062D01*
X011876Y005223D01*
X011876Y005296D01*
X011737Y005435D01*
X011686Y005312D01*
X011562Y005189D01*
X011401Y005122D01*
X011227Y005122D01*
X011066Y005189D01*
X011014Y005241D01*
X010259Y005241D01*
X010085Y005067D01*
X009995Y004977D01*
X009878Y004928D01*
X009627Y004928D01*
X009618Y004826D02*
X011994Y004826D01*
X011994Y004668D02*
X009541Y004668D01*
X009986Y004509D02*
X011994Y004509D01*
X012029Y004350D02*
X010095Y004350D01*
X010127Y004192D02*
X012126Y004192D01*
X012178Y004033D02*
X010101Y004033D01*
X010009Y003875D02*
X012319Y003875D01*
X012517Y003716D02*
X010009Y003716D01*
X010009Y003558D02*
X012359Y003558D01*
X012200Y003399D02*
X010009Y003399D01*
X010087Y003241D02*
X012042Y003241D01*
X011751Y003082D02*
X010245Y003082D01*
X010189Y002686D02*
X009689Y003186D01*
X009689Y004186D01*
X008877Y003936D02*
X008877Y004623D01*
X008189Y005311D01*
X008189Y005561D01*
X008377Y005748D01*
X008377Y008998D01*
X007939Y009436D01*
X007439Y009248D02*
X007439Y012186D01*
X007939Y012686D01*
X007939Y012061D02*
X008689Y012811D01*
X008689Y013561D01*
X007939Y014311D01*
X006564Y012936D01*
X005439Y012936D01*
X004689Y013186D02*
X004689Y009311D01*
X004127Y008748D01*
X004617Y008785D02*
X004960Y009129D01*
X005009Y009247D01*
X005009Y009374D01*
X005009Y010503D01*
X005094Y010418D01*
X005318Y010326D01*
X005334Y010326D01*
X005317Y010309D01*
X005251Y010148D01*
X005251Y009973D01*
X005317Y009812D01*
X005369Y009761D01*
X005369Y007999D01*
X005369Y007872D01*
X005418Y007754D01*
X006626Y006546D01*
X006626Y006473D01*
X006692Y006312D01*
X006816Y006189D01*
X006977Y006122D01*
X007151Y006122D01*
X007312Y006189D01*
X007436Y006312D01*
X007502Y006473D01*
X007502Y006648D01*
X007497Y006662D01*
X007562Y006689D01*
X007619Y006746D01*
X007619Y006236D01*
X007567Y006184D01*
X007501Y006023D01*
X007501Y005848D01*
X007567Y005687D01*
X007691Y005564D01*
X007852Y005497D01*
X007869Y005497D01*
X007869Y005247D01*
X007918Y005129D01*
X008008Y005039D01*
X008191Y004856D01*
X008180Y004851D01*
X008111Y004783D01*
X004138Y004783D01*
X003847Y005074D01*
X003847Y007018D01*
X003931Y007103D01*
X004004Y007278D01*
X004004Y007468D01*
X003931Y007644D01*
X003797Y007778D01*
X003622Y007851D01*
X003432Y007851D01*
X003256Y007778D01*
X003122Y007644D01*
X003099Y007588D01*
X003099Y007617D01*
X002960Y007951D01*
X002704Y008207D01*
X002370Y008345D01*
X002008Y008345D01*
X001674Y008207D01*
X001418Y007951D01*
X001279Y007617D01*
X001279Y007255D01*
X001418Y006920D01*
X001674Y006664D01*
X002008Y006526D01*
X002370Y006526D01*
X002704Y006664D01*
X002960Y006920D01*
X003079Y007206D01*
X003122Y007103D01*
X003207Y007018D01*
X003207Y005005D01*
X003207Y004878D01*
X003255Y004760D01*
X003824Y004192D01*
X002469Y004192D01*
X002469Y004350D02*
X003665Y004350D01*
X003824Y004192D02*
X003942Y004143D01*
X004069Y004143D01*
X008111Y004143D01*
X008180Y004075D01*
X008348Y004005D01*
X008494Y004005D01*
X008168Y003679D01*
X008119Y003562D01*
X008119Y003434D01*
X008119Y002736D01*
X008035Y002606D02*
X004111Y002606D01*
X004153Y002448D02*
X008001Y002448D01*
X008025Y002289D02*
X004196Y002289D01*
X004219Y002131D02*
X008124Y002131D01*
X008002Y001972D02*
X008615Y001972D01*
X008440Y001814D02*
X008325Y001814D01*
X007957Y001814D02*
X007921Y001814D01*
X007921Y001972D02*
X007957Y001972D01*
X007876Y001972D02*
X004219Y001972D01*
X004219Y001814D02*
X007554Y001814D01*
X007445Y001655D02*
X004219Y001655D01*
X004219Y001497D02*
X007402Y001497D01*
X007408Y001338D02*
X004219Y001338D01*
X004219Y001180D02*
X007463Y001180D01*
X007591Y001021D02*
X004219Y001021D01*
X004219Y000862D02*
X008702Y000862D01*
X008477Y001021D02*
X008287Y001021D01*
X007957Y001021D02*
X007921Y001021D01*
X007921Y001180D02*
X007957Y001180D01*
X007957Y001338D02*
X007921Y001338D01*
X007921Y001497D02*
X007957Y001497D01*
X007957Y001655D02*
X007921Y001655D01*
X008439Y002436D02*
X008439Y003498D01*
X008877Y003936D01*
X008363Y003875D02*
X002795Y003875D01*
X002469Y004033D02*
X008280Y004033D01*
X008205Y003716D02*
X003165Y003716D01*
X003438Y003558D02*
X008119Y003558D01*
X008119Y003399D02*
X003596Y003399D01*
X003755Y003241D02*
X008119Y003241D01*
X008119Y003082D02*
X003871Y003082D01*
X003963Y002924D02*
X008119Y002924D01*
X010189Y002686D02*
X011939Y002686D01*
X013189Y003936D01*
X013189Y004436D01*
X012814Y004811D01*
X012814Y005623D01*
X012439Y005998D01*
X012189Y006248D01*
X012189Y007436D01*
X012188Y007437D01*
X012188Y007810D01*
X011791Y007997D02*
X011509Y007997D01*
X011509Y008155D02*
X011914Y008155D01*
X011750Y007838D02*
X011509Y007838D01*
X011509Y007680D02*
X011767Y007680D01*
X011856Y007521D02*
X011509Y007521D01*
X011509Y007363D02*
X011869Y007363D01*
X011869Y007204D02*
X011509Y007204D01*
X011509Y007046D02*
X011869Y007046D01*
X011869Y006887D02*
X011509Y006887D01*
X011509Y006729D02*
X011869Y006729D01*
X011869Y006570D02*
X011509Y006570D01*
X011666Y006411D02*
X011869Y006411D01*
X011869Y006253D02*
X011824Y006253D01*
X011189Y006436D02*
X011189Y010998D01*
X010627Y011561D01*
X010359Y012278D02*
X011278Y012278D01*
X011068Y012436D02*
X010517Y012436D01*
X010676Y012595D02*
X011002Y012595D01*
X011001Y012753D02*
X010834Y012753D01*
X010993Y012912D02*
X011058Y012912D01*
X011151Y013070D02*
X011222Y013070D01*
X011310Y013229D02*
X011588Y013229D01*
X011656Y013070D02*
X011871Y013070D01*
X011939Y012686D02*
X011439Y012686D01*
X011939Y012686D02*
X012439Y013186D01*
X012439Y016186D01*
X011689Y016936D01*
X011251Y016875D02*
X009776Y016875D01*
X009990Y017034D02*
X011255Y017034D01*
X011326Y017192D02*
X010148Y017192D01*
X010307Y017351D02*
X011546Y017351D01*
X011832Y017351D02*
X012958Y017351D01*
X013116Y017192D02*
X012052Y017192D01*
X012123Y017034D02*
X013275Y017034D01*
X013434Y016875D02*
X012202Y016875D01*
X012360Y016717D02*
X013592Y016717D01*
X013751Y016558D02*
X012519Y016558D01*
X012677Y016400D02*
X013909Y016400D01*
X014068Y016241D02*
X012759Y016241D01*
X012759Y016083D02*
X014151Y016083D01*
X014151Y015924D02*
X012759Y015924D01*
X012759Y015766D02*
X014151Y015766D01*
X014151Y015607D02*
X012759Y015607D01*
X012759Y015448D02*
X014151Y015448D01*
X014151Y015290D02*
X012759Y015290D01*
X012759Y015131D02*
X014151Y015131D01*
X014151Y014973D02*
X012759Y014973D01*
X012759Y014814D02*
X014151Y014814D01*
X014151Y014656D02*
X012759Y014656D01*
X012759Y014497D02*
X014151Y014497D01*
X014151Y014339D02*
X012759Y014339D01*
X012759Y014180D02*
X014151Y014180D01*
X014151Y014022D02*
X012759Y014022D01*
X012759Y013863D02*
X014151Y013863D01*
X014151Y013704D02*
X012759Y013704D01*
X012759Y013546D02*
X014151Y013546D01*
X014151Y013387D02*
X012759Y013387D01*
X012759Y013229D02*
X014151Y013229D01*
X014151Y013070D02*
X012738Y013070D01*
X012618Y012912D02*
X014151Y012912D01*
X014151Y012753D02*
X012459Y012753D01*
X012301Y012595D02*
X014151Y012595D01*
X014151Y012436D02*
X012142Y012436D01*
X011600Y012278D02*
X014151Y012278D01*
X014951Y012278D02*
X017189Y012278D01*
X017189Y012436D02*
X014951Y012436D01*
X014951Y012595D02*
X017189Y012595D01*
X017189Y012753D02*
X014951Y012753D01*
X014951Y012912D02*
X017189Y012912D01*
X017189Y013070D02*
X014951Y013070D01*
X014951Y013229D02*
X017189Y013229D01*
X017189Y013387D02*
X014951Y013387D01*
X014951Y013546D02*
X017189Y013546D01*
X017189Y013704D02*
X014951Y013704D01*
X014951Y013863D02*
X017189Y013863D01*
X017189Y014022D02*
X014951Y014022D01*
X014951Y014180D02*
X017189Y014180D01*
X017189Y014339D02*
X014951Y014339D01*
X014951Y014497D02*
X017189Y014497D01*
X017189Y014656D02*
X014951Y014656D01*
X014951Y014814D02*
X017189Y014814D01*
X017189Y014973D02*
X014951Y014973D01*
X014951Y015131D02*
X017189Y015131D01*
X017189Y015290D02*
X014951Y015290D01*
X014951Y015448D02*
X017189Y015448D01*
X017189Y015607D02*
X014951Y015607D01*
X014951Y015766D02*
X017189Y015766D01*
X017189Y015924D02*
X014951Y015924D01*
X014951Y016083D02*
X017189Y016083D01*
X017189Y016241D02*
X014951Y016241D01*
X014951Y016244D02*
X014951Y016403D01*
X014891Y016550D01*
X013309Y018131D01*
X013309Y018309D01*
X013215Y018537D01*
X013096Y018656D01*
X015282Y018656D01*
X015163Y018537D01*
X015069Y018309D01*
X015069Y018062D01*
X015163Y017834D01*
X015338Y017660D01*
X015566Y017566D01*
X015812Y017566D01*
X016040Y017660D01*
X016215Y017834D01*
X016237Y017889D01*
X016277Y017834D01*
X016337Y017774D01*
X016406Y017724D01*
X016482Y017685D01*
X016563Y017659D01*
X016647Y017646D01*
X016680Y017646D01*
X016680Y018177D01*
X016698Y018177D01*
X016698Y017646D01*
X016732Y017646D01*
X016816Y017659D01*
X016896Y017685D01*
X016972Y017724D01*
X017041Y017774D01*
X017101Y017834D01*
X017151Y017903D01*
X017189Y017977D01*
X017189Y011689D01*
X016211Y010711D01*
X015545Y010711D01*
X015405Y010769D01*
X015223Y010769D01*
X015055Y010699D01*
X014951Y010596D01*
X014951Y016244D01*
X014951Y016400D02*
X017189Y016400D01*
X017189Y016558D02*
X014882Y016558D01*
X014723Y016717D02*
X017189Y016717D01*
X017189Y016875D02*
X014565Y016875D01*
X014406Y017034D02*
X017189Y017034D01*
X017189Y017192D02*
X014248Y017192D01*
X014089Y017351D02*
X017189Y017351D01*
X017189Y017510D02*
X013931Y017510D01*
X013772Y017668D02*
X015330Y017668D01*
X015171Y017827D02*
X013614Y017827D01*
X013455Y017985D02*
X015101Y017985D01*
X015069Y018144D02*
X013309Y018144D01*
X013309Y018302D02*
X015069Y018302D01*
X015132Y018461D02*
X013246Y018461D01*
X013132Y018619D02*
X015246Y018619D01*
X016048Y017668D02*
X016534Y017668D01*
X016680Y017668D02*
X016698Y017668D01*
X016844Y017668D02*
X017189Y017668D01*
X017189Y017827D02*
X017094Y017827D01*
X016698Y017827D02*
X016680Y017827D01*
X016680Y017985D02*
X016698Y017985D01*
X016698Y018144D02*
X016680Y018144D01*
X016284Y017827D02*
X016207Y017827D01*
X012799Y017510D02*
X010466Y017510D01*
X011048Y017668D02*
X011534Y017668D01*
X011680Y017668D02*
X011698Y017668D01*
X011844Y017668D02*
X012330Y017668D01*
X012171Y017827D02*
X012094Y017827D01*
X011698Y017827D02*
X011680Y017827D01*
X011680Y017985D02*
X011698Y017985D01*
X011698Y018144D02*
X011680Y018144D01*
X011284Y017827D02*
X011207Y017827D01*
X010689Y018186D02*
X009689Y017186D01*
X007439Y017186D01*
X006939Y016686D01*
X006939Y015998D01*
X007439Y015498D01*
X007278Y015090D02*
X007191Y015126D01*
X007067Y015250D01*
X007001Y015411D01*
X007001Y015484D01*
X006668Y015817D01*
X006619Y015934D01*
X006619Y016062D01*
X006619Y016749D01*
X006668Y016867D01*
X006758Y016957D01*
X007258Y017457D01*
X007375Y017506D01*
X007503Y017506D01*
X009556Y017506D01*
X010082Y018031D01*
X010069Y018062D01*
X010069Y018309D01*
X010163Y018537D01*
X010282Y018656D01*
X008096Y018656D01*
X008215Y018537D01*
X008309Y018309D01*
X008309Y018062D01*
X008215Y017834D01*
X008040Y017660D01*
X007812Y017566D01*
X007566Y017566D01*
X007338Y017660D01*
X007189Y017809D01*
X007040Y017660D01*
X006812Y017566D01*
X006566Y017566D01*
X006535Y017579D01*
X005419Y016463D01*
X005419Y015956D01*
X005459Y015956D01*
X005459Y016466D01*
X005481Y016466D01*
X005563Y016453D01*
X005642Y016427D01*
X005717Y016389D01*
X005784Y016340D01*
X005843Y016281D01*
X005892Y016213D01*
X005930Y016139D01*
X005956Y016060D01*
X005969Y015977D01*
X005969Y015956D01*
X005459Y015956D01*
X005459Y015916D01*
X005969Y015916D01*
X005969Y015894D01*
X005956Y015811D01*
X005930Y015732D01*
X005892Y015658D01*
X005843Y015590D01*
X005784Y015531D01*
X005717Y015482D01*
X005642Y015444D01*
X005615Y015436D01*
X005642Y015427D01*
X005717Y015389D01*
X005784Y015340D01*
X005843Y015281D01*
X005892Y015213D01*
X005930Y015139D01*
X005956Y015060D01*
X005969Y014977D01*
X005969Y014956D01*
X005459Y014956D01*
X005419Y014956D01*
X005419Y015406D01*
X005419Y015915D01*
X005459Y015915D01*
X005459Y015406D01*
X005459Y014956D01*
X005459Y014916D01*
X005969Y014916D01*
X005969Y014894D01*
X005956Y014811D01*
X005930Y014732D01*
X005892Y014658D01*
X005843Y014590D01*
X005784Y014531D01*
X005717Y014482D01*
X005715Y014481D01*
X005785Y014453D01*
X005956Y014281D01*
X005967Y014256D01*
X006431Y014256D01*
X007168Y014992D01*
X007168Y014992D01*
X007258Y015082D01*
X007278Y015090D01*
X007186Y015131D02*
X005933Y015131D01*
X005969Y014973D02*
X007149Y014973D01*
X006990Y014814D02*
X005956Y014814D01*
X005891Y014656D02*
X006832Y014656D01*
X006673Y014497D02*
X005737Y014497D01*
X005899Y014339D02*
X006515Y014339D01*
X007051Y015290D02*
X005834Y015290D01*
X005650Y015448D02*
X007001Y015448D01*
X006878Y015607D02*
X005855Y015607D01*
X005941Y015766D02*
X006719Y015766D01*
X006623Y015924D02*
X005459Y015924D01*
X005459Y015766D02*
X005419Y015766D01*
X005419Y015607D02*
X005459Y015607D01*
X005459Y015448D02*
X005419Y015448D01*
X005419Y015290D02*
X005459Y015290D01*
X005459Y015131D02*
X005419Y015131D01*
X005419Y014973D02*
X005459Y014973D01*
X004689Y014436D02*
X004689Y016186D01*
X006689Y018186D01*
X006246Y018619D02*
X004219Y018619D01*
X004219Y018461D02*
X006132Y018461D01*
X006069Y018302D02*
X004219Y018302D01*
X004219Y018144D02*
X006069Y018144D01*
X006036Y017985D02*
X004219Y017985D01*
X004219Y017827D02*
X005878Y017827D01*
X005719Y017668D02*
X004219Y017668D01*
X004219Y017510D02*
X005560Y017510D01*
X005402Y017351D02*
X004201Y017351D01*
X004158Y017192D02*
X005243Y017192D01*
X005085Y017034D02*
X004116Y017034D01*
X004065Y016875D02*
X004926Y016875D01*
X004768Y016717D02*
X003974Y016717D01*
X003882Y016558D02*
X004609Y016558D01*
X004451Y016400D02*
X003774Y016400D01*
X003813Y016439D02*
X003813Y016439D01*
X003615Y016241D02*
X004369Y016241D01*
X004369Y016083D02*
X003457Y016083D01*
X003198Y015924D02*
X004369Y015924D01*
X004369Y015766D02*
X002866Y015766D01*
X002219Y015607D02*
X004369Y015607D01*
X004369Y015448D02*
X002219Y015448D01*
X002219Y015290D02*
X004369Y015290D01*
X004369Y015131D02*
X002219Y015131D01*
X002219Y014973D02*
X004369Y014973D01*
X004369Y014814D02*
X002219Y014814D01*
X002219Y014656D02*
X004306Y014656D01*
X004251Y014497D02*
X002219Y014497D01*
X002219Y014339D02*
X004255Y014339D01*
X004324Y014180D02*
X002219Y014180D01*
X002219Y014022D02*
X004543Y014022D01*
X004829Y013863D02*
X002219Y013863D01*
X002219Y013704D02*
X003932Y013704D01*
X003799Y013546D02*
X002219Y013546D01*
X002219Y013387D02*
X003751Y013387D01*
X003761Y013229D02*
X002219Y013229D01*
X002219Y012753D02*
X004369Y012753D01*
X004369Y012595D02*
X002219Y012595D01*
X002219Y012436D02*
X004369Y012436D01*
X004369Y012278D02*
X002219Y012278D01*
X002219Y012119D02*
X004369Y012119D01*
X004369Y011961D02*
X002219Y011961D01*
X002219Y011802D02*
X004369Y011802D01*
X004369Y011643D02*
X002219Y011643D01*
X002219Y011485D02*
X004369Y011485D01*
X004369Y011326D02*
X002219Y011326D01*
X002219Y011168D02*
X004369Y011168D01*
X004369Y011009D02*
X002219Y011009D01*
X002219Y010851D02*
X004369Y010851D01*
X004369Y010692D02*
X002219Y010692D01*
X002219Y010534D02*
X004369Y010534D01*
X004341Y010474D02*
X004284Y010503D01*
X004223Y010523D01*
X004159Y010533D01*
X004127Y010533D01*
X004127Y010123D01*
X004126Y010123D01*
X003717Y010123D01*
X003717Y010091D01*
X003727Y010027D01*
X003747Y009966D01*
X003776Y009908D01*
X003814Y009856D01*
X003834Y009836D01*
X003711Y009713D01*
X003637Y009533D01*
X003637Y009338D01*
X003711Y009158D01*
X003777Y009092D01*
X003711Y009026D01*
X003637Y008846D01*
X003637Y008651D01*
X003711Y008470D01*
X003849Y008333D01*
X004029Y008258D01*
X004224Y008258D01*
X004404Y008333D01*
X004542Y008470D01*
X004617Y008651D01*
X004617Y008785D01*
X004621Y008790D02*
X005369Y008790D01*
X005369Y008948D02*
X004779Y008948D01*
X004938Y009107D02*
X005369Y009107D01*
X005369Y009265D02*
X005009Y009265D01*
X005009Y009424D02*
X005369Y009424D01*
X005369Y009582D02*
X005009Y009582D01*
X005009Y009741D02*
X005369Y009741D01*
X005281Y009899D02*
X005009Y009899D01*
X005009Y010058D02*
X005251Y010058D01*
X005279Y010217D02*
X005009Y010217D01*
X005009Y010375D02*
X005198Y010375D01*
X005689Y010061D02*
X005689Y007936D01*
X007064Y006561D01*
X007502Y006570D02*
X007619Y006570D01*
X007619Y006411D02*
X007477Y006411D01*
X007376Y006253D02*
X007619Y006253D01*
X007530Y006094D02*
X003847Y006094D01*
X003847Y005936D02*
X007501Y005936D01*
X007530Y005777D02*
X003847Y005777D01*
X003847Y005619D02*
X007636Y005619D01*
X007869Y005497D02*
X007869Y005497D01*
X007869Y005460D02*
X003847Y005460D01*
X003847Y005302D02*
X007869Y005302D01*
X007912Y005143D02*
X003847Y005143D01*
X003936Y004985D02*
X008062Y004985D01*
X008154Y004826D02*
X004095Y004826D01*
X004005Y004463D02*
X003527Y004942D01*
X003527Y007373D01*
X004004Y007363D02*
X004624Y007363D01*
X004624Y007278D02*
X004697Y007103D01*
X004831Y006968D01*
X005006Y006896D01*
X005196Y006896D01*
X005372Y006968D01*
X005506Y007103D01*
X005579Y007278D01*
X005579Y007468D01*
X005506Y007644D01*
X005372Y007778D01*
X005196Y007851D01*
X005006Y007851D01*
X004831Y007778D01*
X004697Y007644D01*
X004624Y007468D01*
X004624Y007278D01*
X004655Y007204D02*
X003974Y007204D01*
X003875Y007046D02*
X004754Y007046D01*
X005449Y007046D02*
X006126Y007046D01*
X005968Y007204D02*
X005548Y007204D01*
X005579Y007363D02*
X005809Y007363D01*
X005651Y007521D02*
X005557Y007521D01*
X005492Y007680D02*
X005470Y007680D01*
X005383Y007838D02*
X005226Y007838D01*
X005369Y007997D02*
X002914Y007997D01*
X003007Y007838D02*
X003402Y007838D01*
X003651Y007838D02*
X004977Y007838D01*
X004733Y007680D02*
X003895Y007680D01*
X003982Y007521D02*
X004646Y007521D01*
X005369Y008155D02*
X002756Y008155D01*
X002446Y008314D02*
X003894Y008314D01*
X003710Y008473D02*
X001622Y008473D01*
X001781Y008631D02*
X003645Y008631D01*
X003637Y008790D02*
X001939Y008790D01*
X002098Y008948D02*
X003679Y008948D01*
X003762Y009107D02*
X002209Y009107D01*
X002219Y009265D02*
X003667Y009265D01*
X003637Y009424D02*
X002219Y009424D01*
X002219Y009582D02*
X003657Y009582D01*
X003739Y009741D02*
X002219Y009741D01*
X002219Y009899D02*
X003782Y009899D01*
X003722Y010058D02*
X002219Y010058D01*
X002219Y010217D02*
X003726Y010217D01*
X003727Y010219D02*
X003717Y010155D01*
X003717Y010123D01*
X004126Y010123D01*
X004126Y010123D01*
X004126Y010533D01*
X004094Y010533D01*
X004031Y010523D01*
X003969Y010503D01*
X003912Y010474D01*
X003859Y010436D01*
X003814Y010390D01*
X003776Y010338D01*
X003747Y010280D01*
X003727Y010219D01*
X003803Y010375D02*
X002219Y010375D01*
X004126Y010375D02*
X004127Y010375D01*
X004126Y010217D02*
X004127Y010217D01*
X004341Y010474D02*
X004369Y010454D01*
X004369Y012942D01*
X004276Y012903D01*
X004102Y012903D01*
X004296Y012912D02*
X004369Y012912D01*
X004446Y013704D02*
X004755Y013704D01*
X005439Y011936D02*
X006189Y011186D01*
X006189Y008186D01*
X007314Y007061D01*
X007314Y007061D01*
X007602Y006729D02*
X007619Y006729D01*
X006752Y006253D02*
X003847Y006253D01*
X003847Y006411D02*
X006651Y006411D01*
X006602Y006570D02*
X003847Y006570D01*
X003847Y006729D02*
X006443Y006729D01*
X006285Y006887D02*
X003847Y006887D01*
X003207Y006887D02*
X002927Y006887D01*
X003012Y007046D02*
X003179Y007046D01*
X003080Y007204D02*
X003078Y007204D01*
X003207Y006729D02*
X002769Y006729D01*
X002477Y006570D02*
X003207Y006570D01*
X003207Y006411D02*
X001609Y006411D01*
X001768Y006253D02*
X003207Y006253D01*
X003207Y006094D02*
X001926Y006094D01*
X002085Y005936D02*
X003207Y005936D01*
X003207Y005777D02*
X002243Y005777D01*
X002402Y005619D02*
X003207Y005619D01*
X003207Y005460D02*
X002469Y005460D01*
X002469Y005302D02*
X003207Y005302D01*
X003207Y005143D02*
X002469Y005143D01*
X002469Y004985D02*
X003207Y004985D01*
X003228Y004826D02*
X002469Y004826D01*
X002469Y004668D02*
X003348Y004668D01*
X003507Y004509D02*
X002469Y004509D01*
X004005Y004463D02*
X008439Y004463D01*
X008689Y005436D02*
X008689Y009686D01*
X007939Y010436D01*
X007939Y012061D01*
X008689Y012123D02*
X008689Y010373D01*
X009127Y009936D01*
X007939Y008748D02*
X007439Y009248D01*
X007939Y008748D02*
X007939Y005936D01*
X009627Y005748D02*
X009627Y011998D01*
X011189Y013561D01*
X011877Y013561D01*
X014951Y012119D02*
X017189Y012119D01*
X017189Y011961D02*
X014951Y011961D01*
X014951Y011802D02*
X017189Y011802D01*
X017144Y011643D02*
X014951Y011643D01*
X014951Y011485D02*
X016985Y011485D01*
X016827Y011326D02*
X014951Y011326D01*
X014951Y011168D02*
X016668Y011168D01*
X016510Y011009D02*
X014951Y011009D01*
X014951Y010851D02*
X016351Y010851D01*
X015048Y010692D02*
X014951Y010692D01*
X014669Y007363D02*
X017189Y007363D01*
X017189Y007204D02*
X014511Y007204D01*
X014352Y007046D02*
X017189Y007046D01*
X017189Y006887D02*
X014194Y006887D01*
X014035Y006729D02*
X017189Y006729D01*
X017189Y006570D02*
X013987Y006570D01*
X013921Y006411D02*
X017189Y006411D01*
X017189Y006253D02*
X013779Y006253D01*
X013439Y005619D02*
X013439Y005619D01*
X013439Y005460D02*
X013439Y005460D01*
X013439Y005302D02*
X013439Y005302D01*
X013439Y005143D02*
X013439Y005143D01*
X013439Y004985D02*
X013439Y004985D01*
X013439Y004826D02*
X013439Y004826D01*
X012564Y004248D02*
X012314Y004498D01*
X012314Y005311D01*
X011189Y006436D01*
X011675Y005302D02*
X011870Y005302D01*
X011909Y005143D02*
X011452Y005143D01*
X011176Y005143D02*
X010162Y005143D01*
X010003Y004985D02*
X011994Y004985D01*
X013509Y004033D02*
X015654Y004033D01*
X015741Y003875D02*
X013509Y003875D01*
X013422Y003716D02*
X015990Y003716D01*
X016359Y003241D02*
X016519Y003241D01*
X016519Y003082D02*
X016359Y003082D01*
X016359Y002924D02*
X016519Y002924D01*
X016519Y002765D02*
X016359Y002765D01*
X016359Y002606D02*
X016519Y002606D01*
X017177Y003082D02*
X017189Y003082D01*
X017189Y003241D02*
X017000Y003241D01*
X017189Y003399D02*
X016621Y003399D01*
X016888Y003716D02*
X017189Y003716D01*
X017189Y003558D02*
X013264Y003558D01*
X012189Y002186D02*
X010439Y002186D01*
X016723Y001497D02*
X017189Y001497D01*
X017189Y001655D02*
X017032Y001655D01*
X017137Y003875D02*
X017189Y003875D01*
X005369Y008314D02*
X004359Y008314D01*
X004543Y008473D02*
X005369Y008473D01*
X005369Y008631D02*
X004608Y008631D01*
X003158Y007680D02*
X003073Y007680D01*
X001932Y008314D02*
X001463Y008314D01*
X001305Y008155D02*
X001622Y008155D01*
X001464Y007997D02*
X001219Y007997D01*
X001219Y007838D02*
X001371Y007838D01*
X001305Y007680D02*
X001219Y007680D01*
X001219Y007521D02*
X001279Y007521D01*
X001279Y007363D02*
X001219Y007363D01*
X001219Y007204D02*
X001300Y007204D01*
X001366Y007046D02*
X001219Y007046D01*
X001219Y006887D02*
X001451Y006887D01*
X001609Y006729D02*
X001292Y006729D01*
X001451Y006570D02*
X001901Y006570D01*
X005419Y016083D02*
X005459Y016083D01*
X005459Y016241D02*
X005419Y016241D01*
X005419Y016400D02*
X005459Y016400D01*
X005514Y016558D02*
X006619Y016558D01*
X006619Y016400D02*
X005696Y016400D01*
X005872Y016241D02*
X006619Y016241D01*
X006619Y016083D02*
X005949Y016083D01*
X005673Y016717D02*
X006619Y016717D01*
X006676Y016875D02*
X005831Y016875D01*
X005990Y017034D02*
X006835Y017034D01*
X006993Y017192D02*
X006148Y017192D01*
X006307Y017351D02*
X007152Y017351D01*
X007048Y017668D02*
X007330Y017668D01*
X008048Y017668D02*
X009719Y017668D01*
X009560Y017510D02*
X006466Y017510D01*
X008132Y018619D02*
X010246Y018619D01*
X010132Y018461D02*
X008246Y018461D01*
X008309Y018302D02*
X010069Y018302D01*
X010069Y018144D02*
X008309Y018144D01*
X008277Y017985D02*
X010036Y017985D01*
X009878Y017827D02*
X008207Y017827D01*
X007439Y016404D02*
X009220Y016404D01*
D21*
X010314Y015311D03*
X010877Y014936D03*
X011877Y013561D03*
X011439Y012686D03*
X010627Y011561D03*
X010189Y010873D03*
X009627Y011998D03*
X008689Y012123D03*
X007939Y012686D03*
X007939Y014311D03*
X008814Y014811D03*
X007439Y015498D03*
X007439Y016404D03*
X004689Y014436D03*
X004189Y013342D03*
X005689Y010061D03*
X007939Y009436D03*
X010314Y007811D03*
X012188Y007810D03*
X011314Y005561D03*
X012314Y005311D03*
X012564Y004248D03*
X011939Y002686D03*
X009689Y004186D03*
X009939Y004748D03*
X009189Y004936D03*
X007939Y005936D03*
X007064Y006561D03*
X007314Y007061D03*
X004439Y005186D03*
X008439Y002436D03*
X005189Y002186D03*
X013439Y011186D03*
X011689Y016936D03*
D22*
X012689Y018186D02*
X014551Y016323D01*
X014551Y007811D01*
X013439Y006698D01*
X014551Y007811D02*
X018564Y007811D01*
X019689Y006936D02*
X019689Y011186D01*
X020189Y011686D01*
X020939Y012186D02*
X020939Y010936D01*
X020939Y012186D02*
X020439Y012686D01*
X018752Y012686D01*
X016377Y010311D01*
X015314Y010311D01*
D23*
X027189Y012811D02*
X027189Y014561D01*
D24*
X027939Y007936D02*
X027939Y006186D01*
X024939Y007936D02*
X023189Y006186D01*
X022439Y006186D01*
X024439Y004186D02*
X024439Y002436D01*
D25*
X024939Y007686D02*
X024939Y008186D01*
M02*
