%
M48
M72
T01C0.0197
T02C0.0236
T03C0.0276
T04C0.0315
T05C0.0320
T06C0.0354
T07C0.0394
T08C0.0400
T09C0.0433
T10C0.0440
T11C0.0670
T12C0.1102
T13C0.1260
%
T01
X5180Y2180
X8430Y2430
X9680Y4180
X9930Y4743
X9180Y4930
X7930Y5930
X7055Y6555
X7305Y7055
X4430Y5180
X10305Y7805
X12179Y7804
X11305Y5555
X12305Y5305
X12555Y4242
X11930Y2680
X7930Y9430
X10180Y10868
X10618Y11555
X9618Y11993
X8680Y12118
X7930Y12680
X7930Y14305
X8805Y14805
X7430Y15493
X7430Y16399
X10305Y15305
X10867Y14930
X11867Y13555
X11430Y12680
X13430Y11180
X5680Y10055
X4180Y13336
X4680Y14430
X11680Y16930
T02
X20180Y11680
X15305Y10305
X18555Y7805
X19680Y6930
X14180Y1180
X10430Y2180
X8430Y4458
X8680Y5430
X9618Y5743
T03
X4118Y8742
X4118Y9430
X4118Y10117
T04
X3518Y7367
X5092Y7367
T05
X13430Y6693
X13430Y5293
T06
X12680Y18180
X11680Y18180
X10680Y18180
X7680Y18180
X6680Y18180
X15680Y18180
X16680Y18180
T07
X18680Y17930
X18680Y10930
X12930Y1430
X11930Y1430
X10930Y1430
X9930Y1430
X8930Y1430
X7930Y1430
T08
X5430Y10930
X5430Y11930
X5430Y12930
X5430Y13930
X5430Y14930
X5430Y15930
T09
X16430Y4180
X24430Y4180
T10
X24930Y7930
X27930Y7930
X20930Y7930
X20930Y10930
T11
X21930Y14430
X21930Y16930
X27180Y14555
X27180Y12805
X27930Y6180
X24430Y2430
X22430Y6180
X16430Y2430
T12
X24180Y17680
T13
X2180Y7430
M30
