G75*
G70*
%OFA0B0*%
%FSLAX24Y24*%
%IPPOS*%
%LPD*%
%AMOC8*
5,1,8,0,0,1.08239X$1,22.5*
%
%ADD10C,0.0760*%
%ADD11C,0.0500*%
%ADD12C,0.0475*%
%ADD13C,0.0740*%
%ADD14OC8,0.0630*%
%ADD15C,0.0630*%
%ADD16C,0.0650*%
%ADD17C,0.0660*%
%ADD18C,0.1640*%
%ADD19C,0.0160*%
%ADD20C,0.0436*%
%ADD21C,0.0397*%
%ADD22C,0.0320*%
%ADD23C,0.1700*%
%ADD24C,0.1600*%
%ADD25C,0.1000*%
D10*
X007930Y001430D03*
X008930Y001430D03*
X009930Y001430D03*
X010930Y001430D03*
X011930Y001430D03*
X012930Y001430D03*
X018680Y010930D03*
X018680Y017930D03*
X016680Y018180D03*
X015680Y018180D03*
X012680Y018180D03*
X011680Y018180D03*
X010680Y018180D03*
X007680Y018180D03*
X006680Y018180D03*
D11*
X004118Y010117D03*
X004118Y009430D03*
X004118Y008742D03*
D12*
X003518Y007367D03*
X005092Y007367D03*
D13*
X005430Y010930D03*
X005430Y011930D03*
X005430Y012930D03*
X005430Y013930D03*
X005430Y014930D03*
X005430Y015930D03*
D14*
X013430Y005293D03*
D15*
X013430Y006693D03*
D16*
X016105Y004180D02*
X016755Y004180D01*
X024105Y004180D02*
X024755Y004180D01*
D17*
X024930Y007600D02*
X024930Y008260D01*
X027930Y008260D02*
X027930Y007600D01*
X020930Y007600D02*
X020930Y008260D01*
X020930Y010600D02*
X020930Y011260D01*
D18*
X021930Y014430D03*
X021930Y016930D03*
X027180Y014555D03*
X027180Y012805D03*
X027930Y006180D03*
X024430Y002430D03*
X022430Y006180D03*
X016430Y002430D03*
D19*
X004210Y002197D02*
X004072Y002714D01*
X003804Y003176D01*
X003426Y003554D01*
X002964Y003822D01*
X002964Y003822D01*
X002460Y003957D01*
X002460Y005486D01*
X002417Y005589D01*
X002339Y005667D01*
X001210Y006796D01*
X001210Y008064D01*
X002167Y009021D01*
X002210Y009124D01*
X002210Y015650D01*
X002447Y015650D01*
X002964Y015788D01*
X003426Y016056D01*
X003426Y016056D01*
X003804Y016434D01*
X004072Y016896D01*
X004072Y016896D01*
X004210Y017413D01*
X004210Y018650D01*
X006273Y018650D01*
X006154Y018531D01*
X006060Y018303D01*
X006060Y018057D01*
X006073Y018025D01*
X004409Y016361D01*
X004360Y016244D01*
X004360Y014730D01*
X004308Y014678D01*
X004242Y014517D01*
X004242Y014343D01*
X004308Y014182D01*
X004432Y014058D01*
X004593Y013992D01*
X004767Y013992D01*
X004820Y014013D01*
X004820Y013809D01*
X004831Y013783D01*
X004670Y013622D01*
X004587Y013656D01*
X004480Y013656D01*
X004428Y013708D01*
X004267Y013775D01*
X004093Y013775D01*
X003932Y013708D01*
X003808Y013585D01*
X003742Y013423D01*
X003742Y013249D01*
X003808Y013088D01*
X003932Y012965D01*
X004093Y012898D01*
X004267Y012898D01*
X004360Y012936D01*
X004360Y010448D01*
X004332Y010468D01*
X004275Y010497D01*
X004214Y010517D01*
X004150Y010527D01*
X004118Y010527D01*
X004118Y010117D01*
X003708Y010117D01*
X003708Y010085D01*
X003718Y010021D01*
X003738Y009960D01*
X003767Y009903D01*
X003805Y009850D01*
X003825Y009830D01*
X003702Y009708D01*
X003628Y009527D01*
X003628Y009333D01*
X003702Y009152D01*
X003768Y009086D01*
X003702Y009020D01*
X003628Y008840D01*
X003628Y008645D01*
X003702Y008465D01*
X003840Y008327D01*
X004020Y008252D01*
X004215Y008252D01*
X004395Y008327D01*
X004533Y008465D01*
X004608Y008645D01*
X004608Y008780D01*
X004951Y009124D01*
X005000Y009241D01*
X005000Y010497D01*
X005084Y010413D01*
X005309Y010320D01*
X005325Y010320D01*
X005308Y010303D01*
X005242Y010142D01*
X005242Y009968D01*
X005308Y009807D01*
X005360Y009755D01*
X005360Y007866D01*
X005409Y007749D01*
X006617Y006541D01*
X006617Y006468D01*
X006683Y006307D01*
X006807Y006183D01*
X006968Y006117D01*
X007142Y006117D01*
X007303Y006183D01*
X007427Y006307D01*
X007493Y006468D01*
X007493Y006642D01*
X007488Y006656D01*
X007553Y006683D01*
X007610Y006740D01*
X007610Y006230D01*
X007558Y006178D01*
X007492Y006017D01*
X007492Y005843D01*
X007558Y005682D01*
X007682Y005558D01*
X007843Y005492D01*
X007860Y005492D01*
X007860Y005241D01*
X007909Y005124D01*
X007999Y005034D01*
X008182Y004851D01*
X008171Y004846D01*
X008102Y004778D01*
X004129Y004778D01*
X003838Y005069D01*
X003838Y007012D01*
X003922Y007097D01*
X003995Y007273D01*
X003995Y007462D01*
X003922Y007638D01*
X003788Y007772D01*
X003613Y007845D01*
X003423Y007845D01*
X003247Y007772D01*
X003113Y007638D01*
X003090Y007583D01*
X003090Y007611D01*
X002951Y007945D01*
X002695Y008201D01*
X002361Y008340D01*
X001999Y008340D01*
X001665Y008201D01*
X001409Y007945D01*
X001270Y007611D01*
X001270Y007249D01*
X001409Y006915D01*
X001665Y006659D01*
X001999Y006520D01*
X002361Y006520D01*
X002695Y006659D01*
X002951Y006915D01*
X003070Y007201D01*
X003113Y007097D01*
X003198Y007012D01*
X003198Y004872D01*
X003246Y004755D01*
X003815Y004186D01*
X003933Y004138D01*
X008102Y004138D01*
X008171Y004069D01*
X008339Y003999D01*
X008484Y003999D01*
X008159Y003674D01*
X008110Y003556D01*
X008110Y002730D01*
X008058Y002678D01*
X007992Y002517D01*
X007992Y002343D01*
X008058Y002182D01*
X008182Y002058D01*
X008343Y001992D01*
X008517Y001992D01*
X008610Y002030D01*
X008610Y001969D01*
X008579Y001956D01*
X008404Y001781D01*
X008382Y001727D01*
X008342Y001782D01*
X008282Y001842D01*
X008213Y001892D01*
X008137Y001930D01*
X008056Y001957D01*
X007972Y001970D01*
X007948Y001970D01*
X007948Y001448D01*
X007912Y001448D01*
X007912Y001412D01*
X007948Y001412D01*
X007948Y000890D01*
X007972Y000890D01*
X008056Y000903D01*
X008137Y000930D01*
X008213Y000968D01*
X008282Y001018D01*
X008342Y001078D01*
X008382Y001133D01*
X008404Y001079D01*
X008579Y000904D01*
X008807Y000810D01*
X009053Y000810D01*
X009281Y000904D01*
X009430Y001053D01*
X009579Y000904D01*
X009807Y000810D01*
X010053Y000810D01*
X010281Y000904D01*
X010430Y001053D01*
X010579Y000904D01*
X010807Y000810D01*
X011053Y000810D01*
X011281Y000904D01*
X011430Y001053D01*
X011579Y000904D01*
X011807Y000810D01*
X012053Y000810D01*
X012281Y000904D01*
X012430Y001053D01*
X012579Y000904D01*
X012807Y000810D01*
X013053Y000810D01*
X013281Y000904D01*
X013456Y001079D01*
X013550Y001307D01*
X013550Y001553D01*
X013456Y001781D01*
X013281Y001956D01*
X013053Y002050D01*
X012807Y002050D01*
X012775Y002037D01*
X012361Y002451D01*
X012317Y002469D01*
X012368Y002593D01*
X012368Y002666D01*
X013361Y003659D01*
X013451Y003749D01*
X013500Y003866D01*
X013500Y004494D01*
X013451Y004611D01*
X013361Y004701D01*
X013245Y004818D01*
X013430Y004818D01*
X013627Y004818D01*
X013905Y005096D01*
X013905Y005293D01*
X013905Y005489D01*
X013627Y005768D01*
X013430Y005768D01*
X013233Y005768D01*
X013125Y005659D01*
X013125Y005681D01*
X013125Y005681D01*
X013125Y005681D01*
X013103Y005734D01*
X013076Y005799D01*
X013032Y005843D01*
X012986Y005889D01*
X012658Y006217D01*
X012500Y006375D01*
X012500Y007494D01*
X012499Y007496D01*
X012499Y007504D01*
X012551Y007556D01*
X012617Y007717D01*
X012617Y007891D01*
X012551Y008052D01*
X012427Y008176D01*
X012266Y008242D01*
X012092Y008242D01*
X011931Y008176D01*
X011807Y008052D01*
X011741Y007891D01*
X011741Y007717D01*
X011807Y007556D01*
X011859Y007504D01*
X011859Y007367D01*
X011860Y007365D01*
X011860Y006203D01*
X011500Y006563D01*
X011500Y011056D01*
X011451Y011174D01*
X011056Y011569D01*
X011056Y011642D01*
X010989Y011803D01*
X010866Y011927D01*
X010705Y011993D01*
X010530Y011993D01*
X010369Y011927D01*
X010246Y011803D01*
X010179Y011642D01*
X010179Y011468D01*
X010246Y011307D01*
X010369Y011183D01*
X010530Y011117D01*
X010603Y011117D01*
X010860Y010860D01*
X010860Y006366D01*
X010909Y006249D01*
X010999Y006159D01*
X011180Y005978D01*
X011057Y005927D01*
X011005Y005875D01*
X010058Y005875D01*
X010006Y006002D01*
X009938Y006070D01*
X009938Y011692D01*
X009989Y011744D01*
X010056Y011905D01*
X010056Y011978D01*
X011313Y013235D01*
X011567Y013235D01*
X011619Y013183D01*
X011780Y013117D01*
X011914Y013117D01*
X011797Y013000D01*
X011730Y013000D01*
X011678Y013052D01*
X011517Y013118D01*
X011343Y013118D01*
X011182Y013052D01*
X011058Y012928D01*
X010992Y012767D01*
X010992Y012593D01*
X011058Y012432D01*
X011182Y012308D01*
X011343Y012242D01*
X011517Y012242D01*
X011678Y012308D01*
X011730Y012360D01*
X011994Y012360D01*
X012111Y012409D01*
X012201Y012499D01*
X012611Y012909D01*
X012701Y012999D01*
X012750Y013116D01*
X012750Y016244D01*
X012701Y016361D01*
X012118Y016944D01*
X012118Y017017D01*
X012052Y017178D01*
X011928Y017302D01*
X011767Y017368D01*
X011593Y017368D01*
X011432Y017302D01*
X011308Y017178D01*
X011242Y017017D01*
X011242Y016843D01*
X011308Y016682D01*
X011432Y016558D01*
X011593Y016492D01*
X011666Y016492D01*
X012110Y016047D01*
X012110Y013929D01*
X011955Y013993D01*
X011780Y013993D01*
X011619Y013927D01*
X011567Y013875D01*
X011116Y013875D01*
X010999Y013826D01*
X010909Y013736D01*
X009603Y012431D01*
X009530Y012431D01*
X009369Y012364D01*
X009246Y012241D01*
X009179Y012080D01*
X009179Y011905D01*
X009246Y011744D01*
X009298Y011692D01*
X009298Y010203D01*
X009000Y010500D01*
X009000Y011817D01*
X009052Y011869D01*
X009118Y012030D01*
X009118Y012205D01*
X009052Y012366D01*
X008928Y012489D01*
X008849Y012522D01*
X008951Y012624D01*
X009000Y012741D01*
X009000Y013619D01*
X008951Y013736D01*
X008861Y013826D01*
X008368Y014319D01*
X008368Y014392D01*
X008330Y014485D01*
X008505Y014485D01*
X008557Y014433D01*
X008718Y014367D01*
X008892Y014367D01*
X009053Y014433D01*
X009105Y014485D01*
X010806Y014485D01*
X010822Y014492D01*
X010955Y014492D01*
X011116Y014558D01*
X011239Y014682D01*
X011306Y014843D01*
X011306Y015017D01*
X011239Y015178D01*
X011116Y015302D01*
X010955Y015368D01*
X010780Y015368D01*
X010743Y015353D01*
X010743Y015392D01*
X010677Y015553D01*
X010553Y015677D01*
X010392Y015743D01*
X010319Y015743D01*
X009483Y016580D01*
X009483Y016580D01*
X009434Y016629D01*
X009393Y016670D01*
X009393Y016670D01*
X009393Y016670D01*
X009337Y016693D01*
X009275Y016719D01*
X009275Y016719D01*
X009216Y016719D01*
X009148Y016719D01*
X009148Y016719D01*
X007730Y016719D01*
X007678Y016770D01*
X007533Y016831D01*
X007563Y016860D01*
X009744Y016860D01*
X009861Y016909D01*
X009951Y016999D01*
X010525Y017573D01*
X010557Y017560D01*
X010803Y017560D01*
X011031Y017654D01*
X011206Y017829D01*
X011228Y017883D01*
X011268Y017828D01*
X011328Y017768D01*
X011397Y017718D01*
X011473Y017680D01*
X011554Y017653D01*
X011638Y017640D01*
X011671Y017640D01*
X011671Y018171D01*
X011689Y018171D01*
X011689Y017640D01*
X011722Y017640D01*
X011806Y017653D01*
X011887Y017680D01*
X011963Y017718D01*
X012032Y017768D01*
X012092Y017828D01*
X012132Y017883D01*
X012154Y017829D01*
X012329Y017654D01*
X012557Y017560D01*
X012734Y017560D01*
X014142Y016152D01*
X014142Y007971D01*
X013419Y007248D01*
X013320Y007248D01*
X013116Y007163D01*
X012959Y007007D01*
X012875Y006803D01*
X012875Y006582D01*
X012959Y006378D01*
X013116Y006222D01*
X013320Y006138D01*
X013540Y006138D01*
X013744Y006222D01*
X013901Y006378D01*
X013985Y006582D01*
X013985Y006682D01*
X014708Y007405D01*
X017180Y007405D01*
X017180Y004413D01*
X017169Y004434D01*
X017125Y004496D01*
X017071Y004550D01*
X017009Y004595D01*
X016941Y004629D01*
X016868Y004653D01*
X016793Y004665D01*
X016458Y004665D01*
X016458Y004208D01*
X016402Y004208D01*
X016402Y004152D01*
X016458Y004152D01*
X016458Y003695D01*
X016793Y003695D01*
X016868Y003707D01*
X016941Y003731D01*
X017009Y003765D01*
X017071Y003810D01*
X017125Y003864D01*
X017169Y003926D01*
X017180Y003947D01*
X017180Y003061D01*
X017162Y003084D01*
X017084Y003162D01*
X016998Y003231D01*
X016905Y003289D01*
X016806Y003337D01*
X016702Y003373D01*
X016594Y003398D01*
X016510Y003407D01*
X016510Y002510D01*
X016350Y002510D01*
X016350Y003407D01*
X016266Y003398D01*
X016158Y003373D01*
X016054Y003337D01*
X015955Y003289D01*
X015862Y003231D01*
X015776Y003162D01*
X015698Y003084D01*
X015629Y002998D01*
X015571Y002905D01*
X015523Y002806D01*
X015487Y002702D01*
X015462Y002594D01*
X015453Y002510D01*
X016350Y002510D01*
X016350Y002350D01*
X016510Y002350D01*
X016510Y001453D01*
X016594Y001462D01*
X016702Y001487D01*
X016806Y001523D01*
X016905Y001571D01*
X016998Y001629D01*
X017084Y001698D01*
X017162Y001776D01*
X017180Y001799D01*
X017180Y000710D01*
X004210Y000710D01*
X004210Y002197D01*
X004210Y002197D01*
X004210Y002125D02*
X008115Y002125D01*
X008016Y002283D02*
X004187Y002283D01*
X004145Y002442D02*
X007992Y002442D01*
X008026Y002600D02*
X004102Y002600D01*
X004046Y002759D02*
X008110Y002759D01*
X008110Y002917D02*
X003954Y002917D01*
X003863Y003076D02*
X008110Y003076D01*
X008110Y003234D02*
X003747Y003234D01*
X003588Y003393D02*
X008110Y003393D01*
X008110Y003551D02*
X003430Y003551D01*
X003426Y003554D02*
X003426Y003554D01*
X003158Y003710D02*
X008194Y003710D01*
X008353Y003868D02*
X002791Y003868D01*
X002460Y004027D02*
X008274Y004027D01*
X008430Y004458D02*
X003996Y004458D01*
X003518Y004936D01*
X003518Y007367D01*
X003964Y007197D02*
X004646Y007197D01*
X004615Y007273D02*
X004688Y007097D01*
X004822Y006963D01*
X004997Y006890D01*
X005187Y006890D01*
X005363Y006963D01*
X005497Y007097D01*
X005570Y007273D01*
X005570Y007462D01*
X005497Y007638D01*
X005363Y007772D01*
X005187Y007845D01*
X004997Y007845D01*
X004822Y007772D01*
X004688Y007638D01*
X004615Y007462D01*
X004615Y007273D01*
X004615Y007355D02*
X003995Y007355D01*
X003974Y007514D02*
X004636Y007514D01*
X004722Y007672D02*
X003888Y007672D01*
X003647Y007831D02*
X004963Y007831D01*
X005222Y007831D02*
X005375Y007831D01*
X005360Y007989D02*
X002908Y007989D01*
X002999Y007831D02*
X003388Y007831D01*
X003147Y007672D02*
X003065Y007672D01*
X002749Y008148D02*
X005360Y008148D01*
X005360Y008306D02*
X004344Y008306D01*
X004533Y008465D02*
X005360Y008465D01*
X005360Y008623D02*
X004598Y008623D01*
X004609Y008782D02*
X005360Y008782D01*
X005360Y008940D02*
X004768Y008940D01*
X004926Y009099D02*
X005360Y009099D01*
X005360Y009257D02*
X005000Y009257D01*
X005000Y009416D02*
X005360Y009416D01*
X005360Y009574D02*
X005000Y009574D01*
X005000Y009733D02*
X005360Y009733D01*
X005273Y009891D02*
X005000Y009891D01*
X005000Y010050D02*
X005242Y010050D01*
X005269Y010208D02*
X005000Y010208D01*
X005000Y010367D02*
X005196Y010367D01*
X005680Y010055D02*
X005680Y007930D01*
X007055Y006555D01*
X007493Y006563D02*
X007610Y006563D01*
X007610Y006721D02*
X007591Y006721D01*
X007305Y007055D02*
X007305Y007055D01*
X006180Y008180D01*
X006180Y011180D01*
X005430Y011930D01*
X004360Y011952D02*
X002210Y011952D01*
X002210Y012110D02*
X004360Y012110D01*
X004360Y012269D02*
X002210Y012269D01*
X002210Y012427D02*
X004360Y012427D01*
X004360Y012586D02*
X002210Y012586D01*
X002210Y012744D02*
X004360Y012744D01*
X004360Y012903D02*
X004279Y012903D01*
X004081Y012903D02*
X002210Y012903D01*
X002210Y013061D02*
X003835Y013061D01*
X003754Y013220D02*
X002210Y013220D01*
X002210Y013378D02*
X003742Y013378D01*
X003788Y013537D02*
X002210Y013537D01*
X002210Y013695D02*
X003919Y013695D01*
X004180Y013336D02*
X004524Y013336D01*
X004680Y013180D01*
X004680Y009305D01*
X004118Y008742D01*
X003669Y008940D02*
X002086Y008940D01*
X002199Y009099D02*
X003756Y009099D01*
X003659Y009257D02*
X002210Y009257D01*
X002210Y009416D02*
X003628Y009416D01*
X003647Y009574D02*
X002210Y009574D01*
X002210Y009733D02*
X003727Y009733D01*
X003775Y009891D02*
X002210Y009891D01*
X002210Y010050D02*
X003713Y010050D01*
X003708Y010117D02*
X004118Y010117D01*
X004118Y010117D01*
X004118Y010117D01*
X004118Y010527D01*
X004085Y010527D01*
X004022Y010517D01*
X003960Y010497D01*
X003903Y010468D01*
X003850Y010430D01*
X003805Y010385D01*
X003767Y010332D01*
X003738Y010275D01*
X003718Y010213D01*
X003708Y010150D01*
X003708Y010117D01*
X003717Y010208D02*
X002210Y010208D01*
X002210Y010367D02*
X003792Y010367D01*
X004070Y010525D02*
X002210Y010525D01*
X002210Y010684D02*
X004360Y010684D01*
X004360Y010842D02*
X002210Y010842D01*
X002210Y011001D02*
X004360Y011001D01*
X004360Y011159D02*
X002210Y011159D01*
X002210Y011318D02*
X004360Y011318D01*
X004360Y011476D02*
X002210Y011476D01*
X002210Y011635D02*
X004360Y011635D01*
X004360Y011793D02*
X002210Y011793D01*
X004118Y010525D02*
X004118Y010525D01*
X004165Y010525D02*
X004360Y010525D01*
X004118Y010367D02*
X004118Y010367D01*
X004118Y010208D02*
X004118Y010208D01*
X003628Y008782D02*
X001927Y008782D01*
X001769Y008623D02*
X003637Y008623D01*
X003703Y008465D02*
X001610Y008465D01*
X001452Y008306D02*
X001917Y008306D01*
X001611Y008148D02*
X001293Y008148D01*
X001210Y007989D02*
X001452Y007989D01*
X001361Y007831D02*
X001210Y007831D01*
X001210Y007672D02*
X001295Y007672D01*
X001270Y007514D02*
X001210Y007514D01*
X001210Y007355D02*
X001270Y007355D01*
X001292Y007197D02*
X001210Y007197D01*
X001210Y007038D02*
X001357Y007038D01*
X001444Y006880D02*
X001210Y006880D01*
X001285Y006721D02*
X001602Y006721D01*
X001443Y006563D02*
X001897Y006563D01*
X001602Y006404D02*
X003198Y006404D01*
X003198Y006246D02*
X001760Y006246D01*
X001919Y006087D02*
X003198Y006087D01*
X003198Y005929D02*
X002077Y005929D01*
X002236Y005770D02*
X003198Y005770D01*
X003198Y005612D02*
X002394Y005612D01*
X002460Y005453D02*
X003198Y005453D01*
X003198Y005295D02*
X002460Y005295D01*
X002460Y005136D02*
X003198Y005136D01*
X003198Y004978D02*
X002460Y004978D01*
X002460Y004819D02*
X003220Y004819D01*
X003341Y004661D02*
X002460Y004661D01*
X002460Y004502D02*
X003499Y004502D01*
X003658Y004344D02*
X002460Y004344D01*
X002460Y004185D02*
X003818Y004185D01*
X004087Y004819D02*
X008144Y004819D01*
X008055Y004978D02*
X003929Y004978D01*
X003838Y005136D02*
X007904Y005136D01*
X007860Y005295D02*
X003838Y005295D01*
X003838Y005453D02*
X007860Y005453D01*
X007628Y005612D02*
X003838Y005612D01*
X003838Y005770D02*
X007522Y005770D01*
X007492Y005929D02*
X003838Y005929D01*
X003838Y006087D02*
X007520Y006087D01*
X007610Y006246D02*
X007366Y006246D01*
X007467Y006404D02*
X007610Y006404D01*
X007930Y005930D02*
X007930Y008742D01*
X007430Y009242D01*
X007430Y012180D01*
X007930Y012680D01*
X007930Y012055D02*
X008680Y012805D01*
X008680Y013555D01*
X007930Y014305D01*
X006555Y012930D01*
X005430Y012930D01*
X004680Y013180D02*
X005430Y013930D01*
X006555Y013930D01*
X007430Y014805D01*
X008680Y014805D01*
X008805Y014805D01*
X008680Y014805D02*
X008680Y014805D01*
X010742Y014805D01*
X010867Y014930D01*
X011263Y015122D02*
X012110Y015122D01*
X012110Y015280D02*
X011137Y015280D01*
X011306Y014963D02*
X012110Y014963D01*
X012110Y014805D02*
X011290Y014805D01*
X011204Y014646D02*
X012110Y014646D01*
X012110Y014488D02*
X010812Y014488D01*
X011064Y013854D02*
X008834Y013854D01*
X008968Y013695D02*
X010867Y013695D01*
X010709Y013537D02*
X009000Y013537D01*
X009000Y013378D02*
X010550Y013378D01*
X010392Y013220D02*
X009000Y013220D01*
X009000Y013061D02*
X010233Y013061D01*
X010075Y012903D02*
X009000Y012903D01*
X009000Y012744D02*
X009916Y012744D01*
X009758Y012586D02*
X008913Y012586D01*
X008991Y012427D02*
X009521Y012427D01*
X009273Y012269D02*
X009092Y012269D01*
X009118Y012110D02*
X009192Y012110D01*
X009179Y011952D02*
X009086Y011952D01*
X009000Y011793D02*
X009226Y011793D01*
X009298Y011635D02*
X009000Y011635D01*
X009000Y011476D02*
X009298Y011476D01*
X009298Y011318D02*
X009000Y011318D01*
X009000Y011159D02*
X009298Y011159D01*
X009298Y011001D02*
X009000Y011001D01*
X009000Y010842D02*
X009298Y010842D01*
X009298Y010684D02*
X009000Y010684D01*
X009000Y010525D02*
X009298Y010525D01*
X009298Y010367D02*
X009134Y010367D01*
X009292Y010208D02*
X009298Y010208D01*
X009118Y009930D02*
X009118Y005617D01*
X009493Y005242D01*
X009805Y005242D01*
X010118Y005555D01*
X011305Y005555D01*
X011728Y005430D02*
X011677Y005307D01*
X011553Y005183D01*
X011392Y005117D01*
X011218Y005117D01*
X011057Y005183D01*
X011005Y005235D01*
X010250Y005235D01*
X010076Y005061D01*
X009986Y004971D01*
X009869Y004922D01*
X009618Y004922D01*
X009618Y004843D01*
X009552Y004682D01*
X009500Y004630D01*
X009500Y004580D01*
X009593Y004618D01*
X009767Y004618D01*
X009928Y004552D01*
X010052Y004428D01*
X010118Y004267D01*
X010118Y004093D01*
X010052Y003932D01*
X010000Y003880D01*
X010000Y003313D01*
X010313Y003000D01*
X011630Y003000D01*
X011682Y003052D01*
X011843Y003118D01*
X011916Y003118D01*
X012602Y003804D01*
X012468Y003804D01*
X012307Y003871D01*
X012183Y003994D01*
X012117Y004155D01*
X012117Y004228D01*
X012034Y004311D01*
X011985Y004429D01*
X011985Y005005D01*
X011933Y005057D01*
X011867Y005218D01*
X011867Y005291D01*
X011728Y005430D01*
X011665Y005295D02*
X011863Y005295D01*
X011900Y005136D02*
X011439Y005136D01*
X011171Y005136D02*
X010151Y005136D01*
X009993Y004978D02*
X011985Y004978D01*
X011985Y004819D02*
X009609Y004819D01*
X009531Y004661D02*
X011985Y004661D01*
X011985Y004502D02*
X009978Y004502D01*
X010087Y004344D02*
X012020Y004344D01*
X012117Y004185D02*
X010118Y004185D01*
X010091Y004027D02*
X012170Y004027D01*
X012313Y003868D02*
X010000Y003868D01*
X010000Y003710D02*
X012507Y003710D01*
X012348Y003551D02*
X010000Y003551D01*
X010000Y003393D02*
X012190Y003393D01*
X012031Y003234D02*
X010079Y003234D01*
X010237Y003076D02*
X011739Y003076D01*
X011930Y002680D02*
X013180Y003930D01*
X013180Y004430D01*
X012805Y004805D01*
X012805Y005618D01*
X012430Y005993D01*
X012180Y006243D01*
X012180Y007430D01*
X012179Y007431D01*
X012179Y007804D01*
X011781Y007989D02*
X011500Y007989D01*
X011500Y007831D02*
X011741Y007831D01*
X011759Y007672D02*
X011500Y007672D01*
X011500Y007514D02*
X011850Y007514D01*
X011860Y007355D02*
X011500Y007355D01*
X011500Y007197D02*
X011860Y007197D01*
X011860Y007038D02*
X011500Y007038D01*
X011500Y006880D02*
X011860Y006880D01*
X011860Y006721D02*
X011500Y006721D01*
X011500Y006563D02*
X011860Y006563D01*
X011860Y006404D02*
X011659Y006404D01*
X011817Y006246D02*
X011860Y006246D01*
X012500Y006404D02*
X012949Y006404D01*
X012883Y006563D02*
X012500Y006563D01*
X012500Y006721D02*
X012875Y006721D01*
X012907Y006880D02*
X012500Y006880D01*
X012500Y007038D02*
X012991Y007038D01*
X013196Y007197D02*
X012500Y007197D01*
X012500Y007355D02*
X013527Y007355D01*
X013685Y007514D02*
X012509Y007514D01*
X012599Y007672D02*
X013844Y007672D01*
X014002Y007831D02*
X012617Y007831D01*
X012577Y007989D02*
X014142Y007989D01*
X014142Y008148D02*
X012456Y008148D01*
X011903Y008148D02*
X011500Y008148D01*
X011500Y008306D02*
X014142Y008306D01*
X014142Y008465D02*
X011500Y008465D01*
X011500Y008623D02*
X014142Y008623D01*
X014142Y008782D02*
X011500Y008782D01*
X011500Y008940D02*
X014142Y008940D01*
X014142Y009099D02*
X011500Y009099D01*
X011500Y009257D02*
X014142Y009257D01*
X014142Y009416D02*
X011500Y009416D01*
X011500Y009574D02*
X014142Y009574D01*
X014142Y009733D02*
X011500Y009733D01*
X011500Y009891D02*
X014142Y009891D01*
X014142Y010050D02*
X011500Y010050D01*
X011500Y010208D02*
X014142Y010208D01*
X014142Y010367D02*
X011500Y010367D01*
X011500Y010525D02*
X014142Y010525D01*
X014142Y010684D02*
X011500Y010684D01*
X011500Y010842D02*
X014142Y010842D01*
X014142Y011001D02*
X011500Y011001D01*
X011457Y011159D02*
X014142Y011159D01*
X014142Y011318D02*
X011308Y011318D01*
X011149Y011476D02*
X014142Y011476D01*
X014142Y011635D02*
X011056Y011635D01*
X010993Y011793D02*
X014142Y011793D01*
X014142Y011952D02*
X010806Y011952D01*
X010429Y011952D02*
X010056Y011952D01*
X010009Y011793D02*
X010242Y011793D01*
X010179Y011635D02*
X009938Y011635D01*
X009938Y011476D02*
X010179Y011476D01*
X010241Y011318D02*
X009938Y011318D01*
X009938Y011159D02*
X010428Y011159D01*
X010719Y011001D02*
X009938Y011001D01*
X009938Y010842D02*
X010860Y010842D01*
X010860Y010684D02*
X009938Y010684D01*
X009938Y010525D02*
X010860Y010525D01*
X010860Y010367D02*
X009938Y010367D01*
X009938Y010208D02*
X010860Y010208D01*
X010860Y010050D02*
X009938Y010050D01*
X009938Y009891D02*
X010860Y009891D01*
X010860Y009733D02*
X009938Y009733D01*
X009938Y009574D02*
X010860Y009574D01*
X010860Y009416D02*
X009938Y009416D01*
X009938Y009257D02*
X010860Y009257D01*
X010860Y009099D02*
X009938Y009099D01*
X009938Y008940D02*
X010860Y008940D01*
X010860Y008782D02*
X009938Y008782D01*
X009938Y008623D02*
X010860Y008623D01*
X010860Y008465D02*
X009938Y008465D01*
X009938Y008306D02*
X010860Y008306D01*
X010860Y008148D02*
X009938Y008148D01*
X009938Y007989D02*
X010860Y007989D01*
X010860Y007831D02*
X009938Y007831D01*
X009938Y007672D02*
X010860Y007672D01*
X010860Y007514D02*
X009938Y007514D01*
X009938Y007355D02*
X010860Y007355D01*
X010860Y007197D02*
X009938Y007197D01*
X009938Y007038D02*
X010860Y007038D01*
X010860Y006880D02*
X009938Y006880D01*
X009938Y006721D02*
X010860Y006721D01*
X010860Y006563D02*
X009938Y006563D01*
X009938Y006404D02*
X010860Y006404D01*
X010912Y006246D02*
X009938Y006246D01*
X009938Y006087D02*
X011070Y006087D01*
X010999Y006159D02*
X010999Y006159D01*
X011061Y005929D02*
X010036Y005929D01*
X009618Y005743D02*
X009618Y011993D01*
X011180Y013555D01*
X011867Y013555D01*
X011583Y013220D02*
X011297Y013220D01*
X011204Y013061D02*
X011139Y013061D01*
X011048Y012903D02*
X010980Y012903D01*
X010992Y012744D02*
X010822Y012744D01*
X010663Y012586D02*
X010995Y012586D01*
X011063Y012427D02*
X010505Y012427D01*
X010346Y012269D02*
X011278Y012269D01*
X011582Y012269D02*
X014142Y012269D01*
X014142Y012427D02*
X012130Y012427D01*
X012288Y012586D02*
X014142Y012586D01*
X014142Y012744D02*
X012447Y012744D01*
X012605Y012903D02*
X014142Y012903D01*
X014142Y013061D02*
X012727Y013061D01*
X012750Y013220D02*
X014142Y013220D01*
X014142Y013378D02*
X012750Y013378D01*
X012750Y013537D02*
X014142Y013537D01*
X014142Y013695D02*
X012750Y013695D01*
X012750Y013854D02*
X014142Y013854D01*
X014142Y014012D02*
X012750Y014012D01*
X012750Y014171D02*
X014142Y014171D01*
X014142Y014329D02*
X012750Y014329D01*
X012750Y014488D02*
X014142Y014488D01*
X014142Y014646D02*
X012750Y014646D01*
X012750Y014805D02*
X014142Y014805D01*
X014142Y014963D02*
X012750Y014963D01*
X012750Y015122D02*
X014142Y015122D01*
X014142Y015280D02*
X012750Y015280D01*
X012750Y015439D02*
X014142Y015439D01*
X014142Y015597D02*
X012750Y015597D01*
X012750Y015756D02*
X014142Y015756D01*
X014142Y015914D02*
X012750Y015914D01*
X012750Y016073D02*
X014142Y016073D01*
X014063Y016231D02*
X012750Y016231D01*
X012673Y016390D02*
X013905Y016390D01*
X013746Y016548D02*
X012515Y016548D01*
X012356Y016707D02*
X013588Y016707D01*
X013429Y016865D02*
X012198Y016865D01*
X012116Y017024D02*
X013271Y017024D01*
X013112Y017182D02*
X012048Y017182D01*
X011835Y017341D02*
X012954Y017341D01*
X012795Y017499D02*
X010452Y017499D01*
X010293Y017341D02*
X011525Y017341D01*
X011312Y017182D02*
X010135Y017182D01*
X009976Y017024D02*
X011244Y017024D01*
X011242Y016865D02*
X009756Y016865D01*
X009680Y017180D02*
X007430Y017180D01*
X006930Y016680D01*
X006930Y015993D01*
X007430Y015493D01*
X006992Y015478D02*
X006992Y015405D01*
X007058Y015244D01*
X007182Y015121D01*
X007269Y015085D01*
X007249Y015076D01*
X006422Y014250D01*
X005958Y014250D01*
X005947Y014276D01*
X005776Y014447D01*
X005706Y014476D01*
X005708Y014477D01*
X005775Y014526D01*
X005834Y014585D01*
X005883Y014652D01*
X005921Y014727D01*
X005947Y014806D01*
X005960Y014888D01*
X005960Y014910D01*
X005450Y014910D01*
X005450Y014950D01*
X005410Y014950D01*
X005410Y015910D01*
X005450Y015910D01*
X005450Y015950D01*
X005410Y015950D01*
X005410Y016457D01*
X006525Y017573D01*
X006557Y017560D01*
X006803Y017560D01*
X007031Y017654D01*
X007180Y017803D01*
X007329Y017654D01*
X007557Y017560D01*
X007803Y017560D01*
X008031Y017654D01*
X008206Y017829D01*
X008300Y018057D01*
X008300Y018303D01*
X008206Y018531D01*
X008087Y018650D01*
X010273Y018650D01*
X010154Y018531D01*
X010060Y018303D01*
X010060Y018057D01*
X010073Y018025D01*
X009547Y017500D01*
X007366Y017500D01*
X007249Y017451D01*
X006749Y016951D01*
X006659Y016861D01*
X006610Y016744D01*
X006610Y015929D01*
X006659Y015811D01*
X006992Y015478D01*
X006992Y015439D02*
X005633Y015439D01*
X005708Y015477D01*
X005775Y015526D01*
X005834Y015585D01*
X005883Y015652D01*
X005921Y015727D01*
X005947Y015806D01*
X005960Y015888D01*
X005960Y015910D01*
X005450Y015910D01*
X005450Y015400D01*
X005450Y014950D01*
X005960Y014950D01*
X005960Y014972D01*
X005947Y015054D01*
X005921Y015133D01*
X005883Y015208D01*
X005834Y015275D01*
X005775Y015334D01*
X005708Y015383D01*
X005633Y015421D01*
X005606Y015430D01*
X005633Y015439D01*
X005450Y015439D02*
X005410Y015439D01*
X005410Y015597D02*
X005450Y015597D01*
X005450Y015756D02*
X005410Y015756D01*
X005450Y015914D02*
X006616Y015914D01*
X006610Y016073D02*
X005941Y016073D01*
X005947Y016054D02*
X005921Y016133D01*
X005883Y016208D01*
X005834Y016275D01*
X005775Y016334D01*
X005708Y016383D01*
X005633Y016421D01*
X005554Y016447D01*
X005472Y016460D01*
X005450Y016460D01*
X005450Y015950D01*
X005960Y015950D01*
X005960Y015972D01*
X005947Y016054D01*
X005866Y016231D02*
X006610Y016231D01*
X006610Y016390D02*
X005696Y016390D01*
X005450Y016390D02*
X005410Y016390D01*
X005410Y016231D02*
X005450Y016231D01*
X005450Y016073D02*
X005410Y016073D01*
X005931Y015756D02*
X006714Y015756D01*
X006873Y015597D02*
X005843Y015597D01*
X005830Y015280D02*
X007043Y015280D01*
X007181Y015122D02*
X005925Y015122D01*
X005960Y014963D02*
X007135Y014963D01*
X006977Y014805D02*
X005947Y014805D01*
X005879Y014646D02*
X006818Y014646D01*
X006660Y014488D02*
X005723Y014488D01*
X005894Y014329D02*
X006501Y014329D01*
X005450Y014963D02*
X005410Y014963D01*
X005410Y015122D02*
X005450Y015122D01*
X005450Y015280D02*
X005410Y015280D01*
X004360Y015280D02*
X002210Y015280D01*
X002210Y015122D02*
X004360Y015122D01*
X004360Y014963D02*
X002210Y014963D01*
X002210Y014805D02*
X004360Y014805D01*
X004295Y014646D02*
X002210Y014646D01*
X002210Y014488D02*
X004242Y014488D01*
X004247Y014329D02*
X002210Y014329D01*
X002210Y014171D02*
X004319Y014171D01*
X004543Y014012D02*
X002210Y014012D01*
X002210Y013854D02*
X004820Y013854D01*
X004817Y014012D02*
X004820Y014012D01*
X004742Y013695D02*
X004441Y013695D01*
X004680Y014430D02*
X004680Y016180D01*
X006680Y018180D01*
X006232Y018609D02*
X004210Y018609D01*
X004210Y018450D02*
X006121Y018450D01*
X006060Y018292D02*
X004210Y018292D01*
X004210Y018133D02*
X006060Y018133D01*
X006022Y017975D02*
X004210Y017975D01*
X004210Y017816D02*
X005863Y017816D01*
X005705Y017658D02*
X004210Y017658D01*
X004210Y017499D02*
X005546Y017499D01*
X005388Y017341D02*
X004191Y017341D01*
X004148Y017182D02*
X005229Y017182D01*
X005071Y017024D02*
X004106Y017024D01*
X004054Y016865D02*
X004912Y016865D01*
X004754Y016707D02*
X003962Y016707D01*
X003870Y016548D02*
X004595Y016548D01*
X004437Y016390D02*
X003760Y016390D01*
X003804Y016434D02*
X003804Y016434D01*
X003804Y016434D01*
X003602Y016231D02*
X004360Y016231D01*
X004360Y016073D02*
X003443Y016073D01*
X003181Y015914D02*
X004360Y015914D01*
X004360Y015756D02*
X002841Y015756D01*
X002210Y015597D02*
X004360Y015597D01*
X004360Y015439D02*
X002210Y015439D01*
X005501Y016548D02*
X006610Y016548D01*
X006610Y016707D02*
X005659Y016707D01*
X005818Y016865D02*
X006662Y016865D01*
X006821Y017024D02*
X005976Y017024D01*
X006135Y017182D02*
X006979Y017182D01*
X007138Y017341D02*
X006293Y017341D01*
X006452Y017499D02*
X007364Y017499D01*
X007326Y017658D02*
X007034Y017658D01*
X008034Y017658D02*
X009705Y017658D01*
X009863Y017816D02*
X008193Y017816D01*
X008266Y017975D02*
X010022Y017975D01*
X010060Y018133D02*
X008300Y018133D01*
X008300Y018292D02*
X010060Y018292D01*
X010121Y018450D02*
X008239Y018450D01*
X008128Y018609D02*
X010232Y018609D01*
X010680Y018180D02*
X009680Y017180D01*
X009304Y016707D02*
X011298Y016707D01*
X011457Y016548D02*
X009515Y016548D01*
X009673Y016390D02*
X011768Y016390D01*
X011926Y016231D02*
X009832Y016231D01*
X009990Y016073D02*
X012085Y016073D01*
X012110Y015914D02*
X010149Y015914D01*
X010307Y015756D02*
X012110Y015756D01*
X012110Y015597D02*
X010633Y015597D01*
X010724Y015439D02*
X012110Y015439D01*
X012430Y016180D02*
X011680Y016930D01*
X011671Y017658D02*
X011689Y017658D01*
X011819Y017658D02*
X012326Y017658D01*
X012167Y017816D02*
X012080Y017816D01*
X011689Y017816D02*
X011671Y017816D01*
X011671Y017975D02*
X011689Y017975D01*
X011689Y018133D02*
X011671Y018133D01*
X011541Y017658D02*
X011034Y017658D01*
X011193Y017816D02*
X011280Y017816D01*
X013087Y018650D02*
X015273Y018650D01*
X015154Y018531D01*
X015060Y018303D01*
X015060Y018057D01*
X015154Y017829D01*
X015329Y017654D01*
X015557Y017560D01*
X015803Y017560D01*
X016031Y017654D01*
X016206Y017829D01*
X016228Y017883D01*
X016268Y017828D01*
X016328Y017768D01*
X016397Y017718D01*
X016473Y017680D01*
X016554Y017653D01*
X016638Y017640D01*
X016671Y017640D01*
X016671Y018171D01*
X016689Y018171D01*
X016689Y017640D01*
X016722Y017640D01*
X016806Y017653D01*
X016887Y017680D01*
X016963Y017718D01*
X017032Y017768D01*
X017092Y017828D01*
X017142Y017897D01*
X017180Y017972D01*
X017180Y011683D01*
X016202Y010705D01*
X015536Y010705D01*
X015396Y010763D01*
X015214Y010763D01*
X015046Y010693D01*
X014942Y010590D01*
X014942Y016397D01*
X014882Y016544D01*
X013300Y018126D01*
X013300Y018303D01*
X013206Y018531D01*
X013087Y018650D01*
X013128Y018609D02*
X015232Y018609D01*
X015121Y018450D02*
X013239Y018450D01*
X013300Y018292D02*
X015060Y018292D01*
X015060Y018133D02*
X013300Y018133D01*
X013451Y017975D02*
X015094Y017975D01*
X015167Y017816D02*
X013610Y017816D01*
X013768Y017658D02*
X015326Y017658D01*
X016034Y017658D02*
X016541Y017658D01*
X016671Y017658D02*
X016689Y017658D01*
X016819Y017658D02*
X017180Y017658D01*
X017180Y017816D02*
X017080Y017816D01*
X017180Y017499D02*
X013927Y017499D01*
X014085Y017341D02*
X017180Y017341D01*
X017180Y017182D02*
X014244Y017182D01*
X014402Y017024D02*
X017180Y017024D01*
X017180Y016865D02*
X014561Y016865D01*
X014719Y016707D02*
X017180Y016707D01*
X017180Y016548D02*
X014878Y016548D01*
X014942Y016390D02*
X017180Y016390D01*
X017180Y016231D02*
X014942Y016231D01*
X014942Y016073D02*
X017180Y016073D01*
X017180Y015914D02*
X014942Y015914D01*
X014942Y015756D02*
X017180Y015756D01*
X017180Y015597D02*
X014942Y015597D01*
X014942Y015439D02*
X017180Y015439D01*
X017180Y015280D02*
X014942Y015280D01*
X014942Y015122D02*
X017180Y015122D01*
X017180Y014963D02*
X014942Y014963D01*
X014942Y014805D02*
X017180Y014805D01*
X017180Y014646D02*
X014942Y014646D01*
X014942Y014488D02*
X017180Y014488D01*
X017180Y014329D02*
X014942Y014329D01*
X014942Y014171D02*
X017180Y014171D01*
X017180Y014012D02*
X014942Y014012D01*
X014942Y013854D02*
X017180Y013854D01*
X017180Y013695D02*
X014942Y013695D01*
X014942Y013537D02*
X017180Y013537D01*
X017180Y013378D02*
X014942Y013378D01*
X014942Y013220D02*
X017180Y013220D01*
X017180Y013061D02*
X014942Y013061D01*
X014942Y012903D02*
X017180Y012903D01*
X017180Y012744D02*
X014942Y012744D01*
X014942Y012586D02*
X017180Y012586D01*
X017180Y012427D02*
X014942Y012427D01*
X014942Y012269D02*
X017180Y012269D01*
X017180Y012110D02*
X014942Y012110D01*
X014942Y011952D02*
X017180Y011952D01*
X017180Y011793D02*
X014942Y011793D01*
X014942Y011635D02*
X017131Y011635D01*
X016973Y011476D02*
X014942Y011476D01*
X014942Y011318D02*
X016814Y011318D01*
X016656Y011159D02*
X014942Y011159D01*
X014942Y011001D02*
X016497Y011001D01*
X016339Y010842D02*
X014942Y010842D01*
X014942Y010684D02*
X015036Y010684D01*
X014142Y012110D02*
X010188Y012110D01*
X010618Y011555D02*
X011180Y010993D01*
X011180Y006430D01*
X012305Y005305D01*
X012305Y004492D01*
X012555Y004242D01*
X013402Y004661D02*
X016040Y004661D01*
X016067Y004665D02*
X015992Y004653D01*
X015919Y004629D01*
X015851Y004595D01*
X015789Y004550D01*
X015735Y004496D01*
X015691Y004434D01*
X015656Y004366D01*
X015632Y004294D01*
X015620Y004218D01*
X015620Y004208D01*
X016402Y004208D01*
X016402Y004665D01*
X016067Y004665D01*
X015742Y004502D02*
X013497Y004502D01*
X013500Y004344D02*
X015649Y004344D01*
X015620Y004152D02*
X015620Y004142D01*
X015632Y004066D01*
X015656Y003994D01*
X015691Y003926D01*
X015735Y003864D01*
X015789Y003810D01*
X015851Y003765D01*
X015919Y003731D01*
X015992Y003707D01*
X016067Y003695D01*
X016402Y003695D01*
X016402Y004152D01*
X015620Y004152D01*
X015645Y004027D02*
X013500Y004027D01*
X013500Y004185D02*
X016402Y004185D01*
X016402Y004027D02*
X016458Y004027D01*
X016458Y003868D02*
X016402Y003868D01*
X016402Y003710D02*
X016458Y003710D01*
X016510Y003393D02*
X016350Y003393D01*
X016243Y003393D02*
X013095Y003393D01*
X013254Y003551D02*
X017180Y003551D01*
X017180Y003393D02*
X016617Y003393D01*
X016510Y003234D02*
X016350Y003234D01*
X016350Y003076D02*
X016510Y003076D01*
X016510Y002917D02*
X016350Y002917D01*
X016350Y002759D02*
X016510Y002759D01*
X016510Y002600D02*
X016350Y002600D01*
X016350Y002442D02*
X012371Y002442D01*
X012368Y002600D02*
X015464Y002600D01*
X015507Y002759D02*
X012461Y002759D01*
X012620Y002917D02*
X015579Y002917D01*
X015691Y003076D02*
X012778Y003076D01*
X012937Y003234D02*
X015868Y003234D01*
X015984Y003710D02*
X013412Y003710D01*
X013361Y003659D02*
X013361Y003659D01*
X013500Y003868D02*
X015733Y003868D01*
X016402Y004344D02*
X016458Y004344D01*
X016458Y004502D02*
X016402Y004502D01*
X016402Y004661D02*
X016458Y004661D01*
X016820Y004661D02*
X017180Y004661D01*
X017180Y004819D02*
X013628Y004819D01*
X013430Y004819D02*
X013430Y004819D01*
X013430Y004818D02*
X013430Y005293D01*
X013430Y005768D01*
X013430Y005293D01*
X013430Y005293D01*
X013905Y005293D01*
X013430Y005293D01*
X013430Y005293D01*
X013430Y005293D01*
X013430Y004818D01*
X013430Y004978D02*
X013430Y004978D01*
X013430Y005136D02*
X013430Y005136D01*
X013430Y005295D02*
X013430Y005295D01*
X013430Y005453D02*
X013430Y005453D01*
X013430Y005612D02*
X013430Y005612D01*
X013088Y005770D02*
X017180Y005770D01*
X017180Y005612D02*
X013783Y005612D01*
X013905Y005453D02*
X017180Y005453D01*
X017180Y005295D02*
X013905Y005295D01*
X013905Y005136D02*
X017180Y005136D01*
X017180Y004978D02*
X013787Y004978D01*
X013076Y005799D02*
X013076Y005799D01*
X013076Y005799D01*
X012986Y005889D02*
X012986Y005889D01*
X012947Y005929D02*
X017180Y005929D01*
X017180Y006087D02*
X012788Y006087D01*
X012630Y006246D02*
X013092Y006246D01*
X013768Y006246D02*
X017180Y006246D01*
X017180Y006404D02*
X013911Y006404D01*
X013977Y006563D02*
X017180Y006563D01*
X017180Y006721D02*
X014024Y006721D01*
X014183Y006880D02*
X017180Y006880D01*
X017180Y007038D02*
X014341Y007038D01*
X014500Y007197D02*
X017180Y007197D01*
X017180Y007355D02*
X014658Y007355D01*
X017118Y004502D02*
X017180Y004502D01*
X017180Y003868D02*
X017127Y003868D01*
X017180Y003710D02*
X016876Y003710D01*
X016992Y003234D02*
X017180Y003234D01*
X017169Y003076D02*
X017180Y003076D01*
X016510Y002283D02*
X016350Y002283D01*
X016350Y002350D02*
X016350Y001453D01*
X016266Y001462D01*
X016158Y001487D01*
X016054Y001523D01*
X015955Y001571D01*
X015862Y001629D01*
X015776Y001698D01*
X015698Y001776D01*
X015629Y001862D01*
X015571Y001955D01*
X015523Y002054D01*
X015487Y002158D01*
X015462Y002266D01*
X015453Y002350D01*
X016350Y002350D01*
X016350Y002125D02*
X016510Y002125D01*
X016510Y001966D02*
X016350Y001966D01*
X016350Y001808D02*
X016510Y001808D01*
X016510Y001649D02*
X016350Y001649D01*
X016350Y001491D02*
X016510Y001491D01*
X016712Y001491D02*
X017180Y001491D01*
X017180Y001649D02*
X017022Y001649D01*
X017180Y001332D02*
X013550Y001332D01*
X013550Y001491D02*
X016148Y001491D01*
X015838Y001649D02*
X013510Y001649D01*
X013429Y001808D02*
X015673Y001808D01*
X015566Y001966D02*
X013256Y001966D01*
X012688Y002125D02*
X015499Y002125D01*
X015460Y002283D02*
X012530Y002283D01*
X012180Y002180D02*
X012930Y001430D01*
X013495Y001174D02*
X017180Y001174D01*
X017180Y001015D02*
X013392Y001015D01*
X013166Y000857D02*
X017180Y000857D01*
X012694Y000857D02*
X012166Y000857D01*
X012392Y001015D02*
X012468Y001015D01*
X011694Y000857D02*
X011166Y000857D01*
X011392Y001015D02*
X011468Y001015D01*
X010694Y000857D02*
X010166Y000857D01*
X010392Y001015D02*
X010468Y001015D01*
X009694Y000857D02*
X009166Y000857D01*
X009392Y001015D02*
X009468Y001015D01*
X008930Y001430D02*
X008930Y002180D01*
X009180Y002430D01*
X009180Y004930D01*
X008868Y004617D02*
X008180Y005305D01*
X008180Y005555D01*
X008368Y005743D01*
X008368Y008992D01*
X007930Y009430D01*
X008680Y009680D02*
X007930Y010430D01*
X007930Y012055D01*
X008680Y012118D02*
X008680Y010368D01*
X009118Y009930D01*
X008680Y009680D02*
X008680Y005430D01*
X008868Y004617D02*
X008868Y003930D01*
X008430Y003492D01*
X008430Y002430D01*
X008604Y001966D02*
X007998Y001966D01*
X007948Y001966D02*
X007912Y001966D01*
X007912Y001970D02*
X007888Y001970D01*
X007804Y001957D01*
X007723Y001930D01*
X007647Y001892D01*
X007578Y001842D01*
X007518Y001782D01*
X007468Y001713D01*
X007430Y001637D01*
X007403Y001556D01*
X007390Y001472D01*
X007390Y001448D01*
X007912Y001448D01*
X007912Y001970D01*
X007862Y001966D02*
X004210Y001966D01*
X004210Y001808D02*
X007544Y001808D01*
X007436Y001649D02*
X004210Y001649D01*
X004210Y001491D02*
X007393Y001491D01*
X007390Y001412D02*
X007390Y001388D01*
X007403Y001304D01*
X007430Y001223D01*
X007468Y001147D01*
X007518Y001078D01*
X007578Y001018D01*
X007647Y000968D01*
X007723Y000930D01*
X007804Y000903D01*
X007888Y000890D01*
X007912Y000890D01*
X007912Y001412D01*
X007390Y001412D01*
X007399Y001332D02*
X004210Y001332D01*
X004210Y001174D02*
X007455Y001174D01*
X007582Y001015D02*
X004210Y001015D01*
X004210Y000857D02*
X008694Y000857D01*
X008468Y001015D02*
X008278Y001015D01*
X007948Y001015D02*
X007912Y001015D01*
X007912Y001174D02*
X007948Y001174D01*
X007948Y001332D02*
X007912Y001332D01*
X007912Y001491D02*
X007948Y001491D01*
X007948Y001649D02*
X007912Y001649D01*
X007912Y001808D02*
X007948Y001808D01*
X008316Y001808D02*
X008431Y001808D01*
X009680Y003180D02*
X010180Y002680D01*
X011930Y002680D01*
X012180Y002180D02*
X010430Y002180D01*
X009680Y003180D02*
X009680Y004180D01*
X006744Y006246D02*
X003838Y006246D01*
X003838Y006404D02*
X006643Y006404D01*
X006595Y006563D02*
X003838Y006563D01*
X003838Y006721D02*
X006436Y006721D01*
X006278Y006880D02*
X003838Y006880D01*
X003863Y007038D02*
X004747Y007038D01*
X005438Y007038D02*
X006119Y007038D01*
X005961Y007197D02*
X005538Y007197D01*
X005570Y007355D02*
X005802Y007355D01*
X005644Y007514D02*
X005549Y007514D01*
X005485Y007672D02*
X005463Y007672D01*
X003891Y008306D02*
X002443Y008306D01*
X003068Y007197D02*
X003072Y007197D01*
X003003Y007038D02*
X003172Y007038D01*
X003198Y006880D02*
X002916Y006880D01*
X002758Y006721D02*
X003198Y006721D01*
X003198Y006563D02*
X002463Y006563D01*
X011430Y012680D02*
X011930Y012680D01*
X012430Y013180D01*
X012430Y016180D01*
X010305Y015305D02*
X009211Y016399D01*
X007430Y016399D01*
X009275Y016719D02*
X009275Y016719D01*
X008368Y014329D02*
X012110Y014329D01*
X012110Y014171D02*
X008517Y014171D01*
X008676Y014012D02*
X012110Y014012D01*
X011858Y013061D02*
X011656Y013061D01*
X016193Y017816D02*
X016280Y017816D01*
X016671Y017816D02*
X016689Y017816D01*
X016689Y017975D02*
X016671Y017975D01*
X016671Y018133D02*
X016689Y018133D01*
D20*
X020180Y011680D03*
X015305Y010305D03*
X018555Y007805D03*
X019680Y006930D03*
X014180Y001180D03*
X010430Y002180D03*
X008430Y004458D03*
X008680Y005430D03*
X009618Y005743D03*
D21*
X009180Y004930D03*
X009930Y004743D03*
X009680Y004180D03*
X011305Y005555D03*
X012305Y005305D03*
X012555Y004242D03*
X011930Y002680D03*
X008430Y002430D03*
X005180Y002180D03*
X004430Y005180D03*
X007055Y006555D03*
X007305Y007055D03*
X007930Y005930D03*
X010305Y007805D03*
X012179Y007804D03*
X007930Y009430D03*
X010180Y010868D03*
X010618Y011555D03*
X009618Y011993D03*
X008680Y012118D03*
X007930Y012680D03*
X007930Y014305D03*
X008805Y014805D03*
X007430Y015493D03*
X007430Y016399D03*
X010305Y015305D03*
X010867Y014930D03*
X011867Y013555D03*
X011430Y012680D03*
X013430Y011180D03*
X005680Y010055D03*
X004180Y013336D03*
X004680Y014430D03*
X011680Y016930D03*
D22*
X012680Y018180D02*
X014542Y016318D01*
X014542Y007805D01*
X013430Y006693D01*
X014542Y007805D02*
X018555Y007805D01*
X019680Y006930D02*
X019680Y011180D01*
X020180Y011680D01*
X020930Y012180D02*
X020930Y010930D01*
X020930Y012180D02*
X020430Y012680D01*
X018743Y012680D01*
X016368Y010305D01*
X015305Y010305D01*
D23*
X027180Y012805D02*
X027180Y014555D01*
D24*
X027930Y007930D02*
X027930Y006180D01*
X024930Y007930D02*
X023180Y006180D01*
X022430Y006180D01*
X024430Y004180D02*
X024430Y002430D01*
D25*
X024930Y007680D02*
X024930Y008180D01*
M02*
