G75*
G70*
%OFA0B0*%
%FSLAX24Y24*%
%IPPOS*%
%LPD*%
%AMOC8*
5,1,8,0,0,1.08239X$1,22.5*
%
%ADD10C,0.0000*%
%ADD11R,0.0630X0.0512*%
%ADD12R,0.0433X0.0748*%
%ADD13R,0.0512X0.0630*%
%ADD14R,0.0500X0.0220*%
%ADD15R,0.0220X0.0500*%
%ADD16R,0.0669X0.0335*%
%ADD17R,0.0472X0.0472*%
%ADD18C,0.0394*%
%ADD19C,0.0760*%
%ADD20R,0.0354X0.0315*%
%ADD21C,0.0500*%
%ADD22R,0.0590X0.0790*%
%ADD23R,0.1500X0.0790*%
%ADD24C,0.0475*%
%ADD25C,0.0740*%
%ADD26OC8,0.0630*%
%ADD27C,0.0630*%
%ADD28C,0.0650*%
%ADD29R,0.0236X0.0472*%
%ADD30C,0.0660*%
%ADD31C,0.1640*%
%ADD32R,0.0630X0.0787*%
%ADD33R,0.0327X0.0248*%
%ADD34R,0.0248X0.0327*%
%ADD35R,0.0787X0.0591*%
%ADD36R,0.0669X0.0709*%
%ADD37R,0.0827X0.0591*%
%ADD38R,0.0709X0.0551*%
%ADD39C,0.0160*%
%ADD40C,0.0240*%
%ADD41C,0.0436*%
%ADD42C,0.0397*%
%ADD43C,0.0100*%
%ADD44C,0.0320*%
%ADD45C,0.0120*%
%ADD46C,0.1700*%
%ADD47C,0.0760*%
%ADD48C,0.0560*%
%ADD49C,0.0400*%
%ADD50C,0.1600*%
%ADD51C,0.1000*%
D10*
X002180Y003680D02*
X002263Y003678D01*
X002346Y003672D01*
X002429Y003662D01*
X002511Y003648D01*
X002593Y003631D01*
X002673Y003609D01*
X002752Y003584D01*
X002830Y003555D01*
X002907Y003522D01*
X002982Y003485D01*
X003055Y003446D01*
X003126Y003402D01*
X003195Y003356D01*
X003262Y003306D01*
X003326Y003253D01*
X003388Y003197D01*
X003447Y003138D01*
X003503Y003076D01*
X003556Y003012D01*
X003606Y002945D01*
X003652Y002876D01*
X003696Y002805D01*
X003735Y002732D01*
X003772Y002657D01*
X003805Y002580D01*
X003834Y002502D01*
X003859Y002423D01*
X003881Y002343D01*
X003898Y002261D01*
X003912Y002179D01*
X003922Y002096D01*
X003928Y002013D01*
X003930Y001930D01*
X003930Y000430D01*
X026930Y000430D01*
X026930Y001930D01*
X026932Y002013D01*
X026938Y002096D01*
X026948Y002179D01*
X026962Y002261D01*
X026979Y002343D01*
X027001Y002423D01*
X027026Y002502D01*
X027055Y002580D01*
X027088Y002657D01*
X027125Y002732D01*
X027164Y002805D01*
X027208Y002876D01*
X027254Y002945D01*
X027304Y003012D01*
X027357Y003076D01*
X027413Y003138D01*
X027472Y003197D01*
X027534Y003253D01*
X027598Y003306D01*
X027665Y003356D01*
X027734Y003402D01*
X027805Y003446D01*
X027878Y003485D01*
X027953Y003522D01*
X028030Y003555D01*
X028108Y003584D01*
X028187Y003609D01*
X028267Y003631D01*
X028349Y003648D01*
X028431Y003662D01*
X028514Y003672D01*
X028597Y003678D01*
X028680Y003680D01*
X029180Y003680D01*
X029180Y015930D01*
X028680Y015930D01*
X028597Y015932D01*
X028514Y015938D01*
X028431Y015948D01*
X028349Y015962D01*
X028267Y015979D01*
X028187Y016001D01*
X028108Y016026D01*
X028030Y016055D01*
X027953Y016088D01*
X027878Y016125D01*
X027805Y016164D01*
X027734Y016208D01*
X027665Y016254D01*
X027598Y016304D01*
X027534Y016357D01*
X027472Y016413D01*
X027413Y016472D01*
X027357Y016534D01*
X027304Y016598D01*
X027254Y016665D01*
X027208Y016734D01*
X027164Y016805D01*
X027125Y016878D01*
X027088Y016953D01*
X027055Y017030D01*
X027026Y017108D01*
X027001Y017187D01*
X026979Y017267D01*
X026962Y017349D01*
X026948Y017431D01*
X026938Y017514D01*
X026932Y017597D01*
X026930Y017680D01*
X026930Y018930D01*
X003930Y018930D01*
X003930Y017680D01*
X003928Y017597D01*
X003922Y017514D01*
X003912Y017431D01*
X003898Y017349D01*
X003881Y017267D01*
X003859Y017187D01*
X003834Y017108D01*
X003805Y017030D01*
X003772Y016953D01*
X003735Y016878D01*
X003696Y016805D01*
X003652Y016734D01*
X003606Y016665D01*
X003556Y016598D01*
X003503Y016534D01*
X003447Y016472D01*
X003388Y016413D01*
X003326Y016357D01*
X003262Y016304D01*
X003195Y016254D01*
X003126Y016208D01*
X003055Y016164D01*
X002982Y016125D01*
X002907Y016088D01*
X002830Y016055D01*
X002752Y016026D01*
X002673Y016001D01*
X002593Y015979D01*
X002511Y015962D01*
X002429Y015948D01*
X002346Y015938D01*
X002263Y015932D01*
X002180Y015930D01*
X001930Y015930D01*
X001930Y009180D01*
X000930Y008180D01*
X000930Y006680D01*
X002180Y005430D01*
X002180Y003680D01*
X001550Y007430D02*
X001552Y007480D01*
X001558Y007530D01*
X001568Y007579D01*
X001582Y007627D01*
X001599Y007674D01*
X001620Y007719D01*
X001645Y007763D01*
X001673Y007804D01*
X001705Y007843D01*
X001739Y007880D01*
X001776Y007914D01*
X001816Y007944D01*
X001858Y007971D01*
X001902Y007995D01*
X001948Y008016D01*
X001995Y008032D01*
X002043Y008045D01*
X002093Y008054D01*
X002142Y008059D01*
X002193Y008060D01*
X002243Y008057D01*
X002292Y008050D01*
X002341Y008039D01*
X002389Y008024D01*
X002435Y008006D01*
X002480Y007984D01*
X002523Y007958D01*
X002564Y007929D01*
X002603Y007897D01*
X002639Y007862D01*
X002671Y007824D01*
X002701Y007784D01*
X002728Y007741D01*
X002751Y007697D01*
X002770Y007651D01*
X002786Y007603D01*
X002798Y007554D01*
X002806Y007505D01*
X002810Y007455D01*
X002810Y007405D01*
X002806Y007355D01*
X002798Y007306D01*
X002786Y007257D01*
X002770Y007209D01*
X002751Y007163D01*
X002728Y007119D01*
X002701Y007076D01*
X002671Y007036D01*
X002639Y006998D01*
X002603Y006963D01*
X002564Y006931D01*
X002523Y006902D01*
X002480Y006876D01*
X002435Y006854D01*
X002389Y006836D01*
X002341Y006821D01*
X002292Y006810D01*
X002243Y006803D01*
X002193Y006800D01*
X002142Y006801D01*
X002093Y006806D01*
X002043Y006815D01*
X001995Y006828D01*
X001948Y006844D01*
X001902Y006865D01*
X001858Y006889D01*
X001816Y006916D01*
X001776Y006946D01*
X001739Y006980D01*
X001705Y007017D01*
X001673Y007056D01*
X001645Y007097D01*
X001620Y007141D01*
X001599Y007186D01*
X001582Y007233D01*
X001568Y007281D01*
X001558Y007330D01*
X001552Y007380D01*
X001550Y007430D01*
X023629Y017680D02*
X023631Y017727D01*
X023637Y017773D01*
X023647Y017819D01*
X023660Y017864D01*
X023678Y017907D01*
X023699Y017949D01*
X023723Y017989D01*
X023751Y018026D01*
X023782Y018061D01*
X023816Y018094D01*
X023852Y018123D01*
X023891Y018149D01*
X023932Y018172D01*
X023975Y018191D01*
X024019Y018207D01*
X024064Y018219D01*
X024110Y018227D01*
X024157Y018231D01*
X024203Y018231D01*
X024250Y018227D01*
X024296Y018219D01*
X024341Y018207D01*
X024385Y018191D01*
X024428Y018172D01*
X024469Y018149D01*
X024508Y018123D01*
X024544Y018094D01*
X024578Y018061D01*
X024609Y018026D01*
X024637Y017989D01*
X024661Y017949D01*
X024682Y017907D01*
X024700Y017864D01*
X024713Y017819D01*
X024723Y017773D01*
X024729Y017727D01*
X024731Y017680D01*
X024729Y017633D01*
X024723Y017587D01*
X024713Y017541D01*
X024700Y017496D01*
X024682Y017453D01*
X024661Y017411D01*
X024637Y017371D01*
X024609Y017334D01*
X024578Y017299D01*
X024544Y017266D01*
X024508Y017237D01*
X024469Y017211D01*
X024428Y017188D01*
X024385Y017169D01*
X024341Y017153D01*
X024296Y017141D01*
X024250Y017133D01*
X024203Y017129D01*
X024157Y017129D01*
X024110Y017133D01*
X024064Y017141D01*
X024019Y017153D01*
X023975Y017169D01*
X023932Y017188D01*
X023891Y017211D01*
X023852Y017237D01*
X023816Y017266D01*
X023782Y017299D01*
X023751Y017334D01*
X023723Y017371D01*
X023699Y017411D01*
X023678Y017453D01*
X023660Y017496D01*
X023647Y017541D01*
X023637Y017587D01*
X023631Y017633D01*
X023629Y017680D01*
D11*
X020430Y016054D03*
X020430Y015306D03*
X014055Y015556D03*
X014055Y016304D03*
X011805Y015617D03*
X011805Y014869D03*
X010930Y014241D03*
X010930Y013493D03*
X014055Y013911D03*
X014055Y014699D03*
X010805Y016056D03*
X010805Y016804D03*
X008118Y016991D03*
X008118Y016243D03*
X005270Y016894D03*
X005270Y017681D03*
X009055Y009449D03*
X009055Y008661D03*
X011305Y007679D03*
X011305Y006931D03*
X006055Y006931D03*
X006055Y007679D03*
X003492Y005804D03*
X003492Y005056D03*
X006118Y002554D03*
X006118Y001806D03*
X007055Y002036D03*
X007055Y002824D03*
X012680Y002536D03*
X013617Y002536D03*
X014555Y002556D03*
X014555Y003304D03*
X013617Y003324D03*
X012680Y003324D03*
D12*
X006133Y003577D03*
X005227Y003577D03*
X005227Y005033D03*
X006133Y005033D03*
D13*
X006074Y005992D03*
X005286Y005992D03*
X008661Y011180D03*
X009449Y011180D03*
X009243Y013430D03*
X009991Y013430D03*
X009804Y016180D03*
X009056Y016180D03*
X009036Y017180D03*
X009824Y017180D03*
X009554Y018180D03*
X008806Y018180D03*
X006866Y017055D03*
X006118Y017055D03*
X012306Y016555D03*
X013054Y016555D03*
X015556Y006930D03*
X016304Y006930D03*
X016324Y005805D03*
X015536Y005805D03*
D14*
X010620Y005717D03*
X010620Y006032D03*
X010620Y005402D03*
X010620Y005087D03*
X010620Y004773D03*
X010620Y004458D03*
X010620Y004143D03*
X010620Y003828D03*
X007240Y003828D03*
X007240Y004143D03*
X007240Y004458D03*
X007240Y004773D03*
X007240Y005087D03*
X007240Y005402D03*
X007240Y005717D03*
X007240Y006032D03*
D15*
X007828Y006620D03*
X008143Y006620D03*
X008458Y006620D03*
X008773Y006620D03*
X009087Y006620D03*
X009402Y006620D03*
X009717Y006620D03*
X010032Y006620D03*
X010032Y003240D03*
X009717Y003240D03*
X009402Y003240D03*
X009087Y003240D03*
X008773Y003240D03*
X008458Y003240D03*
X008143Y003240D03*
X007828Y003240D03*
D16*
X007940Y008717D03*
X006759Y009505D03*
X007940Y010292D03*
X006759Y011080D03*
X007940Y011867D03*
X006759Y012654D03*
X007940Y013442D03*
X006759Y014229D03*
X007940Y015017D03*
X006759Y015804D03*
X015420Y015804D03*
X016601Y015017D03*
X015420Y014229D03*
X016601Y013442D03*
X015420Y012654D03*
X016601Y011867D03*
X015420Y011080D03*
X016601Y010292D03*
X015420Y009505D03*
X016601Y008717D03*
D17*
X004368Y004093D03*
X003593Y004180D03*
X002767Y004180D03*
X004368Y003267D03*
X015767Y017180D03*
X016593Y017180D03*
D18*
X015430Y015055D03*
X018680Y011680D03*
X012430Y006680D03*
D19*
X018680Y010930D03*
X018680Y017930D03*
X016680Y018180D03*
X015680Y018180D03*
X012680Y018180D03*
X011680Y018180D03*
X010680Y018180D03*
X007680Y018180D03*
X006680Y018180D03*
X007930Y001430D03*
X008930Y001430D03*
X009930Y001430D03*
X010930Y001430D03*
X011930Y001430D03*
X012930Y001430D03*
D20*
X012536Y012306D03*
X013363Y012680D03*
X012536Y013054D03*
X012536Y014056D03*
X013363Y014430D03*
X012536Y014804D03*
D21*
X004118Y010117D03*
X004118Y009430D03*
X004118Y008742D03*
D22*
X011353Y008752D03*
X012253Y008752D03*
X013153Y008752D03*
D23*
X012243Y011232D03*
D24*
X005092Y007367D03*
X003518Y007367D03*
D25*
X005430Y010930D03*
X005430Y011930D03*
X005430Y012930D03*
X005430Y013930D03*
X005430Y014930D03*
X005430Y015930D03*
D26*
X013430Y005293D03*
D27*
X013430Y006693D03*
D28*
X016105Y004180D02*
X016755Y004180D01*
X024105Y004180D02*
X024755Y004180D01*
D29*
X009804Y014291D03*
X009430Y014291D03*
X009056Y014291D03*
X009056Y015319D03*
X009804Y015319D03*
D30*
X020930Y011260D02*
X020930Y010600D01*
X020930Y008260D02*
X020930Y007600D01*
X024930Y007600D02*
X024930Y008260D01*
X027930Y008260D02*
X027930Y007600D01*
D31*
X027930Y006180D03*
X024430Y002430D03*
X022430Y006180D03*
X016430Y002430D03*
X027180Y012805D03*
X027180Y014555D03*
X021930Y014430D03*
X021930Y016930D03*
D32*
X022231Y012430D03*
X021129Y012430D03*
X023316Y012430D03*
X024419Y012430D03*
X018919Y006930D03*
X017816Y006930D03*
D33*
X011867Y004820D03*
X011867Y003915D03*
D34*
X010133Y012618D03*
X009227Y012618D03*
D35*
X010180Y009771D03*
X010180Y008589D03*
D36*
X017805Y008373D03*
X017805Y009987D03*
D37*
X019242Y009889D03*
X019242Y008471D03*
D38*
X014305Y008761D03*
X014305Y010099D03*
D39*
X014305Y012305D01*
X013930Y012680D01*
X013363Y012680D01*
X012946Y012744D02*
X012900Y012744D01*
X012917Y012761D02*
X012946Y012831D01*
X012946Y012475D01*
X012982Y012387D01*
X013050Y012319D01*
X013138Y012283D01*
X013588Y012283D01*
X013676Y012319D01*
X013717Y012360D01*
X013797Y012360D01*
X013985Y012172D01*
X013985Y010615D01*
X013903Y010615D01*
X013815Y010578D01*
X013747Y010511D01*
X013711Y010423D01*
X013711Y009776D01*
X013747Y009688D01*
X013815Y009620D01*
X013903Y009584D01*
X014707Y009584D01*
X014795Y009620D01*
X014846Y009670D01*
X014846Y009290D01*
X014882Y009202D01*
X014950Y009134D01*
X015038Y009097D01*
X015803Y009097D01*
X015891Y009134D01*
X015958Y009202D01*
X015995Y009290D01*
X015995Y009720D01*
X015958Y009808D01*
X015891Y009876D01*
X015803Y009912D01*
X015554Y009912D01*
X015564Y009917D01*
X015693Y010046D01*
X015763Y010214D01*
X015763Y010396D01*
X015693Y010564D01*
X015586Y010672D01*
X015803Y010672D01*
X015891Y010709D01*
X015958Y010776D01*
X015995Y010865D01*
X015995Y011295D01*
X015958Y011383D01*
X015891Y011450D01*
X015803Y011487D01*
X015038Y011487D01*
X014950Y011450D01*
X014882Y011383D01*
X014846Y011295D01*
X014846Y010865D01*
X014882Y010776D01*
X014950Y010709D01*
X015028Y010676D01*
X014917Y010564D01*
X014890Y010499D01*
X014868Y010499D01*
X014863Y010511D01*
X014795Y010578D01*
X014707Y010615D01*
X014625Y010615D01*
X014625Y012369D01*
X014576Y012486D01*
X014201Y012861D01*
X014111Y012951D01*
X013994Y013000D01*
X013717Y013000D01*
X013676Y013041D01*
X013588Y013077D01*
X013138Y013077D01*
X013050Y013041D01*
X012982Y012973D01*
X012953Y012903D01*
X012953Y013259D01*
X012917Y013347D01*
X012849Y013415D01*
X012761Y013451D01*
X012311Y013451D01*
X012297Y013445D01*
X012306Y013468D01*
X012306Y013642D01*
X012247Y013784D01*
X012261Y013770D01*
X012297Y013749D01*
X012338Y013739D01*
X012536Y013739D01*
X012536Y014056D01*
X012199Y014056D01*
X012536Y014056D01*
X012536Y014056D01*
X012536Y014056D01*
X012536Y013739D01*
X012735Y013739D01*
X012775Y013749D01*
X012812Y013770D01*
X012841Y013800D01*
X012863Y013837D01*
X012873Y013877D01*
X012873Y014056D01*
X012873Y014140D01*
X012981Y014140D01*
X012982Y014137D01*
X013050Y014069D01*
X013138Y014033D01*
X013500Y014033D01*
X013500Y013608D01*
X013537Y013519D01*
X013604Y013452D01*
X013692Y013415D01*
X014098Y013415D01*
X014343Y013171D01*
X014461Y013122D01*
X016080Y013122D01*
X016131Y013071D01*
X016219Y013034D01*
X016984Y013034D01*
X017072Y013071D01*
X017139Y013139D01*
X017176Y013227D01*
X017176Y013657D01*
X017139Y013745D01*
X017072Y013813D01*
X016984Y013849D01*
X016219Y013849D01*
X016131Y013813D01*
X016080Y013762D01*
X014657Y013762D01*
X014610Y013809D01*
X014610Y014215D01*
X014573Y014303D01*
X014572Y014305D01*
X014573Y014307D01*
X014610Y014395D01*
X014610Y015002D01*
X014573Y015091D01*
X014537Y015127D01*
X014573Y015164D01*
X014610Y015252D01*
X014610Y015860D01*
X014573Y015948D01*
X014522Y015999D01*
X014530Y016027D01*
X014530Y016256D01*
X014103Y016256D01*
X014103Y016352D01*
X014530Y016352D01*
X014530Y016581D01*
X014519Y016622D01*
X014498Y016658D01*
X014468Y016688D01*
X014432Y016709D01*
X014391Y016720D01*
X014103Y016720D01*
X014103Y016352D01*
X014007Y016352D01*
X014007Y016256D01*
X013580Y016256D01*
X013580Y016027D01*
X013588Y015999D01*
X013537Y015948D01*
X013506Y015875D01*
X012679Y015875D01*
X012561Y015826D01*
X012471Y015736D01*
X012360Y015625D01*
X012360Y015920D01*
X012327Y016000D01*
X012610Y016000D01*
X012680Y016029D01*
X012750Y016000D01*
X013358Y016000D01*
X013446Y016037D01*
X013513Y016104D01*
X013550Y016192D01*
X013550Y016918D01*
X013513Y017006D01*
X013486Y017033D01*
X013563Y017110D01*
X014797Y017110D01*
X014999Y016909D01*
X015116Y016860D01*
X015305Y016860D01*
X015327Y016808D01*
X015394Y016740D01*
X015483Y016704D01*
X016051Y016704D01*
X016139Y016740D01*
X016206Y016808D01*
X016225Y016853D01*
X016229Y016846D01*
X016259Y016816D01*
X016295Y016795D01*
X016336Y016784D01*
X016555Y016784D01*
X016555Y017142D01*
X016631Y017142D01*
X016631Y016784D01*
X016851Y016784D01*
X016891Y016795D01*
X016928Y016816D01*
X016958Y016846D01*
X016979Y016882D01*
X016990Y016923D01*
X016990Y017142D01*
X016632Y017142D01*
X016632Y017218D01*
X016990Y017218D01*
X016990Y017437D01*
X016979Y017478D01*
X016958Y017514D01*
X016928Y017544D01*
X016891Y017565D01*
X016851Y017576D01*
X016631Y017576D01*
X016631Y017218D01*
X016555Y017218D01*
X016555Y017576D01*
X016336Y017576D01*
X016295Y017565D01*
X016259Y017544D01*
X016229Y017514D01*
X016225Y017507D01*
X016206Y017552D01*
X016139Y017620D01*
X016051Y017656D01*
X016033Y017656D01*
X016206Y017829D01*
X016228Y017883D01*
X016268Y017828D01*
X016328Y017768D01*
X016397Y017718D01*
X016473Y017680D01*
X016554Y017653D01*
X016638Y017640D01*
X016671Y017640D01*
X016671Y018171D01*
X016689Y018171D01*
X016689Y017640D01*
X016722Y017640D01*
X016806Y017653D01*
X016887Y017680D01*
X016963Y017718D01*
X017032Y017768D01*
X017092Y017828D01*
X017142Y017897D01*
X017180Y017972D01*
X017180Y007330D01*
X016784Y007330D01*
X016763Y007381D01*
X016696Y007448D01*
X016608Y007485D01*
X016000Y007485D01*
X015912Y007448D01*
X015861Y007397D01*
X015833Y007405D01*
X015604Y007405D01*
X015604Y006978D01*
X015508Y006978D01*
X015508Y007405D01*
X015279Y007405D01*
X015238Y007394D01*
X015202Y007373D01*
X015172Y007343D01*
X015151Y007307D01*
X015140Y007266D01*
X015140Y006978D01*
X015508Y006978D01*
X015508Y006882D01*
X015604Y006882D01*
X015604Y006455D01*
X015833Y006455D01*
X015861Y006463D01*
X015912Y006412D01*
X015944Y006398D01*
X015944Y006328D01*
X015932Y006323D01*
X015930Y006322D01*
X015928Y006323D01*
X015840Y006360D01*
X015233Y006360D01*
X015144Y006323D01*
X015077Y006256D01*
X015040Y006168D01*
X015040Y006085D01*
X014927Y006198D01*
X014884Y006241D01*
X014884Y006241D01*
X014884Y006241D01*
X014825Y006265D01*
X014766Y006290D01*
X014703Y006290D01*
X013812Y006290D01*
X013901Y006378D01*
X013985Y006582D01*
X013985Y006682D01*
X014644Y007341D01*
X014705Y007488D01*
X014705Y008245D01*
X014707Y008245D01*
X014795Y008282D01*
X014863Y008349D01*
X014899Y008437D01*
X014899Y009084D01*
X014863Y009172D01*
X014795Y009240D01*
X014707Y009276D01*
X013903Y009276D01*
X013815Y009240D01*
X013747Y009172D01*
X013739Y009152D01*
X013688Y009152D01*
X013688Y009195D01*
X013651Y009283D01*
X013583Y009351D01*
X013495Y009387D01*
X012810Y009387D01*
X012722Y009351D01*
X012703Y009332D01*
X012683Y009351D01*
X012653Y009364D01*
X012653Y009500D01*
X012592Y009647D01*
X012129Y010110D01*
X011982Y010171D01*
X010998Y010171D01*
X011014Y010186D01*
X011014Y010186D01*
X011424Y010596D01*
X011431Y010603D01*
X011445Y010597D01*
X013040Y010597D01*
X013128Y010634D01*
X013196Y010702D01*
X013233Y010790D01*
X013233Y011675D01*
X013196Y011763D01*
X013128Y011831D01*
X013040Y011867D01*
X011562Y011867D01*
X011562Y011922D01*
X011701Y012061D01*
X011750Y012179D01*
X011750Y012380D01*
X011802Y012432D01*
X011868Y012593D01*
X011868Y012666D01*
X011937Y012734D01*
X012182Y012734D01*
X012223Y012693D01*
X012311Y012657D01*
X012761Y012657D01*
X012849Y012693D01*
X012917Y012761D01*
X012946Y012586D02*
X012818Y012586D01*
X012812Y012591D02*
X012775Y012613D01*
X012735Y012623D01*
X012536Y012623D01*
X012338Y012623D01*
X012297Y012613D01*
X012261Y012591D01*
X012231Y012562D01*
X012210Y012525D01*
X012199Y012485D01*
X012199Y012306D01*
X012536Y012306D01*
X012199Y012306D01*
X012199Y012127D01*
X012210Y012087D01*
X012231Y012050D01*
X012261Y012020D01*
X012297Y011999D01*
X012338Y011989D01*
X012536Y011989D01*
X012536Y012306D01*
X012536Y012306D01*
X012536Y012623D01*
X012536Y012306D01*
X012536Y012306D01*
X012536Y012306D01*
X012536Y011989D01*
X012735Y011989D01*
X012775Y011999D01*
X012812Y012020D01*
X012841Y012050D01*
X012863Y012087D01*
X012873Y012127D01*
X012873Y012306D01*
X012873Y012485D01*
X012863Y012525D01*
X012841Y012562D01*
X012812Y012591D01*
X012873Y012427D02*
X012966Y012427D01*
X012873Y012306D02*
X012536Y012306D01*
X012536Y012306D01*
X012873Y012306D01*
X012873Y012269D02*
X013889Y012269D01*
X013985Y012110D02*
X012869Y012110D01*
X012536Y012110D02*
X012536Y012110D01*
X012536Y012269D02*
X012536Y012269D01*
X012536Y012427D02*
X012536Y012427D01*
X012536Y012586D02*
X012536Y012586D01*
X012255Y012586D02*
X011865Y012586D01*
X011797Y012427D02*
X012199Y012427D01*
X012199Y012269D02*
X011750Y012269D01*
X011721Y012110D02*
X012204Y012110D01*
X011592Y011952D02*
X013985Y011952D01*
X013985Y011793D02*
X013166Y011793D01*
X013233Y011635D02*
X013985Y011635D01*
X013985Y011476D02*
X013233Y011476D01*
X013233Y011318D02*
X013985Y011318D01*
X013985Y011159D02*
X013233Y011159D01*
X013233Y011001D02*
X013985Y011001D01*
X013985Y010842D02*
X013233Y010842D01*
X013178Y010684D02*
X013985Y010684D01*
X013761Y010525D02*
X011353Y010525D01*
X011194Y010367D02*
X013711Y010367D01*
X013711Y010208D02*
X011036Y010208D01*
X010742Y010367D02*
X011242Y010867D01*
X011242Y012055D01*
X011430Y012242D01*
X011430Y012680D01*
X011804Y013054D01*
X012536Y013054D01*
X012953Y013061D02*
X013098Y013061D01*
X012953Y013220D02*
X014294Y013220D01*
X014136Y013378D02*
X012886Y013378D01*
X012867Y013854D02*
X013500Y013854D01*
X013500Y014012D02*
X012873Y014012D01*
X012873Y014056D02*
X012536Y014056D01*
X012873Y014056D01*
X012536Y014056D02*
X012536Y014056D01*
X012536Y014012D02*
X012536Y014012D01*
X012536Y013854D02*
X012536Y013854D01*
X012284Y013695D02*
X013500Y013695D01*
X013530Y013537D02*
X012306Y013537D01*
X012216Y013827D02*
X012116Y013927D01*
X011955Y013993D01*
X011882Y013993D01*
X011875Y014000D01*
X011875Y014047D01*
X011968Y014140D01*
X012199Y014140D01*
X012199Y014056D01*
X012199Y013877D01*
X012210Y013837D01*
X012216Y013827D01*
X012206Y013854D02*
X012189Y013854D01*
X012199Y014012D02*
X011875Y014012D01*
X011555Y013867D02*
X011555Y014180D01*
X011805Y014430D01*
X011805Y014869D01*
X012536Y014804D02*
X012536Y015349D01*
X012743Y015555D01*
X014054Y015555D01*
X014055Y015556D01*
X014055Y014699D01*
X014610Y014646D02*
X015276Y014646D01*
X015299Y014637D02*
X015038Y014637D01*
X014950Y014600D01*
X014882Y014532D01*
X014846Y014444D01*
X014846Y014014D01*
X014882Y013926D01*
X014950Y013858D01*
X015038Y013822D01*
X015803Y013822D01*
X015891Y013858D01*
X015958Y013926D01*
X015995Y014014D01*
X015995Y014444D01*
X015958Y014532D01*
X015891Y014600D01*
X015803Y014637D01*
X015561Y014637D01*
X015677Y014685D01*
X015800Y014808D01*
X015867Y014968D01*
X015867Y015142D01*
X015800Y015302D01*
X015706Y015397D01*
X015803Y015397D01*
X015891Y015433D01*
X015958Y015501D01*
X015995Y015589D01*
X015995Y016019D01*
X015958Y016107D01*
X015891Y016175D01*
X015803Y016211D01*
X015038Y016211D01*
X014950Y016175D01*
X014882Y016107D01*
X014846Y016019D01*
X014846Y015589D01*
X014882Y015501D01*
X014950Y015433D01*
X015038Y015397D01*
X015154Y015397D01*
X015060Y015302D01*
X014993Y015142D01*
X014993Y014968D01*
X015060Y014808D01*
X015183Y014685D01*
X015299Y014637D01*
X015584Y014646D02*
X016130Y014646D01*
X016131Y014646D02*
X016219Y014609D01*
X016984Y014609D01*
X017072Y014646D01*
X017180Y014646D01*
X017139Y014713D02*
X017072Y014646D01*
X017139Y014713D02*
X017176Y014802D01*
X017176Y015232D01*
X017139Y015320D01*
X017072Y015387D01*
X016984Y015424D01*
X016219Y015424D01*
X016131Y015387D01*
X016063Y015320D01*
X016027Y015232D01*
X016027Y014802D01*
X016063Y014713D01*
X016131Y014646D01*
X016027Y014805D02*
X015797Y014805D01*
X015865Y014963D02*
X016027Y014963D01*
X016027Y015122D02*
X015867Y015122D01*
X015810Y015280D02*
X016047Y015280D01*
X015896Y015439D02*
X017180Y015439D01*
X017180Y015597D02*
X015995Y015597D01*
X015995Y015756D02*
X017180Y015756D01*
X017180Y015914D02*
X015995Y015914D01*
X015973Y016073D02*
X017180Y016073D01*
X017180Y016231D02*
X014530Y016231D01*
X014530Y016073D02*
X014868Y016073D01*
X014846Y015914D02*
X014587Y015914D01*
X014610Y015756D02*
X014846Y015756D01*
X014846Y015597D02*
X014610Y015597D01*
X014610Y015439D02*
X014944Y015439D01*
X015050Y015280D02*
X014610Y015280D01*
X014542Y015122D02*
X014993Y015122D01*
X014995Y014963D02*
X014610Y014963D01*
X014610Y014805D02*
X015063Y014805D01*
X014863Y014488D02*
X014610Y014488D01*
X014583Y014329D02*
X014846Y014329D01*
X014846Y014171D02*
X014610Y014171D01*
X014610Y014012D02*
X014846Y014012D01*
X014961Y013854D02*
X014610Y013854D01*
X014524Y013442D02*
X014055Y013911D01*
X014524Y013442D02*
X016601Y013442D01*
X017176Y013378D02*
X017180Y013378D01*
X017173Y013220D02*
X017180Y013220D01*
X017180Y013061D02*
X017048Y013061D01*
X017180Y012903D02*
X015981Y012903D01*
X015995Y012869D02*
X015958Y012958D01*
X015891Y013025D01*
X015803Y013062D01*
X015038Y013062D01*
X014950Y013025D01*
X014882Y012958D01*
X014846Y012869D01*
X014846Y012439D01*
X014882Y012351D01*
X014950Y012284D01*
X015038Y012247D01*
X015803Y012247D01*
X015891Y012284D01*
X015958Y012351D01*
X015995Y012439D01*
X015995Y012869D01*
X015995Y012744D02*
X017180Y012744D01*
X017180Y012586D02*
X015995Y012586D01*
X015990Y012427D02*
X017180Y012427D01*
X017180Y012269D02*
X016998Y012269D01*
X016984Y012274D02*
X017072Y012238D01*
X017139Y012170D01*
X017176Y012082D01*
X017176Y011652D01*
X017139Y011564D01*
X017072Y011496D01*
X016984Y011460D01*
X016219Y011460D01*
X016131Y011496D01*
X016063Y011564D01*
X016027Y011652D01*
X016027Y012082D01*
X016063Y012170D01*
X016131Y012238D01*
X016219Y012274D01*
X016984Y012274D01*
X017164Y012110D02*
X017180Y012110D01*
X017176Y011952D02*
X017180Y011952D01*
X017176Y011793D02*
X017180Y011793D01*
X017169Y011635D02*
X017180Y011635D01*
X017180Y011476D02*
X017023Y011476D01*
X017180Y011318D02*
X015985Y011318D01*
X015995Y011159D02*
X017180Y011159D01*
X017180Y011001D02*
X015995Y011001D01*
X015985Y010842D02*
X017180Y010842D01*
X017180Y010684D02*
X017022Y010684D01*
X016984Y010700D02*
X017072Y010663D01*
X017139Y010595D01*
X017176Y010507D01*
X017176Y010077D01*
X017139Y009989D01*
X017072Y009921D01*
X016984Y009885D01*
X016219Y009885D01*
X016131Y009921D01*
X016063Y009989D01*
X016027Y010077D01*
X016027Y010507D01*
X016063Y010595D01*
X016131Y010663D01*
X016219Y010700D01*
X016984Y010700D01*
X017169Y010525D02*
X017180Y010525D01*
X017176Y010367D02*
X017180Y010367D01*
X017176Y010208D02*
X017180Y010208D01*
X017164Y010050D02*
X017180Y010050D01*
X017180Y009891D02*
X016998Y009891D01*
X017180Y009733D02*
X015990Y009733D01*
X015995Y009574D02*
X017180Y009574D01*
X017180Y009416D02*
X015995Y009416D01*
X015981Y009257D02*
X017180Y009257D01*
X017180Y009099D02*
X017047Y009099D01*
X017072Y009088D02*
X016984Y009125D01*
X016219Y009125D01*
X016131Y009088D01*
X016063Y009021D01*
X016027Y008932D01*
X016027Y008502D01*
X016063Y008414D01*
X016131Y008347D01*
X016219Y008310D01*
X016984Y008310D01*
X017072Y008347D01*
X017139Y008414D01*
X017176Y008502D01*
X017176Y008932D01*
X017139Y009021D01*
X017072Y009088D01*
X017173Y008940D02*
X017180Y008940D01*
X017176Y008782D02*
X017180Y008782D01*
X017176Y008623D02*
X017180Y008623D01*
X017180Y008465D02*
X017160Y008465D01*
X017180Y008306D02*
X014820Y008306D01*
X014899Y008465D02*
X016042Y008465D01*
X016027Y008623D02*
X014899Y008623D01*
X014899Y008782D02*
X016027Y008782D01*
X016030Y008940D02*
X014899Y008940D01*
X014893Y009099D02*
X015035Y009099D01*
X014859Y009257D02*
X014754Y009257D01*
X014846Y009416D02*
X012653Y009416D01*
X012622Y009574D02*
X014846Y009574D01*
X015695Y010050D02*
X016038Y010050D01*
X016027Y010208D02*
X015761Y010208D01*
X015763Y010367D02*
X016027Y010367D01*
X016034Y010525D02*
X015710Y010525D01*
X015830Y010684D02*
X016180Y010684D01*
X016179Y011476D02*
X015829Y011476D01*
X016034Y011635D02*
X014625Y011635D01*
X014625Y011793D02*
X016027Y011793D01*
X016027Y011952D02*
X014625Y011952D01*
X014625Y012110D02*
X016038Y012110D01*
X016205Y012269D02*
X015854Y012269D01*
X014986Y012269D02*
X014625Y012269D01*
X014601Y012427D02*
X014851Y012427D01*
X014846Y012586D02*
X014477Y012586D01*
X014319Y012744D02*
X014846Y012744D01*
X014859Y012903D02*
X014160Y012903D01*
X013628Y013061D02*
X015036Y013061D01*
X015804Y013061D02*
X016155Y013061D01*
X017176Y013537D02*
X017180Y013537D01*
X017180Y013695D02*
X017160Y013695D01*
X017180Y013854D02*
X015879Y013854D01*
X015994Y014012D02*
X017180Y014012D01*
X017180Y014171D02*
X015995Y014171D01*
X015995Y014329D02*
X017180Y014329D01*
X017180Y014488D02*
X015977Y014488D01*
X017176Y014805D02*
X017180Y014805D01*
X017176Y014963D02*
X017180Y014963D01*
X017176Y015122D02*
X017180Y015122D01*
X017180Y015280D02*
X017156Y015280D01*
X017180Y016390D02*
X014530Y016390D01*
X014530Y016548D02*
X017180Y016548D01*
X017180Y016707D02*
X016057Y016707D01*
X016555Y016865D02*
X016631Y016865D01*
X016631Y017024D02*
X016555Y017024D01*
X016632Y017182D02*
X017180Y017182D01*
X017180Y017024D02*
X016990Y017024D01*
X016969Y016865D02*
X017180Y016865D01*
X017180Y017341D02*
X016990Y017341D01*
X016967Y017499D02*
X017180Y017499D01*
X017180Y017658D02*
X016819Y017658D01*
X016689Y017658D02*
X016671Y017658D01*
X016541Y017658D02*
X016034Y017658D01*
X016193Y017816D02*
X016280Y017816D01*
X016671Y017816D02*
X016689Y017816D01*
X016689Y017975D02*
X016671Y017975D01*
X016671Y018133D02*
X016689Y018133D01*
X017080Y017816D02*
X017180Y017816D01*
X016631Y017499D02*
X016555Y017499D01*
X016555Y017341D02*
X016631Y017341D01*
X015767Y017180D02*
X015180Y017180D01*
X014930Y017430D01*
X015680Y018180D01*
X015232Y018609D02*
X013128Y018609D01*
X013087Y018650D02*
X015273Y018650D01*
X015154Y018531D01*
X015060Y018303D01*
X015060Y018057D01*
X015073Y018025D01*
X014797Y017750D01*
X013366Y017750D01*
X013249Y017701D01*
X013159Y017611D01*
X012783Y017235D01*
X012734Y017118D01*
X012734Y017103D01*
X012680Y017081D01*
X012610Y017110D01*
X012080Y017110D01*
X012052Y017178D01*
X011928Y017302D01*
X011767Y017368D01*
X011593Y017368D01*
X011432Y017302D01*
X011324Y017194D01*
X011323Y017196D01*
X011256Y017263D01*
X011168Y017300D01*
X010442Y017300D01*
X010354Y017263D01*
X010320Y017229D01*
X010320Y017543D01*
X010283Y017631D01*
X010216Y017698D01*
X010127Y017735D01*
X010016Y017735D01*
X010050Y017817D01*
X010050Y017860D01*
X010141Y017860D01*
X010154Y017829D01*
X010329Y017654D01*
X010557Y017560D01*
X010803Y017560D01*
X011031Y017654D01*
X011206Y017829D01*
X011228Y017883D01*
X011268Y017828D01*
X011328Y017768D01*
X011397Y017718D01*
X011473Y017680D01*
X011554Y017653D01*
X011638Y017640D01*
X011671Y017640D01*
X011671Y018171D01*
X011689Y018171D01*
X011689Y017640D01*
X011722Y017640D01*
X011806Y017653D01*
X011887Y017680D01*
X011963Y017718D01*
X012032Y017768D01*
X012092Y017828D01*
X012132Y017883D01*
X012154Y017829D01*
X012329Y017654D01*
X012557Y017560D01*
X012803Y017560D01*
X013031Y017654D01*
X013206Y017829D01*
X013300Y018057D01*
X013300Y018303D01*
X013206Y018531D01*
X013087Y018650D01*
X013239Y018450D02*
X015121Y018450D01*
X015060Y018292D02*
X013300Y018292D01*
X013300Y018133D02*
X015060Y018133D01*
X015022Y017975D02*
X013266Y017975D01*
X013193Y017816D02*
X014863Y017816D01*
X014930Y017430D02*
X013430Y017430D01*
X013054Y017054D01*
X013054Y016555D01*
X013550Y016548D02*
X013580Y016548D01*
X013580Y016581D02*
X013580Y016352D01*
X014007Y016352D01*
X014007Y016720D01*
X013719Y016720D01*
X013678Y016709D01*
X013642Y016688D01*
X013612Y016658D01*
X013591Y016622D01*
X013580Y016581D01*
X013550Y016707D02*
X013674Y016707D01*
X013550Y016865D02*
X015104Y016865D01*
X014884Y017024D02*
X013496Y017024D01*
X014007Y016707D02*
X014103Y016707D01*
X014103Y016548D02*
X014007Y016548D01*
X014007Y016390D02*
X014103Y016390D01*
X014436Y016707D02*
X015476Y016707D01*
X013580Y016390D02*
X013550Y016390D01*
X013550Y016231D02*
X013580Y016231D01*
X013580Y016073D02*
X013482Y016073D01*
X013523Y015914D02*
X012360Y015914D01*
X012360Y015756D02*
X012490Y015756D01*
X011805Y015617D02*
X011805Y016243D01*
X011243Y016804D01*
X010805Y016804D01*
X010554Y016868D01*
X009930Y016868D01*
X009887Y016910D01*
X009887Y016992D01*
X009824Y017180D01*
X009805Y017074D01*
X009805Y017430D01*
X009555Y017680D01*
X008930Y017680D01*
X008805Y017805D01*
X008805Y018179D01*
X008806Y018180D01*
X007680Y018180D01*
X007180Y017803D02*
X007329Y017654D01*
X007557Y017560D01*
X007803Y017560D01*
X008031Y017654D01*
X008206Y017829D01*
X008219Y017860D01*
X008310Y017860D01*
X008310Y017817D01*
X008347Y017729D01*
X008414Y017662D01*
X008502Y017625D01*
X008533Y017625D01*
X008534Y017624D01*
X008624Y017534D01*
X008625Y017533D01*
X008620Y017516D01*
X008620Y017399D01*
X008568Y017451D01*
X008480Y017487D01*
X007755Y017487D01*
X007667Y017451D01*
X007599Y017383D01*
X007570Y017313D01*
X007554Y017313D01*
X007436Y017264D01*
X007346Y017174D01*
X007282Y017110D01*
X007282Y017391D01*
X007271Y017432D01*
X007250Y017468D01*
X007221Y017498D01*
X007184Y017519D01*
X007143Y017530D01*
X006914Y017530D01*
X006914Y017103D01*
X006819Y017103D01*
X006819Y017530D01*
X006590Y017530D01*
X006561Y017522D01*
X006518Y017566D01*
X006525Y017573D01*
X006557Y017560D01*
X006803Y017560D01*
X007031Y017654D01*
X007180Y017803D01*
X007034Y017658D02*
X007326Y017658D01*
X007219Y017499D02*
X008620Y017499D01*
X008618Y017493D02*
X007618Y017493D01*
X007555Y017430D01*
X007581Y017341D02*
X007282Y017341D01*
X007282Y017182D02*
X007354Y017182D01*
X007618Y016993D02*
X008179Y016993D01*
X008118Y016991D01*
X008180Y016992D01*
X007618Y016993D02*
X007430Y016805D01*
X007430Y016399D01*
X007031Y016580D02*
X006992Y016486D01*
X006992Y016312D01*
X007033Y016211D01*
X006376Y016211D01*
X006288Y016175D01*
X006221Y016107D01*
X006184Y016019D01*
X006184Y015589D01*
X006221Y015501D01*
X006288Y015433D01*
X006376Y015397D01*
X006439Y015397D01*
X006439Y015391D01*
X005957Y014910D01*
X005450Y014910D01*
X005450Y014950D01*
X005960Y014950D01*
X005960Y014972D01*
X005947Y015054D01*
X005921Y015133D01*
X005883Y015208D01*
X005834Y015275D01*
X005775Y015334D01*
X005708Y015383D01*
X005633Y015421D01*
X005606Y015430D01*
X005633Y015439D01*
X005708Y015477D01*
X005775Y015526D01*
X005834Y015585D01*
X005883Y015652D01*
X005921Y015727D01*
X005947Y015806D01*
X005960Y015888D01*
X005960Y015910D01*
X005450Y015910D01*
X005450Y015950D01*
X005960Y015950D01*
X005960Y015972D01*
X005947Y016054D01*
X005921Y016133D01*
X005883Y016208D01*
X005834Y016275D01*
X005775Y016334D01*
X005708Y016383D01*
X005658Y016408D01*
X005721Y016434D01*
X005788Y016502D01*
X005792Y016510D01*
X005815Y016500D01*
X006422Y016500D01*
X006510Y016537D01*
X006561Y016588D01*
X006590Y016580D01*
X006819Y016580D01*
X006819Y017007D01*
X006914Y017007D01*
X006914Y016580D01*
X007031Y016580D01*
X007017Y016548D02*
X006522Y016548D01*
X006819Y016707D02*
X006914Y016707D01*
X006914Y016865D02*
X006819Y016865D01*
X006819Y017182D02*
X006914Y017182D01*
X006914Y017341D02*
X006819Y017341D01*
X006819Y017499D02*
X006914Y017499D01*
X006680Y018180D02*
X006055Y017555D01*
X006055Y017056D01*
X006118Y017055D01*
X005741Y017633D02*
X005318Y017633D01*
X005318Y017729D01*
X005745Y017729D01*
X005745Y017958D01*
X005734Y017999D01*
X005713Y018035D01*
X005683Y018065D01*
X005647Y018086D01*
X005606Y018097D01*
X005318Y018097D01*
X005318Y017729D01*
X005222Y017729D01*
X005222Y017633D01*
X004795Y017633D01*
X004795Y017404D01*
X004806Y017364D01*
X004815Y017349D01*
X004752Y017286D01*
X004715Y017197D01*
X004715Y016918D01*
X003999Y016201D01*
X003909Y016111D01*
X003860Y015994D01*
X003860Y013636D01*
X003808Y013585D01*
X003742Y013423D01*
X003742Y013249D01*
X003808Y013088D01*
X003932Y012965D01*
X004093Y012898D01*
X004267Y012898D01*
X004360Y012936D01*
X004360Y010616D01*
X004409Y010499D01*
X004499Y010409D01*
X005124Y009784D01*
X005205Y009750D01*
X004490Y009750D01*
X004410Y009830D01*
X004430Y009850D01*
X004468Y009903D01*
X004497Y009960D01*
X004517Y010021D01*
X004528Y010085D01*
X004528Y010117D01*
X004118Y010117D01*
X004118Y010117D01*
X004528Y010117D01*
X004528Y010150D01*
X004517Y010213D01*
X004497Y010275D01*
X004468Y010332D01*
X004430Y010385D01*
X004385Y010430D01*
X004332Y010468D01*
X004275Y010497D01*
X004214Y010517D01*
X004150Y010527D01*
X004118Y010527D01*
X004118Y010117D01*
X003708Y010117D01*
X003708Y010085D01*
X003718Y010021D01*
X003738Y009960D01*
X003767Y009903D01*
X003805Y009850D01*
X003825Y009830D01*
X003702Y009708D01*
X003628Y009527D01*
X003628Y009333D01*
X003702Y009152D01*
X003768Y009086D01*
X003702Y009020D01*
X003628Y008840D01*
X003628Y008705D01*
X003246Y008324D01*
X003198Y008206D01*
X003198Y007723D01*
X003113Y007638D01*
X003090Y007583D01*
X003090Y007611D01*
X002951Y007945D01*
X002695Y008201D01*
X002361Y008340D01*
X001999Y008340D01*
X001665Y008201D01*
X001409Y007945D01*
X001270Y007611D01*
X001270Y007249D01*
X001409Y006915D01*
X001665Y006659D01*
X001999Y006520D01*
X002361Y006520D01*
X002695Y006659D01*
X002951Y006915D01*
X003070Y007201D01*
X003113Y007097D01*
X003198Y007012D01*
X003198Y006300D01*
X003130Y006300D01*
X003042Y006263D01*
X002974Y006196D01*
X002938Y006108D01*
X002938Y005500D01*
X002967Y005430D01*
X002938Y005360D01*
X002938Y005313D01*
X002929Y005313D01*
X002811Y005264D01*
X002592Y005045D01*
X002502Y004955D01*
X002460Y004853D01*
X002460Y005486D01*
X002417Y005589D01*
X002339Y005667D01*
X001210Y006796D01*
X001210Y008064D01*
X002167Y009021D01*
X002210Y009124D01*
X002210Y015650D01*
X002447Y015650D01*
X002964Y015788D01*
X003426Y016056D01*
X003426Y016056D01*
X003804Y016434D01*
X004072Y016896D01*
X004072Y016896D01*
X004210Y017413D01*
X004210Y018650D01*
X006273Y018650D01*
X006154Y018531D01*
X006060Y018303D01*
X006060Y018057D01*
X006073Y018025D01*
X005874Y017826D01*
X005784Y017736D01*
X005741Y017633D01*
X005751Y017658D02*
X005318Y017658D01*
X005222Y017658D02*
X004210Y017658D01*
X004210Y017816D02*
X004795Y017816D01*
X004795Y017729D02*
X005222Y017729D01*
X005222Y018097D01*
X004934Y018097D01*
X004893Y018086D01*
X004857Y018065D01*
X004827Y018035D01*
X004806Y017999D01*
X004795Y017958D01*
X004795Y017729D01*
X004795Y017499D02*
X004210Y017499D01*
X004191Y017341D02*
X004807Y017341D01*
X004715Y017182D02*
X004148Y017182D01*
X004106Y017024D02*
X004715Y017024D01*
X004662Y016865D02*
X004054Y016865D01*
X003962Y016707D02*
X004504Y016707D01*
X004345Y016548D02*
X003870Y016548D01*
X003804Y016434D02*
X003804Y016434D01*
X003804Y016434D01*
X003760Y016390D02*
X004187Y016390D01*
X004028Y016231D02*
X003602Y016231D01*
X003443Y016073D02*
X003893Y016073D01*
X003860Y015914D02*
X003181Y015914D01*
X002841Y015756D02*
X003860Y015756D01*
X003860Y015597D02*
X002210Y015597D01*
X002210Y015439D02*
X003860Y015439D01*
X003860Y015280D02*
X002210Y015280D01*
X002210Y015122D02*
X003860Y015122D01*
X003860Y014963D02*
X002210Y014963D01*
X002210Y014805D02*
X003860Y014805D01*
X003860Y014646D02*
X002210Y014646D01*
X002210Y014488D02*
X003860Y014488D01*
X003860Y014329D02*
X002210Y014329D01*
X002210Y014171D02*
X003860Y014171D01*
X003860Y014012D02*
X002210Y014012D01*
X002210Y013854D02*
X003860Y013854D01*
X003860Y013695D02*
X002210Y013695D01*
X002210Y013537D02*
X003788Y013537D01*
X003742Y013378D02*
X002210Y013378D01*
X002210Y013220D02*
X003754Y013220D01*
X003835Y013061D02*
X002210Y013061D01*
X002210Y012903D02*
X004081Y012903D01*
X004279Y012903D02*
X004360Y012903D01*
X004360Y012744D02*
X002210Y012744D01*
X002210Y012586D02*
X004360Y012586D01*
X004360Y012427D02*
X002210Y012427D01*
X002210Y012269D02*
X004360Y012269D01*
X004360Y012110D02*
X002210Y012110D01*
X002210Y011952D02*
X004360Y011952D01*
X004360Y011793D02*
X002210Y011793D01*
X002210Y011635D02*
X004360Y011635D01*
X004360Y011476D02*
X002210Y011476D01*
X002210Y011318D02*
X004360Y011318D01*
X004360Y011159D02*
X002210Y011159D01*
X002210Y011001D02*
X004360Y011001D01*
X004360Y010842D02*
X002210Y010842D01*
X002210Y010684D02*
X004360Y010684D01*
X004398Y010525D02*
X004165Y010525D01*
X004118Y010525D02*
X004118Y010525D01*
X004118Y010527D02*
X004085Y010527D01*
X004022Y010517D01*
X003960Y010497D01*
X003903Y010468D01*
X003850Y010430D01*
X003805Y010385D01*
X003767Y010332D01*
X003738Y010275D01*
X003718Y010213D01*
X003708Y010150D01*
X003708Y010117D01*
X004118Y010117D01*
X004118Y010117D01*
X004118Y010117D01*
X004118Y010527D01*
X004070Y010525D02*
X002210Y010525D01*
X002210Y010367D02*
X003792Y010367D01*
X003717Y010208D02*
X002210Y010208D01*
X002210Y010050D02*
X003713Y010050D01*
X003775Y009891D02*
X002210Y009891D01*
X002210Y009733D02*
X003727Y009733D01*
X003647Y009574D02*
X002210Y009574D01*
X002210Y009416D02*
X003628Y009416D01*
X003659Y009257D02*
X002210Y009257D01*
X002199Y009099D02*
X003756Y009099D01*
X003669Y008940D02*
X002086Y008940D01*
X001927Y008782D02*
X003628Y008782D01*
X003546Y008623D02*
X001769Y008623D01*
X001610Y008465D02*
X003387Y008465D01*
X003239Y008306D02*
X002443Y008306D01*
X002749Y008148D02*
X003198Y008148D01*
X003198Y007989D02*
X002908Y007989D01*
X002999Y007831D02*
X003198Y007831D01*
X003147Y007672D02*
X003065Y007672D01*
X003518Y007367D02*
X003518Y005829D01*
X003492Y005804D01*
X002938Y005770D02*
X002236Y005770D01*
X002394Y005612D02*
X002938Y005612D01*
X002957Y005453D02*
X002460Y005453D01*
X002460Y005295D02*
X002885Y005295D01*
X002683Y005136D02*
X002460Y005136D01*
X002460Y004978D02*
X002525Y004978D01*
X002774Y004774D02*
X002774Y004250D01*
X002767Y004180D01*
X003225Y003853D02*
X003206Y003808D01*
X003139Y003740D01*
X003119Y003732D01*
X003426Y003554D01*
X003426Y003554D01*
X003804Y003176D01*
X004072Y002714D01*
X004210Y002197D01*
X004210Y002197D01*
X004210Y000710D01*
X006197Y000710D01*
X005846Y001061D01*
X005798Y001179D01*
X005798Y001310D01*
X005755Y001310D01*
X005667Y001347D01*
X005599Y001414D01*
X005563Y001502D01*
X005563Y002110D01*
X005592Y002180D01*
X005569Y002234D01*
X005141Y002234D01*
X005024Y002283D01*
X004534Y002773D01*
X004493Y002870D01*
X004406Y002870D01*
X004406Y003229D01*
X004329Y003229D01*
X003971Y003229D01*
X003971Y003009D01*
X003982Y002969D01*
X004003Y002932D01*
X004033Y002902D01*
X004070Y002881D01*
X004110Y002870D01*
X004329Y002870D01*
X004329Y003229D01*
X004329Y003305D01*
X003971Y003305D01*
X003971Y003524D01*
X003982Y003565D01*
X004003Y003601D01*
X004033Y003631D01*
X004040Y003635D01*
X003995Y003654D01*
X003928Y003721D01*
X003896Y003798D01*
X003891Y003795D01*
X003851Y003784D01*
X003631Y003784D01*
X003631Y004142D01*
X003555Y004142D01*
X003555Y003784D01*
X003336Y003784D01*
X003295Y003795D01*
X003259Y003816D01*
X003229Y003846D01*
X003225Y003853D01*
X003158Y003710D02*
X003940Y003710D01*
X003979Y003551D02*
X003430Y003551D01*
X003588Y003393D02*
X003971Y003393D01*
X003747Y003234D02*
X004329Y003234D01*
X004329Y003076D02*
X004406Y003076D01*
X004406Y002917D02*
X004329Y002917D01*
X004548Y002759D02*
X004046Y002759D01*
X004018Y002917D02*
X003954Y002917D01*
X003971Y003076D02*
X003863Y003076D01*
X004102Y002600D02*
X004707Y002600D01*
X004865Y002442D02*
X004145Y002442D01*
X004187Y002283D02*
X005024Y002283D01*
X005563Y001966D02*
X004210Y001966D01*
X004210Y001808D02*
X005563Y001808D01*
X005563Y001649D02*
X004210Y001649D01*
X004210Y001491D02*
X005567Y001491D01*
X005702Y001332D02*
X004210Y001332D01*
X004210Y001174D02*
X005800Y001174D01*
X005892Y001015D02*
X004210Y001015D01*
X004210Y000857D02*
X006051Y000857D01*
X006118Y001243D02*
X006493Y000868D01*
X010368Y000868D01*
X010930Y001430D01*
X010930Y002930D01*
X010620Y003240D01*
X010620Y003828D01*
X010620Y004143D02*
X010217Y004143D01*
X010180Y004180D01*
X009680Y004180D01*
X008708Y004180D01*
X008430Y004458D01*
X007240Y004458D01*
X007240Y004143D02*
X006717Y004143D01*
X006555Y004305D01*
X005430Y004305D01*
X005227Y004508D01*
X005227Y005033D01*
X005227Y005871D01*
X005286Y005992D01*
X005227Y006021D01*
X004790Y006087D02*
X004047Y006087D01*
X004047Y006108D02*
X004011Y006196D01*
X003943Y006263D01*
X003855Y006300D01*
X003838Y006300D01*
X003838Y007012D01*
X003922Y007097D01*
X003995Y007273D01*
X003995Y007462D01*
X003922Y007638D01*
X003838Y007723D01*
X003838Y008010D01*
X004080Y008252D01*
X004215Y008252D01*
X004395Y008327D01*
X004533Y008465D01*
X004608Y008645D01*
X004608Y008840D01*
X004533Y009020D01*
X004467Y009086D01*
X004490Y009110D01*
X005547Y009110D01*
X006782Y007875D01*
X006610Y007875D01*
X006610Y007983D01*
X006573Y008071D01*
X006506Y008138D01*
X006418Y008175D01*
X005692Y008175D01*
X005604Y008138D01*
X005537Y008071D01*
X005507Y007999D01*
X005340Y007999D01*
X005223Y007950D01*
X005117Y007845D01*
X004997Y007845D01*
X004822Y007772D01*
X004688Y007638D01*
X004615Y007462D01*
X004615Y007273D01*
X004688Y007097D01*
X004822Y006963D01*
X004997Y006890D01*
X005187Y006890D01*
X005363Y006963D01*
X005497Y007097D01*
X005564Y007259D01*
X005588Y007236D01*
X005580Y007208D01*
X005580Y006979D01*
X006007Y006979D01*
X006007Y006883D01*
X005580Y006883D01*
X005580Y006654D01*
X005591Y006613D01*
X005612Y006577D01*
X005642Y006547D01*
X005678Y006526D01*
X005719Y006515D01*
X006007Y006515D01*
X006007Y006883D01*
X006103Y006883D01*
X006103Y006979D01*
X006530Y006979D01*
X006530Y007208D01*
X006523Y007235D01*
X006905Y007235D01*
X006867Y007142D01*
X006867Y006968D01*
X006872Y006954D01*
X006807Y006927D01*
X006683Y006803D01*
X006617Y006642D01*
X006617Y006569D01*
X006471Y006424D01*
X006461Y006400D01*
X006458Y006406D01*
X006428Y006435D01*
X006391Y006457D01*
X006351Y006467D01*
X006122Y006467D01*
X006122Y006040D01*
X006026Y006040D01*
X006026Y006467D01*
X005797Y006467D01*
X005756Y006457D01*
X005741Y006448D01*
X005678Y006511D01*
X005590Y006547D01*
X004983Y006547D01*
X004894Y006511D01*
X004827Y006443D01*
X004790Y006355D01*
X004790Y005630D01*
X004821Y005557D01*
X004807Y005543D01*
X004771Y005455D01*
X004771Y004612D01*
X004807Y004523D01*
X004875Y004456D01*
X004908Y004442D01*
X004956Y004326D01*
X005092Y004191D01*
X004963Y004191D01*
X004875Y004154D01*
X004860Y004140D01*
X004844Y004156D01*
X004844Y004377D01*
X004807Y004466D01*
X004740Y004533D01*
X004651Y004570D01*
X004084Y004570D01*
X003995Y004533D01*
X003965Y004502D01*
X003958Y004514D01*
X003928Y004544D01*
X003891Y004565D01*
X003877Y004569D01*
X003943Y004597D01*
X004011Y004664D01*
X004047Y004752D01*
X004047Y005360D01*
X004018Y005430D01*
X004047Y005500D01*
X004047Y006108D01*
X003961Y006246D02*
X004790Y006246D01*
X004811Y006404D02*
X003838Y006404D01*
X003838Y006563D02*
X005626Y006563D01*
X005580Y006721D02*
X003838Y006721D01*
X003838Y006880D02*
X005580Y006880D01*
X005580Y007038D02*
X005438Y007038D01*
X005538Y007197D02*
X005580Y007197D01*
X006007Y006880D02*
X006103Y006880D01*
X006103Y006883D02*
X006103Y006515D01*
X006391Y006515D01*
X006432Y006526D01*
X006468Y006547D01*
X006498Y006577D01*
X006519Y006613D01*
X006530Y006654D01*
X006530Y006883D01*
X006103Y006883D01*
X006103Y006721D02*
X006007Y006721D01*
X006007Y006563D02*
X006103Y006563D01*
X006122Y006404D02*
X006026Y006404D01*
X006026Y006246D02*
X006122Y006246D01*
X006122Y006087D02*
X006026Y006087D01*
X006074Y005992D02*
X006118Y005992D01*
X006430Y005680D01*
X006562Y005680D01*
X006840Y005402D01*
X006805Y005368D01*
X006830Y005377D02*
X006830Y005397D01*
X006829Y005397D01*
X006711Y005446D01*
X006561Y005596D01*
X006490Y005668D01*
X006490Y005656D01*
X006479Y005616D01*
X006478Y005614D01*
X006485Y005611D01*
X006553Y005543D01*
X006589Y005455D01*
X006589Y004625D01*
X006619Y004625D01*
X006736Y004576D01*
X006750Y004563D01*
X006750Y004615D01*
X006787Y004704D01*
X006830Y004747D01*
X006830Y004773D01*
X006858Y004773D01*
X006858Y004773D01*
X006858Y004773D01*
X006830Y004773D01*
X006830Y004798D01*
X006787Y004842D01*
X006750Y004930D01*
X006750Y005245D01*
X006787Y005333D01*
X006830Y005377D01*
X006840Y005402D02*
X007240Y005402D01*
X007902Y005402D01*
X007930Y005430D01*
X007864Y005407D02*
X007981Y005359D01*
X008424Y004916D01*
X008521Y004916D01*
X008689Y004846D01*
X008776Y004759D01*
X008742Y004843D01*
X008742Y004972D01*
X008589Y004972D01*
X008421Y005042D01*
X008292Y005171D01*
X008222Y005339D01*
X008222Y005436D01*
X008186Y005471D01*
X008154Y005548D01*
X008017Y005492D01*
X007843Y005492D01*
X007722Y005541D01*
X007693Y005471D01*
X007650Y005428D01*
X007650Y005407D01*
X007864Y005407D01*
X007675Y005453D02*
X008204Y005453D01*
X008240Y005295D02*
X008046Y005295D01*
X008204Y005136D02*
X008326Y005136D01*
X008363Y004978D02*
X008575Y004978D01*
X008716Y004819D02*
X008751Y004819D01*
X009180Y004930D02*
X009180Y005305D01*
X009618Y005743D01*
X009118Y005743D01*
X008773Y006087D01*
X008773Y006087D01*
X008773Y006620D01*
X008458Y006620D02*
X008458Y005652D01*
X008680Y005430D01*
X009529Y005201D02*
X009612Y005284D01*
X009709Y005284D01*
X009877Y005354D01*
X010006Y005483D01*
X010076Y005651D01*
X010076Y005834D01*
X010006Y006002D01*
X009878Y006130D01*
X010130Y006130D01*
X010130Y005245D01*
X010167Y005156D01*
X010210Y005113D01*
X010210Y005087D01*
X010210Y005062D01*
X010167Y005018D01*
X010130Y004930D01*
X010130Y004500D01*
X009980Y004500D01*
X009928Y004552D01*
X009767Y004618D01*
X009593Y004618D01*
X009432Y004552D01*
X009380Y004500D01*
X009288Y004500D01*
X009428Y004558D01*
X009552Y004682D01*
X009618Y004843D01*
X009618Y005017D01*
X009552Y005178D01*
X009529Y005201D01*
X009569Y005136D02*
X010187Y005136D01*
X010210Y005087D02*
X010238Y005087D01*
X010238Y005087D01*
X010238Y005087D01*
X010210Y005087D01*
X010150Y005087D02*
X009930Y004743D01*
X010130Y004819D02*
X009609Y004819D01*
X009618Y004978D02*
X010150Y004978D01*
X010150Y005087D02*
X010620Y005087D01*
X011273Y005087D01*
X011430Y004930D01*
X011430Y004227D01*
X011867Y003915D01*
X011867Y003915D01*
X011544Y003915D01*
X011544Y004060D01*
X011555Y004101D01*
X011576Y004137D01*
X011606Y004167D01*
X011642Y004188D01*
X011683Y004199D01*
X011867Y004199D01*
X011867Y003915D01*
X011867Y003915D01*
X011544Y003915D01*
X011544Y003770D01*
X011545Y003768D01*
X011500Y003813D01*
X011500Y004522D01*
X011500Y004562D01*
X011501Y004560D01*
X011568Y004493D01*
X011656Y004456D01*
X012079Y004456D01*
X012167Y004493D01*
X012234Y004560D01*
X012271Y004649D01*
X012271Y004867D01*
X012392Y004867D01*
X012553Y004933D01*
X012677Y005057D01*
X012743Y005218D01*
X012743Y005392D01*
X012677Y005553D01*
X012580Y005650D01*
X013116Y005650D01*
X012955Y005489D01*
X012955Y005293D01*
X013430Y005293D01*
X013905Y005293D01*
X013905Y005489D01*
X013744Y005650D01*
X014570Y005650D01*
X014706Y005514D01*
X014749Y005471D01*
X014808Y005447D01*
X014866Y005423D01*
X014866Y005423D01*
X014866Y005423D01*
X014930Y005423D01*
X015049Y005423D01*
X015077Y005354D01*
X015144Y005287D01*
X015216Y005257D01*
X015216Y005169D01*
X014284Y004236D01*
X014235Y004119D01*
X014235Y003991D01*
X014235Y003800D01*
X014192Y003800D01*
X014104Y003763D01*
X014096Y003755D01*
X014068Y003783D01*
X013980Y003820D01*
X013932Y003820D01*
X013889Y003924D01*
X013299Y004514D01*
X013181Y004562D01*
X012855Y004562D01*
X012803Y004614D01*
X012642Y004681D01*
X012468Y004681D01*
X012307Y004614D01*
X012183Y004491D01*
X012117Y004330D01*
X012117Y004174D01*
X012093Y004188D01*
X012052Y004199D01*
X011867Y004199D01*
X011867Y003915D01*
X012191Y003915D01*
X012191Y003987D01*
X012307Y003871D01*
X012430Y003820D01*
X012317Y003820D01*
X012229Y003783D01*
X012182Y003736D01*
X012191Y003770D01*
X012191Y003915D01*
X011867Y003915D01*
X011867Y003915D01*
X011867Y004027D02*
X011867Y004027D01*
X011867Y004185D02*
X011867Y004185D01*
X011637Y004185D02*
X011500Y004185D01*
X011500Y004027D02*
X011544Y004027D01*
X011544Y003868D02*
X011500Y003868D01*
X011180Y003680D02*
X011180Y004523D01*
X010930Y004772D01*
X010620Y004773D01*
X011006Y005087D02*
X011030Y005087D01*
X011006Y005087D01*
X011006Y005087D01*
X011030Y005087D02*
X011030Y005113D01*
X011073Y005156D01*
X011080Y005173D01*
X011218Y005117D01*
X011392Y005117D01*
X011445Y005138D01*
X011445Y005094D01*
X011476Y005020D01*
X011464Y004992D01*
X011464Y004673D01*
X011451Y004704D01*
X011404Y004751D01*
X011173Y004982D01*
X011111Y005044D01*
X011057Y005066D01*
X011030Y005077D01*
X011030Y005087D01*
X011053Y005136D02*
X011171Y005136D01*
X011111Y005044D02*
X011111Y005044D01*
X011111Y005044D01*
X011178Y004978D02*
X011464Y004978D01*
X011464Y004819D02*
X011336Y004819D01*
X011451Y004704D02*
X011451Y004704D01*
X011451Y004704D01*
X011500Y004502D02*
X011559Y004502D01*
X011500Y004344D02*
X012122Y004344D01*
X012117Y004185D02*
X012098Y004185D01*
X012176Y004502D02*
X012195Y004502D01*
X012271Y004661D02*
X012419Y004661D01*
X012271Y004819D02*
X013232Y004819D01*
X013233Y004818D02*
X013430Y004818D01*
X013627Y004818D01*
X013905Y005096D01*
X013905Y005293D01*
X013430Y005293D01*
X013430Y005293D01*
X013430Y005293D01*
X012955Y005293D01*
X012955Y005096D01*
X013233Y004818D01*
X013430Y004818D02*
X013430Y005293D01*
X013430Y004818D01*
X013430Y004819D02*
X013430Y004819D01*
X013430Y004978D02*
X013430Y004978D01*
X013430Y005136D02*
X013430Y005136D01*
X013430Y005293D02*
X013430Y005293D01*
X012955Y005295D02*
X012743Y005295D01*
X012718Y005453D02*
X012955Y005453D01*
X013077Y005612D02*
X012619Y005612D01*
X012710Y005136D02*
X012955Y005136D01*
X013073Y004978D02*
X012598Y004978D01*
X012691Y004661D02*
X014708Y004661D01*
X014866Y004819D02*
X013628Y004819D01*
X013787Y004978D02*
X015025Y004978D01*
X015183Y005136D02*
X013905Y005136D01*
X013905Y005295D02*
X015137Y005295D01*
X014793Y005453D02*
X013905Y005453D01*
X013783Y005612D02*
X014608Y005612D01*
X014749Y005471D02*
X014749Y005471D01*
X014749Y005471D01*
X014930Y005743D02*
X014703Y005970D01*
X011765Y005970D01*
X011765Y005157D01*
X011868Y005055D01*
X011868Y004820D01*
X011867Y004820D01*
X011445Y005136D02*
X011439Y005136D01*
X011305Y005555D02*
X011143Y005717D01*
X010620Y005717D01*
X010620Y006032D02*
X010618Y006035D01*
X010910Y006035D01*
X011305Y006430D01*
X011430Y006305D01*
X011765Y005970D01*
X011305Y005555D02*
X011180Y005680D01*
X011305Y006430D02*
X011305Y006931D01*
X010750Y006880D02*
X010382Y006880D01*
X010382Y006918D02*
X010352Y006990D01*
X010352Y007391D01*
X010304Y007509D01*
X009701Y008111D01*
X009611Y008201D01*
X009494Y008250D01*
X009408Y008250D01*
X009432Y008256D01*
X009468Y008277D01*
X009498Y008307D01*
X009519Y008344D01*
X009530Y008384D01*
X009530Y008613D01*
X009103Y008613D01*
X009103Y008709D01*
X009530Y008709D01*
X009530Y008938D01*
X009519Y008979D01*
X009510Y008994D01*
X009573Y009057D01*
X009610Y009145D01*
X009610Y009169D01*
X009630Y009177D01*
X009703Y009250D01*
X009739Y009235D01*
X010621Y009235D01*
X010710Y009272D01*
X010777Y009339D01*
X010790Y009371D01*
X011736Y009371D01*
X011789Y009318D01*
X011754Y009283D01*
X011749Y009272D01*
X011746Y009276D01*
X011709Y009297D01*
X011669Y009307D01*
X011420Y009307D01*
X011420Y008820D01*
X011285Y008820D01*
X011285Y009307D01*
X011036Y009307D01*
X010996Y009297D01*
X010959Y009276D01*
X010929Y009246D01*
X010908Y009209D01*
X010898Y009169D01*
X010898Y008820D01*
X011285Y008820D01*
X011285Y008685D01*
X010898Y008685D01*
X010898Y008336D01*
X010908Y008296D01*
X010929Y008259D01*
X010959Y008229D01*
X010996Y008208D01*
X011036Y008197D01*
X011285Y008197D01*
X011285Y008685D01*
X011420Y008685D01*
X011420Y008197D01*
X011669Y008197D01*
X011709Y008208D01*
X011746Y008229D01*
X011749Y008233D01*
X011754Y008222D01*
X011822Y008154D01*
X011859Y008138D01*
X011859Y008104D01*
X011824Y008069D01*
X011823Y008071D01*
X011756Y008138D01*
X011668Y008175D01*
X010942Y008175D01*
X010854Y008138D01*
X010787Y008071D01*
X010750Y007983D01*
X010750Y007375D01*
X010779Y007305D01*
X010750Y007235D01*
X010750Y006627D01*
X010787Y006539D01*
X010854Y006472D01*
X010882Y006460D01*
X010805Y006382D01*
X010382Y006382D01*
X010382Y006918D01*
X010352Y007038D02*
X010750Y007038D01*
X010750Y007197D02*
X010352Y007197D01*
X010352Y007355D02*
X010758Y007355D01*
X010750Y007514D02*
X010299Y007514D01*
X010141Y007672D02*
X010750Y007672D01*
X010750Y007831D02*
X009982Y007831D01*
X009824Y007989D02*
X010753Y007989D01*
X010672Y008166D02*
X010702Y008196D01*
X010723Y008232D01*
X010734Y008273D01*
X010734Y008522D01*
X010248Y008522D01*
X010248Y008657D01*
X010734Y008657D01*
X010734Y008906D01*
X010723Y008946D01*
X010702Y008983D01*
X010672Y009013D01*
X010635Y009034D01*
X010595Y009045D01*
X010248Y009045D01*
X010248Y008657D01*
X010112Y008657D01*
X010112Y008522D01*
X009626Y008522D01*
X009626Y008273D01*
X009637Y008232D01*
X009658Y008196D01*
X009688Y008166D01*
X009725Y008145D01*
X009765Y008134D01*
X010112Y008134D01*
X010112Y008522D01*
X010248Y008522D01*
X010248Y008134D01*
X010595Y008134D01*
X010635Y008145D01*
X010672Y008166D01*
X010640Y008148D02*
X010876Y008148D01*
X010906Y008306D02*
X010734Y008306D01*
X010734Y008465D02*
X010898Y008465D01*
X010898Y008623D02*
X010248Y008623D01*
X010112Y008623D02*
X009103Y008623D01*
X009007Y008623D02*
X008434Y008623D01*
X008434Y008714D02*
X008434Y008529D01*
X008424Y008488D01*
X008403Y008452D01*
X008373Y008422D01*
X008336Y008401D01*
X008296Y008390D01*
X007944Y008390D01*
X007944Y008714D01*
X007944Y008721D01*
X008434Y008721D01*
X008434Y008906D01*
X008424Y008946D01*
X008403Y008983D01*
X008373Y009013D01*
X008336Y009034D01*
X008296Y009045D01*
X008146Y009045D01*
X008178Y009058D01*
X008302Y009182D01*
X008368Y009343D01*
X008368Y009416D01*
X008500Y009547D01*
X008500Y009145D01*
X008537Y009057D01*
X008600Y008994D01*
X008591Y008979D01*
X008580Y008938D01*
X008580Y008709D01*
X009007Y008709D01*
X009007Y008613D01*
X008580Y008613D01*
X008580Y008384D01*
X008591Y008344D01*
X008612Y008307D01*
X008642Y008277D01*
X008678Y008256D01*
X008702Y008250D01*
X007313Y008250D01*
X006465Y009097D01*
X007141Y009097D01*
X007229Y009134D01*
X007297Y009202D01*
X007333Y009290D01*
X007333Y009720D01*
X007297Y009808D01*
X007229Y009876D01*
X007141Y009912D01*
X006376Y009912D01*
X006288Y009876D01*
X006221Y009808D01*
X006184Y009720D01*
X006184Y009378D01*
X005894Y009669D01*
X005928Y009683D01*
X006052Y009807D01*
X006118Y009968D01*
X006118Y010110D01*
X007244Y010110D01*
X007361Y010159D01*
X007365Y010163D01*
X007365Y010077D01*
X007402Y009989D01*
X007469Y009921D01*
X007557Y009885D01*
X007932Y009885D01*
X007916Y009868D01*
X007843Y009868D01*
X007682Y009802D01*
X007558Y009678D01*
X007492Y009517D01*
X007492Y009343D01*
X007558Y009182D01*
X007682Y009058D01*
X007714Y009045D01*
X007584Y009045D01*
X007543Y009034D01*
X007507Y009013D01*
X007477Y008983D01*
X007456Y008946D01*
X007445Y008906D01*
X007445Y008721D01*
X007936Y008721D01*
X007936Y008714D01*
X007445Y008714D01*
X007445Y008529D01*
X007456Y008488D01*
X007477Y008452D01*
X007507Y008422D01*
X007543Y008401D01*
X007584Y008390D01*
X007936Y008390D01*
X007936Y008714D01*
X007944Y008714D01*
X008434Y008714D01*
X008434Y008782D02*
X008580Y008782D01*
X008581Y008940D02*
X008425Y008940D01*
X008519Y009099D02*
X008219Y009099D01*
X008333Y009257D02*
X008500Y009257D01*
X008500Y009416D02*
X008368Y009416D01*
X007930Y009430D02*
X008868Y010368D01*
X010742Y010367D01*
X010610Y010687D02*
X009866Y010687D01*
X009908Y010729D01*
X009945Y010817D01*
X009945Y011543D01*
X009938Y011560D01*
X009938Y011692D01*
X009989Y011744D01*
X010056Y011905D01*
X010056Y012080D01*
X009989Y012241D01*
X009866Y012364D01*
X009705Y012431D01*
X009591Y012431D01*
X009591Y012829D01*
X009555Y012917D01*
X009517Y012955D01*
X009520Y012955D01*
X009549Y012963D01*
X009600Y012912D01*
X009688Y012875D01*
X009878Y012875D01*
X009860Y012843D01*
X009849Y012802D01*
X009849Y012618D01*
X010133Y012618D01*
X010133Y012618D01*
X010133Y012294D01*
X010278Y012294D01*
X010298Y012299D01*
X010298Y011855D01*
X010246Y011803D01*
X010179Y011642D01*
X010179Y011468D01*
X010246Y011307D01*
X010369Y011183D01*
X010530Y011117D01*
X010705Y011117D01*
X010866Y011183D01*
X010922Y011240D01*
X010922Y011000D01*
X010610Y010687D01*
X010764Y010842D02*
X009945Y010842D01*
X009945Y011001D02*
X010922Y011001D01*
X010922Y011159D02*
X010807Y011159D01*
X010428Y011159D02*
X009945Y011159D01*
X009945Y011318D02*
X010241Y011318D01*
X010179Y011476D02*
X009945Y011476D01*
X009938Y011635D02*
X010179Y011635D01*
X010242Y011793D02*
X010009Y011793D01*
X010056Y011952D02*
X010298Y011952D01*
X010298Y012110D02*
X010043Y012110D01*
X009962Y012269D02*
X010298Y012269D01*
X010133Y012294D02*
X010133Y012618D01*
X010133Y012618D01*
X009849Y012618D01*
X009849Y012433D01*
X009860Y012392D01*
X009881Y012356D01*
X009910Y012326D01*
X009947Y012305D01*
X009988Y012294D01*
X010133Y012294D01*
X010133Y012427D02*
X010133Y012427D01*
X010133Y012586D02*
X010133Y012586D01*
X009849Y012586D02*
X009591Y012586D01*
X009591Y012744D02*
X009849Y012744D01*
X009680Y012805D02*
X009305Y013180D01*
X009305Y013431D01*
X009243Y013430D01*
X009305Y013554D01*
X009305Y013868D01*
X009430Y013992D01*
X009430Y014291D01*
X009430Y014291D01*
X009430Y014687D01*
X009506Y014687D01*
X009550Y014730D01*
X009638Y014767D01*
X009970Y014767D01*
X010058Y014730D01*
X010126Y014663D01*
X010162Y014575D01*
X010162Y014088D01*
X010201Y014049D01*
X010228Y013985D01*
X010295Y013985D01*
X010375Y013952D01*
X010375Y014545D01*
X010412Y014633D01*
X010479Y014701D01*
X010487Y014704D01*
X010429Y014843D01*
X010429Y014882D01*
X010392Y014867D01*
X010218Y014867D01*
X010096Y014917D01*
X010058Y014879D01*
X009970Y014843D01*
X009638Y014843D01*
X009550Y014879D01*
X009482Y014947D01*
X009446Y015035D01*
X009446Y015603D01*
X009462Y015641D01*
X009412Y015662D01*
X009361Y015713D01*
X009357Y015712D01*
X009378Y015691D01*
X009414Y015603D01*
X009414Y015035D01*
X009378Y014947D01*
X009310Y014879D01*
X009243Y014852D01*
X009243Y014758D01*
X009310Y014730D01*
X009353Y014687D01*
X009430Y014687D01*
X009430Y014291D01*
X009430Y015618D01*
X009180Y015867D01*
X009180Y016056D01*
X009056Y016180D01*
X009036Y016200D01*
X009036Y017180D01*
X009036Y017074D01*
X008618Y017493D01*
X008424Y017658D02*
X008034Y017658D01*
X008193Y017816D02*
X008311Y017816D01*
X008988Y017132D02*
X009084Y017132D01*
X009084Y016705D01*
X009313Y016705D01*
X009354Y016716D01*
X009369Y016725D01*
X009404Y016690D01*
X009361Y016647D01*
X009333Y016655D01*
X009104Y016655D01*
X009104Y016228D01*
X009008Y016228D01*
X009008Y016655D01*
X008779Y016655D01*
X008738Y016644D01*
X008702Y016623D01*
X008672Y016593D01*
X008661Y016574D01*
X008643Y016617D01*
X008672Y016688D01*
X008672Y016747D01*
X008682Y016737D01*
X008719Y016716D01*
X008759Y016705D01*
X008988Y016705D01*
X008988Y017132D01*
X008988Y017024D02*
X009084Y017024D01*
X009084Y016865D02*
X008988Y016865D01*
X008988Y016707D02*
X009084Y016707D01*
X009104Y016548D02*
X009008Y016548D01*
X009008Y016390D02*
X009104Y016390D01*
X009104Y016231D02*
X009008Y016231D01*
X008754Y016707D02*
X008672Y016707D01*
X009319Y016707D02*
X009387Y016707D01*
X009824Y017180D02*
X009804Y017200D01*
X010320Y017341D02*
X011525Y017341D01*
X011835Y017341D02*
X012888Y017341D01*
X012761Y017182D02*
X012048Y017182D01*
X011680Y016930D02*
X012117Y016493D01*
X012243Y016493D01*
X012306Y016555D01*
X011805Y015617D02*
X011743Y015555D01*
X011118Y015555D01*
X010867Y015305D01*
X010867Y014930D01*
X010867Y014304D01*
X010930Y014241D01*
X010375Y014171D02*
X010162Y014171D01*
X010162Y014329D02*
X010375Y014329D01*
X010375Y014488D02*
X010162Y014488D01*
X010133Y014646D02*
X010424Y014646D01*
X010445Y014805D02*
X009243Y014805D01*
X009384Y014963D02*
X009476Y014963D01*
X009446Y015122D02*
X009414Y015122D01*
X009414Y015280D02*
X009446Y015280D01*
X009446Y015439D02*
X009414Y015439D01*
X009414Y015597D02*
X009446Y015597D01*
X009804Y015319D02*
X009818Y015305D01*
X010305Y015305D01*
X009804Y015319D02*
X009804Y016180D01*
X009930Y016180D01*
X009930Y016055D01*
X010619Y016055D01*
X010805Y016056D01*
X009930Y016180D02*
X009804Y016054D01*
X009804Y016180D02*
X009804Y016180D01*
X009868Y016244D01*
X009056Y015319D02*
X008805Y015068D01*
X008805Y014805D01*
X009430Y014646D02*
X009430Y014646D01*
X009430Y014488D02*
X009430Y014488D01*
X009430Y014329D02*
X009430Y014329D01*
X009430Y014291D02*
X009430Y013905D01*
X009430Y013905D01*
X009430Y014291D01*
X009430Y014291D01*
X009430Y014171D02*
X009430Y014171D01*
X009430Y014012D02*
X009430Y014012D01*
X009804Y013994D02*
X009930Y013867D01*
X009930Y013554D01*
X009991Y013430D01*
X010055Y013493D01*
X010930Y013493D01*
X010930Y012680D01*
X010618Y012368D01*
X010618Y011555D01*
X009618Y011368D02*
X009449Y011199D01*
X009449Y011180D01*
X009618Y011368D02*
X009618Y011993D01*
X009714Y012427D02*
X009850Y012427D01*
X009622Y012903D02*
X009561Y012903D01*
X009227Y012665D02*
X009227Y012618D01*
X008868Y012618D01*
X008680Y012430D01*
X008680Y012118D01*
X008868Y012618D02*
X008680Y012805D01*
X008680Y013915D01*
X008430Y014165D01*
X007930Y014305D02*
X007930Y015007D01*
X008430Y015305D02*
X008118Y015617D01*
X008118Y016243D01*
X007430Y015493D02*
X007180Y015243D01*
X007180Y014680D01*
X007430Y014430D01*
X007430Y013930D01*
X007180Y013680D01*
X007180Y013180D01*
X007430Y012930D01*
X007680Y012930D01*
X007930Y012680D01*
X009243Y013430D02*
X009227Y013476D01*
X009291Y013478D02*
X009496Y013478D01*
X009496Y013382D01*
X009291Y013382D01*
X009291Y013478D01*
X008680Y013915D02*
X009056Y014291D01*
X009804Y014291D02*
X009804Y013994D01*
X010216Y014012D02*
X010375Y014012D01*
X010053Y013431D02*
X009991Y013430D01*
X011555Y013867D02*
X011867Y013555D01*
X009056Y015319D02*
X009055Y015318D01*
X009056Y015319D02*
X009042Y015305D01*
X007025Y016231D02*
X005866Y016231D01*
X005941Y016073D02*
X006206Y016073D01*
X006184Y015914D02*
X005450Y015914D01*
X005450Y015910D02*
X005450Y015400D01*
X005450Y014950D01*
X005410Y014950D01*
X005410Y015910D01*
X005450Y015910D01*
X005410Y015910D02*
X004900Y015910D01*
X004900Y015888D01*
X004913Y015806D01*
X004939Y015727D01*
X004977Y015652D01*
X005026Y015585D01*
X005085Y015526D01*
X005152Y015477D01*
X005227Y015439D01*
X005254Y015430D01*
X005227Y015421D01*
X005152Y015383D01*
X005085Y015334D01*
X005026Y015275D01*
X004977Y015208D01*
X004939Y015133D01*
X004913Y015054D01*
X004900Y014972D01*
X004900Y014950D01*
X005410Y014950D01*
X005410Y014910D01*
X004900Y014910D01*
X004900Y014888D01*
X004913Y014808D01*
X004767Y014868D01*
X004593Y014868D01*
X004500Y014830D01*
X004500Y015797D01*
X005100Y016398D01*
X005181Y016398D01*
X005152Y016383D01*
X005085Y016334D01*
X005026Y016275D01*
X004977Y016208D01*
X004939Y016133D01*
X004913Y016054D01*
X004900Y015972D01*
X004900Y015950D01*
X005410Y015950D01*
X005410Y015910D01*
X005410Y015914D02*
X004617Y015914D01*
X004500Y015756D02*
X004929Y015756D01*
X005017Y015597D02*
X004500Y015597D01*
X004500Y015439D02*
X005227Y015439D01*
X005410Y015439D02*
X005450Y015439D01*
X005450Y015597D02*
X005410Y015597D01*
X005410Y015756D02*
X005450Y015756D01*
X005843Y015597D02*
X006184Y015597D01*
X006184Y015756D02*
X005931Y015756D01*
X005633Y015439D02*
X006283Y015439D01*
X006327Y015280D02*
X005830Y015280D01*
X005925Y015122D02*
X006169Y015122D01*
X006010Y014963D02*
X005960Y014963D01*
X005450Y014963D02*
X005410Y014963D01*
X005410Y015122D02*
X005450Y015122D01*
X005450Y015280D02*
X005410Y015280D01*
X005030Y015280D02*
X004500Y015280D01*
X004500Y015122D02*
X004935Y015122D01*
X004900Y014963D02*
X004500Y014963D01*
X004680Y014430D02*
X004680Y010680D01*
X005305Y010055D01*
X005680Y010055D01*
X006087Y009891D02*
X006325Y009891D01*
X006189Y009733D02*
X005978Y009733D01*
X005989Y009574D02*
X006184Y009574D01*
X006184Y009416D02*
X006147Y009416D01*
X005680Y009430D02*
X007180Y007930D01*
X009430Y007930D01*
X010032Y007328D01*
X010032Y006620D01*
X009717Y006620D02*
X009717Y007080D01*
X009242Y007555D01*
X006056Y007555D01*
X006055Y007679D01*
X005404Y007679D01*
X005092Y007367D01*
X004747Y007038D02*
X003863Y007038D01*
X003964Y007197D02*
X004646Y007197D01*
X004615Y007355D02*
X003995Y007355D01*
X003974Y007514D02*
X004636Y007514D01*
X004722Y007672D02*
X003888Y007672D01*
X003838Y007831D02*
X004963Y007831D01*
X005316Y007989D02*
X003838Y007989D01*
X003975Y008148D02*
X005626Y008148D01*
X006034Y008623D02*
X004598Y008623D01*
X004608Y008782D02*
X005876Y008782D01*
X005717Y008940D02*
X004566Y008940D01*
X004479Y009099D02*
X005559Y009099D01*
X005680Y009430D02*
X004118Y009430D01*
X004460Y009891D02*
X005016Y009891D01*
X004858Y010050D02*
X004522Y010050D01*
X004518Y010208D02*
X004699Y010208D01*
X004541Y010367D02*
X004443Y010367D01*
X004499Y010409D02*
X004499Y010409D01*
X004118Y010367D02*
X004118Y010367D01*
X004118Y010208D02*
X004118Y010208D01*
X005430Y010930D02*
X005930Y010430D01*
X007180Y010430D01*
X007930Y011180D01*
X008661Y011180D01*
X007377Y010050D02*
X006118Y010050D01*
X007192Y009891D02*
X007543Y009891D01*
X007612Y009733D02*
X007328Y009733D01*
X007333Y009574D02*
X007515Y009574D01*
X007492Y009416D02*
X007333Y009416D01*
X007320Y009257D02*
X007527Y009257D01*
X007641Y009099D02*
X007144Y009099D01*
X007454Y008940D02*
X006623Y008940D01*
X006781Y008782D02*
X007445Y008782D01*
X007445Y008623D02*
X006940Y008623D01*
X007098Y008465D02*
X007470Y008465D01*
X007257Y008306D02*
X008613Y008306D01*
X008580Y008465D02*
X008410Y008465D01*
X007944Y008465D02*
X007936Y008465D01*
X007936Y008623D02*
X007944Y008623D01*
X009055Y009449D02*
X009449Y009449D01*
X009680Y009680D01*
X010089Y009680D01*
X010180Y009771D01*
X010674Y009257D02*
X010941Y009257D01*
X010898Y009099D02*
X009591Y009099D01*
X009688Y009013D02*
X009658Y008983D01*
X009637Y008946D01*
X009626Y008906D01*
X009626Y008657D01*
X010112Y008657D01*
X010112Y009045D01*
X009765Y009045D01*
X009725Y009034D01*
X009688Y009013D01*
X009635Y008940D02*
X009529Y008940D01*
X009530Y008782D02*
X009626Y008782D01*
X009626Y008465D02*
X009530Y008465D01*
X009497Y008306D02*
X009626Y008306D01*
X009665Y008148D02*
X009720Y008148D01*
X010112Y008148D02*
X010248Y008148D01*
X010248Y008306D02*
X010112Y008306D01*
X010112Y008465D02*
X010248Y008465D01*
X010248Y008782D02*
X010112Y008782D01*
X010112Y008940D02*
X010248Y008940D01*
X010725Y008940D02*
X010898Y008940D01*
X010734Y008782D02*
X011285Y008782D01*
X011285Y008940D02*
X011420Y008940D01*
X011420Y009099D02*
X011285Y009099D01*
X011285Y009257D02*
X011420Y009257D01*
X012243Y008742D02*
X012253Y008752D01*
X012243Y008742D02*
X012180Y008555D01*
X012179Y007804D01*
X012054Y007679D01*
X011305Y007679D01*
X011734Y008148D02*
X011837Y008148D01*
X011420Y008306D02*
X011285Y008306D01*
X011285Y008465D02*
X011420Y008465D01*
X011420Y008623D02*
X011285Y008623D01*
X012506Y009733D02*
X013729Y009733D01*
X013711Y009891D02*
X012347Y009891D01*
X012189Y010050D02*
X013711Y010050D01*
X014625Y010684D02*
X015011Y010684D01*
X014900Y010525D02*
X014849Y010525D01*
X014855Y010842D02*
X014625Y010842D01*
X014625Y011001D02*
X014846Y011001D01*
X014846Y011159D02*
X014625Y011159D01*
X014625Y011318D02*
X014855Y011318D01*
X015011Y011476D02*
X014625Y011476D01*
X015854Y009891D02*
X016204Y009891D01*
X016156Y009099D02*
X015805Y009099D01*
X014705Y008148D02*
X017180Y008148D01*
X017180Y007989D02*
X014705Y007989D01*
X014705Y007831D02*
X017180Y007831D01*
X017180Y007672D02*
X014705Y007672D01*
X014705Y007514D02*
X017180Y007514D01*
X017180Y007355D02*
X016774Y007355D01*
X016784Y006530D02*
X017180Y006530D01*
X017180Y004413D01*
X017169Y004434D01*
X017125Y004496D01*
X017071Y004550D01*
X017009Y004595D01*
X016941Y004629D01*
X016868Y004653D01*
X016793Y004665D01*
X016458Y004665D01*
X016458Y004208D01*
X016402Y004208D01*
X016402Y004152D01*
X016458Y004152D01*
X016458Y003695D01*
X016793Y003695D01*
X016868Y003707D01*
X016941Y003731D01*
X017009Y003765D01*
X017071Y003810D01*
X017125Y003864D01*
X017169Y003926D01*
X017180Y003947D01*
X017180Y003061D01*
X017162Y003084D01*
X017084Y003162D01*
X016998Y003231D01*
X016905Y003289D01*
X016806Y003337D01*
X016702Y003373D01*
X016594Y003398D01*
X016510Y003407D01*
X016510Y002510D01*
X016350Y002510D01*
X016350Y003407D01*
X016266Y003398D01*
X016158Y003373D01*
X016054Y003337D01*
X015955Y003289D01*
X015862Y003231D01*
X015776Y003162D01*
X015698Y003084D01*
X015629Y002998D01*
X015571Y002905D01*
X015523Y002806D01*
X015487Y002702D01*
X015462Y002594D01*
X015453Y002510D01*
X016350Y002510D01*
X016350Y002350D01*
X016510Y002350D01*
X016510Y001453D01*
X016594Y001462D01*
X016702Y001487D01*
X016806Y001523D01*
X016905Y001571D01*
X016998Y001629D01*
X017084Y001698D01*
X017162Y001776D01*
X017180Y001799D01*
X017180Y001290D01*
X015579Y001290D01*
X014729Y002140D01*
X014891Y002140D01*
X014932Y002151D01*
X014968Y002172D01*
X014998Y002202D01*
X015019Y002238D01*
X015030Y002279D01*
X015030Y002508D01*
X014603Y002508D01*
X014603Y002604D01*
X015030Y002604D01*
X015030Y002833D01*
X015022Y002861D01*
X015073Y002912D01*
X015110Y003000D01*
X015110Y003608D01*
X015073Y003696D01*
X015006Y003763D01*
X014918Y003800D01*
X014875Y003800D01*
X014875Y003922D01*
X015808Y004855D01*
X015856Y004973D01*
X015856Y005257D01*
X015928Y005287D01*
X015930Y005288D01*
X015932Y005287D01*
X016020Y005250D01*
X016627Y005250D01*
X016716Y005287D01*
X016783Y005354D01*
X016820Y005442D01*
X016820Y006168D01*
X016783Y006256D01*
X016716Y006323D01*
X016664Y006345D01*
X016664Y006398D01*
X016696Y006412D01*
X016763Y006479D01*
X016784Y006530D01*
X016678Y006404D02*
X017180Y006404D01*
X017180Y006246D02*
X016787Y006246D01*
X016820Y006087D02*
X017180Y006087D01*
X017180Y005929D02*
X016820Y005929D01*
X016820Y005770D02*
X017180Y005770D01*
X017180Y005612D02*
X016820Y005612D01*
X016820Y005453D02*
X017180Y005453D01*
X017180Y005295D02*
X016723Y005295D01*
X017180Y005136D02*
X015856Y005136D01*
X015856Y004978D02*
X017180Y004978D01*
X017180Y004819D02*
X015772Y004819D01*
X015613Y004661D02*
X016040Y004661D01*
X016067Y004665D02*
X015992Y004653D01*
X015919Y004629D01*
X015851Y004595D01*
X015789Y004550D01*
X015735Y004496D01*
X015691Y004434D01*
X015656Y004366D01*
X015632Y004294D01*
X015620Y004218D01*
X015620Y004208D01*
X016402Y004208D01*
X016402Y004665D01*
X016067Y004665D01*
X015742Y004502D02*
X015455Y004502D01*
X015296Y004344D02*
X015649Y004344D01*
X015620Y004152D02*
X015620Y004142D01*
X015632Y004066D01*
X015656Y003994D01*
X015691Y003926D01*
X015735Y003864D01*
X015789Y003810D01*
X015851Y003765D01*
X015919Y003731D01*
X015992Y003707D01*
X016067Y003695D01*
X016402Y003695D01*
X016402Y004152D01*
X015620Y004152D01*
X015645Y004027D02*
X014979Y004027D01*
X014875Y003868D02*
X015733Y003868D01*
X015984Y003710D02*
X015060Y003710D01*
X015110Y003551D02*
X017180Y003551D01*
X017180Y003393D02*
X016617Y003393D01*
X016510Y003393D02*
X016350Y003393D01*
X016243Y003393D02*
X015110Y003393D01*
X015110Y003234D02*
X015868Y003234D01*
X015691Y003076D02*
X015110Y003076D01*
X015075Y002917D02*
X015579Y002917D01*
X015507Y002759D02*
X015030Y002759D01*
X014603Y002600D02*
X015464Y002600D01*
X015030Y002442D02*
X016350Y002442D01*
X016350Y002350D02*
X015453Y002350D01*
X015462Y002266D01*
X015487Y002158D01*
X015523Y002054D01*
X015571Y001955D01*
X015629Y001862D01*
X015698Y001776D01*
X015776Y001698D01*
X015862Y001629D01*
X015955Y001571D01*
X016054Y001523D01*
X016158Y001487D01*
X016266Y001462D01*
X016350Y001453D01*
X016350Y002350D01*
X016350Y002283D02*
X016510Y002283D01*
X016510Y002125D02*
X016350Y002125D01*
X016350Y001966D02*
X016510Y001966D01*
X016510Y001808D02*
X016350Y001808D01*
X016350Y001649D02*
X016510Y001649D01*
X016510Y001491D02*
X016350Y001491D01*
X016148Y001491D02*
X015379Y001491D01*
X015220Y001649D02*
X015838Y001649D01*
X015673Y001808D02*
X015062Y001808D01*
X014903Y001966D02*
X015566Y001966D01*
X015499Y002125D02*
X014745Y002125D01*
X015030Y002283D02*
X015460Y002283D01*
X016350Y002600D02*
X016510Y002600D01*
X016510Y002759D02*
X016350Y002759D01*
X016350Y002917D02*
X016510Y002917D01*
X016510Y003076D02*
X016350Y003076D01*
X016350Y003234D02*
X016510Y003234D01*
X016458Y003710D02*
X016402Y003710D01*
X016402Y003868D02*
X016458Y003868D01*
X016458Y004027D02*
X016402Y004027D01*
X016402Y004185D02*
X015138Y004185D01*
X014555Y004055D02*
X015536Y005036D01*
X015536Y005805D01*
X015474Y005743D01*
X014930Y005743D01*
X015038Y006087D02*
X015040Y006087D01*
X015073Y006246D02*
X014873Y006246D01*
X014766Y006290D02*
X014766Y006290D01*
X014766Y006290D01*
X015172Y006517D02*
X015202Y006487D01*
X015238Y006466D01*
X015279Y006455D01*
X015508Y006455D01*
X015508Y006882D01*
X015140Y006882D01*
X015140Y006594D01*
X015151Y006553D01*
X015172Y006517D01*
X015149Y006563D02*
X013977Y006563D01*
X014024Y006721D02*
X015140Y006721D01*
X015140Y006880D02*
X014183Y006880D01*
X014341Y007038D02*
X015140Y007038D01*
X015140Y007197D02*
X014500Y007197D01*
X014650Y007355D02*
X015184Y007355D01*
X015508Y007355D02*
X015604Y007355D01*
X015604Y007197D02*
X015508Y007197D01*
X015508Y007038D02*
X015604Y007038D01*
X015604Y006880D02*
X015508Y006880D01*
X015508Y006721D02*
X015604Y006721D01*
X015604Y006563D02*
X015508Y006563D01*
X015930Y006404D02*
X013911Y006404D01*
X016402Y004661D02*
X016458Y004661D01*
X016458Y004502D02*
X016402Y004502D01*
X016402Y004344D02*
X016458Y004344D01*
X016820Y004661D02*
X017180Y004661D01*
X017180Y004502D02*
X017118Y004502D01*
X017127Y003868D02*
X017180Y003868D01*
X017180Y003710D02*
X016876Y003710D01*
X016992Y003234D02*
X017180Y003234D01*
X017169Y003076D02*
X017180Y003076D01*
X017180Y001649D02*
X017022Y001649D01*
X017180Y001491D02*
X016712Y001491D01*
X017180Y001332D02*
X015537Y001332D01*
X014994Y000857D02*
X013166Y000857D01*
X013053Y000810D02*
X013281Y000904D01*
X013456Y001079D01*
X013550Y001307D01*
X013550Y001553D01*
X013456Y001781D01*
X013281Y001956D01*
X013053Y002050D01*
X012807Y002050D01*
X012579Y001956D01*
X012430Y001807D01*
X012281Y001956D01*
X012250Y001969D01*
X012250Y002169D01*
X012267Y002152D01*
X012303Y002131D01*
X012344Y002120D01*
X012632Y002120D01*
X012632Y002488D01*
X012728Y002488D01*
X012728Y002120D01*
X013016Y002120D01*
X013057Y002131D01*
X013093Y002152D01*
X013095Y002154D01*
X013099Y002144D01*
X013167Y002077D01*
X013255Y002040D01*
X013310Y002040D01*
X013625Y001726D01*
X013726Y001625D01*
X013858Y001570D01*
X014281Y001570D01*
X015125Y000726D01*
X015141Y000710D01*
X010663Y000710D01*
X010775Y000823D01*
X010807Y000810D01*
X011053Y000810D01*
X011281Y000904D01*
X011430Y001053D01*
X011579Y000904D01*
X011807Y000810D01*
X012053Y000810D01*
X012281Y000904D01*
X012430Y001053D01*
X012579Y000904D01*
X012807Y000810D01*
X013053Y000810D01*
X012694Y000857D02*
X012166Y000857D01*
X012392Y001015D02*
X012468Y001015D01*
X011930Y001430D02*
X011930Y002680D01*
X012250Y002125D02*
X012329Y002125D01*
X012256Y001966D02*
X012604Y001966D01*
X012632Y002125D02*
X012728Y002125D01*
X012728Y002283D02*
X012632Y002283D01*
X012632Y002442D02*
X012728Y002442D01*
X013031Y002125D02*
X013119Y002125D01*
X013256Y001966D02*
X013385Y001966D01*
X013429Y001808D02*
X013543Y001808D01*
X013510Y001649D02*
X013702Y001649D01*
X013550Y001491D02*
X014360Y001491D01*
X014519Y001332D02*
X013550Y001332D01*
X013495Y001174D02*
X014677Y001174D01*
X014836Y001015D02*
X013392Y001015D01*
X012431Y001808D02*
X012429Y001808D01*
X011468Y001015D02*
X011392Y001015D01*
X011166Y000857D02*
X011694Y000857D01*
X009930Y001430D02*
X009930Y001930D01*
X009717Y002143D01*
X009717Y003240D01*
X010032Y003240D02*
X010032Y002578D01*
X010430Y002180D01*
X009515Y001892D02*
X009430Y001807D01*
X009281Y001956D01*
X009053Y002050D01*
X008807Y002050D01*
X008579Y001956D01*
X008404Y001781D01*
X008382Y001727D01*
X008342Y001782D01*
X008282Y001842D01*
X008213Y001892D01*
X008137Y001930D01*
X008056Y001957D01*
X007972Y001970D01*
X007948Y001970D01*
X007948Y001448D01*
X007912Y001448D01*
X007912Y001412D01*
X007390Y001412D01*
X007390Y001388D01*
X007403Y001304D01*
X007430Y001223D01*
X007447Y001188D01*
X006625Y001188D01*
X006496Y001317D01*
X006568Y001347D01*
X006636Y001414D01*
X006672Y001502D01*
X006672Y001635D01*
X006678Y001631D01*
X006719Y001620D01*
X007007Y001620D01*
X007007Y001988D01*
X007103Y001988D01*
X007103Y001620D01*
X007391Y001620D01*
X007427Y001630D01*
X007403Y001556D01*
X007390Y001472D01*
X007390Y001448D01*
X007912Y001448D01*
X007912Y001970D01*
X007888Y001970D01*
X007804Y001957D01*
X007723Y001930D01*
X007647Y001892D01*
X007578Y001842D01*
X007530Y001794D01*
X007530Y001988D01*
X007103Y001988D01*
X007103Y002084D01*
X007530Y002084D01*
X007530Y002313D01*
X007519Y002354D01*
X007510Y002369D01*
X007573Y002432D01*
X007610Y002520D01*
X007610Y002775D01*
X007670Y002750D01*
X007823Y002750D01*
X007823Y002654D01*
X007871Y002536D01*
X007992Y002416D01*
X007992Y002343D01*
X008058Y002182D01*
X008182Y002058D01*
X008343Y001992D01*
X008517Y001992D01*
X008678Y002058D01*
X008802Y002182D01*
X008868Y002343D01*
X008868Y002517D01*
X008802Y002678D01*
X008730Y002750D01*
X009397Y002750D01*
X009397Y002079D01*
X009446Y001961D01*
X009515Y001892D01*
X009444Y001966D02*
X009256Y001966D01*
X009397Y002125D02*
X008745Y002125D01*
X008844Y002283D02*
X009397Y002283D01*
X009397Y002442D02*
X008868Y002442D01*
X008834Y002600D02*
X009397Y002600D01*
X008604Y001966D02*
X007998Y001966D01*
X007948Y001966D02*
X007912Y001966D01*
X007862Y001966D02*
X007530Y001966D01*
X007530Y001808D02*
X007544Y001808D01*
X007530Y002125D02*
X008115Y002125D01*
X008016Y002283D02*
X007530Y002283D01*
X007577Y002442D02*
X007966Y002442D01*
X007845Y002600D02*
X007610Y002600D01*
X007610Y002759D02*
X007649Y002759D01*
X008143Y002717D02*
X008430Y002430D01*
X008143Y002717D02*
X008143Y003240D01*
X007240Y003490D02*
X007240Y003828D01*
X006890Y003828D01*
X006639Y003577D01*
X006133Y003577D01*
X007055Y003305D02*
X007055Y002824D01*
X007055Y003305D02*
X007240Y003490D01*
X006118Y002554D02*
X005205Y002554D01*
X004805Y002954D01*
X004805Y003743D01*
X004454Y004093D01*
X004368Y004093D01*
X004844Y004185D02*
X004949Y004185D01*
X004949Y004344D02*
X004844Y004344D01*
X004829Y004502D02*
X004771Y004502D01*
X004771Y004661D02*
X004007Y004661D01*
X004047Y004819D02*
X004771Y004819D01*
X004771Y004978D02*
X004047Y004978D01*
X004047Y005136D02*
X004771Y005136D01*
X004771Y005295D02*
X004047Y005295D01*
X004028Y005453D02*
X004771Y005453D01*
X004798Y005612D02*
X004047Y005612D01*
X004047Y005770D02*
X004790Y005770D01*
X004790Y005929D02*
X004047Y005929D01*
X003198Y006404D02*
X001602Y006404D01*
X001760Y006246D02*
X003024Y006246D01*
X002938Y006087D02*
X001919Y006087D01*
X002077Y005929D02*
X002938Y005929D01*
X003198Y006563D02*
X002463Y006563D01*
X002758Y006721D02*
X003198Y006721D01*
X003198Y006880D02*
X002916Y006880D01*
X003003Y007038D02*
X003172Y007038D01*
X003072Y007197D02*
X003068Y007197D01*
X003518Y007367D02*
X003518Y008143D01*
X004118Y008742D01*
X004533Y008465D02*
X006193Y008465D01*
X006351Y008306D02*
X004344Y008306D01*
X006484Y008148D02*
X006510Y008148D01*
X006607Y007989D02*
X006668Y007989D01*
X006530Y007197D02*
X006889Y007197D01*
X006867Y007038D02*
X006530Y007038D01*
X006530Y006880D02*
X006759Y006880D01*
X006649Y006721D02*
X006530Y006721D01*
X006484Y006563D02*
X006610Y006563D01*
X006463Y006404D02*
X006459Y006404D01*
X006743Y006243D02*
X007055Y006555D01*
X006743Y006243D02*
X006743Y005868D01*
X006893Y005717D01*
X007240Y005717D01*
X006704Y005453D02*
X006589Y005453D01*
X006589Y005295D02*
X006770Y005295D01*
X006750Y005136D02*
X006589Y005136D01*
X006589Y004978D02*
X006750Y004978D01*
X006743Y004868D02*
X006805Y004805D01*
X006805Y004805D01*
X006837Y004773D01*
X007240Y004773D01*
X007240Y005087D02*
X007800Y005087D01*
X008430Y004458D01*
X009292Y004502D02*
X009382Y004502D01*
X009531Y004661D02*
X010130Y004661D01*
X010130Y004502D02*
X009978Y004502D01*
X010130Y005295D02*
X009733Y005295D01*
X009976Y005453D02*
X010130Y005453D01*
X010130Y005612D02*
X010059Y005612D01*
X010076Y005770D02*
X010130Y005770D01*
X010130Y005929D02*
X010036Y005929D01*
X010130Y006087D02*
X009921Y006087D01*
X010382Y006404D02*
X010826Y006404D01*
X010777Y006563D02*
X010382Y006563D01*
X010382Y006721D02*
X010750Y006721D01*
X008143Y006620D02*
X008143Y007092D01*
X007993Y007243D01*
X007493Y007243D01*
X007305Y007055D01*
X007828Y006620D02*
X007828Y006032D01*
X007930Y005930D01*
X006546Y005612D02*
X006484Y005612D01*
X006589Y004819D02*
X006809Y004819D01*
X006769Y004661D02*
X006589Y004661D01*
X003631Y004027D02*
X003555Y004027D01*
X003555Y003868D02*
X003631Y003868D01*
X002774Y004774D02*
X002992Y004993D01*
X003555Y004993D01*
X001897Y006563D02*
X001443Y006563D01*
X001285Y006721D02*
X001602Y006721D01*
X001444Y006880D02*
X001210Y006880D01*
X001210Y007038D02*
X001357Y007038D01*
X001292Y007197D02*
X001210Y007197D01*
X001210Y007355D02*
X001270Y007355D01*
X001270Y007514D02*
X001210Y007514D01*
X001210Y007672D02*
X001295Y007672D01*
X001361Y007831D02*
X001210Y007831D01*
X001210Y007989D02*
X001452Y007989D01*
X001293Y008148D02*
X001611Y008148D01*
X001452Y008306D02*
X001917Y008306D01*
X005430Y011930D02*
X006180Y012680D01*
X006180Y013180D01*
X006759Y013759D01*
X006759Y014229D01*
X006759Y015259D02*
X005430Y013930D01*
X004180Y013336D02*
X004180Y015930D01*
X005144Y016894D01*
X005270Y016894D01*
X005164Y016390D02*
X005092Y016390D01*
X004994Y016231D02*
X004934Y016231D01*
X004919Y016073D02*
X004775Y016073D01*
X005696Y016390D02*
X006992Y016390D01*
X006760Y015805D02*
X006759Y015804D01*
X006759Y015259D01*
X010320Y017499D02*
X013046Y017499D01*
X013034Y017658D02*
X013205Y017658D01*
X012326Y017658D02*
X011819Y017658D01*
X011689Y017658D02*
X011671Y017658D01*
X011541Y017658D02*
X011034Y017658D01*
X011193Y017816D02*
X011280Y017816D01*
X011671Y017816D02*
X011689Y017816D01*
X011689Y017975D02*
X011671Y017975D01*
X011671Y018133D02*
X011689Y018133D01*
X012080Y017816D02*
X012167Y017816D01*
X010680Y018180D02*
X009554Y018180D01*
X010049Y017816D02*
X010167Y017816D01*
X010256Y017658D02*
X010326Y017658D01*
X006232Y018609D02*
X004210Y018609D01*
X004210Y018450D02*
X006121Y018450D01*
X006060Y018292D02*
X004210Y018292D01*
X004210Y018133D02*
X006060Y018133D01*
X006022Y017975D02*
X005741Y017975D01*
X005745Y017816D02*
X005863Y017816D01*
X005318Y017816D02*
X005222Y017816D01*
X005222Y017975D02*
X005318Y017975D01*
X004799Y017975D02*
X004210Y017975D01*
X013662Y009257D02*
X013856Y009257D01*
X017805Y009987D02*
X017903Y009889D01*
X017805Y008373D02*
X017805Y008305D01*
X017743Y008242D01*
X014549Y004502D02*
X013311Y004502D01*
X013469Y004344D02*
X014391Y004344D01*
X014262Y004185D02*
X013628Y004185D01*
X013786Y004027D02*
X014235Y004027D01*
X014235Y003868D02*
X013912Y003868D01*
X013617Y003743D02*
X013118Y004242D01*
X012555Y004242D01*
X012313Y003868D02*
X012191Y003868D01*
X012662Y003341D02*
X011519Y003341D01*
X011180Y003680D01*
X012662Y003341D02*
X012680Y003324D01*
X013555Y003386D02*
X013617Y003324D01*
X013617Y003743D01*
X013617Y003324D02*
X013618Y003324D01*
X014555Y003304D02*
X014555Y004055D01*
X009431Y001808D02*
X009429Y001808D01*
X008431Y001808D02*
X008316Y001808D01*
X007948Y001808D02*
X007912Y001808D01*
X007912Y001649D02*
X007948Y001649D01*
X007948Y001491D02*
X007912Y001491D01*
X007393Y001491D02*
X006668Y001491D01*
X006533Y001332D02*
X007399Y001332D01*
X007103Y001649D02*
X007007Y001649D01*
X007007Y001808D02*
X007103Y001808D01*
X007103Y001966D02*
X007007Y001966D01*
X006118Y001806D02*
X006118Y001243D01*
X005569Y002125D02*
X004210Y002125D01*
D40*
X013555Y002305D02*
X013930Y001930D01*
X014430Y001930D01*
X015430Y000930D01*
X022930Y000930D01*
X024430Y002430D01*
X016324Y005805D02*
X016304Y005825D01*
X016304Y006930D01*
X013617Y002536D02*
X013555Y002492D01*
X013555Y002305D01*
X020680Y014430D02*
X020430Y014680D01*
X020430Y015306D01*
X007940Y015017D02*
X007930Y015007D01*
D41*
X015305Y010305D03*
X018555Y007805D03*
X019680Y006930D03*
X020180Y011680D03*
X009618Y005743D03*
X008680Y005430D03*
X008430Y004458D03*
X010430Y002180D03*
X014180Y001180D03*
D42*
X011930Y002680D03*
X012555Y004242D03*
X012305Y005305D03*
X011305Y005555D03*
X009930Y004743D03*
X009180Y004930D03*
X009680Y004180D03*
X008430Y002430D03*
X005180Y002180D03*
X004430Y005180D03*
X007055Y006555D03*
X007305Y007055D03*
X007930Y005930D03*
X010305Y007805D03*
X012179Y007804D03*
X007930Y009430D03*
X010180Y010868D03*
X010618Y011555D03*
X009618Y011993D03*
X008680Y012118D03*
X007930Y012680D03*
X007930Y014305D03*
X008805Y014805D03*
X007430Y015493D03*
X007430Y016399D03*
X010305Y015305D03*
X010867Y014930D03*
X011867Y013555D03*
X011430Y012680D03*
X013430Y011180D03*
X005680Y010055D03*
X004180Y013336D03*
X004680Y014430D03*
X011680Y016930D03*
D43*
X011805Y014430D02*
X013363Y014430D01*
D44*
X018680Y010930D02*
X019242Y010368D01*
X019242Y009889D01*
X018534Y009889D01*
X018435Y009987D01*
X017805Y009987D01*
X019221Y008471D02*
X018555Y007805D01*
X017743Y008242D02*
X017680Y008242D01*
X017368Y007930D01*
X015430Y007930D01*
X014305Y007568D02*
X014305Y008761D01*
X014297Y008752D01*
X013153Y008752D01*
X012253Y008752D02*
X012253Y009420D01*
X011902Y009771D01*
X010180Y009771D01*
X014305Y010099D02*
X015099Y010099D01*
X015305Y010305D01*
X019221Y008471D02*
X019242Y008471D01*
X020389Y008471D01*
X020930Y007930D01*
X019680Y006930D02*
X018919Y006930D01*
X017816Y006930D02*
X016304Y006930D01*
X014305Y007568D02*
X013430Y006693D01*
X024419Y012430D02*
X024430Y012441D01*
X021930Y014430D02*
X020680Y014430D01*
D45*
X008430Y014165D02*
X008430Y015305D01*
X003492Y005056D02*
X003492Y005055D01*
X003555Y004993D01*
D46*
X027180Y012805D02*
X027180Y014555D01*
D47*
X021930Y016930D02*
X020430Y016930D01*
X019680Y016930D01*
X018680Y017930D01*
D48*
X020430Y016930D02*
X020430Y016054D01*
X021930Y014430D02*
X023930Y014430D01*
X024430Y013930D01*
X024430Y012441D01*
X024419Y012430D02*
X024419Y009941D01*
X024930Y009430D01*
X024930Y008180D01*
D49*
X020899Y012399D02*
X020180Y011680D01*
X020899Y012399D02*
X021098Y012399D01*
X021129Y012430D01*
X022231Y012430D02*
X023316Y012430D01*
D50*
X024930Y007930D02*
X023180Y006180D01*
X022430Y006180D01*
X024430Y004180D02*
X024430Y002430D01*
X027930Y006180D02*
X027930Y007930D01*
D51*
X024930Y007930D02*
X024930Y007680D01*
X024930Y007930D02*
X024930Y008180D01*
M02*
